<?xml version="1.0" encoding="UTF-8" standalone="no"?>
<!-- Created with Inkscape (http://www.inkscape.org/) -->

<svg
   xmlns:dc="http://purl.org/dc/elements/1.1/"
   xmlns:cc="http://creativecommons.org/ns#"
   xmlns:rdf="http://www.w3.org/1999/02/22-rdf-syntax-ns#"
   xmlns:svg="http://www.w3.org/2000/svg"
   xmlns="http://www.w3.org/2000/svg"
   xmlns:sodipodi="http://sodipodi.sourceforge.net/DTD/sodipodi-0.dtd"
   xmlns:inkscape="http://www.inkscape.org/namespaces/inkscape"
   version="1.1"
   id="svg3888"
   width="20mm"
   height="20mm"
   viewBox="0 0 75.590554 75.590554"
   sodipodi:docname="ANGEL.svg"
   inkscape:version="0.92.3 (2405546, 2018-03-11)">
  <metadata
     id="metadata3894">
    <rdf:RDF>
      <cc:Work
         rdf:about="">
        <dc:format>image/svg+xml</dc:format>
        <dc:type
           rdf:resource="http://purl.org/dc/dcmitype/StillImage" />
        <dc:title></dc:title>
      </cc:Work>
    </rdf:RDF>
  </metadata>
  <defs
     id="defs3892" />
  <sodipodi:namedview
     pagecolor="#ffffff"
     bordercolor="#666666"
     borderopacity="1"
     objecttolerance="10"
     gridtolerance="10"
     guidetolerance="10"
     inkscape:pageopacity="0"
     inkscape:pageshadow="2"
     inkscape:window-width="1920"
     inkscape:window-height="1001"
     id="namedview3890"
     showgrid="false"
     inkscape:document-units="mm"
     units="mm"
     inkscape:zoom="2.8055556"
     inkscape:cx="144"
     inkscape:cy="144"
     inkscape:window-x="-9"
     inkscape:window-y="-9"
     inkscape:window-maximized="1"
     inkscape:current-layer="svg3888" />
  <path
     style="fill:#000000;stroke-width:0.20667803"
     d="m 15.967115,69.609581 c 0.29901,-1.654283 1.4792,-4.578549 3.62998,-8.994387 1.24806,-2.562419 2.41485,-5.036795 2.59287,-5.498613 l 0.32367,-0.839672 -0.52566,0.634455 c -2.43959,2.944478 -4.26473,5.053033 -4.5635,5.272151 -0.19666,0.144227 -1.63344,1.518377 -3.19284,3.053668 -2.58769,2.54767 -3.58783,3.321846 -4.07276,3.152594 -0.2198603,-0.07673 2.44432,-5.098754 5.58442,-10.52673 2.65091,-4.582377 5.20477,-9.324477 5.0877,-9.447051 -0.0419,-0.04386 -0.79357,0.712814 -1.67041,1.681499 -3.22968,3.567972 -10.9955003,10.575754 -11.3307403,10.224733 -0.34751,-0.363864 1.36197,-3.234246 5.1171903,-8.59225 3.30687,-4.718273 4.75079,-6.939715 5.95119,-9.155735 0.85475,-1.577933 0.7988,-1.587359 -0.82694,-0.139309 -1.50968,1.344675 -5.52715,4.177487 -6.76634,4.771102 -1.11446,0.533869 -2.7823703,0.98288 -2.6866903,0.723273 0.0335,-0.09096 1.8132303,-2.186545 3.9549003,-4.656858 2.14167,-2.470314 4.6259,-5.408477 5.52052,-6.529253 l 1.62658,-2.037773 -0.63409,-0.06717 c -1.11072,-0.117671 -0.95641,-0.566571 0.93185,-2.710842 3.67567,-4.173995 6.3886,-7.710735 13.48316,-17.577429 2.19547,-3.0533164 4.03302,-5.5514844 4.08346,-5.5514844 0.47017,0 1.55939,0.754757 2.21545,1.535158 2.38355,2.8352794 3.60261,7.7554654 3.12613,12.6171824 -0.22354,2.280793 -0.79572,5.244852 -1.30971,6.784688 l -0.31768,0.951683 0.75752,-0.862666 c 4.54761,-5.178881 4.50945,-5.12778 5.71755,-7.655479 1.81604,-3.799661 4.44921,-6.974281 7.60974,-9.174516 1.24056,-0.863633 1.95375,-1.0218824 2.15316,-0.477764 0.35706,0.974264 0.10199,3.662359 -0.60714,6.398422 l -0.731,2.82047 0.63066,0.880519 c 1.20327,1.679994 2.64286,4.240668 3.26796,5.812866 l 0.62834,1.580385 -0.54954,1.50205 c -1.20009,3.280166 -2.11028,6.183977 -2.11146,6.736307 -0.001,0.481232 0.0867,0.581584 0.50869,0.581584 1.07026,0 1.02186,1.154518 -0.21283,5.077449 -0.63442,2.015718 -1.09891,4.302672 -1.09493,5.391065 0.004,1.129711 0.71693,3.318826 0.90984,2.794203 0.0765,-0.207938 -0.015,-0.800486 -0.20336,-1.31677 -0.40866,-1.120431 -0.30342,-1.37169 0.57454,-1.37169 0.88085,0 0.94905,-0.113735 0.59707,-0.995776 -0.19947,-0.499875 -0.25414,-1.040433 -0.16401,-1.621761 0.12957,-0.835736 1.36914,-4.073961 1.69359,-4.424313 0.0859,-0.09272 0.18734,0.62104 0.22551,1.586138 0.1431,3.618731 0.12047,3.901763 -0.36715,4.592199 -0.43362,0.613958 -0.43801,0.652028 -0.0752,0.652028 0.70236,0 0.93433,0.553405 0.71082,1.695825 l -0.20165,1.030698 1.16147,0.545763 c 1.15188,0.541262 1.16347,0.555741 1.40571,1.756143 0.52673,2.61024 0.0116,10.829206 -0.73272,11.690363 -0.76928,0.890054 -2.37669,0.35398 -5.75131,-1.918079 -1.27489,-0.858353 -2.48683,-1.565648 -2.69319,-1.571768 -0.28087,-0.0083 -0.51368,0.361092 -0.92595,1.469272 -0.83622,2.247727 -1.51744,3.520817 -2.31064,4.318158 l -0.71915,0.722913 -2.09675,-0.357718 c -1.15321,-0.196749 -3.99617,-0.881758 -6.31769,-1.522245 -5.86058,-1.616882 -8.69217,-2.203855 -11.36407,-2.355707 l -2.29561,-0.13047 -0.30549,-0.760437 c -0.25128,-0.62548 -0.28101,-1.360972 -0.16749,-4.144201 l 0.138,-3.383762 -1.02784,1.797623 c -1.83413,3.207782 -5.81101,8.397546 -9.88561,12.900594 l -1.24386,1.374653 z m 5.15582,-6.266941 c 3.45357,-4.425354 6.15151,-9.520314 6.54453,-12.359086 0.12766,-0.9221 0.17792,-1.676546 0.11169,-1.676546 -0.0662,0 -0.41753,0.520101 -0.78066,1.155781 -0.73925,1.294111 -1.65972,2.505991 -1.79545,2.363873 -0.0491,-0.0514 0.38029,-0.965592 0.95418,-2.031539 1.76171,-3.272208 4.01699,-8.554246 3.76506,-8.818033 -0.28669,-0.300184 -4.80558,8.325647 -7.65675,14.615492 -1.21535,2.681152 -2.88226,6.34993 -3.70424,8.152841 l -1.4945,3.27802 1.43079,-1.575059 c 0.78694,-0.866281 1.96835,-2.263866 2.62535,-3.105744 z m 30.43152,1.032684 c 0.85601,-1.737689 1.78024,-4.228616 1.6281,-4.387919 -0.05,-0.05237 -0.48458,0.925383 -0.9657,2.172786 -0.48112,1.247402 -1.00563,2.490146 -1.16557,2.761653 -0.27858,0.472893 -0.30722,0.478098 -0.68113,0.123793 -0.61361,-0.581441 -1.19392,-2.873231 -1.19392,-4.715057 0,-1.803366 0.5306,-4.120056 1.3147,-5.740223 0.58791,-1.214796 0.88239,-1.45286 1.21246,-0.980214 0.32724,0.468577 0.70452,0.443118 0.70452,-0.04754 0,-0.883101 -0.40399,-0.931829 -3.77708,-0.455575 -1.75518,0.247818 -4.5546,0.499264 -6.22094,0.558767 -1.66634,0.0595 -3.2309,0.150914 -3.47682,0.203136 -0.26406,0.05608 -0.6669,0.487627 -0.98394,1.054086 -0.29526,0.527524 -0.58225,0.911583 -0.63775,0.853465 -0.0555,-0.05812 0.18276,-0.631985 0.52949,-1.275259 0.34672,-0.643277 0.63041,-1.211998 0.63041,-1.263829 0,-0.05183 -0.20451,-0.12465 -0.45446,-0.161818 -0.3623,-0.05388 -0.44278,-0.184743 -0.39688,-0.64537 0.0444,-0.44575 -0.0133,-0.549322 -0.25248,-0.453215 -0.17052,0.06852 -0.46,0.06433 -0.64327,-0.0093 -0.29907,-0.120164 -0.29114,-0.182102 0.0774,-0.604211 0.51828,-0.593679 0.91105,-1.424812 1.3716,-2.902401 0.47191,-1.514018 2.40498,-5.822254 2.69727,-6.011402 0.32824,-0.212407 0.28067,0.141991 -0.18513,1.379368 -0.5965,1.584537 -0.40009,1.679581 0.54806,0.265198 0.87728,-1.30867 1.68149,-2.184921 1.68149,-1.832119 0,0.303815 -0.66084,2.206752 -1.51311,4.357091 -0.40526,1.022518 -0.70778,1.946763 -0.67226,2.053874 0.0355,0.107112 0.52311,-0.179941 1.08354,-0.637893 1.8759,-1.532882 2.80414,-0.968804 1.41561,0.860244 -1.15093,1.516077 -0.85419,1.998659 0.77842,1.26591 1.05152,-0.471946 2.03918,-0.560893 2.25061,-0.20269 0.0742,0.125768 -0.10345,0.489248 -0.39486,0.807732 -0.62178,0.679539 -0.5195,0.868019 0.46888,0.864077 1.03267,-0.0041 1.63267,-0.21048 1.63267,-0.561527 0,-0.166978 -0.64351,-1.015473 -1.43002,-1.885546 -1.55412,-1.719222 -2.51137,-3.564857 -3.11367,-6.003331 -0.48737,-1.973123 -0.35757,-5.266486 0.25862,-6.562154 0.24893,-0.523425 0.41132,-0.791897 0.36088,-0.596601 -0.0505,0.195293 -0.1517,0.718719 -0.22501,1.163168 -0.12289,0.745068 -0.11036,0.775101 0.16064,0.385116 0.16165,-0.232633 0.39874,-0.708475 0.52686,-1.057425 0.21809,-0.593984 0.22578,-0.573747 0.12049,0.317227 -0.0619,0.523426 -0.3015,1.604079 -0.53255,2.401454 -0.60128,2.075158 -0.44202,3.466102 0.66525,5.809812 l 0.86659,1.834278 0.14427,-3.560045 c 0.15355,-3.788979 0.37983,-4.993048 0.37983,-2.021147 0,4.313282 0.7354,7.055616 2.33493,8.707021 1.44259,1.489384 2.01468,1.282651 3.42172,-1.236503 0.42226,-0.756013 0.86345,-1.341165 0.98043,-1.300337 0.11697,0.04082 0.28928,0.383773 0.38291,0.762105 0.12466,0.50372 0.35523,0.768806 0.86121,0.990169 1.15655,0.505977 1.2044,0.348431 0.22664,-0.746073 -0.79454,-0.889396 -0.93655,-1.178014 -0.93655,-1.903366 0,-0.47025 -0.0739,-0.855 -0.16419,-0.855 -0.32288,0 -1.21568,1.183102 -1.75551,2.326336 -0.7018,1.486229 -1.45571,2.537822 -1.81943,2.537822 -0.58172,0 -1.21471,-4.088998 -1.03175,-6.664946 0.45043,-6.341843 4.30019,-12.634012 9.36593,-15.30796 l 0.85841,-0.453116 v 0.529834 c 0,0.29141 -0.27626,0.999948 -0.61391,1.57453 -1.95002,3.31832 -2.83795,7.790438 -2.79612,14.082846 l 0.0225,3.383762 0.27735,-2.960791 c 0.55538,-5.92876 2.00196,-12.219225 3.4216,-14.878754 0.61975,-1.161051 0.61785,-1.343922 -0.0338,-3.243493 -0.85359,-2.488165 -1.85641,-4.385244 -2.96954,-5.617599 -1.14947,-1.272594 -1.70599,-1.636213 -2.95338,-1.92967 -0.83266,-0.195892 -0.85823,-0.183637 -2.84167,1.361946 -3.77737,2.943512 -7.82976,7.415791 -11.25511,12.421314 l -1.46289,2.137753 0.95794,0.886687 c 0.52687,0.487679 0.88942,0.960507 0.80566,1.05073 -0.0837,0.09022 -0.35643,-0.03064 -0.60594,-0.268584 -0.51165,-0.487925 -1.22946,-0.908449 -1.55066,-0.908449 -0.11806,0 -0.90884,0.68997 -1.7573,1.533267 -3.39323,3.372603 -5.57105,8.067917 -6.45866,13.92466 -0.16909,1.115743 -0.27879,2.448099 -0.24377,2.960792 l 0.0637,0.932171 0.37829,-1.163168 c 0.20806,-0.639743 0.4634,-1.258337 0.56741,-1.374653 0.12165,-0.136038 0.15324,-0.09832 0.0885,0.105742 -1.69109,5.333655 -1.97278,7.105611 -1.36806,8.605734 0.29978,0.743662 0.48802,0.813626 2.75758,1.024942 0.77762,0.0724 1.57292,0.17799 1.76733,0.234636 0.1944,0.05665 0.35346,0.01199 0.35346,-0.09921 0,-0.11121 -0.31812,-0.264689 -0.70693,-0.341062 -1.20973,-0.237629 -0.774,-0.482267 0.52713,-0.295951 1.6436,0.235354 3.10078,0.632174 6.84515,1.864081 5.62,1.848993 7.37635,2.27536 9.52106,2.311304 l 1.13887,0.0191 0.8074,-1.639009 z m -6.28581,-2.533554 c -0.18758,-2.079645 -0.16085,-3.968423 0.065,-4.590302 0.21753,-0.59908 0.0422,-0.691417 -0.61422,-0.323555 -0.69021,0.38677 -0.4192,-0.09879 0.66971,-1.199939 1.3276,-1.342514 1.93419,-1.768293 2.5192,-1.768293 0.61218,0 0.58658,0.09306 -0.27321,0.993314 -1.25541,1.314479 -1.73734,2.740758 -1.89503,5.608364 -0.0755,1.373699 -0.18346,2.545913 -0.23981,2.604919 -0.0563,0.05901 -0.16058,-0.537022 -0.23161,-1.324508 z m -13.67375,-3.942036 c 0.76851,-2.338842 1.2725,-2.956831 2.78742,-3.417955 1.27769,-0.388915 1.5845,-0.285021 0.65098,0.220443 -1.03652,0.561229 -2.41574,2.013189 -2.93862,3.093605 -0.68168,1.408529 -0.94656,1.463597 -0.49978,0.103907 z m 2.93642,-0.772232 c -0.21183,-0.698846 0.24765,-1.57118 1.33176,-2.528328 0.5458,-0.481886 0.99237,-0.823128 0.99237,-0.758314 0,0.06481 -0.31088,0.570928 -0.69085,1.124697 -0.37996,0.55377 -0.75244,1.26385 -0.82773,1.577954 -0.20079,0.83764 -0.63356,1.151382 -0.80555,0.583991 z m -4.13924,-1.044956 c 0,-0.570348 1.13362,-2.33435 1.50015,-2.33435 0.14787,0 0.77278,-0.241563 1.38869,-0.536804 0.75328,-0.361092 1.28973,-0.49216 1.63886,-0.400412 0.54829,0.144089 0.52505,0.514246 -0.0323,0.514246 -0.64929,0 -2.12737,0.922265 -3.3002,2.059199 -1.02357,0.992246 -1.19522,1.092502 -1.19522,0.698121 z m 9.88073,-14.217907 c -0.009,-0.03594 -0.0512,-1.135997 -0.0939,-2.444561 -0.0615,-1.885481 -0.0215,-2.379208 0.19246,-2.379208 0.16091,0 0.32474,0.35803 0.40534,0.88582 0.15832,1.036673 -0.0574,3.724918 -0.31217,3.88977 -0.0965,0.06244 -0.18278,0.08412 -0.19174,0.04818 z m 7.38726,-4.189314 c 0.52176,-2.629595 2.3962,-6.125119 4.61898,-8.613605 1.39588,-1.562742 1.14347,-1.648213 -0.93459,-0.316477 -2.29966,1.473745 -1.35867,-0.0581 1.08132,-1.7603 0.7319,-0.510593 1.50448,-0.994986 1.71683,-1.076429 0.38009,-0.145771 0.38009,-0.140911 2e-4,0.31205 -0.45693,0.544836 -0.44737,0.558259 0.57235,0.803699 1.04529,0.251596 1.12269,0.618849 0.21421,1.016301 -0.406,0.177622 -1.52571,1.162066 -2.48824,2.187653 -1.87215,1.994806 -3.40672,4.427175 -4.1511,6.579692 -0.51073,1.476895 -0.84117,1.93188 -0.62996,0.867416 z m -8.0274,-2.183273 c -0.30549,-0.261899 -0.55544,-0.591016 -0.55544,-0.731375 0,-0.34479 3.21546,-4.910302 3.4583,-4.910302 0.10582,0 -0.16177,0.547218 -0.59462,1.21604 -1.23325,1.905517 -1.71561,3.034069 -1.71745,4.018218 -0.001,0.494346 -0.009,0.89539 -0.0185,0.891206 -0.009,-0.0042 -0.26678,-0.221888 -0.57227,-0.483787 z m 7.52428,-5.153353 c 2.1e-4,-0.0941 0.31841,-0.723081 0.70694,-1.397727 0.38852,-0.674646 0.70641,-1.273933 0.70641,-1.331748 0,-0.05781 -0.35685,0.195148 -0.793,0.562139 -0.43614,0.36699 -0.91332,0.61921 -1.06039,0.560489 -0.29703,-0.118595 3.29528,-3.95712 3.7033,-3.95712 0.13217,0 0.0268,0.237921 -0.23407,0.528713 -0.67439,0.751634 -0.12284,0.706485 1.43623,-0.117568 1.62817,-0.860573 1.91869,-0.692793 0.56426,0.325874 -2.34249,1.761807 -3.86096,3.174094 -4.23241,3.936454 -0.37489,0.769429 -0.79833,1.242386 -0.79727,0.890494 z m -33.76582,32.878162 c 4.21974,-3.58686 8.72741,-9.175189 12.15823,-15.073021 2.15723,-3.70843 7.05584,-13.720354 6.82919,-13.957677 -0.0452,-0.04729 -0.85144,0.811634 -1.79172,1.908726 -0.94028,1.097091 -1.7793,1.996669 -1.86449,1.999061 -0.19353,0.0054 0.62285,-1.694254 1.69348,-3.525766 0.59633,-1.020143 0.71499,-1.34793 0.44516,-1.229687 -1.7449,0.76462 -2.31282,0.929327 -2.69455,0.781469 l -0.423,-0.163839 0.43007,-0.57248 c 0.578,-0.769377 0.35993,-0.720697 -0.75129,0.167718 -1.7854,1.427404 -1.73661,0.78303 0.0917,-1.21053 1.06188,-1.157894 1.2517,-1.452814 0.85841,-1.333701 -0.96801,0.293175 -3.27121,1.850486 -4.18291,2.828277 -0.50507,0.541675 -2.52564,3.55441 -4.49016,6.694964 -1.96453,3.140554 -5.02608,7.89897 -6.80346,10.574257 -3.9187503,5.898447 -3.7692503,5.637119 -2.79249,4.881426 2.0783,-1.60793 3.67755,-3.113303 6.68773,-6.29516 4.85089,-5.127565 5.45741,-5.94232 7.8135,-10.496261 2.66506,-5.151127 3.15708,-5.254209 0.69045,-0.144658 -3.0457,6.309079 -8.479,16.52164 -11.92655,22.417424 -0.88421,1.512119 -1.6474,2.820683 -1.69598,2.907921 -0.22411,0.40246 0.29022,0.05579 1.71872,-1.158463 z m 48.57842,0.34916 c 0.25416,-0.102122 0.20846,-0.332565 -0.28072,-1.415629 -0.32137,-0.711507 -0.69145,-1.794927 -0.82239,-2.407597 l -0.23809,-1.113945 -0.62606,0.451977 c -0.34433,0.248588 -0.659,0.47764 -0.69927,0.509003 -0.0403,0.03137 0.0734,0.507395 0.25248,1.057844 0.41992,1.290389 0.41731,1.300814 -0.17874,0.714496 -0.27744,-0.272904 -0.61382,-0.812919 -0.74751,-1.200032 -0.22719,-0.657837 -0.30313,-0.703632 -1.16191,-0.700606 -2.23453,0.0079 -1.71635,0.915179 1.79971,3.151235 1.65098,1.049951 2.08277,1.202257 2.7025,0.953254 z m 1.25038,-3.696417 c 0.0773,-0.929332 0.0461,-1.791119 -0.0762,-2.103191 -0.16489,-0.420667 -0.21042,-0.139751 -0.2228,1.374654 -0.009,1.046851 -0.066,2.141287 -0.12769,2.432079 -0.0865,0.40791 -0.0656,0.453568 0.0918,0.199824 0.11214,-0.18089 0.26286,-1.037405 0.33493,-1.903366 z m -6.0378,-1.452341 c 0.80602,-0.383226 2.5887,-1.894323 2.43036,-2.06011 -0.0426,-0.04457 -0.4767,0.157968 -0.96474,0.450082 -0.48805,0.292112 -0.96089,0.53226 -1.05076,0.53366 -0.35805,0.0056 0.1191,-0.413542 1.19373,-1.048565 1.24419,-0.735226 1.36863,-1.040729 0.21906,-0.537802 -1.22377,0.535383 -1.49284,0.362088 -0.48101,-0.309794 1.15042,-0.763906 1.22511,-1.082872 0.1967,-0.840013 -1.27414,0.300891 -1.14427,-0.265318 0.1543,-0.672685 1.45538,-0.456565 0.90046,-0.81341 -1.28738,-0.827853 l -1.44784,-0.0096 0.88897,-0.486904 c 0.53298,-0.291919 0.79723,-0.546273 0.65987,-0.635158 -0.42529,-0.275214 -1.74497,0.133892 -2.68612,0.83271 -1.30829,0.971415 -2.0891,1.36589 -2.70359,1.36589 -0.85933,0 -1.23111,0.341462 -1.70618,1.567052 -0.46586,1.201809 -0.42692,1.603178 0.156,1.608122 0.18785,0.0017 1.34135,0.326239 2.56333,0.721435 2.63008,0.850579 2.78241,0.864353 3.8653,0.349488 z m 2.38166,-0.348728 c 0.17457,-0.182783 0.3174,-0.52807 0.3174,-0.767302 0,-0.420989 -0.0207,-0.41822 -0.6454,0.08617 -0.35496,0.286624 -0.68066,0.631909 -0.72376,0.767302 -0.11597,0.364283 0.68416,0.298733 1.05176,-0.08617 z m 3.65912,-2.723694 c 0.0727,-0.507624 0.055,-1.52658 -0.0394,-2.264352 -0.14545,-1.136961 -0.23691,-1.351158 -0.60009,-1.405419 -0.36071,-0.05389 -0.41289,0.02136 -0.32992,0.475842 0.0799,0.437563 0.0197,0.539858 -0.31768,0.539858 -0.54438,0 -1.72229,1.04086 -1.18909,1.050743 0.19832,0.0037 0.58014,-0.14395 0.84849,-0.328054 0.26835,-0.184106 0.65144,-0.297889 0.85131,-0.252853 0.25805,0.05815 0.073,0.239449 -0.6384,0.625414 l -1.00179,0.543527 0.64379,0.148055 c 0.35408,0.08143 0.82761,0.08696 1.05228,0.01231 0.22468,-0.07467 0.4085,-0.04794 0.4085,0.05939 0,0.107327 -0.47663,0.328562 -1.05918,0.491629 l -1.05918,0.29649 0.80671,0.522751 0.8067,0.522749 -1.0099,0.120388 c -0.8198,0.09773 -0.91485,0.147128 -0.50495,0.262446 1.60159,0.450578 2.10799,0.142002 2.33183,-1.420903 z m -3.05628,-3.235655 c 0.0711,-0.552505 0.18099,-1.365521 0.24413,-1.806703 0.10988,-0.767741 0.0935,-0.79655 -0.38199,-0.671594 -0.34871,0.09164 -0.53317,0.03131 -0.61882,-0.202406 -0.23476,-0.640567 -0.48773,-0.323744 -0.62068,0.777337 -0.0737,0.610663 -0.18359,1.403648 -0.24413,1.762187 -0.0999,0.591361 -0.0476,0.672812 0.56249,0.877221 0.36991,0.123933 0.73042,0.235047 0.80112,0.246922 0.0707,0.01188 0.18675,-0.430459 0.25788,-0.982964 z m -6.24001,-0.833063 0.35952,-0.985675 -0.58565,-0.490599 c -0.3221,-0.269832 -0.6596,-0.465291 -0.75,-0.434357 -0.0904,0.03094 -0.43527,0.547558 -0.76638,1.148053 l -0.60202,1.091807 0.75338,0.536026 c 0.89186,0.634555 1.08178,0.531276 1.59115,-0.865255 z m 7.77239,0.298909 c 0,-0.09243 -0.18178,-0.06619 -0.40396,0.05831 -0.22218,0.124502 -0.40396,0.318994 -0.40396,0.432204 0,0.11402 0.18019,0.08801 0.40396,-0.05831 0.22218,-0.145281 0.40396,-0.339774 0.40396,-0.432204 z m -0.70693,-0.576143 c 0.0687,-0.116317 0.0286,-0.211485 -0.0891,-0.211485 -0.11765,0 -0.2139,0.09517 -0.2139,0.211485 0,0.116317 0.0401,0.211485 0.0891,0.211485 0.049,0 0.14524,-0.09517 0.2139,-0.211485 z m -0.90891,-2.389613 c 0,-0.43118 -0.0801,-0.476459 -0.70693,-0.399831 -0.43271,0.05289 -0.70693,-0.0046 -0.70693,-0.148209 0,-0.129044 -0.14392,-0.234624 -0.31981,-0.234624 -0.58415,0 -0.16497,0.527575 0.4718,0.593808 0.34421,0.0358 0.73463,0.202349 0.8676,0.370099 0.32941,0.415602 0.39427,0.385789 0.39427,-0.181243 z m -2.24797,-7.202367 c 0.55383,-1.866682 0.57186,-2.885643 0.0511,-2.885643 -0.44955,0 -1.14219,1.535044 -1.44366,3.199461 -0.22924,1.265707 -0.25905,4.321211 -0.0567,5.812012 0.13349,0.983397 0.1619,0.894159 0.57976,-1.820978 0.24166,-1.570277 0.63296,-3.50746 0.86954,-4.304852 z m 1.90253,4.516337 c 0.1091,-0.436842 0.54742,-0.596183 0.54742,-0.199004 0,0.123182 0.0909,0.165149 0.20198,0.09326 0.32751,-0.211942 0.15236,-3.066534 -0.18816,-3.066534 -0.29419,0 -1.02372,1.963265 -1.02372,2.754964 0,0.883204 0.28247,1.138084 0.46248,0.417314 z m -48.34953,-1.409432 c 2.67986,-1.629601 4.68092,-3.252276 8.73394,-7.082401 1.41048,-1.332916 3.20063,-3.890493 3.20063,-4.572729 0,-0.134357 0.28209,-0.580686 0.62687,-0.99184 0.79226,-0.944797 0.63598,-0.946929 -0.5396,-0.0074 -0.85814,0.685861 -1.29915,0.899626 -1.29915,0.629731 0,-0.06076 0.37969,-0.541764 0.84375,-1.068901 l 0.84375,-0.958431 -1.60118,0.899649 c -0.88064,0.494807 -1.69206,1.012555 -1.80315,1.150551 -0.11109,0.137996 -1.37784,1.760643 -2.81501,3.605885 -3.32298,4.266529 -4.73186,5.986867 -6.25481,7.637555 -0.67072,0.72698 -1.13922,1.321782 -1.0411,1.321782 0.0981,0 0.5954,-0.25357 1.10506,-0.563491 z m 21.18549,-13.381208 c 2.29195,-1.896938 4.59057,-5.684046 5.72008,-9.424145 0.61477,-2.035695 0.68956,-1.463366 0.11863,0.907854 -0.25783,1.070813 -0.41822,1.946199 -0.35643,1.945303 0.0618,-8.88e-4 0.31957,-0.381569 0.57283,-0.84594 0.80376,-1.473698 1.17725,-0.873479 0.47042,0.755978 -0.2052,0.47305 -0.91816,1.805406 -1.58435,2.960791 -1.31324,2.277561 -2.95558,5.590205 -2.77152,5.590205 0.51306,0 2.77018,-3.030569 4.30424,-5.779164 1.32252,-2.369584 1.81909,-2.838889 1.06706,-1.008462 -0.4921,1.197727 -0.5228,1.373072 -0.20439,1.167022 0.36755,-0.237849 1.3278,-2.632762 1.82441,-4.550195 0.60357,-2.330369 0.66184,-6.958199 0.11397,-9.05104 -0.43364,-1.656497 -1.99855,-4.4672944 -3.03188,-5.4456794 -0.74913,-0.709292 -0.77708,-0.717277 -1.31287,-0.375068 -0.3011,0.19231 -2.2472,2.7412184 -4.32466,5.6642404 -4.37459,6.155116 -7.89908,10.881098 -11.17909,14.99003 -1.27671,1.599356 -2.201,2.90792 -2.05399,2.90792 0.50664,0 3.48036,-1.637793 4.68949,-2.582764 2.3805,-1.860417 4.62587,-3.988951 6.08853,-5.771716 0.81715,-0.995989 1.48573,-1.68659 1.48573,-1.534669 0,0.450238 -1.30762,2.400526 -3.72362,5.553704 -1.24772,1.628436 -2.47178,3.270237 -2.72012,3.648449 l -0.45154,0.687656 0.52661,-0.209636 c 1.46036,-0.581358 3.99463,-1.976904 4.93848,-2.719475 1.5142,-1.191285 2.82311,-2.901199 3.94932,-5.159253 1.31352,-2.633624 1.95741,-3.791436 2.05289,-3.691461 0.18845,0.197324 -0.84804,3.154865 -1.70761,4.872509 -0.5147,1.028487 -1.96053,3.300388 -3.21298,5.048669 -1.25244,1.748282 -2.27717,3.216228 -2.27717,3.262101 0,0.20834 2.04659,-1.033338 2.98953,-1.813764 z m -2.18161,-10.49414 c 0,-0.579339 6.59255,-8.693769 7.45661,-9.177965 0.28292,-0.158538 0.45877,-0.104351 0.74866,0.230696 0.33545,0.387696 0.37889,0.80518 0.37889,3.641313 0,3.40284 -0.28863,4.464272 -0.55419,2.038075 -0.0826,-0.754867 -0.20246,-1.69348 -0.26629,-2.085806 l -0.11605,-0.71332 -1.0205,1.198854 c -0.56127,0.65937 -1.066,1.151207 -1.12162,1.092972 -0.0556,-0.05823 0.14336,-0.542701 0.44218,-1.076591 0.29882,-0.533889 0.51437,-1.055324 0.479,-1.158742 -0.0952,-0.278408 -3.85734,3.308012 -4.82442,4.599107 -0.75323,1.005602 -1.60227,1.753501 -1.60227,1.411407 z m 25.50808,-2.899838 c 0.30994,-0.652928 0.69465,-1.83508 0.85491,-2.627004 0.37254,-1.840889 0.39627,-4.083426 0.0432,-4.083426 -0.28974,0 -1.967,1.172315 -2.87552,2.009831 -0.71184,0.656208 -0.32868,0.481485 0.78773,-0.359216 0.43325,-0.326254 1.00132,-0.593189 1.26238,-0.593189 0.40179,0 0.47393,0.105494 0.47001,0.687327 -0.006,0.834095 -1.04351,4.013941 -1.34441,4.11896 -0.11845,0.04134 -0.27436,-0.142853 -0.34647,-0.409322 -0.12648,-0.467427 -0.15574,-0.454698 -0.83063,0.36145 -0.38474,0.465268 -0.70088,0.946152 -0.70254,1.068632 -0.003,0.253814 1.60875,1.153087 1.91581,1.068645 0.11109,-0.03055 0.45557,-0.589759 0.76551,-1.242688 z"
     id="path3898"
     inkscape:connector-curvature="0" />
</svg>
