<?xml version="1.0" encoding="iso-8859-1"?>
<!-- Generator: Adobe Illustrator 21.0.0, SVG Export Plug-In . SVG Version: 6.00 Build 0)  -->
<svg xmlns="http://www.w3.org/2000/svg" xmlns:xlink="http://www.w3.org/1999/xlink" version="1.1" id="Capa_1" x="100" y="100" style="enable-background:new 0 0 512 512;" xml:space="preserve" width="512" height="512">
<g>
	<path style="fill:#FFC89F;" d="M256.001,34.423c-64.969,0-117.826,52.856-117.826,117.826v36.195c0,2.915,1.689,5.567,4.332,6.798   l110.326,51.405c1.004,0.468,2.086,0.702,3.168,0.702c1.081,0,2.164-0.234,3.167-0.702l110.326-51.405   c2.643-1.231,4.333-3.883,4.333-6.798v-36.195C373.827,87.279,320.97,34.423,256.001,34.423z"/>
	<path style="fill:#464649;" d="M212.351,164.495c-7.661,0-13.894-6.232-13.894-13.893c0-7.661,6.233-13.893,13.894-13.893   c7.661,0,13.894,6.232,13.894,13.893C226.245,158.263,220.012,164.495,212.351,164.495z"/>
	<path style="fill:#464649;" d="M299.651,164.495c-7.661,0-13.893-6.232-13.893-13.893c0-7.661,6.233-13.893,13.893-13.893   c7.661,0,13.894,6.232,13.894,13.893C313.544,158.263,307.312,164.495,299.651,164.495z"/>
	<path style="fill:#F7B081;" d="M256.001,34.423c-5.568,0-11.044,0.397-16.408,1.148c57.23,8.009,101.418,57.276,101.418,116.678   v16.699l-126.851,59.68l38.674,18.02c1.004,0.468,2.086,0.702,3.168,0.702c1.081,0,2.164-0.234,3.167-0.702l110.326-51.405   c2.643-1.231,4.333-3.883,4.333-6.798v-6.847v-29.349C373.827,87.279,320.97,34.423,256.001,34.423z"/>
	<path style="fill:#8CC7EC;" d="M386.701,182.158c-6.517-4.153-14.589-4.683-21.594-1.42l-109.105,50.836l-109.106-50.836   c-7.004-3.263-15.077-2.733-21.594,1.42c-6.518,4.153-10.408,11.247-10.408,18.975v100.808c-0.003,0.109-0.003,0.219,0,0.329   v68.622c0,77.807,63.301,141.108,141.108,141.108s141.108-63.301,141.108-141.108V201.133   C397.109,193.405,393.218,186.312,386.701,182.158z"/>
	<g>
		<path style="fill:#66BAEA;" d="M386.701,182.158c-6.517-4.153-14.589-4.683-21.594-1.42l-10.008,4.663    c4.078,4.152,6.418,9.749,6.418,15.732v169.759c0,71.78-53.875,131.213-123.312,139.99c5.83,0.737,11.769,1.118,17.796,1.118    c77.807,0,141.108-63.301,141.108-141.108V201.133C397.109,193.405,393.218,186.312,386.701,182.158z"/>
	</g>
	<polygon style="fill:#66BAEA;" points="114.893,275.015 114.893,298.629 256.001,231.574 232.064,220.421  "/>
	<path style="fill:#464649;" d="M243.964,50.158c-0.216,0-0.433-0.009-0.65-0.028c-37.227-3.177-47.117-30.758-47.52-31.931   c-1.346-3.917,0.739-8.184,4.657-9.53c3.897-1.338,8.145,0.719,9.51,4.601c0.286,0.779,5.475,14.245,23.431,19.79   c-1.126-7.589-0.859-17.799,4.436-28.81c1.795-3.733,6.277-5.304,10.009-3.508c3.733,1.795,5.304,6.276,3.508,10.009   c-7.299,15.177-1.006,27.921-0.734,28.457c1.281,2.426,1.121,5.331-0.394,7.617C248.823,48.931,246.462,50.158,243.964,50.158z"/>
</g>















</svg>
