<?xml version="1.0" encoding="UTF-8" standalone="no"?>
<!-- Created with Inkscape (http://www.inkscape.org/) -->

<svg
   xmlns:dc="http://purl.org/dc/elements/1.1/"
   xmlns:cc="http://creativecommons.org/ns#"
   xmlns:rdf="http://www.w3.org/1999/02/22-rdf-syntax-ns#"
   xmlns:svg="http://www.w3.org/2000/svg"
   xmlns="http://www.w3.org/2000/svg"
   xmlns:sodipodi="http://sodipodi.sourceforge.net/DTD/sodipodi-0.dtd"
   xmlns:inkscape="http://www.inkscape.org/namespaces/inkscape"
   width="100mm"
   height="100mm"
   viewBox="0 0 100 100"
   version="1.1"
   id="svg8"
   inkscape:version="0.92.4 (unknown)"
   sodipodi:docname="colored_demon.svg">
  <defs
     id="defs2" />
  <sodipodi:namedview
     id="base"
     pagecolor="#ffffff"
     bordercolor="#666666"
     borderopacity="1.0"
     inkscape:pageopacity="0.0"
     inkscape:pageshadow="2"
     inkscape:zoom="1"
     inkscape:cx="15.714286"
     inkscape:cy="280"
     inkscape:document-units="mm"
     inkscape:current-layer="g826"
     showgrid="false"
     inkscape:window-width="1853"
     inkscape:window-height="1023"
     inkscape:window-x="67"
     inkscape:window-y="27"
     inkscape:window-maximized="1" />
  <metadata
     id="metadata5">
    <rdf:RDF>
      <cc:Work
         rdf:about="">
        <dc:format>image/svg+xml</dc:format>
        <dc:type
           rdf:resource="http://purl.org/dc/dcmitype/StillImage" />
        <dc:title></dc:title>
      </cc:Work>
    </rdf:RDF>
  </metadata>
  <g
     inkscape:label="Layer 1"
     inkscape:groupmode="layer"
     id="layer1"
     transform="translate(0,-197)">
    <g
       id="layer1-5"
       transform="translate(0.090849,-1.1377348)">
      <g
         id="g826"
         transform="translate(-1.8520867,-1.5497027)">
        <path
           style="fill:#742c2f;stroke-width:0.20920736"
           d="m 28.655324,295.94184 -0.79346,-0.0814 0.56602,-0.97167 c 0.31131,-0.53442 1.34689,-2.13724 2.30129,-3.56182 0.95439,-1.42458 1.87548,-2.86988 2.04687,-3.21178 0.63332,-1.26344 1.26731,-3.50414 1.29309,-4.57013 l 0.0266,-1.09783 -2.42906,-2.2655 c -2.70178,-2.51987 -4.338,-4.61016 -5.928,-7.57305 -2.00673,-3.73947 -2.87419,-6.48226 -4.63739,-14.66278 -0.79365,-3.68221 -1.63018,-6.96021 -2.11512,-8.28825 -0.76512,-2.09533 -1.24211,-4.12452 -0.96952,-4.12452 0.07,0 0.63434,0.45041 1.25399,1.00091 3.8942,3.45966 7.27725,4.33476 7.86572,2.03465 0.07,-0.27366 0.0907,-3.37644 0.0459,-6.89506 -0.0899,-7.06661 -0.13195,-7.3188 -1.67071,-10.01102 -1.6061,-2.81004 -4.64819,-5.60452 -7.21267,-6.62561 -1.84082,-0.73295 -2.04212,-0.51801 -1.09971,1.17427 0.4282,0.76891 1.13165,1.86425 1.56323,2.43408 1.48687,1.96318 4.40216,6.21818 4.82701,7.04521 0.42541,0.82815 1.31812,3.55303 1.31812,4.0234 0,0.47376 -0.4133,-0.01 -2.8675,-3.3561 -2.42014,-3.2997 -3.10593,-4.07249 -3.62215,-4.08169 -0.38348,-0.007 -0.83353,0.98983 -1.00378,2.22292 -0.0826,0.59833 -0.24132,1.08787 -0.3527,1.08787 -0.11137,0 -0.4781,-0.58279 -0.81494,-1.29508 -0.43635,-0.92269 -0.7706,-2.23802 -1.16247,-4.57444 -0.90116,-5.37305 -1.42916,-6.57914 -4.44058,-10.14348 -2.0683206,-2.44808 -2.2111906,-2.62407 -2.2111906,-2.72368 0,-0.0456 0.5578603,0.0448 1.2396903,0.20085 4.8655203,1.1135 10.3122303,3.87159 15.2356203,7.71498 1.10364,0.86154 4.09771,3.64897 6.6535,6.19428 2.55578,2.54532 4.75405,4.62756 4.88504,4.62721 1.06622,-0.003 1.71829,-4.3081 1.03438,-6.82924 -0.48563,-1.79019 -1.43846,-3.48239 -3.49989,-6.21572 -1.05407,-1.39762 -1.85958,-2.59695 -1.79003,-2.66518 0.43471,-0.42646 3.87127,2.29713 5.6157,4.45063 2.10514,2.59881 3.02421,4.74057 3.33625,7.7747 0.33218,3.22986 -0.23491,6.87659 -1.46395,9.41404 -0.93751,1.93558 -1.00407,1.95582 -2.71908,0.82701 -1.71677,-1.12996 -3.08603,-1.77289 -3.78932,-1.77925 -0.72802,-0.007 -1.7619,1.17462 -2.18442,2.49569 -1.16244,3.63448 -1.25475,7.48504 -0.28446,11.86577 0.59602,2.69096 0.61558,2.83478 0.38453,2.82779 -0.0871,-0.003 -0.86015,-0.60575 -1.71782,-1.34024 -0.85766,-0.7345 -1.98669,-1.49554 -2.50895,-1.69121 -0.91725,-0.34365 -0.96011,-0.34211 -1.26016,0.0452 -0.45309,0.58482 -0.22665,5.97242 0.3565,8.48219 1.40644,6.05309 4.39687,11.87548 7.15346,13.92785 0.50276,0.37433 1.04548,0.68059 1.20604,0.68059 0.16057,0 0.40585,-0.37298 0.54507,-0.82884 0.13922,-0.45587 0.32901,-0.82885 0.42173,-0.82885 0.23448,0 1.18642,3.02845 1.44689,4.60306 0.1185,0.71637 0.21632,2.70116 0.21738,4.41066 0.002,3.41905 0.19342,4.13567 1.32043,4.9463 0.73511,0.52874 3.57883,0.69902 5.86804,0.35137 2.089,-0.31725 5.55084,-1.46791 7.66945,-2.54921 2.331144,-1.18977 5.045556,-3.18206 4.956921,-3.63822 -0.118642,-0.6106 -2.371689,-0.55436 -6.133971,0.15311 -2.34205,0.44041 -3.47247,0.56954 -3.82726,0.43722 -0.77164,-0.28781 -4.04921,-6.20263 -6.26411,-11.30444 -2.43069,-5.59885 -4.78365,-14.81566 -3.78229,-14.81566 0.12562,0 1.00483,0.54954 1.9538,1.2212 2.70042,1.91129 5.28536,3.01737 8.25929,3.53412 3.19097,0.55446 8.054716,-0.003 10.83999,-1.24152 3.492959,-1.55372 3.022491,0.18334 -0.709425,2.61933 -2.057682,1.34314 -2.078982,1.56818 -0.232321,2.45451 1.282779,0.61569 3.024477,0.94259 5.006913,0.93974 2.101129,-0.003 2.099846,-1.9e-4 1.197253,-2.64045 -0.426145,-1.24655 -0.774809,-2.32699 -0.774809,-2.40097 0,-0.30918 0.529067,-0.0627 2.687464,1.25189 3.517872,2.14263 5.782319,2.77851 8.37807,2.35266 1.458177,-0.23923 2.030228,-0.6669 2.030228,-1.51782 0,-1.15436 -1.517106,-9.16128 -1.826213,-9.63831 -0.169455,-0.26151 -0.546942,-0.56456 -0.838859,-0.67344 -0.292849,-0.10923 -3.266233,-0.19796 -6.633392,-0.19796 h -6.102631 l -1.802167,0.93245 c -0.991191,0.51285 -2.078788,0.93245 -2.41688,0.93245 -1.194353,0 -4.483671,-2.56443 -6.603271,-5.14806 -0.71577,-0.87248 -1.82544,-2.36658 -2.46593,-3.32022 -1.2748,-1.89807 -2.0637,-2.51199 -3.22949,-2.51317 -0.84116,-8.3e-4 -1.92108,-0.68224 -1.75484,-1.10723 0.46153,-1.17989 5.56879,-1.77141 9.10599,-1.05466 0.88331,0.17899 5.318675,1.71996 9.856365,3.42437 8.713315,3.27284 9.763883,3.60859 11.979914,3.82874 1.568614,0.15583 2.46899,-0.15503 3.07438,-1.06143 0.325467,-0.48729 0.377451,-0.49986 0.839444,-0.2029 0.978442,0.62893 2.476675,0.25289 4.799018,-1.20449 2.17083,-1.3623 3.203061,-2.71195 3.805736,-4.97603 0.274669,-1.03185 0.276906,-1.21083 0.01637,-1.30891 -0.368192,-0.13861 -1.139602,0.34124 -2.405556,1.49635 -1.328246,1.21195 -2.508644,1.9582 -3.097414,1.9582 -0.593031,0 -0.583448,0.14462 -0.144193,-2.17573 0.488723,-2.58166 0.477055,-8.29172 -0.02159,-10.56781 -0.847127,-3.86671 -3.313126,-9.63791 -4.188927,-9.80337 -0.272432,-0.0515 -0.701366,0.63386 -1.814728,2.89947 -0.801885,1.63178 -2.058206,3.85271 -2.791826,4.93539 -1.559822,2.302 -4.836128,5.58336 -6.590491,6.60066 -2.741319,1.5896 -5.376443,2.20924 -7.263971,1.70811 -1.816805,-0.48235 -3.806079,-2.2746 -4.189924,-3.77493 -0.129807,-0.50737 -0.0777,-0.53678 1.727825,-0.97514 4.001343,-0.97148 7.565107,-3.23483 9.687385,-6.15248 1.492034,-2.0512 2.884508,-5.28027 2.277015,-5.28027 -0.07784,0 -1.435878,0.508 -3.017859,1.1289 -4.122725,1.61809 -6.546001,2.20565 -9.642954,2.33806 -1.610479,0.0688 -2.606739,0.0321 -2.689439,-0.0991 -0.21849,-0.34682 0.45468,-2.22243 0.96646,-2.69275 0.65713,-0.6039 1.313504,-0.81857 3.331738,-1.08966 2.614391,-0.35116 5.13105,-1.13083 7.708423,-2.3881 2.477972,-1.20878 5.232454,-3.09454 5.343054,-3.65794 0.129766,-0.66103 -5.468361,-3.67253 -9.696062,-5.21598 -4.217363,-1.53968 -7.913753,-2.38613 -12.861583,-2.94524 -5.18839,-0.5863 -14.92685,-0.23754 -21.18879,0.75882 -0.79175,0.12597 -1.49165,0.17793 -1.55533,0.11546 -0.0637,-0.0625 0.53659,-0.52547 1.33393,-1.02889 2.28128,-1.44034 7.22691,-3.06739 11.75154,-3.86609 1.30432,-0.23024 2.98932,-0.52979 3.74444,-0.66566 2.40624,-0.43296 8.55476,-0.31918 11.93404,0.22085 6.954476,1.11136 11.427213,2.49166 17.694492,5.46056 3.809643,1.80469 3.876911,1.7992 5.098106,-0.41639 0.454034,-0.82374 0.891492,-1.49771 0.972128,-1.49771 0.08064,0 0.209874,0.88291 0.287196,1.96202 0.250731,3.49923 0.907629,4.8794 3.736941,7.85148 2.289538,2.40507 2.939844,2.60442 5.600014,1.71662 4.309276,-1.43816 7.407176,-3.8713 10.398474,-8.16712 0.732458,-1.05188 1.387329,-1.91252 1.455268,-1.91252 0.737421,0 0.956753,3.72925 0.371705,6.31997 -0.572608,2.53562 -2.184342,7.18076 -3.241901,9.34339 -1.230021,2.51531 -2.676072,4.94407 -4.906992,8.24169 -1.868311,2.76163 -1.961578,3.14681 -1.245764,5.14477 0.999606,2.79006 1.036092,5.5251 0.10845,8.12945 -0.709406,1.99165 -1.457039,2.99347 -5.578311,7.47491 -1.991337,2.16536 -3.807829,4.31614 -4.036646,4.77949 -0.618937,1.25336 -0.533253,2.37328 0.324101,4.23608 0.802885,1.74445 1.160868,3.21928 1.160868,4.78256 0,1.9874 -0.31056,2.21186 -4.572616,3.30489 -1.344945,0.34492 -2.741386,0.77731 -3.103205,0.96086 -0.361819,0.18355 -1.442374,1.13337 -2.401235,2.11072 -1.112172,1.13361 -1.81575,1.70429 -1.943265,1.57621 -0.109935,-0.11042 -0.44907,-0.85349 -0.753636,-1.65125 -0.685928,-1.79669 -1.012258,-2.29418 -1.749543,-2.66715 -0.848214,-0.4291 -6.714256,-1.02387 -7.261959,-0.73631 -0.969287,0.5089 -1.356951,3.15781 -0.720944,4.92623 0.726109,2.01894 1.962549,3.13591 3.473796,3.13813 0.828757,10e-4 1.033013,-0.10377 1.912222,-0.98289 0.541396,-0.54134 1.191372,-1.26399 1.444393,-1.60589 0.573643,-0.77515 0.753959,-0.56458 1.112402,1.29904 0.550422,2.86173 -0.09336,5.08158 -2.304843,7.94742 -2.349209,3.04432 -5.627057,5.46361 -9.411558,6.94641 -7.066278,2.76864 -18.962758,4.69591 -25.101138,4.06648 z m 28.227573,-15.24288 c 0.351467,-0.25213 0.320511,-0.46872 -0.540489,-3.78162 -0.798143,-3.07104 -0.966356,-3.51418 -1.333941,-3.51418 -0.380949,0 -0.474677,0.33137 -0.993601,3.51284 -0.415013,2.5444 -0.510289,3.58694 -0.345593,3.78162 0.300747,0.35549 2.718505,0.3565 3.213624,0.001 z m -8.888883,-1.73197 c 0.9408,-0.47557 4.32393,-2.71896 4.790385,-3.17656 0.372203,-0.36514 0.355092,-0.47881 -0.524155,-3.48227 -0.4999,-1.70765 -1.01018,-3.29045 -1.13396,-3.51734 -0.58826,-1.0783 -5.24716,-2.24015 -6.87256,-1.71391 -1.34212,0.43453 -2.06115,2.035 -1.23392,2.74654 0.61293,0.52722 1.58454,0.92589 2.55211,1.0472 0.50332,0.0631 0.95685,0.15565 1.00783,0.20566 0.051,0.05 -0.4218,0.9451 -1.05064,1.98907 -0.62884,1.04397 -1.2053,2.22209 -1.28102,2.61804 -0.18047,0.94373 0.23884,2.27072 0.95525,3.02307 0.67352,0.70733 1.71451,0.8045 2.79068,0.2605 z m 12.774531,-29.09716 c 0.04226,-0.2179 -0.620689,-0.74132 -2.004488,-1.58258 -2.53101,-1.5387 -2.649302,-1.5976 -3.989789,-1.98642 -1.799788,-0.52206 -2.023546,0.15937 -0.570449,1.73724 1.416129,1.53773 3.15776,2.26937 5.236372,2.19973 0.959474,-0.0321 1.280468,-0.12106 1.328354,-0.36797 z"
           id="path830"
           inkscape:connector-curvature="0" />
      </g>
    </g>
  </g>
</svg>
