<?xml version="1.0" encoding="UTF-8" standalone="no"?>
<svg
   xmlns:dc="http://purl.org/dc/elements/1.1/"
   xmlns:cc="http://creativecommons.org/ns#"
   xmlns:rdf="http://www.w3.org/1999/02/22-rdf-syntax-ns#"
   xmlns:svg="http://www.w3.org/2000/svg"
   xmlns="http://www.w3.org/2000/svg"
   id="svg8"
   version="1.1"
   viewBox="0 0 40 40"
   height="40mm"
   width="40mm">
  <defs
     id="defs2" />
  <metadata
     id="metadata5">
    <rdf:RDF>
      <cc:Work
         rdf:about="">
        <dc:format>image/svg+xml</dc:format>
        <dc:type
           rdf:resource="http://purl.org/dc/dcmitype/StillImage" />
        <dc:title></dc:title>
      </cc:Work>
    </rdf:RDF>
  </metadata>
  <g
     transform="translate(0,-257)"
     id="layer1">
    <g
       transform="translate(16.111235,0.28348215)"
       id="g1331" />
    <path
       id="path1788"
       d="m 13.324178,290.45702 c -0.380542,-0.0756 -0.72694,-0.17287 -0.769774,-0.21619 -0.04283,-0.0433 0.290079,-0.48591 0.739804,-0.98354 1.381958,-1.52917 2.062107,-3.27115 2.062107,-5.28141 0,-2.53737 -0.903424,-4.45968 -2.848626,-6.06131 -0.873588,-0.71929 -2.8263733,-1.82877 -3.8525833,-2.18885 -0.777261,-0.27273 2.2287743,-2.08521 4.2572393,-2.56689 2.664916,-0.63282 6.190539,0.38516 8.429033,2.43377 0.531499,0.48641 0.938412,0.91265 0.904255,0.9472 -0.03416,0.0345 -0.476429,-0.18951 -0.982825,-0.49789 -1.932009,-1.17654 -3.984076,-1.65609 -5.818497,-1.35973 -1.061675,0.17152 -1.866661,0.48414 -2.0596,0.79985 -0.05472,0.0895 0.242332,0.55112 0.660122,1.02573 2.681232,3.04589 3.460057,7.17058 2.012381,10.65766 -0.226597,0.54581 -0.492457,1.18946 -0.590801,1.43032 -0.30169,0.7389 0.111894,0.98721 1.748046,1.04949 1.716633,0.0654 3.407291,-0.27697 4.291947,-0.86902 0.641303,-0.42919 0.649085,-0.4448 0.289711,-0.58086 -0.203112,-0.0769 -1.058343,-0.14779 -1.900515,-0.15754 l -1.53122,-0.0177 -0.256656,-1.12707 c -0.561944,-2.46769 -0.44627,-5.76131 0.270373,-7.69835 0.415129,-1.12207 0.829393,-1.39479 1.908342,-1.2563 1.817681,0.23332 2.348031,0.57193 5.638235,3.59977 l 2.118119,1.94922 0.714211,-0.0694 c 0.763084,-0.0741 1.599843,-0.41559 1.687345,-0.68852 0.02932,-0.0915 -0.515332,-0.8048 -1.210341,-1.58522 -0.69501,-0.78042 -1.263654,-1.48534 -1.263654,-1.56648 0,-0.0811 0.159647,-0.0957 0.35477,-0.0322 1.897852,0.6168 4.189468,0.96046 4.475531,0.67116 0.169791,-0.17171 -0.128365,-1.3825 -0.468272,-1.90162 -0.485051,-0.74079 -1.489673,-1.17866 -3.561808,-1.55241 -2.444959,-0.441 -3.371041,-0.43337 -3.675459,0.0303 l -0.233219,0.35521 -0.567596,-0.43781 c -0.93866,-0.72405 -2.195881,-2.27512 -2.904911,-3.58388 -0.367472,-0.6783 -0.669027,-1.32297 -0.670121,-1.43259 -0.0029,-0.29601 0.768115,-0.24337 1.825815,0.12465 1.137772,0.39587 1.755135,0.80035 3.158682,2.0695 1.267827,1.14642 2.121484,1.62226 3.707941,2.06685 2.58498,0.72443 3.052208,0.29333 1.986708,-1.8331 -1.6649,-3.32265 -5.078455,-5.8113 -9.587331,-6.98964 -0.83517,-0.21826 -2.352699,-0.80935 -3.458936,-1.34729 -2.210233,-1.07479 -4.022176,-1.75675 -4.197241,-1.5797 -0.155599,0.15735 0.341816,1.72746 0.907475,2.86446 0.25088,0.50429 0.420714,0.91688 0.377408,0.91688 -0.04331,0 -0.41808,-0.21115 -0.832829,-0.46924 -0.911871,-0.56742 -1.828065,-0.79754 -3.192536,-0.80188 -1.038619,-0.003 -3.4143353,0.33514 -4.4044713,0.62746 -1.580117,0.46649 0.198539,-0.66622 2.161781,-1.3767 0.804476,-0.29113 1.9574793,-0.61197 2.5622273,-0.71297 0.604749,-0.101 1.098775,-0.22694 1.097836,-0.27986 -9.46e-4,-0.0529 -0.107369,-0.44847 -0.236513,-0.87899 -0.129144,-0.43052 -0.234806,-0.94213 -0.234806,-1.13691 v -0.35414 l 1.207353,0.23055 c 1.624335,0.31017 3.337942,0.87105 5.462202,1.78783 0.971346,0.41921 1.996685,0.80783 2.27853,0.86361 0.574992,0.11379 0.63073,-0.0337 0.365777,-0.96801 -0.09188,-0.32398 -0.09081,-0.51718 0.0029,-0.51718 0.310312,0 3.426455,1.67091 4.637557,2.4867 3.004876,2.02408 5.254669,4.18217 6.411889,6.15054 1.135606,1.93159 1.504056,3.35277 1.067966,4.11935 -0.17291,0.30394 -0.226781,1.04268 -0.226781,3.10982 l 0.04176,2.71119 -0.514262,1.05936 c -0.356116,0.73359 -0.872415,1.35868 -1.584867,2.03267 -1.071982,1.01412 -1.340934,1.16377 -1.247747,0.69426 0.03046,-0.15348 0.09724,-0.54409 0.148391,-0.86803 0.06245,-0.3955 0.195552,-0.62189 0.405169,-0.68917 0.625569,-0.20079 0.102685,-0.39615 -1.060307,-0.39615 h -1.191606 l -0.934808,0.87524 c -0.514144,0.48139 -1.08084,0.95429 -1.259326,1.05089 -0.31099,0.16832 -0.319823,0.14679 -0.211848,-0.51647 0.06197,-0.38066 0.210166,-0.97913 0.329324,-1.32993 0.268678,-0.791 0.270674,-0.90715 0.02152,-1.25175 -0.185157,-0.25607 -0.245532,-0.24118 -0.827796,0.20428 -0.34544,0.26427 -0.681289,0.48249 -0.74633,0.48493 -0.180758,0.007 -0.140772,-1.87616 0.04227,-1.99056 0.09876,-0.0617 0.03395,-0.28011 -0.168411,-0.56752 -0.375285,-0.53299 -0.62282,-0.60209 -0.62282,-0.17385 0,0.24285 -0.741107,0.7807 -0.867428,0.62953 -0.02106,-0.0252 -0.100588,-0.46903 -0.176718,-0.98627 -0.166633,-1.1321 -0.496907,-1.44138 -1.843402,-1.72623 -1.141208,-0.24142 -1.55451,-0.0462 -2.098866,0.99116 l -0.375895,0.71636 0.32829,0.25043 c 0.301562,0.23004 0.307188,0.26814 0.06911,0.46796 -0.344664,0.28927 -0.71141,1.02372 -0.71141,1.42467 0,0.19995 0.186814,0.42043 0.491016,0.57952 l 0.491016,0.25678 -0.491016,0.51233 c -0.484549,0.50558 -0.584238,0.92639 -0.391634,1.65321 0.0711,0.26831 0.21129,0.35878 0.555992,0.35878 0.521217,0 1.48209,-0.35666 2.013438,-0.84899 l 0.484699,-0.0928 v 0 c 0,0 -0.177385,0.65342 -0.394189,0.97608 -0.216804,0.32266 -0.394189,0.65627 -0.394189,0.74136 0,0.0851 0.358263,0.2324 0.796138,0.32737 1.006789,0.21836 1.082219,0.21243 0.730218,-0.0574 -0.196968,-0.15099 -0.338044,-0.5868 -0.450012,-1.39018 -0.221585,-1.58985 -0.07604,-2.96765 0.417558,-3.95272 0.221934,-0.44291 0.42006,-0.80532 0.44028,-0.80535 0.136096,-1.6e-4 -0.07021,1.49431 -0.295055,2.13739 -0.267752,0.7658 -0.266694,0.78743 0.05126,1.04781 0.249424,0.20425 0.288302,0.33156 0.167767,0.54938 -0.31788,0.57444 0.270242,2.00594 0.824127,2.00594 0.154486,0 0.501095,-0.25365 0.770244,-0.56365 l 0.48936,-0.56365 -6.31e-4,0.8427 c -6.3e-4,1.01058 -0.317479,1.60133 -1.282816,2.3923 -1.570656,1.28696 -2.754773,1.5599 -6.679207,1.53957 -1.560988,-0.008 -3.149512,-0.0765 -3.530055,-0.15213 z m 19.175477,-7.46764 c 0.54813,-0.93496 0.21706,-1.06089 -0.414014,-0.52809 -0.472555,0.39896 -0.470567,0.49056 -0.306164,0.80122 0.26142,0.49399 0.269932,0.49486 0.720178,-0.27313 z m -7.216146,-8.72808 c -1.042349,-0.98891 -1.728291,-1.44476 -1.727477,-1.14801 0.0011,0.41487 0.621304,1.23866 1.134563,1.50708 0.534796,0.27968 1.270967,0.52621 1.35855,0.45496 0.02735,-0.0223 -0.317184,-0.38857 -0.765636,-0.81403 z m -1.097365,-8.08742 c 0,-0.0322 -0.290326,-0.25284 -0.64517,-0.49031 -0.630013,-0.42164 -0.919831,-0.45675 -0.691933,-0.0838 0.161719,0.26462 1.337103,0.76933 1.337103,0.57415 z"
       style="fill:#000000;stroke-width:0.15856391" />
  </g>
</svg>
