<?xml version="1.0" standalone="no"?>
<!DOCTYPE svg PUBLIC "-//W3C//DTD SVG 20010904//EN"
 "http://www.w3.org/TR/2001/REC-SVG-20010904/DTD/svg10.dtd">
<svg version="1.0" xmlns="http://www.w3.org/2000/svg"
 width="664.000000pt" height="264.000000pt" viewBox="0 0 664.000000 264.000000"
 preserveAspectRatio="xMidYMid meet">

<g transform="translate(0.000000,264.000000) scale(0.100000,-0.100000)"
fill="#000000" stroke="none">
<path d="M2318 2634 c-29 -28 11 -64 71 -64 36 0 81 -35 81 -64 0 -73 -570
-1527 -701 -1789 -96 -190 -255 -376 -377 -440 -299 -157 -626 -174 -925 -47
-159 68 -278 175 -344 308 -64 128 -57 270 19 415 57 106 142 164 304 209 107
29 374 31 509 5 185 -37 424 -121 604 -212 l75 -37 25 31 c14 18 36 49 48 70
l22 39 -23 15 c-82 54 -369 155 -557 196 -333 72 -649 38 -845 -90 -71 -46
-166 -142 -211 -214 -163 -257 -102 -565 150 -768 80 -65 238 -140 352 -169
123 -30 344 -31 455 0 134 36 236 81 344 152 279 185 523 501 707 918 76 169
74 165 315 831 112 310 212 573 221 584 27 29 49 38 116 45 58 7 62 9 62 32
l0 25 -180 6 c-99 4 -209 10 -245 14 -36 4 -68 3 -72 -1z"/>
<path d="M3377 2119 c-59 -34 -105 -65 -102 -70 4 -5 23 -9 45 -9 22 0 40 -5
43 -13 6 -16 24 35 -227 -615 -113 -293 -206 -543 -206 -555 0 -27 17 -47 40
-47 26 0 56 39 98 130 22 47 63 133 90 193 28 59 76 147 108 195 65 99 181
220 237 246 49 23 91 18 95 -11 2 -12 -49 -162 -112 -333 -64 -172 -119 -330
-122 -351 -12 -73 33 -88 123 -44 49 25 133 103 133 125 0 16 -33 11 -60 -10
-38 -30 -54 -26 -47 13 3 18 42 132 87 253 155 413 163 448 115 480 -76 50
-305 -97 -454 -291 -28 -37 -34 -55 96 290 112 295 167 461 157 476 -9 16 -26
9 -137 -52z"/>
<path d="M2742 1650 c-151 -32 -332 -205 -423 -405 -60 -132 -79 -303 -42
-368 75 -130 323 -54 484 149 187 236 253 530 135 608 -32 21 -98 28 -154 16z
m50 -87 c26 -23 32 -73 18 -155 -39 -232 -165 -468 -275 -514 -51 -21 -73 -17
-107 17 l-31 30 6 92 c6 110 40 225 103 347 85 166 214 248 286 183z"/>
<path d="M4086 1645 c-70 -25 -176 -107 -176 -137 0 -16 32 -8 68 17 20 14 40
21 45 16 9 -9 -26 -108 -148 -416 -48 -121 -91 -234 -95 -252 -10 -43 8 -68
43 -59 22 5 41 36 123 199 114 227 184 337 274 428 70 71 105 93 162 104 31 6
38 4 47 -14 10 -18 2 -47 -50 -179 -33 -86 -87 -225 -120 -309 -73 -186 -75
-233 -14 -233 60 0 242 126 218 150 -9 10 -22 7 -58 -15 -33 -19 -50 -24 -58
-16 -7 7 19 85 91 268 156 396 159 406 121 444 -17 17 -28 20 -62 15 -106 -17
-274 -130 -387 -261 -22 -26 -40 -44 -40 -40 0 3 12 29 26 57 66 131 90 230
58 242 -20 8 -22 8 -68 -9z"/>
<path d="M4995 1651 c-164 -42 -287 -241 -231 -374 7 -18 33 -57 58 -87 59
-72 78 -111 78 -157 0 -75 -66 -153 -130 -153 -40 0 -92 40 -115 87 -11 23
-26 42 -34 43 -15 0 -101 -84 -101 -99 0 -4 10 -23 23 -42 30 -45 83 -63 161
-55 122 12 224 83 278 193 26 54 32 78 32 132 0 77 -14 111 -93 214 -57 76
-66 123 -34 178 21 36 74 62 108 53 28 -7 75 -57 75 -80 0 -27 29 -14 60 28
17 24 29 52 28 62 -7 43 -95 75 -163 57z"/>
<path d="M5600 1644 c-238 -66 -470 -392 -470 -662 0 -120 42 -167 151 -167
161 0 352 160 469 393 46 92 80 213 80 286 0 129 -92 189 -230 150z m44 -65
c55 -26 59 -127 11 -295 -70 -242 -208 -419 -312 -399 -85 16 -96 140 -29 340
46 137 95 225 162 292 63 64 119 84 168 62z"/>
<path d="M6150 1646 c-48 -17 -122 -68 -155 -108 -24 -28 -26 -33 -11 -36 10
-2 35 8 58 23 22 15 42 24 46 21 9 -10 -15 -77 -135 -384 -69 -177 -113 -305
-111 -320 3 -31 39 -42 65 -21 8 7 58 99 110 204 120 240 165 309 267 411 117
118 213 149 210 68 -1 -16 -34 -112 -74 -214 -165 -417 -172 -439 -150 -465 7
-8 25 -15 40 -15 54 0 219 107 220 143 0 23 -6 22 -63 -8 -84 -45 -87 -58 78
360 50 128 89 242 92 271 5 47 3 53 -20 69 -69 45 -275 -67 -428 -233 l-61
-67 31 62 c50 101 84 210 71 233 -12 23 -30 24 -80 6z"/>
</g>
</svg>
