<?xml version="1.0" encoding="UTF-8" standalone="no"?>
<!-- Created with Inkscape (http://www.inkscape.org/) -->

<svg
   xmlns:dc="http://purl.org/dc/elements/1.1/"
   xmlns:cc="http://creativecommons.org/ns#"
   xmlns:rdf="http://www.w3.org/1999/02/22-rdf-syntax-ns#"
   xmlns:svg="http://www.w3.org/2000/svg"
   xmlns="http://www.w3.org/2000/svg"
   xmlns:sodipodi="http://sodipodi.sourceforge.net/DTD/sodipodi-0.dtd"
   xmlns:inkscape="http://www.inkscape.org/namespaces/inkscape"
   width="40mm"
   height="40mm"
   viewBox="0 0 40 40"
   version="1.1"
   id="svg8"
   inkscape:version="0.92.4 (unknown)"
   sodipodi:docname="s5.svg">
  <defs
     id="defs2" />
  <sodipodi:namedview
     id="base"
     pagecolor="#ffffff"
     bordercolor="#666666"
     borderopacity="1.0"
     inkscape:pageopacity="0.0"
     inkscape:pageshadow="2"
     inkscape:zoom="3.959798"
     inkscape:cx="58.927957"
     inkscape:cy="76.880296"
     inkscape:document-units="mm"
     inkscape:current-layer="layer1"
     showgrid="false"
     inkscape:window-width="1853"
     inkscape:window-height="1023"
     inkscape:window-x="67"
     inkscape:window-y="27"
     inkscape:window-maximized="1" />
  <metadata
     id="metadata5">
    <rdf:RDF>
      <cc:Work
         rdf:about="">
        <dc:format>image/svg+xml</dc:format>
        <dc:type
           rdf:resource="http://purl.org/dc/dcmitype/StillImage" />
        <dc:title></dc:title>
      </cc:Work>
    </rdf:RDF>
  </metadata>
  <g
     inkscape:label="Layer 1"
     inkscape:groupmode="layer"
     id="layer1"
     transform="translate(0,-257)">
    <g
       id="g1331"
       transform="translate(16.111235,0.28348215)" />
    <path
       style="fill:#000000;stroke-width:1;stroke-miterlimit:4;stroke-dasharray:none;paint-order:stroke markers fill"
       id="path1631"
       d="m 4.7650661,272.57771 c -0.025651,-0.47935 -0.029288,-0.95959 -0.034796,-1.4395 -0.012676,-0.66788 0.098807,-1.32747 0.2102392,-1.98334 0.091136,-0.5712 0.1795209,-1.14337 0.3262829,-1.70328 0.1723331,-0.62787 0.45555,-1.20068 0.7771931,-1.76293 0.3505282,-0.59376 0.8038677,-1.1071 1.3127667,-1.56794 0.3612528,-0.29581 0.7512645,-0.55454 1.1579704,-0.78343 1.1983326,-0.67441 0.7730942,-0.47767 1.5412496,-0.80431 1.045425,-0.45271 2.141327,-0.76007 3.244204,-1.03459 1.145049,-0.28251 2.297639,-0.54642 3.46526,-0.71853 0.221969,-0.0327 0.44495,-0.0582 0.667424,-0.0872 0.888887,-0.09 1.783049,-0.15088 2.677012,-0.14631 0.526207,0.003 0.772328,0.0227 1.293477,0.0516 0.744905,0.0527 1.475617,0.2101 2.180528,0.45456 0.414453,0.14374 0.569401,0.2203 0.971045,0.39508 0.659657,0.33352 1.329561,0.66894 1.932528,1.10085 0.09047,0.0648 0.175461,0.13693 0.263192,0.2054 0.519729,0.40809 0.844762,0.97665 1.123585,1.56325 0.231092,0.49748 0.432493,1.00796 0.583893,1.53552 0.01696,0.0591 0.215339,0.81874 0.229338,0.87225 0.240872,0.99677 0.44337,2.00275 0.643321,3.00844 0.1328,0.74038 0.28207,1.47831 0.37219,2.22561 0.05521,0.45783 0.06425,0.64309 0.09923,1.10241 0.06223,1.04507 0.07308,2.09228 0.07685,3.13891 -0.01471,0.80249 0.02606,1.60689 -0.01021,2.40905 -0.0076,0.16941 -0.0235,0.33835 -0.03525,0.50753 -0.104626,1.05985 -0.405233,2.08283 -0.738748,3.08955 -0.329893,0.99139 -0.773739,1.939 -1.256633,2.86374 -0.301548,0.54076 -0.621443,1.07443 -0.993762,1.57011 -0.19707,0.26236 -0.338719,0.42154 -0.551104,0.67161 -0.603414,0.69398 -1.302249,1.29318 -2.027621,1.85467 -0.68765,0.50523 -1.433556,0.92398 -2.183306,1.32872 -0.209048,0.11285 -0.482089,0.21329 -0.702661,0.30041 -0.666685,0.24803 -1.336517,0.42571 -2.040504,0.52409 -0.829367,0.11365 -1.658513,-0.0262 -2.478247,-0.1469 -1.018296,-0.16201 -1.994372,-0.50041 -2.964224,-0.83928 -0.867859,-0.3138 -1.699117,-0.71812 -2.50003,-1.17455 -0.711181,-0.40721 -1.325329,-0.94822 -1.9065298,-1.5201 -0.3752395,-0.37849 -0.7453283,-0.76605 -1.0474005,-1.20715 -0.1766379,-0.25793 -0.2429697,-0.39206 -0.3943395,-0.66431 -0.3617994,-0.66023 -0.6285936,-1.36527 -0.9091361,-2.06223 -0.260314,-0.64113 -0.4144563,-1.31701 -0.5675561,-1.9897 -0.1530485,-0.74798 -0.3123557,-1.49473 -0.4577207,-2.24427 -0.106385,-0.59294 -0.1696198,-1.19255 -0.2341033,-1.79118 -0.056574,-0.42168 -0.1459838,-0.8367 -0.1925823,-1.25983 -0.033052,-0.34732 -0.039366,-0.69626 -0.041665,-1.04489 9.26e-4,-0.3303 -1.752e-4,-0.66059 -0.0014,-0.99088 0.00938,-0.23249 0.00209,-0.45712 -0.090662,-0.67257 -0.079957,-0.17043 -0.2130333,-0.2872 -0.3615614,-0.39536 -0.2163,-0.20403 -0.2034889,-0.49926 -0.1951426,-0.77409 0.010044,-0.18487 0.0049,-0.0942 0.015372,-0.27196 0,0 0.8756703,-0.43894 0.8756703,-0.43894 v 0 c -0.012912,0.17733 -0.00677,0.0872 -0.018346,0.27052 -0.011541,0.24095 -0.045941,0.51207 0.1550352,0.6869 0.1607508,0.11988 0.2995562,0.25648 0.3873582,0.4405 0.099082,0.22856 0.11942,0.46357 0.1031401,0.71145 -0.00233,0.33066 -0.00538,0.66132 -0.00251,0.99199 0.00222,0.34631 0.00404,0.69309 0.033589,1.03841 0.041869,0.42463 0.1267762,0.84196 0.1829864,1.26466 0.062548,0.59898 0.1085855,1.20038 0.2116301,1.7944 0.1372357,0.74964 0.305717,1.49305 0.4590725,2.23949 0.1529873,0.66769 0.3107584,1.33789 0.5588682,1.97784 0.2748981,0.69515 0.5448255,1.39441 0.9010986,2.05311 0.1522521,0.27501 0.2097196,0.39391 0.3874953,0.65431 0.2986688,0.43749 0.6643346,0.82165 1.0359744,1.19688 0.57576,0.56712 1.191102,1.09488 1.89506,1.49886 0.792784,0.45393 1.611462,0.86521 2.473689,1.17187 0.967001,0.33939 1.943757,0.66775 2.96104,0.81994 0.821842,0.11631 1.652569,0.23871 2.48154,0.11124 0.692404,-0.106 1.366797,-0.28692 2.021616,-0.53765 0.115322,-0.0471 0.232007,-0.091 0.345966,-0.14138 0.117271,-0.0518 0.435509,-0.25807 0.347461,-0.16489 -0.120493,0.12752 -0.303092,0.17709 -0.449841,0.27324 -0.111983,0.0734 0.231682,-0.1343 0.345464,-0.20485 0.291132,-0.18051 0.417946,-0.27338 0.701286,-0.46911 0.727646,-0.55412 1.428248,-1.14698 2.033275,-1.83605 0.181835,-0.21175 0.386602,-0.44446 0.556963,-0.66582 0.377857,-0.49098 0.697812,-1.02454 1.005398,-1.56118 0.488307,-0.92025 0.938456,-1.86408 1.270042,-2.85347 0.333081,-0.99926 0.636968,-2.01406 0.743619,-3.06652 0.01196,-0.16748 0.02866,-0.33469 0.03589,-0.50244 0.03455,-0.80135 -0.0084,-1.60539 0.01035,-2.40704 -0.0021,-1.04613 -1.22e-4,-2.09318 -0.06465,-3.1378 -0.03511,-0.4755 -0.04089,-0.62371 -0.09661,-1.09768 -0.08769,-0.74589 -0.230912,-1.48299 -0.369099,-2.22071 -0.203284,-1.00161 -0.413136,-2.00265 -0.655732,-2.99551 -0.07708,-0.28885 -0.147913,-0.57944 -0.23118,-0.86656 -0.151461,-0.52227 -0.353116,-1.02741 -0.587849,-1.51764 -0.279193,-0.57006 -0.60195,-1.12186 -1.106362,-1.52373 -0.658694,-0.52455 -1.397432,-0.93914 -2.154606,-1.30419 -0.402356,-0.17298 -0.550192,-0.24557 -0.964917,-0.38776 -0.696563,-0.23883 -1.418211,-0.3921 -2.1531,-0.44646 -0.530738,-0.0302 -0.746956,-0.0496 -1.283746,-0.0507 -0.892241,-0.002 -1.784501,0.0615 -2.671321,0.15464 -0.220834,0.029 -0.442166,0.0545 -0.6625,0.0871 -1.167546,0.17274 -2.319406,0.43997 -3.463415,0.7266 -1.113573,0.28625 -2.215761,0.60562 -3.269397,1.07285 -0.7059504,0.31386 -0.3170238,0.16253 0.062939,-0.10897 0.09925,-0.0709 -0.2114185,0.12178 -0.315954,0.18465 -0.2784004,0.16743 -0.3189965,0.19399 -0.5790864,0.3826 -0.088846,0.0644 -0.1759492,0.13122 -0.2639237,0.19683 -0.5143643,0.44953 -0.9712571,0.95424 -1.3268741,1.5409 -0.1172718,0.20324 -0.2233451,0.38047 -0.329217,0.5897 -0.185809,0.36722 -0.3249364,0.75539 -0.4498036,1.14686 -0.1511914,0.55734 -0.2385478,1.12827 -0.3335531,1.69737 -0.1144767,0.65049 -0.2354598,1.3035 -0.2175901,1.96729 0.00852,0.47039 0.012033,0.94274 0.067819,1.41042 0,0 -0.877394,0.46089 -0.877394,0.46089 z"
       inkscape:connector-curvature="0" />
    <path
       style="fill:#000000;stroke-width:1;stroke-miterlimit:4;stroke-dasharray:none;paint-order:stroke markers fill"
       id="path1633"
       d="m 10.599834,270.55159 c 0.12063,-0.31003 0.234128,-0.62156 0.388007,-0.91695 0.151088,-0.28049 0.321564,-0.55017 0.542536,-0.78071 0.337571,-0.28391 0.759555,-0.47235 1.14013,-0.67429 0.08274,-0.0439 0.208772,-0.05 0.299607,-0.0708 0.223446,-0.0862 0.391465,-0.10755 0.629527,-0.0822 0.292879,0.0418 0.562894,0.15696 0.821652,0.29497 0.272023,0.13232 0.51118,0.31276 0.740674,0.50754 0.260292,0.23184 0.463983,0.51565 0.643583,0.81217 0.15162,0.25124 0.217236,0.52605 0.248554,0.81402 0.02332,0.36875 0.01584,0.73874 0.01447,1.10802 -7.94e-4,0.4299 -0.07609,0.85197 -0.19534,1.26344 -0.08255,0.27559 -0.203281,0.53552 -0.380544,0.76229 -0.357452,0.32238 -0.782328,0.62387 -1.256601,0.72884 -0.09191,0.0203 -0.174515,0.0265 -0.267988,0.0365 -0.315767,0.0216 -0.632553,0.0174 -0.948848,0.0168 -0.309421,-6.9e-4 -0.618842,-0.002 -0.928262,-0.003 -0.290162,-0.013 -0.576155,-0.0697 -0.859726,-0.1292 -0.248573,-0.0523 -0.472129,-0.16855 -0.694376,-0.28607 -0.246886,-0.14176 -0.422091,-0.36075 -0.5592416,-0.60526 -0.1273339,-0.23466 -0.2236706,-0.48108 -0.2848661,-0.74058 -0.043679,-0.22945 -0.041538,-0.46414 -0.042664,-0.69675 -0.00156,-0.22146 -0.018637,-0.44211 0.055728,-0.6536 0.1140846,-0.20278 0.2983727,-0.35109 0.4699037,-0.50336 0,0 0.909959,-0.37039 0.909959,-0.37039 v 0 c -0.167671,0.14766 -0.341963,0.28928 -0.483642,0.46327 -0.112174,0.20101 -0.07188,0.39643 -0.07848,0.61843 0.0014,0.22594 -2.01e-4,0.45339 0.03552,0.67714 0.05119,0.25271 0.141006,0.49152 0.266518,0.71735 0.130182,0.22893 0.293136,0.4318 0.530991,0.55646 0.217337,0.11206 0.437328,0.21813 0.680101,0.26349 0.277349,0.0594 0.558572,0.11281 0.843054,0.11621 0.309123,9e-5 0.618239,0.002 0.927357,0.003 0.315064,2.6e-4 0.631324,0.004 0.94499,-0.0301 0.105867,-0.0168 0.157117,-0.0207 0.258902,-0.0531 0.03771,-0.012 0.14415,-0.0641 0.110615,-0.0431 -1.333908,0.83526 -0.813986,0.49511 -0.533388,0.29931 0.193874,-0.20737 0.319468,-0.4625 0.408577,-0.73083 0.127978,-0.40201 0.21185,-0.81563 0.211159,-1.23956 -2.19e-4,-0.36449 0.0026,-0.72952 -0.02064,-1.09344 -0.02665,-0.27407 -0.08254,-0.53832 -0.225911,-0.77816 -0.169227,-0.29064 -0.369191,-0.56354 -0.624639,-0.78511 -0.228088,-0.18784 -0.46774,-0.35742 -0.734531,-0.4869 -0.251013,-0.13023 -0.513353,-0.23773 -0.798571,-0.26101 -0.21472,-0.005 -0.413389,0.0428 -0.617067,0.10864 -0.05513,0.0129 -0.135132,0.0302 -0.18942,0.0479 -0.0328,0.0107 -0.126185,0.0546 -0.09689,0.0364 1.345599,-0.83728 0.827809,-0.49464 0.536252,-0.30888 -0.240015,0.20863 -0.407803,0.48182 -0.563525,0.75629 -0.158543,0.2845 -0.27489,0.58684 -0.375181,0.8965 0,0 -0.898022,0.41769 -0.898022,0.41769 z"
       inkscape:connector-curvature="0" />
    <path
       style="fill:#000000;stroke-width:1;stroke-miterlimit:4;stroke-dasharray:none;paint-order:stroke markers fill"
       id="path1635"
       d="m 19.665342,270.37273 c -0.03017,-0.36104 -0.03429,-0.72257 -0.02435,-1.08447 0.01018,-0.43584 0.110978,-0.8538 0.293481,-1.24786 0.125592,-0.23603 0.295537,-0.45702 0.52904,-0.59641 0.953384,-0.56913 0.695288,-0.45296 1.262746,-0.68166 0.473131,-0.16992 0.961726,-0.2919 1.449725,-0.4105 0.184661,-0.0342 0.369809,-0.0929 0.559023,-0.0992 0.05067,-0.002 0.193519,0.009 0.24311,0.0128 0.324564,0.0354 0.629732,0.14722 0.916703,0.29861 0.295835,0.17776 0.535327,0.43038 0.752079,0.69554 0.210797,0.26575 0.382293,0.55642 0.530042,0.86088 0.148081,0.33682 0.16228,0.70063 0.157091,1.06231 -0.01698,0.43017 -0.104193,0.85256 -0.239551,1.26008 -0.113177,0.28851 -0.28507,0.54387 -0.510335,0.75524 -0.493641,0.44527 -1.083875,0.66026 -1.693492,0.85274 -0.390806,0.14596 -0.802299,0.19342 -1.215363,0.22193 -0.410461,0.0403 -0.818751,0.006 -1.224137,-0.0597 -0.401691,-0.0787 -0.795899,-0.19169 -1.183912,-0.32113 -0.274546,-0.10508 -0.548466,-0.21311 -0.81954,-0.32713 -0.128074,-0.0608 -0.276827,-0.0752 -0.39578,-0.15614 -0.08847,-0.0602 -0.108208,-0.0966 -0.175528,-0.1787 -0.154801,-0.26164 -0.184047,-0.56797 -0.189484,-0.86583 0.01585,-0.22761 8.21e-4,-0.46405 0.06562,-0.68476 0.219763,-0.34945 0.670964,-0.66506 1.090229,-0.60851 0.0774,0.0104 0.107646,0.0249 0.181918,0.0502 0.09735,0.0424 0.05443,0.0153 0.13039,0.0788 0,0 -0.839121,0.52933 -0.839121,0.52933 v 0 c -0.05759,-0.0387 -0.02353,-0.02 -0.104956,-0.0507 -0.0711,-0.0159 -0.09332,-0.026 -0.165913,-0.0225 -0.02359,0.001 -0.08994,0.0235 -0.07,0.0109 0.257367,-0.1631 0.52636,-0.30714 0.786879,-0.46514 0.01837,-0.0111 -0.0412,0.0133 -0.05975,0.0241 -0.01905,0.0111 -0.0346,0.0274 -0.05191,0.041 -0.01308,0.0215 -0.03097,0.0408 -0.03924,0.0645 -0.01645,0.0473 -0.02218,0.16143 -0.02596,0.20785 -0.01036,0.12706 -0.02305,0.25396 -0.02853,0.38137 -0.0029,0.27455 0.01948,0.56172 0.161205,0.80352 0.02378,0.0272 0.04471,0.0572 0.07133,0.0817 0.1312,0.12041 0.320489,0.13661 0.474915,0.214 0.267415,0.111 0.531592,0.23039 0.803903,0.32888 0.384766,0.12764 0.776423,0.23648 1.176051,0.30682 0.400413,0.0587 0.802193,0.0873 1.206436,0.0449 0.411215,-0.0356 0.81778,-0.0974 1.206433,-0.2434 0.168592,-0.055 0.34004,-0.10653 0.503199,-0.17669 0.04509,-0.0194 0.174679,-0.0892 0.132788,-0.0636 -0.989061,0.60384 -0.917775,0.55849 -0.616459,0.35034 0.236578,-0.19218 0.415848,-0.43605 0.542083,-0.71417 0.14464,-0.39575 0.233975,-0.81024 0.252697,-1.2321 0.006,-0.34648 -0.0035,-0.69554 -0.141489,-1.01992 -0.140337,-0.29969 -0.31307,-0.58041 -0.517759,-0.84089 -0.209015,-0.25504 -0.441314,-0.4973 -0.730316,-0.66203 -0.282507,-0.14089 -0.582436,-0.24169 -0.900045,-0.25972 -0.262708,-0.008 -0.518867,0.0367 -0.773693,0.0999 -0.484369,0.11564 -0.969526,0.23648 -1.43407,0.41837 -0.396234,0.17609 -0.449703,0.21086 0.387636,-0.2669 0.0609,-0.0347 -0.119387,0.074 -0.175032,0.11667 -0.153842,0.11796 -0.277288,0.26466 -0.370481,0.43426 -0.1966,0.38349 -0.30112,0.77929 -0.313374,1.21203 -0.01178,0.35362 -0.01096,0.70825 0.04021,1.05928 0,0 -0.877394,0.46088 -0.877394,0.46088 z"
       inkscape:connector-curvature="0" />
    <path
       style="fill:#000000;stroke-width:1;stroke-miterlimit:4;stroke-dasharray:none;paint-order:stroke markers fill"
       id="path1637"
       d="m 13.776336,282.94085 c 0.286772,0.19112 0.578991,0.37272 0.874181,0.55048 0.257032,0.14161 0.499027,0.30933 0.758699,0.44589 0.247311,0.13516 0.498662,0.2627 0.741821,0.40527 0.24515,0.15768 0.520518,0.25657 0.790039,0.36331 0.305028,0.11844 0.624571,0.18548 0.945326,0.24425 0.302295,0.0507 0.608899,0.0622 0.914737,0.0685 0.284089,0.003 0.56821,0.002 0.852315,0.003 0.301946,5.3e-4 0.603887,-10e-4 0.905832,-0.002 0.229062,0.003 0.456294,0.001 0.683914,-0.0244 0.189263,-0.0184 0.377676,-0.0503 0.561892,-0.0976 0.232898,-0.0479 0.452931,-0.13812 0.67034,-0.23185 0.257609,-0.14689 0.517929,-0.28538 0.787974,-0.40789 0.04243,-0.0209 0.16809,-0.0865 0.127285,-0.0627 -1.363684,0.7987 -0.754662,0.48044 -0.51672,0.24566 0.07453,-0.0735 0.102928,-0.1127 0.169059,-0.19361 0.188221,-0.25624 0.342858,-0.53481 0.510326,-0.80458 0.168068,-0.25543 0.324429,-0.51697 0.452009,-0.79493 0.07878,-0.19889 0.192021,-0.38122 0.274309,-0.57832 0.05695,-0.17488 0.137467,-0.34064 0.207736,-0.51042 0,0 0.896109,-0.41181 0.896109,-0.41181 v 0 c -0.07389,0.16671 -0.150009,0.3348 -0.207965,0.50712 -0.07516,0.20419 -0.197465,0.38404 -0.278489,0.58582 -0.126651,0.28405 -0.281795,0.55202 -0.454663,0.81066 -0.170129,0.26784 -0.321384,0.5473 -0.498956,0.81048 -0.381265,0.51152 -0.808165,0.72478 -1.444637,1.00422 -0.268912,0.12593 -0.524448,0.27579 -0.791022,0.40616 -0.223128,0.0918 -0.449676,0.17583 -0.686965,0.2236 -0.187368,0.0392 -0.375985,0.0718 -0.567135,0.0858 -0.228333,0.0199 -0.45693,0.016 -0.685961,0.0138 -0.301184,-2.6e-4 -0.602365,-0.001 -0.903548,2.2e-4 -0.285123,10e-4 -0.570304,0.003 -0.855377,-0.004 -0.308267,-0.01 -0.616972,-0.0274 -0.920864,-0.0835 -0.324501,-0.064 -0.647882,-0.13471 -0.955664,-0.25932 -0.274795,-0.10784 -0.553577,-0.2103 -0.801893,-0.37322 -0.24348,-0.14065 -0.493009,-0.27074 -0.742034,-0.40125 -0.256907,-0.14145 -0.49679,-0.31235 -0.752759,-0.45585 -0.296045,-0.18185 -0.58979,-0.36766 -0.890725,-0.54123 0,0 0.831474,-0.53584 0.831474,-0.53584 z"
       inkscape:connector-curvature="0" />
    <path
       style="fill:#000000;stroke-width:1;stroke-miterlimit:4;stroke-dasharray:none;paint-order:stroke markers fill"
       id="path1639"
       d="m 24.281238,281.3743 c 0.25311,-0.14574 0.505269,-0.29313 0.759329,-0.43721 0.03418,-0.0194 -0.06566,0.0432 -0.09957,0.0631 -0.314857,0.18428 -0.630119,0.36788 -0.946657,0.54926 -0.03807,0.0218 -0.07829,0.0396 -0.117033,0.0602 -0.03844,0.0204 -0.15216,0.0846 -0.114503,0.0628 0.243145,-0.14093 0.487328,-0.28006 0.730992,-0.42009 -0.220376,0.13343 -0.428931,0.285 -0.641938,0.42967 -0.201968,0.15482 -0.394387,0.31858 -0.611092,0.45276 -0.507546,0.29868 -1.015455,0.59884 -1.542301,0.86258 -0.281735,0.13666 -0.572676,0.25142 -0.872116,0.34252 -0.317623,0.10111 -0.640159,0.18327 -0.963941,0.26172 -0.352926,0.0793 -0.713011,0.11814 -1.071251,0.16442 -0.351161,0.0689 -0.704991,0.11551 -1.06178,0.14082 -0.267965,0.0266 -0.532333,0.013 -0.79198,-0.0575 -0.231102,-0.0743 -0.444635,-0.19605 -0.650338,-0.32318 -0.223636,-0.15298 -0.448476,-0.30407 -0.675996,-0.45123 -0.211975,-0.12832 -0.429692,-0.25175 -0.658872,-0.34694 -0.166281,-0.079 -0.328251,-0.16517 -0.514924,-0.17082 -0.311894,0.0165 -0.601602,0.14229 -0.887889,0.25678 -0.02039,0.008 -0.23906,0.0911 -0.262152,0.10252 -0.04186,0.0207 -0.1613,0.0942 -0.120342,0.0717 1.012021,-0.55427 0.809377,-0.50096 0.433708,-0.15004 -0.169161,0.15594 -0.306004,0.34807 -0.484826,0.49391 -0.31729,0.25876 -0.713253,0.40234 -1.073693,0.59654 -0.157805,0.0214 -0.08026,0.0143 -0.232546,0.0223 0,0 0.790616,-0.58486 0.790616,-0.58486 v 0 c 0.142336,-0.0173 0.07044,-0.004 0.215496,-0.0396 -0.241189,0.14551 -0.483908,0.28852 -0.723567,0.43653 -0.03807,0.0235 0.08149,-0.0379 0.118599,-0.0629 0.19301,-0.13005 0.326543,-0.33508 0.493711,-0.49303 0.01853,-0.0182 0.237725,-0.23557 0.265767,-0.25358 0.449747,-0.28886 0.8538,-0.56903 1.346004,-0.74147 0.296698,-0.11299 0.600216,-0.23596 0.923452,-0.22579 0.190129,0.0302 0.359999,0.11346 0.532526,0.19666 0.227864,0.10668 0.448512,0.22992 0.661257,0.3641 0.226625,0.1477 0.452293,0.29686 0.678003,0.44596 0.20169,0.11803 0.405429,0.24009 0.633721,0.29882 0.253311,0.0557 0.510011,0.0613 0.768185,0.0365 0.353799,-0.028 0.703888,-0.081 1.053547,-0.14129 0.358024,-0.0469 0.717272,-0.0913 1.068856,-0.17596 0.323093,-0.0792 0.644065,-0.16602 0.960894,-0.26782 0.296362,-0.0984 0.586042,-0.21531 0.864707,-0.35676 0.356574,-0.18322 1.369773,-0.7545 -0.13571,0.10197 0.06978,-0.0415 0.141813,-0.0795 0.209545,-0.12435 0.144374,-0.0955 0.267649,-0.22056 0.40566,-0.32448 0.212518,-0.14539 0.423018,-0.29338 0.637751,-0.4354 0.315714,-0.18209 0.630867,-0.36515 0.947141,-0.54626 0.03775,-0.0216 0.07667,-0.0411 0.11489,-0.0619 0.562784,-0.30593 -1.038475,0.60373 -0.518621,0.29639 0.308727,-0.18252 0.619848,-0.36097 0.929772,-0.54145 0,0 -0.770491,0.62336 -0.770491,0.62336 z"
       inkscape:connector-curvature="0" />
    <path
       style="fill:#000000;stroke-width:1;stroke-miterlimit:4;stroke-dasharray:none;paint-order:stroke markers fill"
       id="path1641"
       d="m 18.816347,270.04518 c -0.02017,0.54827 -0.02107,1.09712 -0.02413,1.6457 -0.0053,0.75215 2.91e-4,1.50429 0.0033,2.25643 0.0042,0.59621 0.0043,1.19241 0.0016,1.78862 -0.002,0.63656 0.01052,1.27212 -0.03376,1.90743 -0.01484,0.36574 -0.08232,0.72472 -0.15833,1.08164 -0.09742,0.40243 0.628308,-0.089 -0.912519,0.46954 -0.02222,0.008 0.0076,-0.0467 0.01299,-0.0697 0.01713,-0.0726 0.04273,-0.15115 0.06443,-0.22186 0.09406,-0.29983 0.231848,-0.58287 0.38485,-0.85646 0.0753,-0.11387 0.152097,-0.2478 0.275702,-0.31775 0.92395,-0.52286 0.579611,-0.46629 1.018649,-0.52394 0.202595,-0.0218 0.402572,-0.0169 0.601643,0.025 0.282084,0.0637 0.445699,0.27504 0.582899,0.51316 0.140746,0.28491 0.160784,0.60367 0.17564,0.91558 0.01671,0.28769 -0.0092,0.57487 -0.07137,0.85574 -0.04633,0.17447 -0.138915,0.32903 -0.25986,0.46136 -0.37283,0.32885 -0.789473,0.57484 -1.270693,0.61219 -0.114987,-0.003 -0.223029,0.0331 -0.336575,0.047 -0.127449,0.013 -0.255607,0.0177 -0.383651,0.0193 -0.127235,-0.002 -0.254704,0.009 -0.380387,-0.013 -0.170775,-0.0451 -0.330582,-0.12112 -0.48809,-0.19966 -0.324052,-0.17424 -0.324666,-0.29007 -0.330299,-0.65424 0.0033,-0.22596 0.03961,-0.44849 0.07773,-0.67047 0,0 0.867348,-0.42219 0.867348,-0.42219 v 0 c -0.04258,0.21558 -0.08151,0.43172 -0.08318,0.65248 8.73e-4,0.3273 -2.06e-4,0.40473 0.291715,0.55131 0.15128,0.0713 0.304433,0.14594 0.471702,0.16999 0.124939,0.006 0.250053,0.003 0.375075,8.2e-4 0.12537,-0.004 0.251037,-0.009 0.375086,-0.0286 0.11293,-0.0198 0.224426,-0.0426 0.339729,-0.0434 0.06735,-0.008 0.133689,-0.0178 0.198244,-0.0399 0.02315,-0.008 0.08904,-0.0402 0.06807,-0.0276 -0.655908,0.39475 -1.057551,0.59622 -0.70703,0.41884 0.13782,-0.0974 0.226548,-0.25603 0.289334,-0.40983 0.07551,-0.27095 0.104833,-0.5529 0.09145,-0.834 -0.01325,-0.29631 -0.02623,-0.60053 -0.156697,-0.87283 -0.12661,-0.21869 -0.278518,-0.39616 -0.540906,-0.43857 -0.19344,-0.0272 -0.390322,-0.0278 -0.583046,0.008 -0.372347,0.11013 -0.08148,0.0314 0.688719,-0.42911 0.02372,-0.0142 -0.05086,0.0221 -0.07438,0.0366 -0.09682,0.0597 -0.167942,0.14792 -0.230802,0.24098 -0.1583,0.26383 -0.296382,0.54029 -0.389977,0.83421 -0.04278,0.14071 -0.02693,0.0816 -0.05863,0.20949 -0.0045,0.0181 0.0031,0.0454 -0.01325,0.0542 -0.29659,0.16013 -0.608071,0.29113 -0.908696,0.44355 -0.0056,0.003 0.01222,0.0131 0.0167,0.009 0.01307,-0.0129 0.01633,-0.0328 0.02449,-0.0493 0.09981,-0.35291 0.169651,-0.71438 0.192888,-1.08088 0.01772,-0.19902 0.03669,-0.38158 0.04291,-0.58194 0.01365,-0.44009 -0.0071,-0.8812 -5.55e-4,-1.32138 -0.0027,-0.59676 -0.0025,-1.19352 0.0016,-1.79028 0.003,-0.75326 0.0086,-1.50651 0.0033,-2.25978 -0.003,-0.54038 -0.0037,-1.08106 -0.02413,-1.62111 0,0 0.883135,-0.44998 0.883135,-0.44998 z"
       inkscape:connector-curvature="0" />
    <path
       style="fill:#ff0000;stroke-width:1;stroke-miterlimit:4;stroke-dasharray:none;paint-order:stroke markers fill"
       id="path1662"
       d="m 9.8397141,264.46074 c 0.4410239,0.11534 0.8983639,0.1433 1.3521299,0.15372 0.631422,-0.008 1.25963,-0.0761 1.888824,-0.12283 0.44687,-0.0306 0.894761,-0.0447 1.342605,-0.049 0.452793,-0.001 0.905584,0.002 1.358377,0.002 0.391523,-0.0126 0.782285,-0.0411 1.173458,-0.0613 0.262728,0.0114 0.51276,-0.0432 0.764388,-0.11032 0.221532,-0.0654 0.451609,-0.0864 0.681258,-0.0969 0.300375,-0.002 0.599541,-0.003 0.899145,-0.0255 0.189335,-0.0114 0.378584,-0.0546 0.564896,-0.006 0,0 -0.812036,0.56549 -0.812036,0.56549 v 0 c -0.178694,-0.0235 -0.358441,0.0132 -0.537439,0.0187 -0.301964,0.0185 -0.604073,0.0163 -0.906242,0.0295 -0.225621,0.0161 -0.449513,0.0463 -0.667271,0.11 -0.255295,0.0628 -0.511623,0.0996 -0.77543,0.0934 -0.387115,0.0148 -0.773852,0.0391 -1.161219,0.0469 -0.455138,-4e-4 -0.910289,1.8e-4 -1.36541,0.005 -0.442369,0.005 -0.884866,0.0131 -1.326334,0.0443 -0.629937,0.0435 -1.259004,0.10909 -1.890975,0.11308 -0.4677873,-0.0122 -0.9347059,-0.0474 -1.393436,-0.14494 0,0 0.8107111,-0.5649 0.8107111,-0.5649 z"
       inkscape:connector-curvature="0" />
    <path
       style="fill:#ff0000;stroke-width:1;stroke-miterlimit:4;stroke-dasharray:none;paint-order:stroke markers fill"
       id="path1664"
       d="m 22.115243,263.42686 c -0.368818,0.0278 -0.734338,0.0872 -1.098534,0.15015 -0.646075,0.12949 -1.301398,0.19554 -1.958031,0.23983 -0.797855,0.0418 -1.597049,0.0461 -2.395797,0.0511 -0.577989,0.003 -1.155983,0.005 -1.733977,0.007 -0.361662,0.001 -0.723324,0.002 -1.084987,0.002 -0.327462,-0.008 -0.64945,-0.0548 -0.97131,-0.11125 -0.27602,-0.0465 -0.549869,-0.10245 -0.828227,-0.13396 -0.157548,-0.0149 -0.315849,-0.0174 -0.473957,-0.0197 0,0 0.795708,-0.57541 0.795708,-0.57541 v 0 c 0.16056,0.005 0.321523,0.008 0.48119,0.0273 0.275584,0.0399 0.547819,0.098 0.822505,0.14328 0.318455,0.055 0.639075,0.0915 0.962643,0.0968 0.358708,9.7e-4 0.717414,0.002 1.076118,0.004 0.570577,0.004 1.141148,0.008 1.711743,0.008 0.797554,-0.002 1.595739,-0.006 2.392017,-0.0561 0.661303,-0.0502 1.319937,-0.12714 1.970191,-0.26082 0.374019,-0.0657 0.74929,-0.12281 1.126904,-0.16386 0,0 -0.794199,0.59056 -0.794199,0.59056 z"
       inkscape:connector-curvature="0" />
    <path
       style="fill:#ff0000;stroke-width:1;stroke-miterlimit:4;stroke-dasharray:none;paint-order:stroke markers fill"
       id="path1666"
       d="m 18.030414,264.23505 c 0.299661,-0.009 0.595635,0.0259 0.892541,0.0609 0.44427,0.0733 0.89267,0.11038 1.342039,0.13188 0.467229,0.0169 0.934861,0.0177 1.402337,0.0183 0.3935,6.9e-4 0.786983,-0.002 1.180458,-0.006 0.132237,0.006 0.267117,-0.0175 0.398115,0.009 0.06148,0.0123 0.127871,0.038 0.186442,0.0585 0.202514,0.10161 0.406666,0.18417 0.628897,0.22945 0.214204,0.0448 0.409079,0.11348 0.558566,0.27811 0.16017,0.26354 0.120526,0.46341 -0.01359,0.72765 -0.03676,0.0433 -0.06858,0.0914 -0.110292,0.12995 -0.04834,0.0447 -0.10128,0.0852 -0.158178,0.11829 -0.485044,0.28241 -0.787144,0.55001 -1.283079,0.63887 -0.290559,0.0521 -0.357624,0.0344 -0.661639,0.0276 -0.915702,-0.0693 -1.776173,-0.41702 -2.610103,-0.779 -0.148175,-0.0915 -0.610139,-0.22194 -0.672081,-0.43411 -0.01316,-0.0451 -0.01498,-0.11191 0.02344,-0.13893 0.800305,-0.56269 0.657038,-0.51272 1.195778,-0.60607 0.08947,-0.011 0.304844,-0.0463 0.404572,-0.0285 0.03345,0.006 0.115117,0.0279 0.08904,0.0496 -0.283779,0.23708 -0.588173,0.45209 -0.909223,0.63557 -0.09875,0.0564 -0.221588,0.0515 -0.333014,0.0744 -0.189253,0.0388 -0.379294,0.0736 -0.568941,0.11035 -1.980772,0.34086 -3.977959,0.56899 -5.979586,0.74251 -0.74537,0.0592 -1.491407,0.10984 -2.237967,0.15139 -0.358124,0.0199 -0.712718,0.0367 -1.068825,0.0791 -0.056491,0.0166 -0.2194859,0.081 -0.1694725,0.0499 0.2490607,-0.15484 0.5159035,-0.27913 0.7709695,-0.42387 0.0034,-0.002 -0.0088,-0.011 -0.0048,-0.0109 0.10787,0.003 0.213083,0.0348 0.320307,0.047 0.112416,0.0127 0.225376,0.0201 0.338064,0.0302 0.818123,0.0503 1.638368,0.0549 2.457751,0.0474 0.500429,-0.007 0.689529,-0.14712 -0.630162,0.5705 -0.05282,0.0287 -0.120166,-0.005 -0.180274,-0.006 -0.204072,-0.005 -0.370402,-0.005 -0.576783,-0.007 -0.476628,-0.0255 -0.959992,0.0456 -1.433695,-0.0242 -0.02932,-0.0164 -0.06931,-0.0213 -0.08797,-0.0492 -0.06306,-0.0944 -0.0058,-0.17313 0.07904,-0.22346 0.79984,-0.47448 0.854028,-0.52715 1.531577,-0.70226 0.580003,-0.12038 1.077085,-0.3154 -0.439588,0.51616 -0.07273,0.0399 -0.165437,0.0125 -0.248024,0.0202 -0.130383,0.0122 -0.260571,0.0265 -0.390857,0.0397 -0.924303,0.11081 -1.8516913,0.19135 -2.7802981,0.2553 -0.1438299,0.005 -0.7311371,0.0715 -0.6953194,-0.23203 0.00747,-0.0633 0.040831,-0.12541 0.085219,-0.17113 0.067403,-0.0694 0.1598525,-0.10908 0.2397786,-0.16362 0.3956899,-0.19708 0.7772704,-0.42548 1.1870695,-0.59124 0.25033,-0.10126 0.9614564,-0.13757 1.1872404,-0.14259 0.551955,-0.0123 1.037142,0.0164 1.585584,0.0882 0.259511,0.034 0.516133,0.0873 0.774199,0.13088 0.66616,0.15672 1.365551,0.29619 1.971651,0.63255 0.123664,0.0686 0.235177,0.15728 0.355426,0.23173 0.04083,0.0108 0.08034,0.0297 0.122489,0.0325 0.173615,0.0116 0.368987,-0.0955 0.523381,-0.15477 0.369408,-0.1418 0.137359,-0.0482 0.51346,-0.20512 0.237235,-0.0941 0.470231,-0.20031 0.715684,-0.27219 0.05954,-0.0174 0.162712,-0.0515 0.230667,-0.0368 -0.287138,0.19692 -0.565424,0.40742 -0.861415,0.59076 -0.04643,0.0288 -0.119618,-0.0794 -0.125134,-0.0912 -0.06526,-0.13905 0.02554,-0.24149 0.105362,-0.34438 0.483275,-0.35725 1.016629,-0.69324 1.614486,-0.8041 0.182712,-0.0339 0.2498,-0.0289 0.431894,-0.034 0.08637,0.0198 0.287809,-0.001 0.365608,0.0645 0.01796,0.0152 0.05283,0.048 0.03388,0.0619 -0.782826,0.57492 -0.545446,0.55032 -0.985149,0.56266 -0.286563,-0.0141 -0.592693,-0.0265 -0.8584,-0.14814 -0.04801,-0.022 -0.09155,-0.0527 -0.137325,-0.079 -0.09305,-0.0872 -0.195955,-0.20904 -0.150371,-0.35026 0.0134,-0.0415 0.03387,-0.0869 0.07086,-0.11005 0.895105,-0.5599 0.647157,-0.49159 1.201248,-0.59108 0.241508,-0.0304 0.488307,-0.0562 0.731985,-0.0332 0.03016,0.003 0.250321,0.0264 0.287919,0.0885 0.02241,0.037 0.0058,0.0864 0.0087,0.12956 -0.334452,0.19391 -0.656207,0.41159 -1.003355,0.58172 -0.07905,0.0387 -0.690591,0.1066 -0.716816,0.10873 -0.541303,0.0439 -1.083999,0.0255 -1.625811,0.009 -0.488353,-0.0466 -1.301144,-0.0629 -1.691655,-0.4163 -0.04236,-0.0383 -0.0713,-0.0893 -0.106952,-0.13391 -0.01211,-0.0458 -0.03476,-0.09 -0.03633,-0.13737 -0.003,-0.0918 0.04429,-0.18733 0.126598,-0.23335 0.334192,-0.18683 0.669129,-0.37647 1.023714,-0.5209 0.09947,-0.0405 0.446089,0.0453 0.524524,0.0609 0.301789,0.0914 0.586337,0.22318 0.849222,0.39715 0.137282,0.0909 0.27248,0.18599 0.36765,0.32399 0.03431,0.0498 0.05044,0.10984 0.07566,0.16476 0.0015,0.0496 0.01603,0.10062 0.0045,0.14893 -0.01156,0.0484 -0.02994,0.10349 -0.07137,0.13099 -0.317456,0.21077 -0.647712,0.40388 -0.989128,0.5731 -0.0716,0.0355 -0.157601,0.0277 -0.237199,0.0347 -0.22836,0.0202 -0.346341,0.009 -0.575833,0.002 -0.247745,-0.0264 -0.952108,-0.0391 -0.924341,-0.43865 0.0048,-0.0695 0.04734,-0.13112 0.07102,-0.19668 0.534894,-0.55314 1.296021,-0.93554 2.067446,-0.99314 0.347471,-0.026 0.483629,0.003 0.823634,0.0384 0.203198,0.0428 1.110821,0.18325 0.963841,0.57779 -0.02142,0.0575 -0.07704,0.0955 -0.115556,0.14325 -0.35028,0.18961 -0.687854,0.40486 -1.050841,0.56884 -0.129379,0.0584 -0.570237,0.057 -0.688472,0.0545 -0.370927,-0.008 -0.734436,-0.059 -1.099699,-0.11859 -0.08368,-0.0146 -0.167396,-0.0291 -0.251056,-0.0438 -0.48476,-0.0855 -0.338274,-0.0331 0.688239,-0.57216 0.0025,-0.001 0.135771,0.0715 0.177382,0.094 0.02626,0.0224 0.06131,0.0374 0.07878,0.0672 0.0483,0.0824 0.0266,0.18137 -0.06003,0.23552 -0.335477,0.20966 -0.681881,0.40326 -1.038535,0.57443 -0.0998,0.0479 -0.615887,0.12062 -0.692211,0.13275 -0.779235,0.11463 -1.568118,0.10461 -2.341912,-0.0379 -0.123374,-0.0476 -0.246768,-0.0696 -0.329219,-0.18388 -0.03513,-0.0487 -0.07564,-0.20108 -0.0028,-0.25107 0.853624,-0.58575 0.638164,-0.52984 1.197612,-0.59727 0.261621,-0.0115 0.520072,0.0202 0.76995,0.0987 0.109672,0.0345 0.267379,0.0884 0.34838,0.18241 0.0343,0.0398 0.04479,0.0951 0.06718,0.14262 -0.01517,0.0571 -0.01403,0.12128 -0.0455,0.17127 -0.04114,0.0654 -0.09918,0.12215 -0.164828,0.16284 -0.349561,0.21667 -0.707782,0.42031 -1.074935,0.60562 -0.298735,0.15077 -0.782325,0.1608 -1.107731,0.1801 -0.508187,0.007 -1.0292572,-0.0294 -1.5162516,-0.18689 -0.213246,-0.0689 -0.2592996,-0.10349 -0.4457557,-0.20382 -0.09107,-0.0798 -0.2480813,-0.1754 -0.2487184,-0.31899 -1.469e-4,-0.0331 5.027e-4,-0.0775 0.02851,-0.0952 0.8682114,-0.54927 0.5999448,-0.54287 1.0775196,-0.51147 0.2255911,0.0447 0.4614561,0.17359 0.4962321,0.42595 0.0055,0.0401 -0.0039,0.0809 -0.0058,0.12133 -0.05867,0.10754 -0.05231,0.13064 -0.167885,0.19395 -0.7540313,0.41305 -0.8303234,0.62924 -1.4849584,0.47323 -0.2304954,-0.085 -0.466834,-0.24488 -0.5040738,-0.50954 -0.0062,-0.0441 0.00167,-0.089 0.00251,-0.13349 0.013444,-0.0393 0.018616,-0.0825 0.040328,-0.11789 0.0234,-0.0382 0.053091,-0.0757 0.091974,-0.0978 0.3210917,-0.18309 0.6433458,-0.36702 0.982199,-0.51467 0.1005493,-0.0438 0.3760642,0.0863 0.4679375,0.12924 0.2459997,0.18126 0.3311987,0.403 0.2820077,0.69971 -0.02637,0.0716 -0.05808,0.16455 -0.1294134,0.20672 -0.3193529,0.18882 -0.6727495,0.66914 -0.9985211,0.49162 -0.031298,-0.0171 -0.055463,-0.0448 -0.083194,-0.0672 -0.1253347,-0.18136 -0.2139114,-0.41188 -0.18483,-0.63498 0.1205572,-0.36224 0.041954,-0.16431 0.9169405,-0.50704 0.030496,-0.0119 0.030861,0.0581 0.041518,0.0891 0.035286,0.10255 0.039235,0.21893 0.05021,0.32571 -0.026225,0.18442 0.00448,0.36088 0.027737,0.5433 0.012676,0.33944 0.017185,0.68701 -0.067957,1.01791 -0.1827003,0.40531 -0.9363199,0.98514 -1.1518905,0.45988 -0.037816,-0.42068 0.4028874,-0.3833 0.9274024,-0.55441 0.039606,-0.0129 0.045558,0.0703 0.061521,0.10879 0.055384,0.13352 0.06848,0.24858 0.096057,0.39191 0.058751,0.62695 0.00289,1.25465 -0.092462,1.87461 -0.05839,0.3512 -0.1236083,0.70145 -0.1618972,1.05558 -0.030596,0.393 -0.027083,0.78762 -0.04177,1.18138 -0.043989,0.66133 -0.1120659,1.32055 -0.1502857,1.98235 -0.015497,0.1835 -0.00468,0.37284 -0.044861,0.55403 -0.00744,0.0335 -0.00424,0.0788 -0.032991,0.0977 -0.9056934,0.5925 -0.695171,0.77672 -0.9995773,0.38093 -0.2499421,-0.56147 -0.3301773,-1.18047 -0.4136475,-1.78434 -0.010083,-0.0836 -0.022117,-0.16688 -0.030251,-0.25064 -0.00417,-0.043 -0.040814,-0.42779 0.015396,-0.46539 0.9054542,-0.6057 0.686703,-0.77702 1.013917,-0.40068 0.026959,0.0698 0.060988,0.13723 0.080877,0.20935 0.06071,0.22013 0.090252,0.50831 0.1104689,0.72879 0.045061,0.49142 0.063183,0.98554 0.086115,1.47832 0.006,0.1384 0.014647,0.27672 0.018013,0.41521 0.00436,0.17956 0.00817,0.36947 -0.022704,0.54846 -0.00542,0.0314 -0.00201,0.0774 -0.031093,0.0904 -1.025998,0.45857 -0.8624845,0.64355 -1.0297115,0.0274 -0.2951157,-1.33304 -0.4228388,-2.696 -0.5591733,-4.05239 -0.031542,-0.39907 -0.089655,-0.79887 -0.072111,-1.20037 0.00251,-0.0578 0.010417,-0.11529 0.019479,-0.17241 0.00339,-0.0213 -0.00212,-0.0539 0.017769,-0.0624 0.3021293,-0.12869 0.6166377,-0.22613 0.9249566,-0.33919 0.06354,0.57745 0.09056,1.16094 0.096538,1.74202 -0.040217,0.54371 -0.1283107,0.56391 -0.9287906,0.85761 -0.064028,0.0235 -0.07091,-0.11851 -0.088815,-0.18432 -0.038298,-0.14077 -0.05859,-0.58451 -0.065694,-0.691 -0.02814,-0.63464 -0.015735,-0.33796 -0.040973,-0.97511 -0.01357,-0.34254 -0.049257,-0.70189 0.040248,-1.03888 0.011872,-0.0447 0.037331,-0.0846 0.055997,-0.12694 0.3097765,-0.14939 0.5962967,-0.36233 0.9293294,-0.44817 0.065863,-0.017 0.058851,0.12328 0.078093,0.18851 0.066309,0.22482 0.1021641,0.53573 0.1187606,0.7701 0.00491,0.0693 0.00185,0.13885 0.00276,0.20828 -0.052965,0.38741 -0.028831,0.4259 -0.9259652,0.45174 -0.1089077,0.003 -0.020082,-0.21702 -0.02644,-0.32579 -0.032162,-0.55007 -0.023125,-1.09887 -0.013721,-1.64942 0.010078,-0.17824 0.014031,-0.35693 0.030233,-0.53471 0.022349,-0.24525 0.057714,-0.49501 0.1371613,-0.72966 0.1479417,-0.43695 0.5045027,-0.53633 1.015733,-0.72717 0.06005,-0.0224 0.080858,0.0995 0.1212874,0.14922 0.025067,0.0808 0.056148,0.15995 0.075199,0.24236 0.04063,0.17576 0.073744,0.47109 0.092694,0.64734 0.027683,0.25747 0.045757,0.50114 0.021804,0.75865 -0.1126884,0.35086 -0.1088641,0.4014 -0.9586508,0.33318 -0.1155591,-0.009 -0.027263,-0.2303 -0.036944,-0.34583 -0.039128,-0.4669 -0.058699,-0.93567 -0.076378,-1.40374 0.00814,-0.27023 -0.00143,-0.41079 0.051057,-0.66529 0.012105,-0.0587 0.00619,-0.13562 0.054241,-0.17145 0.2817193,-0.21011 0.5721098,-0.42667 0.9037343,-0.54301 0.068143,-0.0239 0.087966,0.11876 0.1068287,0.18847 0.030629,0.11319 0.025855,0.23309 0.038783,0.34964 0.01,0.98246 -0.030107,1.96659 -0.1920838,2.93657 -0.022871,0.0832 -0.039233,0.16853 -0.068615,0.24969 -0.1552374,0.4288 -0.7900995,0.59864 -1.1344743,0.68015 -0.068133,0.0161 -0.083761,-0.11333 -0.1136783,-0.17663 -0.037322,-0.079 -0.05778,-0.16485 -0.08667,-0.24728 -0.07897,-0.38406 -0.227267,-0.87362 -0.1349359,-1.26642 0.00896,-0.0381 0.027919,-0.0732 0.041878,-0.10975 0.3034072,-0.16759 0.5839735,-0.3857 0.9102214,-0.50276 0.053115,-0.0191 0.070228,0.091 0.08816,0.14452 0.056298,0.16798 0.056361,0.44721 0.056427,0.60925 9.1e-5,0.22589 -0.017971,0.54597 -0.028905,0.773 -0.017859,0.28468 -0.060011,0.56799 -0.050094,0.85393 0.0065,0.18735 0.039738,0.37338 0.06719,0.5584 0.010552,0.0992 0.1079759,0.557 -0.0031,0.62269 -0.3018742,0.17851 -0.6192628,0.32939 -0.9288944,0.49408 -0.037245,-0.0308 -0.081085,-0.0551 -0.1117335,-0.0925 -0.1056386,-0.12895 -0.1880431,-0.33106 -0.2473717,-0.47768 -0.1291166,-0.31908 -0.2332701,-0.6481 -0.3375969,-0.97583 -0.022587,-0.0825 -0.048613,-0.16422 -0.067764,-0.24763 -0.00585,-0.0255 -0.069768,-0.34622 -0.00243,-0.37749 0.9859195,-0.45779 0.8029421,-0.68274 1.0370627,-0.21969 0.1194906,0.54362 0.1429813,1.10786 0.1426818,1.66349 -0.00722,0.10132 -0.00367,0.18945 -0.041713,0.28431 -0.010964,0.0273 -0.021087,0.0612 -0.04731,0.0746 -0.3070834,0.15705 -0.6094884,0.33491 -0.9408274,0.43071 -0.050507,0.0146 -0.059942,-0.0871 -0.081226,-0.1352 -0.026437,-0.0597 -0.040701,-0.12411 -0.061052,-0.18616 -0.058419,-0.31185 -0.1842937,-0.74306 -0.057524,-1.04906 0.3049146,-0.15862 0.5916057,-0.35875 0.9147437,-0.47587 0.04403,-0.016 0.057942,0.0741 0.080465,0.11517 0.095452,0.17401 0.1436886,0.38215 0.1729171,0.57642 -0.028923,0.43598 -0.4221234,0.45357 -0.9815864,0.54743 -0.074106,0.0124 -0.058568,-0.1386 -0.081756,-0.21008 -0.080624,-0.24851 -0.1383049,-0.51534 -0.1988939,-0.76804 -0.09797,-0.46236 -0.1861953,-0.92782 -0.2518879,-1.39601 -0.02923,-0.20832 -0.061195,-0.47389 -0.060359,-0.68906 2.91e-4,-0.0747 0.011367,-0.14898 0.017052,-0.22347 0.1174287,-0.49152 0.3487962,-0.47063 1.0034082,-0.75335 0.07384,-0.0319 0.2077119,0.28664 0.222826,0.32346 0.061367,0.25471 0.1643883,0.54281 0.056533,0.7979 -0.3110224,0.13728 -0.6001517,0.34294 -0.9330679,0.41185 -0.070551,0.0146 -0.054365,-0.13395 -0.071888,-0.20383 -0.1300382,-0.51858 -0.1079611,-1.05597 -0.084757,-1.58443 0.028013,-0.30535 0.041966,-0.62388 0.1604023,-0.91197 0.030185,-0.0734 0.1065443,-0.21254 0.1861365,-0.25667 0.3134008,-0.17379 0.6389346,-0.32474 0.9584018,-0.48711 0.041028,0.0314 0.088217,0.0561 0.1230855,0.0942 0.1796759,0.19642 0.256957,0.57724 0.2945664,0.83471 -0.00266,0.49119 -0.3038004,0.42332 -0.9234373,0.7532 -0.044196,0.0235 -0.1415336,-0.0658 -0.1544765,-0.0885 -0.019526,-0.0343 -0.020291,-0.0762 -0.030438,-0.11434 0.013846,-0.0446 0.019997,-0.0924 0.041533,-0.13383 0.064073,-0.12331 0.1986327,-0.23513 0.3177323,-0.30197 0.9716304,-0.5453 0.6089763,-0.48313 1.1016501,-0.54546 0.2178589,0.0164 0.3557383,0.16938 0.3856598,0.37853 -0.021563,0.38247 0.00524,0.18229 -0.9006514,0.51553 -0.038613,0.0142 -0.035188,-0.0756 -0.041213,-0.11634 -0.032234,-0.21776 0.051486,-0.42917 0.1209247,-0.62925 0.1154456,-0.22337 0.2398643,-0.53217 0.4682426,-0.67008 0.9373793,-0.56604 0.5976136,-0.63247 1.0469541,-0.50987 0.02612,0.0375 0.062097,0.0699 0.078362,0.11259 0.1006708,0.26449 -0.093387,0.734 -0.1886029,0.98525 -0.2073728,0.45004 -0.3504965,0.50325 -1.0313442,0.71794 -0.059131,0.0186 -0.019862,-0.12801 0.00209,-0.18599 0.063306,-0.16722 0.3132722,-0.37474 0.4214465,-0.47931 0.9287995,-0.69663 1.9732791,-1.28194 3.1315111,-1.4659 0.134919,-0.0214 0.271846,-0.0274 0.407769,-0.041 0.343317,0.01 0.84025,0.0328 0.978117,0.42489 0.01407,0.04 0.01511,0.0835 0.02266,0.12522 -0.0031,0.0364 -0.002,0.0734 -0.0092,0.10911 -0.0063,0.0307 -0.04451,0.13964 -0.07771,0.16066 -0.317722,0.20109 -0.647152,0.64717 -1.001018,0.52003 -0.03028,-0.0109 -0.05599,-0.0317 -0.08398,-0.0476 -0.01833,-0.035 -0.04788,-0.0662 -0.05498,-0.10516 -0.03679,-0.20163 0.173765,-0.33539 0.317857,-0.41806 1.078571,-0.61885 0.728338,-0.48199 1.421799,-0.70785 0.475157,-0.0994 1.148675,-0.25426 1.612774,-0.0352 0.04806,0.0227 0.08644,0.0618 0.129666,0.0928 0.01914,0.0334 0.04801,0.0628 0.05743,0.10014 0.0087,0.0344 0.02328,0.0852 -0.0053,0.10615 -0.330114,0.24176 -0.639511,0.58842 -1.056664,0.57998 -0.145027,-0.003 -0.185299,-0.0235 -0.32646,-0.0617 -0.363377,-0.15419 -0.588675,-0.46983 -0.763082,-0.80994 -0.02831,-0.0964 -0.07266,-0.19541 -0.04842,-0.29997 0.08501,-0.36665 1.008199,-0.65754 1.058607,-0.67885 0.08588,-0.0363 0.480873,0.0924 0.532806,0.10703 0.297459,0.1195 0.586362,0.26602 0.85011,0.44927 0.130145,0.0904 0.26078,0.18949 0.346319,0.32686 0.03132,0.0503 0.04362,0.1102 0.06544,0.1653 -0.0164,0.13991 0.0069,0.20584 -0.144358,0.28841 -0.359905,0.19646 -0.720993,0.39738 -1.106017,0.53839 -0.126716,0.0464 -0.269624,0.0144 -0.40457,0.0148 -0.484771,0.002 -0.559525,-0.0168 -1.0567,-0.0603 -0.724989,-0.11411 -1.653569,-0.21482 -2.201222,-0.76847 -0.07467,-0.0755 -0.126566,-0.17052 -0.189849,-0.25578 -0.02747,-0.0896 -0.07463,-0.17534 -0.0824,-0.2687 -0.02811,-0.3377 0.217046,-0.58136 0.490292,-0.73062 1.203034,-0.65715 0.816437,-0.54226 1.703204,-0.68833 0.89171,-0.0679 1.824296,0.036 2.592411,0.53308 0.111895,0.0724 0.208083,0.16661 0.312124,0.24991 0.07071,0.0903 0.153352,0.17242 0.21214,0.27091 0.187373,0.31389 0.183915,0.69747 4.77e-4,1.01051 -0.03556,0.0607 -0.08477,0.11226 -0.127149,0.1684 -0.399638,0.35932 -0.89353,0.73287 -1.448527,0.72615 -0.119583,-10e-4 -0.156863,-0.0167 -0.270453,-0.0437 -0.09088,-0.0459 -0.165482,-0.0564 -0.176865,-0.18518 -0.01482,-0.16763 0.115632,-0.27461 0.245626,-0.35136 1.085614,-0.64096 0.830334,-0.53046 1.641753,-0.77015 0.843187,-0.16109 1.714624,-0.25395 2.571672,-0.15193 0.100653,0.012 0.199977,0.0333 0.299965,0.0499 0.09439,0.0342 0.248555,0.0543 0.290446,0.17543 0.03812,0.11024 -0.03512,0.20004 -0.123535,0.25112 -0.95799,0.55358 -0.676239,0.4716 -1.257321,0.59525 -0.261968,0.0427 -0.818754,0.12049 -1.056876,-0.0235 -0.05118,-0.0309 -0.08632,-0.0828 -0.129477,-0.1242 -0.02281,-0.0583 -0.05751,-0.11329 -0.06844,-0.17495 -0.05307,-0.29944 0.168827,-0.56047 0.419224,-0.68743 0.367092,-0.18612 0.743155,-0.354 1.114733,-0.531 0.381556,-0.0335 0.761295,0.025 1.13484,0.0975 0.193242,0.0375 0.465757,0.096 0.65325,0.1724 0.0702,0.0286 0.133307,0.0722 0.199961,0.10833 0.02911,0.0409 0.08087,0.0728 0.08732,0.12254 0.0068,0.0525 -0.0072,0.12183 -0.05195,0.15 -0.343067,0.21578 -0.701342,0.41311 -1.078639,0.56111 -0.136677,0.0536 -0.292404,0.0287 -0.439114,0.0342 -0.54666,0.0207 -0.718856,-0.001 -1.282666,-0.0291 -0.642674,-0.05 -1.284001,-0.11976 -1.918562,-0.23474 -0.194273,-0.0352 -0.651086,-0.12572 -0.853467,-0.19984 -0.09061,-0.0332 -0.172206,-0.0871 -0.258309,-0.13069 -0.03176,-0.0564 -0.09444,-0.10453 -0.09529,-0.16927 -9.52e-4,-0.0722 0.03115,-0.15563 0.0905,-0.1967 0.342929,-0.2373 0.711149,-0.43888 1.08752,-0.61848 0.124325,-0.0593 0.266932,-0.0696 0.40274,-0.0927 0.453401,-0.077 0.644415,-0.0687 1.115789,-0.0883 0.66699,-0.004 1.323952,0.10685 1.970425,0.26117 0.340309,0.0812 0.675359,0.16427 0.991182,0.31901 0.09974,0.0489 0.187252,0.11948 0.280878,0.17922 0.03339,0.0614 0.09711,0.11437 0.100174,0.1842 0.003,0.0688 -0.02642,0.15076 -0.08379,0.18886 -0.348107,0.23116 -0.718379,0.43174 -1.101611,0.59831 -0.134839,0.0586 -0.289597,0.0518 -0.435517,0.0698 -0.409031,0.0504 -0.748659,0.0634 -1.162357,0.0878 -0.596892,0.0199 -1.197997,0.0359 -1.791939,-0.043 -0.265773,-0.0353 -0.556882,-0.0863 -0.796032,-0.22094 -0.08318,-0.0468 -0.147372,-0.12139 -0.221059,-0.18208 -0.02697,-0.0725 -0.07977,-0.14015 -0.08092,-0.21749 -0.003,-0.20139 0.156583,-0.35239 0.313529,-0.44434 0.384573,-0.2253 0.773363,-0.44788 1.183664,-0.62198 0.27765,-0.11781 0.912834,-0.12512 1.178992,-0.14057 0.251452,0.007 0.503344,0.005 0.754356,0.022 0.978237,0.0646 2.028146,0.24178 2.971596,0.51326 0.16482,0.0474 0.325081,0.10947 0.487621,0.1642 0.127094,0.067 0.419821,0.17206 0.488443,0.34968 0.07206,0.18651 -0.112502,0.29711 -0.241934,0.36537 -1.172317,0.61826 -0.830799,0.51388 -1.699826,0.65796 -0.939612,0.12799 -1.891691,0.117 -2.83786,0.099 -0.07923,-0.005 -0.158735,-0.007 -0.237701,-0.0156 -0.04109,-0.004 -0.21787,-0.0215 -0.266109,-0.0707 -0.02238,-0.0228 -0.05937,-0.0701 -0.03404,-0.0896 0.754976,-0.58049 0.597291,-0.52623 1.0985,-0.62575 0.548626,-0.0824 1.110127,-0.0694 1.661989,-0.0256 0.227919,0.0188 0.509058,0.14068 0.269431,0.3776 -0.665317,0.38809 -0.80277,0.68308 -1.395457,0.44392 -0.03142,-0.0172 -0.066,-0.0296 -0.09427,-0.0516 -0.108429,-0.0844 -0.140153,-0.27304 -0.0048,-0.35687 0.311549,-0.19291 0.63543,-0.36515 0.953145,-0.54772 0.237848,-0.0217 0.609815,-0.0253 0.815769,0.11542 0.03733,0.0255 0.06307,0.0648 0.09461,0.0972 0.01301,0.0417 0.03723,0.0815 0.03903,0.12513 0.0073,0.17741 -0.133851,0.29873 -0.273786,0.37631 -1.009383,0.55962 -0.662265,0.45582 -1.227225,0.59622 -0.27241,0.0425 -0.652194,0.0521 -0.909615,-0.0666 -0.03725,-0.0172 -0.06724,-0.047 -0.10086,-0.0705 -0.011,-0.0317 -0.05966,-0.0747 -0.03299,-0.0951 0.293024,-0.22356 0.606877,-0.42191 0.933771,-0.59214 0.07122,-0.0371 0.159923,-0.0155 0.240138,-0.0192 0.352994,-0.0163 0.697354,0.0112 1.048238,0.0461 0.140345,0.0225 0.923856,0.0993 0.837572,0.39163 -0.01132,0.0383 -0.04847,0.0636 -0.07271,0.0954 -0.329529,0.17443 -0.649574,0.3681 -0.988588,0.5233 -0.05801,0.0266 -0.126929,0.0142 -0.190684,0.0166 -0.317828,0.012 -0.610242,-0.0623 -0.912306,-0.15146 -0.186227,-0.0602 -0.367521,-0.13488 -0.547828,-0.2107 -0.03376,-0.0142 -0.133209,-0.0806 -0.177253,-0.0561 0.860189,-0.47694 0.930411,-0.78412 0.826854,-0.38708 -0.06016,0.23066 -0.157457,0.4274 -0.280567,0.6309 -0.314391,0.45864 -0.856492,0.95716 -1.422303,0.98177 -0.09783,-0.0115 -0.190596,-0.0458 -0.281296,-0.0826 -0.01653,-0.007 -0.04502,-0.0331 -0.04963,-0.009 -0.114007,-0.0753 -0.238035,-0.13268 -0.348749,-0.21376 0.290359,-0.17596 0.571168,-0.36874 0.871077,-0.52787 0.01839,-0.01 0.03656,0.0228 0.04765,0.0404 0.03791,0.0603 0.04754,0.13113 0.01441,0.1978 -0.05643,0.11358 -0.162019,0.15953 -0.262395,0.22609 -0.581556,0.3666 -1.149813,0.69012 -1.819312,0.82777 -0.166079,0.0342 -0.301824,0.0444 -0.468784,0.0618 -0.266441,0.008 -0.5494,0.008 -0.785445,-0.13597 -0.05396,-0.0329 -0.101716,-0.0751 -0.152573,-0.11265 -0.178861,-0.162 -0.331943,-0.34924 -0.486451,-0.53378 -0.130925,-0.15637 -0.217626,-0.25076 -0.298852,-0.43669 -1.97e-4,-0.0353 -0.0084,-0.0714 -5.82e-4,-0.10583 0.0068,-0.0299 0.01687,-0.0653 0.04294,-0.0814 0.169559,-0.10522 0.643367,-0.53364 1.021278,-0.52685 0.06004,10e-4 0.119679,0.0109 0.1797,0.0128 0,0 -0.801371,0.57799 -0.801371,0.57799 v 0 c -0.05482,-0.002 -0.112398,-0.007 -0.167052,0.002 -0.02864,0.005 -0.108522,0.0379 -0.08413,0.0222 0.250974,-0.16153 0.514852,-0.30228 0.767107,-0.4618 0.02099,-0.0133 -0.05223,0.006 -0.07125,0.0218 -0.01757,0.0147 -0.01937,0.0416 -0.02905,0.0624 0.05775,0.18361 0.141295,0.2693 0.264399,0.4188 0.148169,0.17993 0.298731,0.36008 0.48158,0.50647 0.04911,0.0313 0.09582,0.0668 0.147335,0.094 0.228117,0.12048 0.497035,0.1103 0.746329,0.10147 0.333582,-0.0383 0.651872,-0.10467 0.966991,-0.22443 0.08364,-0.0318 0.319462,-0.15753 0.247068,-0.10494 -0.189932,0.13797 -0.402096,0.2424 -0.603143,0.3636 0.06744,-0.0362 0.203397,-0.10279 0.270556,-0.15831 0.0012,-10e-4 0.06257,-0.0547 0.04267,-0.0809 -0.0084,-0.011 -0.0477,-0.0111 -0.03667,-0.0194 0.25919,-0.19559 0.533074,-0.37091 0.799611,-0.55636 0.08725,0.0777 0.209433,0.14092 0.321949,0.16635 0.08615,0.0639 0.197388,0.0843 0.302989,0.0768 0.357819,-0.10386 0.143123,-0.0491 -0.666203,0.42233 -0.0334,0.0195 0.06524,-0.0417 0.09544,-0.0658 0.125115,-0.0999 0.225503,-0.22559 0.317242,-0.35567 0.09843,-0.14931 0.190993,-0.29738 0.24921,-0.46797 0.01345,-0.0394 0.02307,-0.0802 0.0309,-0.12107 0.0055,-0.0289 -0.01491,-0.0707 0.009,-0.0877 0.276481,-0.19641 0.577365,-0.35598 0.866047,-0.53397 0.22437,0.12216 0.459347,0.22456 0.703793,0.29987 0.29576,0.0823 0.586045,0.1485 0.895564,0.11452 0.06265,-0.007 0.235805,-0.0725 0.18605,-0.0338 -0.216538,0.16839 -0.466452,0.28878 -0.699677,0.43318 0.0701,-0.0147 0.143174,-0.0217 0.13662,-0.0521 -0.01483,-0.069 -0.189758,-0.1284 -0.212848,-0.13642 -0.203373,-0.0706 -0.3196,-0.0774 -0.538869,-0.11181 -0.349772,-0.0323 -0.699206,-0.0641 -1.04975,-0.0157 -0.08074,0.0112 -0.298667,0.10955 -0.238319,0.0548 0.895607,-0.81311 0.839964,-0.72136 0.694162,-0.45457 0.273457,0.1754 0.64505,0.13273 0.948112,0.0787 0.462729,-0.13707 0.173125,-0.0703 -0.445006,0.34104 -0.04907,0.0326 0.109143,-0.046 0.158905,-0.0775 0.05724,-0.0363 0.137582,-0.10653 0.154902,-0.18021 0.0061,-0.026 -0.0069,-0.0529 -0.01036,-0.0794 -0.02353,-0.0226 -0.04263,-0.051 -0.0706,-0.0678 -0.199656,-0.11987 -0.553245,-0.113 -0.76868,-0.0466 0.241569,-0.14559 0.482735,-0.29185 0.724707,-0.43676 0.04582,-0.0274 -0.101585,0.0495 -0.128657,0.0955 -0.04378,0.0745 0.09659,0.11817 0.131665,0.13615 0.123395,0.0405 0.239013,0.0719 0.368438,0.0364 0.024,-0.007 0.091,-0.0396 0.06973,-0.0267 -0.257742,0.15636 -0.520045,0.30508 -0.780067,0.45762 0.02265,-0.009 0.135643,-0.0419 0.142035,-0.0768 0.0165,-0.09 -0.263167,-0.0879 -0.273635,-0.10237 -0.547683,-0.0462 -1.10774,-0.0638 -1.647315,0.0569 -0.05899,0.0209 -0.226693,0.10062 -0.176976,0.0626 0.232301,-0.17756 0.489735,-0.31968 0.730442,-0.48567 0.0076,-0.005 -0.03512,-0.004 -0.02759,10e-4 0.02139,0.015 0.04695,0.0241 0.07231,0.0305 0.122398,0.0309 0.257023,0.0356 0.380932,0.046 0.932181,0.041 1.872128,0.058 2.796231,-0.093 0.915571,-0.18517 0.404026,-0.16157 0.07961,0.23641 -0.0785,0.0963 0.32656,-0.0911 0.305455,-0.21357 -0.02771,-0.16073 -0.340244,-0.288 -0.41845,-0.33338 -0.154831,-0.0569 -0.307024,-0.12159 -0.464492,-0.17074 -0.945731,-0.29519 -1.953717,-0.46076 -2.942201,-0.5086 -0.254096,-0.0123 -0.508774,-0.004 -0.763161,-0.005 -0.221464,0.0203 -0.444767,0.0259 -0.664393,0.0608 -0.180172,0.0287 -0.440321,0.2874 -0.531766,0.12954 -0.08813,-0.15215 0.29063,-0.19844 0.429058,-0.30685 0.0761,-0.0596 -0.313742,0.13318 -0.347856,0.33139 -0.01027,0.0597 0.02938,0.11752 0.04407,0.17627 0.06391,0.0551 0.118653,0.12304 0.191727,0.16517 0.221738,0.12787 0.508421,0.18238 0.754581,0.21682 0.587225,0.0821 1.182709,0.0654 1.77295,0.0394 0.409711,-0.0301 0.774758,-0.0467 1.179296,-0.11449 0.149698,-0.0251 0.493029,-0.24297 0.444413,-0.0992 -0.06978,0.20639 -0.356903,0.24998 -0.536901,0.37273 -0.07131,0.0486 0.390204,-0.21807 0.07834,-0.2468 -0.08363,-0.0587 -0.160513,-0.1285 -0.250885,-0.17622 -0.298224,-0.15748 -0.630039,-0.24534 -0.95475,-0.32458 -0.643234,-0.15697 -1.29868,-0.25567 -1.962708,-0.23766 -0.462392,0.03 -0.686049,0.0257 -1.130331,0.12237 -0.138406,0.0301 -0.479067,0.24202 -0.407738,0.11965 0.109571,-0.18799 0.361819,-0.24191 0.546275,-0.35733 0.0686,-0.0429 -0.346336,0.18369 -0.08803,0.22623 0.07707,0.0418 0.149513,0.0935 0.231204,0.12533 0.188425,0.0734 0.642401,0.17433 0.821794,0.20972 0.625292,0.12333 1.259254,0.19594 1.894954,0.23756 0.538747,0.0159 0.782124,0.0402 1.30831,-0.007 0.152659,-0.0136 0.508413,-0.21165 0.454731,-0.0681 -0.08287,0.22162 -0.394836,0.2617 -0.5815,0.40711 -0.03023,0.0235 0.09222,-0.004 0.108303,-0.0385 0.01432,-0.031 -0.03261,-0.0599 -0.04892,-0.0899 -0.05899,-0.0337 -0.114371,-0.0747 -0.176982,-0.10108 -0.372636,-0.15698 -1.006022,-0.25691 -1.406967,-0.25554 -0.117564,4e-4 -0.234364,0.019 -0.351546,0.0284 0.179204,-0.1307 0.368657,-0.24839 0.537611,-0.39209 0.05913,-0.0503 -0.141911,0.065 -0.205468,0.10959 -0.14259,0.1 -0.275301,0.26615 -0.258995,0.45161 0.0041,0.0471 0.03058,0.0895 0.04587,0.13423 0.03485,0.0297 0.06377,0.0682 0.104544,0.089 0.24413,0.12431 0.759823,0.0362 1.017398,-0.0115 0.07565,-0.0202 0.287222,-0.11077 0.226959,-0.0607 -0.194989,0.16185 -0.43378,0.26261 -0.642787,0.40589 -0.02153,0.0148 0.187699,-0.0677 0.189804,-0.10222 0.0054,-0.088 -0.231039,-0.12524 -0.226828,-0.13588 -0.09426,-0.0174 -0.187771,-0.0395 -0.282772,-0.0523 -0.844703,-0.11363 -1.707806,-0.0161 -2.534286,0.16953 -0.717936,0.23873 -0.542898,0.22801 -0.02768,-0.14435 0.09632,-0.0696 -0.250405,0.10508 -0.28052,0.22004 -0.0066,0.0251 0.01093,0.0545 0.03048,0.0716 0.02601,0.0227 0.06401,0.0257 0.09601,0.0386 0.110065,0.0184 0.136125,0.0289 0.250867,0.0219 0.350959,-0.0216 0.869694,-0.37586 -0.37889,0.34373 -0.05449,0.0314 0.102098,-0.0735 0.153147,-0.1102 0.04632,-0.05 0.09882,-0.0949 0.138971,-0.14993 0.197577,-0.27096 0.230552,-0.62671 0.06528,-0.92384 -0.05201,-0.0935 -0.128067,-0.17142 -0.192101,-0.25714 -0.09778,-0.0803 -0.18772,-0.17123 -0.293326,-0.24091 -0.75247,-0.49653 -1.674864,-0.57953 -2.548646,-0.48813 -0.896116,0.18557 -0.413245,0.16106 -0.0963,-0.20538 0.07357,-0.0851 -0.201939,0.10283 -0.28911,0.17389 -0.140068,0.11416 -0.239277,0.25553 -0.238928,0.44285 1.54e-4,0.0832 0.03963,0.16162 0.05945,0.24243 0.05662,0.0794 0.102222,0.16792 0.169845,0.23818 0.515631,0.53568 1.448476,0.64539 2.14064,0.74301 0.458671,0.0312 0.618911,0.0562 1.069915,0.0342 0.137816,-0.007 0.46287,-0.16942 0.411887,-0.0412 -0.08423,0.21183 -0.377101,0.25709 -0.554601,0.40011 -0.06838,0.0551 0.301558,-0.12403 0.195316,-0.17681 -0.01366,-0.0465 -0.01716,-0.0973 -0.04099,-0.13957 -0.07089,-0.12559 -0.20488,-0.22878 -0.317869,-0.30902 -0.255176,-0.1812 -0.53668,-0.32295 -0.832704,-0.42378 -0.09547,-0.0198 -0.189351,-0.0501 -0.286411,-0.0594 -0.07692,-0.007 -0.287134,0.0637 -0.231584,0.01 0.192575,-0.18618 0.445758,-0.29737 0.673957,-0.43764 0.03385,-0.0208 -0.07082,0.0436 -0.0897,0.0785 -0.04312,0.0799 1.85e-4,0.18402 0.01822,0.25873 0.157389,0.32025 0.367009,0.61522 0.718073,0.73711 0.121663,0.0225 0.184047,0.0453 0.307474,0.0256 0.04276,-0.007 0.159271,-0.0645 0.12368,-0.0398 -0.240968,0.16706 -0.49584,0.31312 -0.74376,0.46968 0.0147,-0.0125 0.04064,-0.0184 0.04409,-0.0374 0.0041,-0.0227 -0.01706,-0.0429 -0.0256,-0.0644 -0.03415,-0.0248 -0.06409,-0.0568 -0.102442,-0.0743 -0.447914,-0.20514 -1.106581,-0.0383 -1.557807,0.0712 -0.560925,0.20562 -0.377904,0.16402 0.216227,-0.21915 0.105388,-0.068 -0.228533,0.11479 -0.315148,0.20547 -0.05788,0.0606 -0.04336,0.0629 -0.0205,0.11744 0.02001,0.004 0.03958,0.014 0.06003,0.013 0.02228,-10e-4 0.08298,-0.0311 0.06412,-0.0192 -1.955409,1.23378 -0.774781,0.58037 -0.66928,0.3539 0.01236,-0.0265 0.01641,-0.0562 0.02461,-0.0843 -0.0016,-0.0327 0.0031,-0.0663 -0.0048,-0.0981 -0.08838,-0.35229 -0.604569,-0.34183 -0.874586,-0.35305 -0.130656,0.0138 -0.262334,0.0201 -0.391969,0.0415 -0.309466,0.0511 -0.670374,0.1476 -0.961429,0.2578 -0.174748,0.0662 -0.3289408,0.19358 -0.5129452,0.22608 -0.1219989,0.0215 0.3962642,-0.28808 0.3183972,-0.19172 -0.09549,0.11817 -0.2493286,0.17368 -0.3739928,0.26051 -0.086185,0.0795 -0.1723697,0.15892 -0.2585545,0.23838 -0.047739,0.0599 -0.089624,0.12495 -0.1432161,0.17966 -0.018711,0.0191 -0.04731,0.025 -0.070417,0.0384 -0.2762548,0.1609 -0.5459399,0.33346 -0.8276407,0.48463 -0.082805,0.0444 0.35844,-0.29993 0.1618919,-0.2308 0.08429,-0.20393 0.2791288,-0.67193 0.2174838,-0.88934 -0.00496,-0.0175 -0.02308,-0.0281 -0.03462,-0.0421 -0.3436313,0.0586 -0.1174903,0.0283 0.6633506,-0.42402 0.045176,-0.0262 -0.090109,0.0537 -0.129803,0.0876 -0.1697323,0.14502 -0.2753971,0.34241 -0.3744248,0.53835 -0.078562,0.2046 -0.097514,0.21346 -0.1222404,0.4228 -0.00535,0.0453 -0.0047,0.0912 -0.00284,0.13678 6.35e-4,0.0156 0.023506,0.0374 0.010324,0.0457 -0.2749606,0.1754 -0.5672085,0.32217 -0.8477721,0.48846 -0.00913,0.005 0.021,-0.003 0.031498,-0.005 0.020555,-0.16854 -0.1324256,-0.25798 -0.2857071,-0.24151 -0.3904901,0.0982 -0.1338655,0.046 0.5917543,-0.39832 0.040662,-0.0249 -0.08513,0.0434 -0.1250008,0.0695 -0.072969,0.0479 -0.1504915,0.11587 -0.2098119,0.18007 -0.022511,0.0244 -0.04119,0.052 -0.061785,0.078 -0.00514,0.0341 -0.024757,0.0635 0.032219,0.0621 0.018272,-4.5e-4 0.067068,-0.0282 0.051645,-0.0184 -0.2581716,0.16422 -0.5206515,0.32157 -0.7809775,0.48236 0.016875,-0.0173 0.041264,-0.0297 0.050628,-0.0521 0.014253,-0.034 0.011351,-0.0728 0.017026,-0.10922 -0.021339,-0.21367 -0.087056,-0.60929 -0.2551388,-0.75746 -0.023937,-0.0211 -0.058388,-0.0258 -0.087581,-0.0386 0.2462191,-0.15439 0.4927134,-0.30834 0.7386571,-0.46316 0.039059,-0.0246 -0.084648,0.0405 -0.1179954,0.0724 -0.2590596,0.24788 -0.2587292,0.72037 -0.3083251,1.04301 -0.022003,0.42013 -0.03749,0.82516 0.035827,1.24196 0.017103,0.0972 0.040001,0.19359 0.068129,0.28822 0.015145,0.0509 0.1016021,0.11254 0.061298,0.14719 -0.2421689,0.20819 -0.5441138,0.3345 -0.8161708,0.50176 0.019188,-0.01 0.045472,-0.0116 0.057564,-0.0294 0.098559,-0.14541 -0.018068,-0.52075 -0.054984,-0.67596 -0.025022,-0.0586 -0.050962,-0.14676 -0.1065694,-0.19052 -0.013713,-0.0108 -0.065497,-0.002 -0.051033,-0.0117 0.2524117,-0.17041 0.518647,-0.31939 0.7779707,-0.47908 -0.023892,0.0226 -0.054155,0.04 -0.07168,0.0679 -0.026556,0.0422 -0.038557,0.0919 -0.057835,0.13792 -0.012001,0.0726 -0.030788,0.14437 -0.036001,0.21775 -0.016034,0.22574 0.00799,0.46697 0.034047,0.68944 0.054679,0.46675 0.1391463,0.93035 0.2472897,1.38755 0.087248,0.31454 0.1135229,0.44668 0.2279166,0.73564 0.022474,0.0568 0.1242361,0.12436 0.078925,0.16528 -0.237386,0.21437 -0.5512062,0.32524 -0.8178028,0.50197 -0.032817,0.0218 0.2089851,-0.0124 0.090116,-0.0764 -0.00926,-0.14277 -0.040698,-0.27386 -0.093563,-0.40766 -0.016179,-0.041 -0.03308,-0.082 -0.056008,-0.11963 -0.0112,-0.0184 -0.062659,-0.0337 -0.045102,-0.0461 0.2560738,-0.18119 0.5355066,-0.32687 0.8032599,-0.4903 -0.01878,0.015 -0.044253,0.0243 -0.056342,0.045 -0.1192141,0.205 0.00923,0.70837 0.055902,0.92832 0.01928,0.0537 0.033319,0.10951 0.057843,0.16098 0.014089,0.0296 0.082938,0.0601 0.056995,0.0801 -0.2470475,0.1905 -0.5336955,0.3233 -0.7970194,0.49058 -0.02236,0.0142 0.055392,-0.0112 0.073265,-0.0308 0.057693,-0.0631 0.061132,-0.19401 0.071542,-0.26433 0.021556,-0.53882 0.00462,-1.09028 -0.1272079,-1.61497 -0.237916,-0.40368 -0.093528,-0.063 0.7303124,-0.62877 0.01886,-0.0129 -0.053268,-0.019 -0.068602,-0.002 -0.047643,0.0528 -0.014369,0.25824 -0.00939,0.28784 0.014068,0.0837 0.037668,0.16545 0.056502,0.24818 0.095828,0.32626 0.1931755,0.65182 0.332241,0.96308 0.052109,0.11663 0.1442897,0.3164 0.248562,0.4153 0.020492,0.0194 0.052156,0.0217 0.078233,0.0325 -0.2593862,0.15905 -0.5205106,0.3153 -0.7781584,0.47714 -0.019606,0.0123 0.049441,-0.01 0.063477,-0.0282 0.018751,-0.0246 0.02131,-0.0585 0.025935,-0.0891 0.022008,-0.14551 -0.0191,-0.28878 -0.032441,-0.43272 -0.026887,-0.19118 -0.05891,-0.38387 -0.063463,-0.57731 -0.00686,-0.29136 0.042205,-0.57854 0.068874,-0.86771 0.021124,-0.36398 0.05195,-0.73262 0.00716,-1.09643 -0.00882,-0.0717 -0.024424,-0.1428 -0.046074,-0.2117 -0.0061,-0.0194 -0.052461,-0.0374 -0.035965,-0.0494 0.2494129,-0.18039 0.5215956,-0.32701 0.7823936,-0.49051 -0.020923,0.0293 -0.048792,0.0548 -0.062774,0.0881 -0.1423573,0.33832 0.02096,0.88654 0.098061,1.22585 0.028543,0.0732 0.049427,0.14995 0.085627,0.21973 0.021632,0.0417 0.1213228,0.0803 0.086205,0.11148 -0.2242095,0.19919 -0.5087355,0.31795 -0.7577425,0.48511 -0.034959,0.0235 0.083514,-0.0248 0.1145116,-0.0533 0.1108766,-0.10193 0.1426541,-0.25973 0.1900058,-0.39242 0.025133,-0.11634 0.054633,-0.23182 0.075398,-0.34902 0.1493178,-0.84278 0.1662578,-1.7055 0.1265758,-2.55836 -0.016423,-0.10078 -0.026368,-0.20282 -0.04927,-0.30233 -0.082418,-0.3581 -1.2393673,0.37858 0.7177606,-0.54063 0.054272,-0.0255 -0.061554,0.10413 -0.079582,0.16132 -0.074306,0.2357 -0.068748,0.41045 -0.086304,0.66134 0.011938,0.46319 0.029098,0.9251 0.090772,1.38501 0.014224,0.10606 0.1261787,0.23595 0.055407,0.31621 -0.2234113,0.25338 -0.5654458,0.37038 -0.8374378,0.57072 -0.019045,0.014 0.047141,-0.004 0.070711,-0.006 0.012057,-0.0582 0.030763,-0.11533 0.036172,-0.17448 0.016693,-0.18253 -0.00371,-0.39403 -0.022439,-0.57331 -0.029017,-0.27783 -0.06081,-0.56123 -0.1693641,-0.82132 -0.2666023,-0.22824 -0.1732793,-0.11689 0.6698062,-0.50981 0.063133,-0.0294 -0.08514,0.11178 -0.1136946,0.17531 -0.1769941,0.39379 -0.191258,0.84024 -0.2196957,1.26204 -0.00951,0.54203 -0.014364,1.07697 0.050479,1.61633 0.011613,0.0966 0.113656,0.21759 0.046658,0.28815 -0.2298478,0.24206 -0.5506704,0.37855 -0.8391604,0.54648 -0.026827,0.0156 0.028396,-0.0552 0.042594,-0.0828 0.00371,-0.0671 0.01347,-0.13405 0.011128,-0.20117 -0.00363,-0.10407 -0.04768,-0.41461 -0.066902,-0.51465 -0.014433,-0.0751 -0.03084,-0.15005 -0.053006,-0.22326 -0.011774,-0.0389 -0.079706,-0.0859 -0.048453,-0.11183 0.238851,-0.19834 0.5237442,-0.33355 0.7856164,-0.50033 -0.029223,0.0353 -0.069247,0.064 -0.087668,0.10593 -0.070544,0.16072 -0.09312,0.4314 -0.097671,0.59221 -0.013274,0.46895 0.03882,0.93978 0.062282,1.40736 0.014621,0.13022 0.025048,0.26098 0.043859,0.39066 0.012229,0.0843 0.032243,0.16731 0.049183,0.2508 0.00321,0.0158 0.02445,0.0378 0.01125,0.0471 -0.2522424,0.1772 -0.508045,0.35224 -0.7816892,0.49418 -0.091561,0.0475 0.2916285,-0.40638 0.078461,-0.29933 0.013864,-0.56575 -0.00502,-1.13822 -0.1014667,-1.69647 0.2835222,-0.17469 0.5696942,-0.34516 0.8505661,-0.52408 0.017576,-0.0112 -0.049222,0.002 -0.05924,0.02 -0.02799,0.0511 -0.036158,0.11131 -0.044341,0.16896 -0.057232,0.40318 0.00425,0.81313 0.015669,1.21643 0.097687,1.34737 0.2153127,2.70749 0.597593,4.00902 0.2106038,0.57794 0.1873898,0.23588 -0.7051712,0.82432 -0.025882,0.0171 0.05791,-0.033 0.069583,-0.0617 0.053818,-0.1324 0.059348,-0.43114 0.060643,-0.54818 0.00153,-0.1398 -0.00525,-0.27956 -0.00788,-0.41934 -0.017841,-0.48935 -0.034929,-0.97884 -0.092803,-1.46557 -0.025506,-0.21452 -0.063141,-0.47843 -0.1304729,-0.68976 -0.0185,-0.0581 -0.049596,-0.11134 -0.074394,-0.16701 -0.3105782,-0.1964 -0.1132051,-0.0483 0.7189862,-0.5243 0.0266,-0.0152 -0.043123,0.0466 -0.051764,0.076 -0.054597,0.18576 0.01216,0.42212 0.012208,0.60829 0.066948,0.58372 0.1382311,1.18999 0.4127828,1.71804 0.2948657,0.23173 0.10848,0.0583 -0.73818,0.53462 -0.02692,0.0151 0.040845,-0.0479 0.051834,-0.0768 0.066174,-0.17384 0.040961,-0.37511 0.069782,-0.55452 0.052821,-0.66007 0.1217689,-1.3191 0.155394,-1.98048 0.00661,-0.39146 -0.00896,-0.78321 0.010115,-1.17432 0.039698,-0.36164 0.1257017,-0.71591 0.1877962,-1.07399 0.1038061,-0.60659 0.1672489,-1.22295 0.097193,-1.83774 -0.028933,-0.12968 -0.042869,-0.23348 -0.097971,-0.35221 -0.010917,-0.0235 -0.065837,-0.0492 -0.044464,-0.0639 0.2651437,-0.18228 0.5636697,-0.31105 0.8369205,-0.48093 0.012877,-0.008 -0.02908,-0.0156 -0.04384,-0.0121 -0.010615,0.002 -0.01248,0.0179 -0.018719,0.0268 0.00862,0.0299 0.00778,0.0523 0.039872,0.0677 0.00971,0.005 0.041456,-0.004 0.032284,0.002 -0.264091,0.1631 -0.5363115,0.31271 -0.8018759,0.47341 -0.021349,0.0129 0.049333,-0.014 0.06869,-0.0298 0.024686,-0.0201 0.03972,-0.0497 0.05958,-0.0746 0.01538,-0.0397 0.035605,-0.0779 0.046142,-0.11924 0.070732,-0.27721 0.04658,-0.57656 0.040166,-0.85867 -0.028539,-0.18383 -0.082228,-0.36038 -0.030961,-0.54615 -0.00799,-0.0831 -0.011112,-0.13452 -0.025852,-0.21608 -0.00475,-0.0263 -0.011364,-0.0522 -0.01783,-0.0781 -0.00196,-0.008 -0.014282,-0.0188 -0.00739,-0.023 0.7451272,-0.44875 1.1563934,-0.5921 0.8091484,-0.46901 -0.0092,0.0163 -0.023164,0.0307 -0.027615,0.0488 -0.033836,0.13802 0.063218,0.3693 0.1480394,0.47689 0.018949,0.008 0.036229,0.0231 0.056849,0.0251 0.020042,0.002 0.075829,-0.0248 0.058684,-0.0143 -0.2588181,0.1592 -0.5240282,0.30778 -0.7860424,0.46167 0.052345,-0.0257 0.077637,-0.0318 0.1176414,-0.0773 0.017685,-0.0201 0.029691,-0.0446 0.044536,-0.0669 0.077501,-0.23559 0.00705,-0.45006 -0.2071042,-0.58542 -0.1096008,-0.045 -0.1583132,-0.0747 -0.280502,-0.0836 -0.04999,-0.004 -0.1896147,0.039 -0.1501418,0.008 0.2183768,-0.17087 0.4726125,-0.29028 0.7046748,-0.44205 0.060365,-0.0395 -0.2600396,0.11041 -0.1645409,0.14053 -0.00662,0.0341 -0.02091,0.0676 -0.019854,0.10229 0.00713,0.23415 0.2499815,0.36204 0.4415663,0.42188 0.1410983,0.0238 0.1728147,0.0379 0.3168277,0.0273 0.051912,-0.004 0.1959782,-0.0551 0.1543237,-0.0239 -0.2192191,0.16429 -0.4699275,0.28199 -0.6990685,0.43213 -0.035713,0.0234 0.080444,-0.0298 0.1174781,-0.051 0.029445,-0.0169 0.05361,-0.0417 0.080415,-0.0625 0.009,-0.0283 0.026281,-0.0551 0.027011,-0.0848 0.00536,-0.21822 -0.2536343,-0.30431 -0.4253989,-0.31769 -0.4212534,0.048 -0.099649,0.029 0.6259007,-0.45099 0.019463,-0.0129 -0.053068,-0.002 -0.068279,0.0154 -0.038172,0.0444 0.058397,0.14568 0.066386,0.15403 0.036042,0.0377 0.07917,0.0678 0.118754,0.10176 0.06001,0.0332 0.1178629,0.0706 0.1800281,0.0995 0.534105,0.24841 1.143508,0.27997 1.722294,0.26672 0.318327,-0.0276 0.480601,-0.0265 0.786513,-0.10948 0.108194,-0.0293 0.397373,-0.19109 0.316633,-0.11332 -0.159259,0.15339 -0.37258,0.23842 -0.563076,0.35069 -0.05967,0.0352 0.117894,-0.0738 0.17023,-0.11917 0.03168,-0.0275 0.05306,-0.065 0.07959,-0.0974 -0.01127,-0.033 -0.01111,-0.0726 -0.0338,-0.0991 -0.06828,-0.0798 -0.228316,-0.1331 -0.317276,-0.15937 -0.24437,-0.0722 -0.49597,-0.0933 -0.749126,-0.0637 -0.07192,0.0178 -0.273366,0.10002 -0.215764,0.0534 0.210649,-0.17042 0.45602,-0.29284 0.686929,-0.43461 0.02607,-0.016 -0.05792,0.0298 -0.07192,0.057 -0.01144,0.0222 -0.0094,0.0538 0.004,0.0749 0.05924,0.0927 0.194445,0.12075 0.282918,0.15472 0.761328,0.15056 1.53939,0.15071 2.305219,0.0222 0.129989,-0.0251 0.261237,-0.0444 0.389967,-0.0753 0.105322,-0.0253 0.389522,-0.16805 0.311322,-0.0931 -0.177394,0.17002 -0.420398,0.25489 -0.62386,0.39265 -0.03303,0.0224 0.07687,-0.0242 0.110776,-0.0452 0.06199,-0.0384 -0.02237,-0.0703 -0.04383,-0.0873 -0.03304,-0.0159 -0.06563,-0.0328 -0.09912,-0.0477 -0.02735,-0.0122 -0.105914,-0.014 -0.0833,-0.0336 0.823928,-0.71501 0.52305,-0.61123 1.162466,-0.47877 0.359483,0.0601 0.717271,0.11117 1.083178,0.10702 0.124126,-10e-4 0.248728,-0.006 0.371709,-0.0227 0.106854,-0.0147 0.388132,-0.15139 0.315539,-0.0716 -0.161814,0.17781 -0.404079,0.26061 -0.606118,0.39092 0.04464,-0.0246 0.195346,-0.0699 0.175396,-0.16804 -0.05148,-0.25327 -0.702631,-0.3318 -0.882761,-0.37738 -0.442588,-0.0405 -0.778905,-0.0637 -1.218154,0.0544 -0.124177,0.0334 -0.446493,0.22962 -0.362337,0.13239 0.13455,-0.15545 0.343968,-0.22657 0.526213,-0.32172 0.07166,-0.0374 -0.128346,0.0983 -0.192519,0.14749 -0.0308,0.0457 -0.07508,0.0849 -0.0924,0.13725 -0.100068,0.3026 0.68958,0.32786 0.833545,0.34068 0.217294,0.002 0.355147,0.0122 0.57041,-0.0243 0.07835,-0.0133 0.29229,-0.11067 0.230557,-0.0606 -0.204544,0.16579 -0.444223,0.28293 -0.670635,0.41732 -0.0352,0.0209 0.07445,-0.0417 0.0962,-0.0763 0.02021,-0.0322 0.01462,-0.0747 0.02193,-0.11199 -0.01715,-0.047 -0.02462,-0.0987 -0.05146,-0.14084 -0.07996,-0.12563 -0.220858,-0.2279 -0.34057,-0.30732 -0.255188,-0.16929 -0.534097,-0.29194 -0.83135,-0.36609 -0.09239,-0.0123 -0.184049,-0.0332 -0.277188,-0.0368 -0.07926,-0.003 -0.29382,0.0728 -0.237351,0.0171 0.186095,-0.18358 0.44092,-0.28115 0.655858,-0.42993 0.03534,-0.0245 -0.08224,0.0297 -0.116008,0.0563 -0.07697,0.0606 -0.05273,0.0936 -0.0457,0.17792 0.02796,0.0379 0.04941,0.0817 0.08389,0.11384 0.356946,0.33269 1.161465,0.35949 1.611417,0.40457 0.54598,0.0146 1.090326,0.028 1.634439,-0.0347 0.143129,-0.0165 0.285586,-0.04 0.426594,-0.0695 0.103969,-0.0218 0.382729,-0.15918 0.307325,-0.0844 -0.185997,0.18458 -0.43808,0.28764 -0.657119,0.43146 0.02255,-5e-4 0.07164,0.0207 0.06766,-0.002 -0.0049,-0.0274 -0.04772,-0.0306 -0.07469,-0.0377 -0.05519,-0.0145 -0.112233,-0.0223 -0.169151,-0.0265 -0.240874,-0.0178 -0.483563,0.0109 -0.720151,0.0534 -0.472363,0.12825 -0.251321,0.0897 0.474145,-0.3687 0.0012,-7.7e-4 -0.12168,0.0262 -0.122607,0.12795 -7.93e-4,0.0867 0.05779,0.11964 0.112341,0.17474 0.04172,0.0221 0.08156,0.0483 0.125166,0.0664 0.262094,0.10912 0.562321,0.12109 0.841233,0.10446 0.03307,-0.008 0.126737,-0.045 0.09921,-0.0249 -0.253347,0.18523 -0.527135,0.3412 -0.7821,0.52421 -0.0085,0.006 0.03495,0.0192 0.02451,0.0196 -0.01922,6.9e-4 -0.03591,-0.0142 -0.05466,-0.0185 -0.109591,-0.0249 -0.148783,-0.0213 -0.269351,-0.0284 -0.217636,0.013 -0.41973,0.0399 -0.628469,0.10706 -0.07146,0.023 -0.272075,0.12187 -0.211417,0.0776 0.178562,-0.13022 0.974994,-0.57893 0.474944,-0.29581 -0.0332,0.0294 -0.06908,0.056 -0.09961,0.0882 -0.0154,0.0162 -0.07181,0.0787 -0.06095,0.1182 0.007,0.0255 0.09763,10e-4 0.07733,0.018 -0.242421,0.20288 -0.498663,0.38864 -0.747994,0.58296 -0.0239,0.0169 0.0029,-7.1e-4 -0.06733,0.0154 -0.03916,0.009 -0.07834,0.0181 -0.116785,0.0298 -0.2395,0.0727 -0.468053,0.17551 -0.699892,0.26868 -0.224377,0.092 -0.297049,0.124 -0.522308,0.20761 -0.236024,0.0876 -0.46983,0.18627 -0.708246,0.0543 -0.108352,-0.0787 -0.209901,-0.16765 -0.324522,-0.23694 -0.574629,-0.34739 -1.248538,-0.50033 -1.89276,-0.65397 -0.255172,-0.0429 -0.508738,-0.0968 -0.765516,-0.12872 -0.54684,-0.068 -1.046358,-0.0893 -1.5962198,-0.0621 -0.227612,0.0112 -0.4552405,0.0317 -0.6803604,0.0672 -0.1796158,0.0283 -0.4560805,0.289 -0.531318,0.12347 -0.075462,-0.16602 0.2927279,-0.21758 0.4390917,-0.32638 -0.162682,0.0848 -0.4260837,0.19482 -0.3489431,0.28204 0.1062082,0.12009 0.4644816,0.0614 0.5869844,0.0706 0.9262944,-0.0493 1.8510872,-0.12612 2.7701292,-0.25434 0.137054,-0.0183 0.274245,-0.0356 0.411162,-0.0549 0.08818,-0.0124 0.319046,-0.11032 0.264092,-0.0403 -0.480338,0.61245 -0.565112,0.53121 -1.102909,0.65785 -0.08528,0.0239 -0.17138,0.045 -0.255843,0.0717 -0.08268,0.0261 -0.313842,0.13952 -0.245331,0.0864 0.198043,-0.15359 0.434936,-0.25033 0.640879,-0.39315 0.03416,-0.0237 -0.07987,0.0233 -0.120481,0.0323 -0.015,0.003 -0.05285,-0.009 -0.04586,0.004 0.01028,0.0201 0.04134,0.0182 0.06201,0.0274 0.463199,0.0617 0.934961,0.0142 1.40053,0.0315 0.216258,-0.001 0.381272,-0.002 0.594934,-0.006 0.0653,-10e-4 0.239974,-0.0534 0.195868,-0.005 -0.604441,0.66016 -0.46658,0.58677 -0.940389,0.56956 -0.817904,-0.0171 -1.636213,-0.0226 -2.45358,-0.059 -0.171738,-0.012 -0.6113038,0.002 -0.7582481,-0.13964 -0.029406,-0.0283 -0.08002,-0.0889 -0.047108,-0.11302 0.6853631,-0.50265 0.6177741,-0.47113 1.0865501,-0.55802 0.341504,-0.025 0.681961,-0.03 1.024214,-0.0406 0.726932,-0.0225 1.453417,-0.0594 2.178828,-0.11173 2.021237,-0.16427 4.039211,-0.39336 6.029024,-0.7933 0.199706,-0.0467 0.400977,-0.0871 0.599119,-0.14002 0.119213,-0.0318 0.430005,-0.2098 0.352166,-0.11406 -0.180422,0.22192 -0.454902,0.3468 -0.682353,0.52019 -0.01585,-0.007 -0.03041,-0.0188 -0.04755,-0.0199 -0.134742,-0.009 -0.254634,0.0191 -0.387608,0.04 -0.472504,0.1291 -0.242405,0.0884 0.470975,-0.37908 0.02549,-0.0167 -0.07709,0.0136 -0.08018,0.0439 -0.01014,0.0997 0.26957,0.24992 0.275038,0.25305 0.105776,0.0607 0.218124,0.10906 0.327186,0.16359 0.825674,0.36807 1.685097,0.70297 2.599261,0.73947 0.300849,-0.006 0.373408,0.009 0.658597,-0.0589 0.08415,-0.0201 0.314567,-0.13427 0.246765,-0.0805 -0.190737,0.15121 -0.416105,0.25267 -0.623864,0.37948 -0.0536,0.0327 0.110787,-0.06 0.161389,-0.0972 0.04264,-0.0313 0.07796,-0.0716 0.116938,-0.10736 0.138029,-0.20903 0.200252,-0.38359 0.06269,-0.61162 -0.13965,-0.14122 -0.333814,-0.19119 -0.523512,-0.23131 -0.221304,-0.055 -0.424924,-0.14739 -0.63459,-0.23505 -0.185065,-0.0506 -0.371074,-0.0504 -0.562295,-0.0465 -0.388685,-0.003 -0.777374,-0.005 -1.166074,-0.005 -0.468745,-8.5e-4 -0.937687,-2.6e-4 -1.406076,-0.0213 -0.45235,-0.0233 -0.902381,-0.0684 -1.350759,-0.13318 -0.301352,-0.0329 -0.602691,-0.0537 -0.906008,-0.0376 0,0 0.802992,-0.58341 0.802992,-0.58341 z"
       inkscape:connector-curvature="0" />
    <path
       style="fill:#ff0000;stroke-width:1;stroke-miterlimit:4;stroke-dasharray:none;paint-order:stroke markers fill"
       id="path1668"
       d="m 17.874725,264.71605 c -0.04529,1.13121 -0.04333,2.2638 -0.04041,3.39573 0.002,0.90729 0.01505,1.81449 0.02885,2.72166 0.002,0.37706 0.03244,0.75489 -0.03998,1.12708 -0.161509,0.42582 -0.50495,0.47223 -1.021118,0.69804 -0.08934,0.0391 -0.305747,-0.33109 -0.329567,-0.37061 -0.294872,-0.66741 -0.459789,-1.3795 -0.586728,-2.09495 -0.03909,-0.32789 -0.06208,-0.65873 -0.04821,-0.98907 0.0053,-0.12567 0.01562,-0.27907 0.05701,-0.4018 0.01323,-0.0392 0.03773,-0.0737 0.05659,-0.11054 0.306832,-0.18274 0.600688,-0.38927 0.920496,-0.5482 0.0348,-0.0173 0.07758,0.0158 0.111009,0.0356 0.217741,0.12906 0.31524,0.48294 0.390018,0.70237 0.13552,0.51731 0.173848,1.05277 0.249454,1.58057 0.02279,-0.33744 -0.0093,0.22504 -0.869933,0.33438 -0.08076,0.0103 0.0053,-0.16273 0.007,-0.24412 0.0025,-0.11842 0.0043,-0.23685 0.0056,-0.35529 0.0037,-0.34122 0.0033,-0.56017 0.0038,-0.90527 0.01051,-0.73352 -0.02578,-1.46714 -0.01806,-2.20052 0.03325,-0.51252 0.152112,-0.46244 0.950259,-0.71435 0.05302,-0.0167 0.05751,0.0956 0.07912,0.14682 0.06762,0.16034 0.08645,0.28621 0.125022,0.45843 0.08211,0.51207 0.144221,1.02999 0.154101,1.54898 -0.02641,0.48964 -0.12178,0.44334 -0.920855,0.69732 -0.05646,0.0179 -0.04429,-0.1103 -0.05866,-0.16778 -0.03016,-0.12068 -0.0884,-0.5172 -0.103157,-0.61198 -0.08816,-0.6844 -0.170819,-1.37056 -0.199369,-2.06036 -0.01796,-0.38974 -0.05202,-0.32694 0.849322,-0.42413 0.07473,-0.008 -0.03173,0.14698 -0.04484,0.221 -0.01732,0.0978 -0.02972,0.19643 -0.04641,0.29435 -0.03295,0.19328 -0.103923,0.56582 -0.138874,0.75168 -0.0695,0.35907 -0.132717,0.71992 -0.223151,1.07456 -0.05296,0.20767 -0.09192,0.35328 -0.214406,0.52666 -0.311068,0.161 -0.603055,0.36601 -0.933204,0.483 -0.04908,0.0174 -0.07686,-0.0716 -0.105941,-0.11477 -0.147675,-0.21935 -0.249385,-0.61594 -0.328998,-0.87145 -0.158019,-0.60295 -0.214654,-0.43687 0.80067,-0.80198 0.03356,-0.0121 0.02265,0.0677 0.03346,0.10164 0.01288,0.0405 0.02507,0.0812 0.0376,0.12176 0.11366,0.51986 -0.255372,0.51571 -0.927713,0.73096 -0.05032,0.0161 -0.06959,-0.0797 -0.100809,-0.12231 -0.03722,-0.0508 -0.06949,-0.10509 -0.104231,-0.15764 -0.101402,-0.20027 -0.323161,-0.49229 -0.306046,-0.72848 0.0021,-0.0297 0.01586,-0.0574 0.02379,-0.086 0.891581,-0.5423 0.72614,-0.66672 1.400138,-0.39315 0.365319,0.14449 0.542533,-0.15551 -0.767538,0.53704 -0.0063,0.003 -0.09885,-0.0657 -0.114667,-0.0729 0.08882,0.35562 1.055379,-0.24489 0.855637,-0.51016 -0.201907,-0.26815 -0.569197,0.35775 -0.868707,0.50928 -0.01859,0.009 -0.02675,-0.0331 -0.03322,-0.053 -0.02962,-0.0907 -0.01793,-0.14485 -0.0141,-0.24037 0.129306,-0.72735 0.435622,-0.69523 1.173627,-1.12448 0.144932,-0.024 0.328498,-0.031 0.418446,0.11054 0.01742,0.0274 0.02565,0.0597 0.03847,0.0895 0.04383,0.212 -0.05976,0.40024 -0.169464,0.57376 -0.07969,0.1165 -0.191637,0.20743 -0.313583,0.27733 -0.946351,0.54246 -0.580245,0.47637 -1.038075,0.54261 -0.251171,0.009 -0.471724,-0.11084 -0.697471,-0.20196 -0.353013,-0.10313 -0.870668,0.28265 0.787581,-0.52978 0.0091,-0.004 0.188745,0.11468 0.251884,0.1496 0.15281,0.0791 0.316747,0.12238 0.488469,0.11099 0.185593,-0.0154 0.361762,-0.0846 0.538172,-0.14047 0.08472,-0.012 0.270374,-0.18418 0.352524,-0.0865 0.07071,0.084 0.04922,0.17179 0.04928,0.27221 -0.09054,0.49359 -0.2345,0.97706 -0.400958,1.45005 -0.04462,0.1073 -0.07672,0.20664 -0.146915,0.30015 -0.02314,0.0308 -0.0484,0.0627 -0.08202,0.0815 -0.309593,0.17346 -0.615516,0.35771 -0.943548,0.49311 -0.03943,0.0163 -0.201875,-0.13099 -0.216996,-0.1435 -0.222941,-0.24144 -0.333732,-0.55028 -0.408405,-0.86435 -0.06325,-0.24245 -0.02841,-0.47002 0.07561,-0.6932 0.05258,-0.0806 0.11253,-0.16799 0.197933,-0.21825 0.478799,-0.28183 0.653093,-0.48701 1.075796,-0.56091 0.205253,4.2e-4 0.384346,0.0907 0.54177,0.21523 0.427807,0.4472 -0.546837,0.67686 -0.851145,0.81051 -0.04805,0.0211 -0.10222,-0.0238 -0.15333,-0.0357 -0.491702,-0.16145 -0.986944,-0.31127 -1.475655,-0.48167 -0.335544,-0.12937 -0.673293,-0.2538 -1.028021,-0.31781 -0.200343,-0.0405 -0.400405,-0.0837 -0.60224,-0.11634 -0.181045,-0.0278 -0.364168,-0.034 -0.546984,-0.037 -0.21232,0.004 -0.411569,-0.0815 -0.614937,-0.13141 -0.162264,-0.016 -0.411625,-0.1001 -0.569359,-0.0524 0.282475,-0.1851 0.559089,-0.37946 0.847424,-0.55529 0.01316,-0.008 0.153893,0.0205 0.16251,0.0221 0.153087,0.0297 0.304634,0.0578 0.459097,0.0799 0.390288,0.0487 0.784075,0.0555 1.176851,0.0606 0.296082,0.003 0.592169,4e-4 0.888239,-0.002 0.219157,-0.0138 0.419711,0.0813 0.617727,0.16172 0.24294,0.0853 0.453856,0.234 0.681438,0.34995 0.126683,0.0524 0.268848,0.14139 0.412063,0.13882 0.0251,-4.5e-4 0.04909,-0.0105 0.07363,-0.0157 0.379863,-0.22066 -0.443049,0.25795 -0.700552,0.38841 -0.02922,0.0148 0.04782,-0.0455 0.06632,-0.0725 0.07218,-0.10544 0.09082,-0.23437 0.113875,-0.35647 0.01264,-0.15468 0.04616,-0.31432 0.02675,-0.47019 -0.0093,-0.0749 -0.0046,-0.069 -0.03429,-0.0408 -0.147362,0.33875 -0.01874,0.005 0.723746,-0.3495 0.0475,-0.0227 -0.07592,0.073 -0.111619,0.11168 -0.140238,0.15188 -0.258627,0.32042 -0.378686,0.48813 -0.407292,0.5904 -0.473067,0.63701 -1.333094,0.98162 -0.03927,0.0157 -0.07275,-0.0432 -0.109127,-0.0648 -0.261195,-0.26332 -0.352379,-0.62902 -0.427137,-0.98071 -0.0106,-0.0927 -0.02961,-0.20716 -0.01947,-0.30229 0.0049,-0.0463 0.03185,-0.16239 0.0823,-0.19278 0.908649,-0.54739 0.594053,-0.592 1.048754,-0.48901 0.119926,0.0408 0.233017,0.0985 0.340638,0.16489 0.09716,0.0599 0.139562,0.10964 0.255458,0.11076 0.297015,-0.21696 -0.01982,0.017 -0.77798,0.42622 -0.01513,0.008 0.02693,-0.0217 0.03816,-0.0347 0.04324,-0.0501 0.07614,-0.10958 0.118405,-0.16093 0.297281,-0.27475 0.119695,-0.11718 0.95137,-0.56386 0.01977,-0.0106 0.04487,-0.002 0.06732,-0.002 0.08487,3.7e-4 0.0878,0.0367 0.115755,0.11325 -0.0082,0.0169 -0.01227,0.0366 -0.02471,0.0507 -0.03168,0.0359 -0.08021,0.0526 -0.11741,0.0828 -0.08489,0.0689 -0.159414,0.15197 -0.23516,0.23032 -0.03029,0.019 -0.242524,0.31728 -0.170201,0.33415 0.0329,-0.0915 0.131008,0.0419 0.149318,0.0845 0.0074,0.0172 0.0098,0.0361 0.01464,0.0541 -0.02644,0.40501 0.01461,0.0536 -0.912019,0.54286 0,0 0.803091,-0.58697 0.803091,-0.58697 v 0 c -0.836193,0.4856 -1.096846,0.32134 -0.775746,0.50249 0.04006,-0.0544 -0.07057,-0.0418 -0.09022,-0.0518 -0.01718,-0.009 -0.03027,-0.0239 -0.04541,-0.0358 -0.01105,-0.0173 -0.02592,-0.0328 -0.03315,-0.052 -0.0511,-0.13595 0.07639,-0.31633 0.154525,-0.41277 0.0547,-0.061 0.260241,-0.30323 0.332462,-0.3258 0.01358,-0.004 0.02843,0.001 0.04264,0.002 0.01594,0.0181 0.06337,0.0485 0.04172,0.0592 -0.01237,0.006 -0.02757,0.003 -0.0407,0.008 -0.01764,0.006 -0.06694,0.0317 -0.05101,0.0222 0.65969,-0.39319 1.071985,-0.61519 0.738413,-0.43493 -0.0448,0.0367 -0.05592,0.0407 -0.08975,0.0891 -0.01263,0.0181 -0.02272,0.0378 -0.0332,0.0573 -0.0099,0.0183 -0.01022,0.0448 -0.02787,0.0559 -0.855967,0.5343 -0.553233,0.55008 -0.955415,0.51282 -0.203369,-0.0724 -0.364446,-0.24054 -0.5856,-0.27096 -0.390596,0.0255 -0.108289,0.0216 0.665964,-0.45617 0.02428,-0.015 -0.05564,0.0198 -0.07554,0.0402 -0.05864,0.0602 -0.05592,0.13781 -0.05501,0.21537 6.09e-4,0.052 0.008,0.1036 0.01195,0.1554 0.05994,0.3195 0.132534,0.67245 0.389701,0.89466 0.370336,0.0931 0.102435,0.005 -0.682837,0.48616 -0.03135,0.0192 0.06681,-0.0325 0.09489,-0.0562 0.135527,-0.11458 0.213472,-0.2838 0.325054,-0.41814 0.341968,-0.48435 0.810406,-1.20628 1.483332,-1.18058 0.01915,0.0189 0.0441,0.0333 0.05746,0.0566 0.07369,0.12876 -0.0028,0.42792 -0.0032,0.57087 -0.09091,0.63698 -0.312467,0.8797 -1.153655,1.05586 -0.184027,-0.0114 -0.352935,-0.0824 -0.514073,-0.16984 -0.219282,-0.12276 -0.429938,-0.26301 -0.670445,-0.3433 -0.194919,-0.0733 -0.388651,-0.14484 -0.600953,-0.12859 -0.291801,-0.002 -0.583604,-0.005 -0.875377,-0.009 -0.396719,-0.008 -0.794623,-0.0149 -1.18852,-0.0675 -0.156604,-0.023 -0.312187,-0.0507 -0.46853,-0.0752 -0.03733,-0.006 -0.07512,-0.009 -0.112167,-0.0164 -0.02603,-0.005 -0.09684,-0.004 -0.0767,-0.0215 0.247183,-0.2125 0.522043,-0.39051 0.783064,-0.58576 0.193701,0.0217 0.388545,0.0376 0.577953,0.0871 0.199766,0.052 0.397451,0.12055 0.607042,0.11015 0.185045,0.006 0.37009,0.0172 0.552605,0.0504 0.201648,0.0362 0.402909,0.0753 0.602818,0.12016 0.348247,0.0815 0.679369,0.21522 1.012212,0.34424 0.487106,0.17153 0.981522,0.32676 1.482348,0.4525 0.442002,0.007 0.15586,-0.0231 -0.61677,0.47571 -0.01491,0.01 0.03762,-0.005 0.05036,-0.0173 0.04605,-0.0446 -0.03647,-0.12264 -0.06063,-0.14273 -0.145217,-0.10614 -0.310978,-0.17928 -0.494166,-0.1421 -0.328059,0.0994 -0.726187,0.39769 0.629135,-0.3995 0.02568,-0.0151 -0.053,0.0275 -0.07764,0.0443 -0.072,0.0489 -0.08158,0.067 -0.140423,0.13109 -0.120179,0.19658 -0.165912,0.40544 -0.113214,0.63383 0.06263,0.29393 0.156547,0.587 0.376949,0.80285 0.03034,0.0202 0.05753,0.0461 0.09102,0.0604 0.02633,0.0113 0.108027,-0.002 0.08465,0.0147 -0.241407,0.17092 -0.506612,0.3055 -0.757708,0.46184 -0.03208,0.02 0.07219,-0.0275 0.100411,-0.0526 0.08327,-0.0741 0.123198,-0.18853 0.168768,-0.28449 0.175594,-0.45835 0.316791,-0.93059 0.402447,-1.41448 0.0015,-0.0415 0.0021,-0.0831 0.0046,-0.1246 4.24e-4,-0.007 0.01061,-0.0179 0.0041,-0.0202 -0.03401,-0.0122 -0.265834,0.12096 -0.3166,0.11913 -0.181833,0.0577 -0.365176,0.12048 -0.558515,0.11802 -0.183427,-0.0106 -0.355623,-0.0612 -0.515468,-0.1539 -0.162719,-0.0933 -0.01853,-0.01 -0.178443,-0.10434 -0.02717,-0.016 -0.104732,-0.0261 -0.08172,-0.0477 0.711115,-0.66652 0.484056,-0.70998 0.864109,-0.55068 0.209818,0.0931 0.426378,0.19354 0.661619,0.15057 0.371216,-0.12986 0.107147,-0.0442 -0.662557,0.40886 -0.03002,0.0177 0.06181,-0.0323 0.09156,-0.0504 0.01166,-0.007 0.16051,-0.10716 0.17324,-0.11805 0.02402,-0.0206 0.04335,-0.046 0.06502,-0.069 0.102878,-0.14308 0.212856,-0.30222 0.208071,-0.48573 -0.0064,-0.0182 -0.0085,-0.0385 -0.01922,-0.0546 -0.06946,-0.1042 -0.256909,-0.0449 -0.344878,-0.0125 0.251749,-0.15176 0.500435,-0.30873 0.755247,-0.45529 0.02741,-0.0158 -0.05001,0.0391 -0.0717,0.0621 -0.119262,0.12656 -0.176817,0.29484 -0.210375,0.46191 -0.0026,0.0379 -0.0065,0.0757 -0.0077,0.11366 -6.35e-4,0.0212 -0.003,0.0431 0.0023,0.0636 0.0027,0.0106 0.02973,0.0192 0.02077,0.0255 -0.269539,0.18973 -0.673414,0.83373 -0.827044,0.54209 -0.154402,-0.2931 0.538102,-0.38657 0.807152,-0.57986 0.0086,0.01 0.01717,0.0194 0.02576,0.029 0.06523,0.0494 0.136578,0.0981 0.131795,0.10196 -0.780102,0.63297 -0.526833,0.69293 -0.904951,0.5242 -0.112967,-0.0417 -0.249093,-0.10442 -0.372279,-0.0988 -0.0269,0.001 -0.0524,0.0125 -0.0786,0.0187 0.2576,-0.15952 0.515201,-0.31904 0.772802,-0.47856 -0.01665,0.0139 -0.04081,0.022 -0.04994,0.0417 -0.07053,0.15201 0.19252,0.55256 0.264739,0.68285 0.03464,0.0471 0.06551,0.0972 0.103932,0.1412 0.02457,0.0282 0.113377,0.0511 0.08403,0.0742 -0.246715,0.1945 -0.537658,0.32522 -0.803347,0.49287 -0.01539,0.01 0.0405,-0.004 0.05139,-0.0184 0.03331,-0.0446 0.007,-0.13554 9.26e-4,-0.17618 -0.01311,-0.0387 -0.02502,-0.0778 -0.03933,-0.11601 -0.01093,-0.0292 -0.06155,-0.0679 -0.03633,-0.0862 0.268626,-0.19558 0.566957,-0.34695 0.856129,-0.51063 0.0099,-0.006 -0.01136,0.0209 -0.01097,0.0322 0.0033,0.0978 0.0411,0.23854 0.06056,0.32569 0.06798,0.22672 0.133683,0.45812 0.237288,0.67201 0.02435,0.0503 0.04958,0.10106 0.08434,0.14479 0.01733,0.0218 0.09091,0.031 0.06863,0.0477 -0.241652,0.18134 -0.51319,0.319 -0.769784,0.4785 0.03167,-0.0257 0.07081,-0.0442 0.09501,-0.0771 0.0781,-0.1059 0.136719,-0.30274 0.170792,-0.41894 0.103383,-0.35256 0.172251,-0.71431 0.238504,-1.07523 0.05962,-0.34398 0.114309,-0.6854 0.157637,-1.03164 0.009,-0.0719 -0.02548,-0.16871 0.03008,-0.21517 0.272053,-0.22749 0.584532,-0.40611 0.901972,-0.56422 0.036,-0.0179 -0.007,0.0801 -0.01052,0.12021 -0.01215,0.68938 0.06379,1.37749 0.170643,2.0578 0.05127,0.25901 0.06182,0.34408 0.128401,0.58045 0.0086,0.0305 0.05738,0.0708 0.03185,0.0895 -0.26033,0.19136 -0.547645,0.34378 -0.831448,0.4982 -0.06205,0.0338 0.257045,-0.29535 0.05854,-0.20369 0.01177,-0.51375 -0.04169,-1.02947 -0.132654,-1.53466 -0.04215,-0.1674 -0.05797,-0.27113 -0.129883,-0.42281 -0.01445,-0.0305 -0.08284,-0.0635 -0.05617,-0.0842 0.250941,-0.1946 0.540303,-0.33382 0.810454,-0.50073 -0.01706,0.0223 -0.04223,0.0402 -0.05117,0.0668 -0.01736,0.0516 -0.01703,0.10761 -0.02555,0.16141 -0.04207,0.73771 -0.01614,1.47803 -0.02149,2.21647 0.0052,0.41405 0.0097,0.82804 0.02628,1.24184 0.0031,0.0784 0.06821,0.18056 0.01177,0.23503 -0.844655,0.81514 -0.817103,0.93377 -0.874531,0.56342 -0.0063,-0.52828 -0.09127,-1.05711 -0.217478,-1.56901 -0.0673,-0.18713 -0.128764,-0.40322 -0.276097,-0.54815 -0.02236,-0.022 -0.05026,-0.0411 -0.08079,-0.0483 -0.02459,-0.006 -0.09594,0.0255 -0.07491,0.0115 0.243752,-0.16234 0.498986,-0.30675 0.748479,-0.46012 -0.02615,0.0283 -0.06011,0.051 -0.07844,0.0849 -0.05783,0.10688 -0.07585,0.27705 -0.08543,0.38948 -0.02782,0.32663 -0.0078,0.65499 0.02416,0.98042 0.118005,0.70293 0.279867,1.40281 0.596172,2.04648 0.05118,0.0754 0.11363,0.19524 0.202702,0.24483 0.02126,0.0118 0.09254,-0.005 0.0725,0.009 -0.245835,0.16914 -0.509134,0.31138 -0.763701,0.46707 0.02207,-0.0175 0.04744,-0.0315 0.06622,-0.0525 0.02233,-0.025 0.03707,-0.0558 0.0556,-0.0838 0.09928,-0.36517 0.06243,-0.74506 0.07457,-1.11964 0.01373,-0.91697 0.0268,-1.83397 0.02885,-2.75106 0.0029,-1.1182 0.0056,-2.23711 -0.04041,-3.35456 0,0 0.870776,-0.44368 0.870776,-0.44368 z"
       inkscape:connector-curvature="0" />
    <path
       style="fill:#ff0000;stroke-width:1;stroke-miterlimit:4;stroke-dasharray:none;paint-order:stroke markers fill"
       id="path1670"
       d="m 13.229308,266.15279 c -0.207191,-0.13661 -0.403232,-0.30444 -0.629909,-0.40942 -0.04654,-0.0216 -0.09638,-0.0351 -0.144576,-0.0527 -0.303975,-0.0729 -0.598655,-0.0204 -0.887418,0.0828 -0.315484,0.13581 -0.906566,0.45383 0.478847,-0.29487 0.03597,-0.0194 -0.06709,0.0468 -0.09939,0.0719 -0.04155,0.0322 -0.139708,0.11805 -0.179147,0.15215 -0.178928,0.15371 -0.360842,0.30168 -0.515936,0.48001 -0.177085,0.22056 -0.248684,0.49989 -0.339099,0.76279 -0.06264,0.23056 -0.211629,0.46212 -0.193255,0.70772 0.0095,0.0151 0.01413,0.0349 0.02863,0.0453 0.07977,0.0572 0.451778,-0.0232 0.538219,-0.0404 0.378691,-0.0721 0.731744,-0.22173 1.083928,-0.37251 0.235508,-0.10018 0.476911,-0.19929 0.732755,-0.2333 0.181448,-0.0241 0.285228,-0.0157 0.470639,-0.0134 0.603136,0.0295 1.18434,0.20935 1.771427,0.33662 0.189707,0.0385 0.378891,0.0788 0.572102,0.0943 0.02099,0.002 0.0799,-0.01 0.06311,0.003 -0.808758,0.6113 -0.505528,0.6063 -0.968193,0.57108 -1.11203,-0.0443 -2.225298,-0.0457 -3.338041,-0.0501 -1.09848,-0.003 -2.1969464,0.005 -3.2953569,0.017 -0.2043197,-0.0255 -0.4380146,0.0448 -0.640047,-0.0215 -0.027977,-0.009 -0.1477094,-0.0984 -0.074158,-0.15133 0.2943948,-0.21171 0.6229811,-0.37129 0.9344716,-0.55694 0.521735,-0.1604 1.0649495,-0.22537 1.5991893,-0.32847 0.496138,-0.093 0.976504,-0.24912 1.464563,-0.37459 0.13635,-0.0418 0.10625,-0.0243 0.217211,-0.0849 0.01828,-0.01 0.07026,-0.0446 0.05355,-0.0322 -0.654682,0.48722 -0.538612,0.58183 -1.008824,0.63216 -0.410702,0.0364 -0.829351,0.004 -1.2247708,-0.1132 -0.044181,-0.0227 -0.092733,-0.0384 -0.132542,-0.0681 -0.00904,-0.007 -0.1406898,-0.1392 -0.083864,-0.18141 0.2891027,-0.2147 0.5974368,-0.40483 0.9159608,-0.57282 0.06327,-0.0334 0.344718,0.0429 0.379301,0.0505 0.532532,0.15371 1.050655,0.35892 1.523339,0.64949 0.221364,0.18371 0.373645,0.4274 0.165327,0.69136 -0.03285,0.0416 -0.07691,0.073 -0.115371,0.10954 -0.390772,0.21994 -0.849429,0.62723 -1.355949,0.63554 -0.289687,0.005 -0.460387,-0.0723 -0.715986,-0.19204 -0.3071575,-0.21122 -0.7717595,-0.50657 -0.8467374,-0.90831 -0.00993,-0.0532 0.00175,-0.10819 0.00265,-0.16229 0.030987,-0.0478 0.044843,-0.11284 0.092961,-0.14327 0.3338097,-0.21105 0.6794944,-0.40549 1.0377744,-0.57165 0.09217,-0.0428 0.199996,-0.0365 0.300801,-0.0491 0.383602,-0.0481 0.768967,-0.0576 1.154915,-0.0634 0.320961,0.009 0.646512,0.008 0.960638,0.0846 0.07804,0.0192 0.238037,0.0663 0.302808,0.1359 0.02427,0.0261 0.02928,0.0649 0.04392,0.0974 -0.01106,0.0381 -0.0102,0.082 -0.03317,0.11439 -0.02793,0.0394 -0.07075,0.067 -0.112602,0.091 -0.783416,0.4497 -0.944789,0.57417 -1.67351,0.7522 -0.212671,0.0452 -0.427371,0.0842 -0.643714,0.10731 -0.02253,0.002 -0.168965,0.0313 -0.205439,-0.0172 -0.02172,-0.0289 -0.01986,-0.0695 -0.02978,-0.10428 0.308367,-0.17834 0.609798,-0.36925 0.925101,-0.53502 0.03822,-0.0201 0.08538,-0.013 0.128176,-0.0187 0.142392,-0.019 0.326196,-0.0547 0.466608,-0.004 0.04708,0.0168 0.08451,0.0535 0.126766,0.0802 0.0228,0.0433 0.05772,0.0822 0.06842,0.13001 0.05898,0.26352 -0.231689,0.48142 -0.422663,0.59589 -0.336559,0.20173 -0.679771,0.39214 -1.019657,0.58821 -0.171602,0.0809 -0.349831,0.14715 -0.533433,0.19502 -0.110347,0.0288 -0.221434,0.0392 -0.329161,0.0761 -0.2845157,0.25251 0.128888,-0.11951 0.76917,-0.42295 0.02694,-0.0128 -0.01791,0.057 -0.02304,0.0864 -0.03353,0.19166 -0.04678,0.3894 -0.07247,0.58227 -0.07458,0.45804 -0.271858,0.8693 -0.557546,1.23061 -0.3635247,0.39206 -0.8124816,0.60028 -1.3124205,0.83073 -0.034531,0.0159 -0.080481,-0.003 -0.1112414,-0.0252 -0.040931,-0.0297 -0.060565,-0.0811 -0.090848,-0.1216 -0.010747,-0.0689 -0.031393,-0.1369 -0.032245,-0.2066 -0.00668,-0.54644 0.2984579,-1.07762 0.5838679,-1.52055 0.1957367,-0.26554 0.4103773,-0.52359 0.6776874,-0.72055 0.3296546,-0.2429 0.7172706,-0.39531 1.0791206,-0.58698 0.03708,0.0108 0.07853,0.0119 0.11125,0.0324 0.285636,0.17931 0.129651,0.75257 0.07789,1.00442 -0.05983,0.22186 -0.11288,0.45055 -0.216002,0.65778 -0.01959,0.0394 -0.03274,0.0883 -0.06976,0.112 -0.9080504,0.58276 -0.648406,0.73552 -1.023822,0.43704 -0.2075489,-0.33254 -0.3230647,-0.7155 -0.4270671,-1.09114 -0.040328,-0.13533 -0.060218,-0.27285 -0.043358,-0.41304 0,0 0.8962981,-0.42726 0.8962981,-0.42726 v 0 c -0.05705,0.12081 -0.02563,0.25107 0.0029,0.37644 0.08593,0.35291 0.185537,0.72039 0.39848,1.0194 0.34631,0.0837 0.138852,0.0185 -0.703122,0.48589 -0.038109,0.0211 0.064395,-0.0601 0.088008,-0.0967 0.124619,-0.19335 0.16964,-0.4295 0.238133,-0.64465 0.02963,-0.13892 0.197425,-0.78287 -0.025,-0.85422 -0.02617,-0.008 -0.05496,2.7e-4 -0.08244,4e-4 0.24314,-0.14748 0.487491,-0.29298 0.72942,-0.44244 0.04181,-0.0258 -0.08755,0.045 -0.128958,0.0715 -0.284201,0.18173 -0.510005,0.43892 -0.716494,0.70178 -0.064572,0.0946 -0.1346002,0.18574 -0.1937158,0.28386 -0.2338028,0.38809 -0.4364771,0.85579 -0.3775403,1.31702 0.016706,0.0182 0.026911,0.0461 0.050114,0.0545 0.026268,0.01 0.1067929,-0.0216 0.083607,-0.006 -0.2362864,0.15891 -0.4874882,0.29443 -0.7312723,0.44158 -0.039367,0.0238 0.0801,-0.0454 0.118019,-0.0714 0.121649,-0.0834 0.1484418,-0.11656 0.2591069,-0.21964 0.3024267,-0.34427 0.5027721,-0.72864 0.5857677,-1.18313 0.022931,-0.19142 0.042492,-0.38111 0.051847,-0.57367 0.0018,-0.0368 -0.02418,-0.0877 0.00477,-0.11048 0.6616428,-0.52145 0.5437378,-0.48153 0.9171588,-0.58991 0.286859,-0.0572 0.56944,-0.13049 0.82772,-0.27398 -0.208537,0.12273 -0.41516,0.24878 -0.625611,0.3682 -0.06549,0.0372 0.1296,-0.0771 0.190564,-0.12133 0.09455,-0.0686 0.279407,-0.19888 0.27458,-0.34053 -0.001,-0.0295 -0.02392,-0.054 -0.03589,-0.081 -0.03383,-0.0161 -0.06502,-0.0396 -0.101481,-0.0482 -0.478802,-0.11236 -1.302482,0.49629 0.186821,-0.41278 -0.02047,-0.0169 -0.04904,-0.0272 -0.06142,-0.0507 -0.0059,-0.0112 0.02487,0.006 0.03748,0.005 0.04156,-7.9e-4 0.08309,-0.004 0.124425,-0.008 0.211851,-0.0228 0.421756,-0.063 0.629248,-0.11067 0.212907,-0.057 0.260027,-0.0645 0.466261,-0.1399 0.06889,-0.0252 0.264449,-0.1238 0.204216,-0.0819 -1.088927,0.75664 -0.808585,0.43575 -0.480076,0.32411 -6.35e-4,-0.0146 0.0079,-0.033 -0.0019,-0.0437 -0.05379,-0.0587 -0.203157,-0.1026 -0.262925,-0.11761 -0.303707,-0.0763 -0.619175,-0.0761 -0.929909,-0.0829 -0.386497,0.009 -0.775138,0.0179 -1.157062,0.086 -0.101514,0.0181 -0.3724543,0.1461 -0.3008766,0.0719 0.136932,-0.14199 0.9198096,-0.60213 0.5007826,-0.31533 -0.0091,0.0429 -0.03031,0.0849 -0.02723,0.12866 0.02504,0.355 0.52429,0.68351 0.792569,0.84693 0.07972,0.0326 0.15661,0.0731 0.239156,0.0977 0.211983,0.0629 0.437921,0.0637 0.650124,0.004 0.0567,-0.0159 0.214203,-0.0953 0.165296,-0.0625 -0.220807,0.14819 -0.456008,0.27371 -0.684013,0.41057 0.04128,-0.0279 0.08616,-0.0511 0.123837,-0.0837 0.233012,-0.20157 0.119728,-0.39093 -0.07923,-0.5586 -0.459762,-0.29269 -0.970904,-0.49604 -1.5023095,-0.61727 -0.06971,-0.007 -0.1390938,-0.0236 -0.2091304,-0.0213 -0.050826,0.002 -0.1895051,0.0635 -0.1490014,0.0327 0.2348119,-0.17825 0.4925953,-0.32406 0.7412943,-0.48236 0.01162,-0.007 -0.03134,0.0155 -0.02928,0.0292 0.0088,0.0579 0.133665,0.0997 0.156904,0.11134 0.393263,0.10929 0.806741,0.13037 1.211155,0.0737 0.04044,-0.006 0.08077,-0.0133 0.121327,-0.0188 0.02728,-0.004 0.102739,-0.027 0.08211,-0.009 -0.444588,0.39289 -0.574836,0.58063 -1.025693,0.69204 -0.480304,0.12027 -0.9555133,0.2622 -1.4432713,0.35111 -0.5419751,0.10173 -1.0991715,0.16893 -1.6144536,0.37437 0.2296033,-0.1423 1.0501071,-0.37012 0.6817783,-0.4862 -0.010075,-0.003 0.017296,0.0132 0.027571,0.0156 0.1954821,0.0466 0.4018328,0.0204 0.5997054,0.0325 1.0799882,0.0121 2.1600152,0.0215 3.2400752,0.0234 1.141455,10e-4 2.282924,7.7e-4 3.424337,-0.0104 0.04864,-0.002 0.181966,-0.0372 0.145931,-0.005 -0.239897,0.21776 -0.512343,0.39736 -0.779934,0.58002 -0.01487,0.0102 -0.03506,-0.008 -0.05274,-0.0116 -0.186096,-0.0355 -0.3725,-0.0695 -0.556495,-0.1153 -0.581047,-0.13592 -1.161943,-0.30823 -1.763107,-0.31561 -0.20668,0.006 -0.267723,-7.1e-4 -0.466273,0.0353 -0.251414,0.0456 -0.487629,0.14853 -0.721493,0.24716 -0.356839,0.15065 -0.718707,0.28918 -1.101522,0.3592 -0.181249,0.0311 -0.468581,0.10906 -0.6169996,-0.0507 -0.021489,-0.0231 -0.031402,-0.0548 -0.047103,-0.0822 -0.00487,-0.032 -0.014695,-0.0637 -0.014621,-0.0961 4.763e-4,-0.21459 0.1469689,-0.45333 0.2009196,-0.65744 0.09202,-0.2684 0.156224,-0.55593 0.318963,-0.79204 0.147249,-0.18928 0.322768,-0.34341 0.507921,-0.49496 0.08821,-0.0755 0.176057,-0.17719 0.275459,-0.2374 0.404076,-0.24479 0.769479,-0.50412 1.206032,-0.65931 0.305899,-0.0889 0.615036,-0.12556 0.924958,-0.0268 0.288452,0.12343 0.542533,0.30968 0.805544,0.4791 0,0 -0.8406,0.52566 -0.8406,0.52566 z"
       inkscape:connector-curvature="0" />
  </g>
</svg>
