<svg xmlns="http://www.w3.org/2000/svg" version="1.1"><polyline points="379.0,2.0,381.0,10.0,383.5,18.0" stroke="black" stroke-width="2" fill="none" />
<polyline points="383.0,14.0,391.0,21.0,399.5,21.5,405.5,24.5,394.0,33.0,388.5,45.0,390.5,53.5" stroke="black" stroke-width="2" fill="none" />
<polyline points="392.5,37.5,400.5,38.5,408.5,38.0,416.5,39.0,424.5,38.5,432.0,39.0,440.5,37.5,448.0,28.5,456.5,24.5,464.5,26.0,472.5,32.0,480.5,32.5,488.5,35.5,489.0,41.0,494.5,44.0,498.5,45.0,501.0,52.5" stroke="black" stroke-width="2" fill="none" />
<polyline points="493.5,56.0,486.0,54.5,481.0,51.5,472.5,56.5,464.5,63.5" stroke="black" stroke-width="2" fill="none" />
<polyline points="458.5,49.0,450.5,47.0,442.5,44.5" stroke="black" stroke-width="2" fill="none" />
<polyline points="440.0,48.5,448.0,52.5,456.0,55.5,452.5,63.5" stroke="black" stroke-width="2" fill="none" />
<polyline points="446.0,67.5,438.0,66.5,430.0,66.5,422.0,66.5,414.0,66.5,406.0,66.5,398.0,67.5,390.0,70.0,381.5,72.0,373.5,73.5,365.5,77.5,357.0,82.0,349.0,87.0,341.0,93.5,332.5,105.5" stroke="black" stroke-width="2" fill="none" />
<polyline points="337.0,107.5,345.0,97.5,352.5,90.5,361.0,85.5,369.0,81.5,377.0,78.5,385.5,76.5,394.0,74.0,402.5,73.0,410.5,72.5,419.0,72.5,427.0,72.5,434.5,72.5,442.5,72.0,450.5,74.0,459.0,77.0,467.0,79.0,475.0,82.5,483.5,85.0,491.5,93.0" stroke="black" stroke-width="2" fill="none" />
<polyline points="475.0,79.0,427.0,79.0,376.5,80.5" stroke="black" stroke-width="2" fill="none" />
<polyline points="382.5,76.5,361.5,84.5,348.5,92.5,342.5,100.0,336.5,107.5,335.0,115.0,335.0,123.0,338.0,131.0,345.0,139.0,358.0,147.0" stroke="black" stroke-width="2" fill="none" />
<polyline points="370.0,134.0,421.0,132.0,474.5,132.0,526.5,130.5" stroke="black" stroke-width="2" fill="none" />
<polyline points="521.5,113.5,473.5,161.0" stroke="black" stroke-width="2" fill="none" />
<polyline points="458.0,157.0,466.0,155.5,474.0,150.5,482.5,145.0,490.5,136.5,498.5,124.5" stroke="black" stroke-width="2" fill="none" />
<polyline points="497.0,115.5,497.5,107.5,500.5,102.0,492.0,89.0,484.0,82.0,476.0,77.5,468.0,73.5,460.5,64.5,464.5,56.5,464.0,47.5,465.0,42.0,469.0,31.0,461.5,30.0,453.5,30.5,445.5,39.5,437.5,46.0" stroke="black" stroke-width="2" fill="none" />
<polyline points="432.0,46.0,437.0,54.5" stroke="black" stroke-width="2" fill="none" />
<polyline points="466.0,45.0,470.0,36.5" stroke="black" stroke-width="2" fill="none" />
<polyline points="467.5,34.5,460.0,39.5,460.0,41.5,464.5,33.5" stroke="black" stroke-width="2" fill="none" />
<polyline points="461.0,30.5,458.5,38.5,456.5,46.5,456.5,53.0,463.0,46.0,471.0,39.0,479.0,36.5" stroke="black" stroke-width="2" fill="none" />
<polyline points="477.5,41.5,469.5,49.5,475.5,56.5,465.5,64.5,465.5,72.5,479.0,80.5,490.0,88.0,498.5,95.5,502.0,103.5,503.0,111.5,502.0,120.0,499.0,128.0,493.0,136.0,485.0,144.0,472.5,151.5,459.0,159.5,462.0,167.5,464.5,176.0,472.5,185.5,477.5,195.0,481.0,194.5,485.0,207.0,488.0,214.5,488.5,222.5,488.5,230.0,487.5,238.0,485.5,245.5,482.5,253.5,479.5,261.0,473.0,269.0,464.0,277.5,456.0,285.0,444.0,293.0,426.5,301.0,425.5,306.5,434.0,303.5,441.5,299.0,449.5,295.0,457.0,289.0,465.5,284.5,473.5,275.5,481.5,265.5,488.5,252.5" stroke="black" stroke-width="2" fill="none" />
<polyline points="472.0,266.0,524.0,215.5" stroke="black" stroke-width="2" fill="none" />
<polyline points="517.0,237.5,465.0,238.5" stroke="black" stroke-width="2" fill="none" />
<polyline points="465.0,233.0,457.0,242.5,449.0,247.5,440.0,256.0,432.0,255.5,424.0,256.0,416.0,261.5,408.5,258.5,400.5,256.0,392.5,255.5" stroke="black" stroke-width="2" fill="none" />
<polyline points="393.5,256.5,394.5,264.5,396.0,274.0,404.0,273.0,411.5,271.0,419.5,269.0,427.5,267.0" stroke="black" stroke-width="2" fill="none" />
<polyline points="436.0,267.5,438.0,275.5" stroke="black" stroke-width="2" fill="none" />
<polyline points="444.0,264.0,452.0,265.0" stroke="black" stroke-width="2" fill="none" />
<polyline points="459.0,279.5,511.0,275.5" stroke="black" stroke-width="2" fill="none" />
<polyline points="445.5,280.5,435.5,287.5,451.5,279.5,452.5,276.0,451.5,268.0,443.0,260.0,447.0,246.5,457.0,239.0,461.0,231.0,457.0,232.5,449.5,236.5,449.5,236.5,465.5,226.0,457.5,229.0,451.5,230.5,460.5,234.5,452.5,242.0,444.5,248.0,436.5,251.0,428.5,253.0,421.0,253.0,413.0,255.0" stroke="black" stroke-width="2" fill="none" />
<polyline points="414.0,259.5,418.0,248.5" stroke="black" stroke-width="2" fill="none" />
<polyline points="425.5,255.5,422.0,264.0" stroke="black" stroke-width="2" fill="none" />
<polyline points="407.0,275.0,410.0,279.0,412.5,286.5" stroke="black" stroke-width="2" fill="none" />
<polyline points="411.0,281.0,419.0,289.0,426.5,287.0,434.0,284.5" stroke="black" stroke-width="2" fill="none" />
<polyline points="422.5,298.5,414.0,299.5,409.5,298.5,409.5,285.5,406.5,277.5,405.5,276.0" stroke="black" stroke-width="2" fill="none" />
<polyline points="386.0,286.5,378.0,281.5" stroke="black" stroke-width="2" fill="none" />
<polyline points="375.5,284.0,383.5,288.0,391.0,292.0,399.0,290.0,407.0,290.0,406.5,291.5" stroke="black" stroke-width="2" fill="none" />
<polyline points="399.0,312.0,406.5,310.0,414.5,311.5,422.5,317.5,423.5,323.0,426.5,331.5,434.5,337.5,442.5,343.0" stroke="black" stroke-width="2" fill="none" />
<polyline points="438.5,346.5,430.5,349.5,422.5,352.5,414.5,354.5,407.0,353.5,404.0,345.5,405.5,337.5,402.0,326.0,395.0,317.5,383.0,314.0,380.0,318.0,372.5,313.0,366.5,320.5,363.5,323.5,366.5,313.0,369.5,305.0,363.5,296.5,363.5,288.0,359.5,284.5,351.5,287.5,343.5,284.5" stroke="black" stroke-width="2" fill="none" />
<polyline points="344.5,274.0,343.5,281.0,342.5,289.0,350.5,293.5,358.5,292.5,366.5,287.5,374.5,289.5,382.0,301.5,390.0,308.5,398.0,310.5,406.0,309.0,414.0,307.0,421.5,304.5,429.5,300.0,437.5,296.0,445.5,292.0,454.0,287.0,462.0,280.5,471.0,271.5,479.0,260.5" stroke="black" stroke-width="2" fill="none" />
<polyline points="470.0,219.0,477.0,211.5,478.0,203.5,478.5,199.5" stroke="black" stroke-width="2" fill="none" />
<polyline points="488.5,200.5,496.5,200.0,504.5,199.0" stroke="black" stroke-width="2" fill="none" />
<polyline points="501.0,201.0,509.0,201.0" stroke="black" stroke-width="2" fill="none" />
<polyline points="507.5,194.5,499.5,195.5,492.0,195.0,484.0,190.0" stroke="black" stroke-width="2" fill="none" />
<polyline points="483.5,187.0,491.5,185.0,500.0,183.5,508.0,181.5" stroke="black" stroke-width="2" fill="none" />
<polyline points="505.5,174.5,497.5,176.5,490.0,180.0,482.5,183.0,474.0,185.0,473.0,181.5,465.0,180.5,465.0,174.5,457.0,169.5,448.5,168.5,440.5,168.5,432.0,168.5,424.0,169.0,416.0,172.5,408.0,174.5,400.0,176.5,397.0,179.5,406.0,170.5" stroke="black" stroke-width="2" fill="none" />
<polyline points="411.5,160.5,419.5,163.5" stroke="black" stroke-width="2" fill="none" />
<polyline points="414.0,168.5,406.0,170.5,398.0,174.0,390.5,176.0,383.0,180.0,375.0,182.0,367.5,184.5,360.0,186.0,352.0,190.0,363.5,188.0" stroke="black" stroke-width="2" fill="none" />
<polyline points="369.0,188.5,377.5,187.5,385.5,187.0,393.5,188.0,401.5,191.5,409.5,196.5,417.5,205.5,427.0,209.0,435.0,216.0,442.5,220.0,450.5,214.0" stroke="black" stroke-width="2" fill="none" />
<polyline points="442.5,211.0,438.0,203.5,437.0,202.0,429.5,205.5" stroke="black" stroke-width="2" fill="none" />
<polyline points="428.5,205.0,437.0,212.5" stroke="black" stroke-width="2" fill="none" />
<polyline points="433.0,208.0,433.5,200.0" stroke="black" stroke-width="2" fill="none" />
<polyline points="428.5,190.0,423.5,198.0,422.5,199.5,426.0,213.5,434.0,218.5" stroke="black" stroke-width="2" fill="none" />
<polyline points="431.0,236.5,381.5,238.0,332.5,236.0" stroke="black" stroke-width="2" fill="none" />
<polyline points="337.0,237.0,342.0,245.0,345.5,253.5,353.0,251.0,361.0,264.5" stroke="black" stroke-width="2" fill="none" />
<polyline points="352.0,273.5,360.0,277.5" stroke="black" stroke-width="2" fill="none" />
<polyline points="358.5,281.0,352.0,273.5,343.0,272.5" stroke="black" stroke-width="2" fill="none" />
<polyline points="347.5,264.5,339.5,265.5,331.5,274.5" stroke="black" stroke-width="2" fill="none" />
<polyline points="330.5,282.0,338.5,293.0" stroke="black" stroke-width="2" fill="none" />
<polyline points="343.0,308.0,351.0,296.5,359.0,295.5,367.0,298.0,372.0,292.0,374.5,301.5,371.5,309.5,382.5,316.5,383.5,324.5,385.5,330.0,374.0,338.0,382.5,339.0,392.5,339.5,401.5,341.5" stroke="black" stroke-width="2" fill="none" />
<polyline points="400.5,339.5,403.5,347.5,405.5,356.0,407.5,364.5,409.0,376.0" stroke="black" stroke-width="2" fill="none" />
<polyline points="425.0,362.0,432.5,356.0,430.0,356.5,428.0,370.5,430.5,372.5,438.5,370.5,438.5,365.5,440.0,360.5,447.5,357.5,437.0,357.0,441.0,366.0,431.0,375.0,439.0,373.0" stroke="black" stroke-width="2" fill="none" />
<polyline points="437.0,373.0,444.5,365.0,445.5,357.5" stroke="black" stroke-width="2" fill="none" />
<polyline points="435.0,354.0,434.0,361.5" stroke="black" stroke-width="2" fill="none" />
<polyline points="433.0,351.0,424.5,359.0,427.5,354.0,436.0,351.0" stroke="black" stroke-width="2" fill="none" />
<polyline points="449.0,376.0,461.0,372.0,471.5,363.5,477.5,355.5,480.5,347.5,481.5,339.5" stroke="black" stroke-width="2" fill="none" />
<polyline points="481.5,338.0,467.5,346.0" stroke="black" stroke-width="2" fill="none" />
<polyline points="465.0,329.0,457.0,333.5,449.5,340.5,441.0,337.0,433.0,329.5,430.0,326.5,428.5,317.0,421.0,311.5" stroke="black" stroke-width="2" fill="none" />
<polyline points="412.5,313.0,423.5,320.5,421.5,328.5,432.5,336.5,444.0,344.5" stroke="black" stroke-width="2" fill="none" />
<polyline points="451.0,338.5,460.0,330.5" stroke="black" stroke-width="2" fill="none" />
<polyline points="464.0,329.0,465.0,337.0,465.0,347.0,473.0,341.5,481.0,337.5" stroke="black" stroke-width="2" fill="none" />
<polyline points="408.5,328.0,400.0,315.5" stroke="black" stroke-width="2" fill="none" />
<polyline points="397.5,314.0,402.5,322.5,406.5,331.0" stroke="black" stroke-width="2" fill="none" />
<polyline points="406.0,332.0,398.5,337.0,384.5,335.0,376.5,338.0,369.0,339.0,367.0,339.0,361.0,331.0,359.0,323.0,345.0,314.5,343.5,306.5,347.5,298.5,340.5,290.5,334.5,282.0,333.5,274.5,338.0,266.5,336.0,253.5,328.0,247.0,320.0,239.0,311.5,230.0,303.5,223.0,295.5,215.5,287.5,207.0,279.5,199.0" stroke="black" stroke-width="2" fill="none" />
<polyline points="278.0,196.0,286.0,193.0,294.5,189.0,303.0,187.0,311.0,183.5,319.0,181.5,327.0,177.5,335.0,174.5,343.0,173.0,351.0,170.0,359.0,167.0,367.0,164.0,375.0,160.5,368.0,167.5,348.0,170.0,325.0,178.0" stroke="black" stroke-width="2" fill="none" />
<polyline points="317.0,170.5,309.0,173.5,301.5,176.5,293.0,181.0,285.0,184.5,277.0,187.5,269.0,181.0,261.0,167.5" stroke="black" stroke-width="2" fill="none" />
<polyline points="259.5,162.0,262.5,169.5,267.5,178.0,273.0,186.0" stroke="black" stroke-width="2" fill="none" />
<polyline points="272.5,202.0,321.5,205.0" stroke="black" stroke-width="2" fill="none" />
<polyline points="326.0,200.5,328.0,196.5,336.0,193.0,344.0,183.0,352.0,176.5,360.0,172.5,368.0,170.5,376.0,171.0" stroke="black" stroke-width="2" fill="none" />
<polyline points="370.5,174.0,362.0,176.5,354.0,182.5,353.5,189.0,374.5,181.0" stroke="black" stroke-width="2" fill="none" />
<polyline points="368.0,174.0,354.0,182.0,349.0,192.0,340.0,200.0,327.5,205.0,336.0,209.5,344.0,209.5,347.0,211.5,358.0,202.5,366.5,194.0,374.5,191.5,382.5,190.5,390.0,191.0,397.0,193.0,404.5,198.0,412.5,204.0,418.5,209.0" stroke="black" stroke-width="2" fill="none" />
<polyline points="422.0,198.5,430.0,191.5,438.0,191.5,446.5,193.0" stroke="black" stroke-width="2" fill="none" />
<polyline points="442.5,191.5,451.5,199.5,452.5,207.5,446.5,215.5" stroke="black" stroke-width="2" fill="none" />
<polyline points="455.5,222.5,450.5,230.5,455.5,225.0,464.0,223.0,471.5,217.5" stroke="black" stroke-width="2" fill="none" />
<polyline points="490.5,163.0,482.5,168.0,474.5,172.0,466.5,171.0,454.5,175.0,451.5,171.0,443.5,172.0,435.5,173.0,428.0,175.0,420.0,187.0" stroke="black" stroke-width="2" fill="none" />
<polyline points="416.5,186.0,424.5,174.0,432.0,171.0,421.0,178.5,416.0,187.0,415.0,195.0,416.0,203.0,421.0,210.0,429.5,218.0,433.0,226.0,437.0,224.0,440.0,226.0,446.0,220.0,453.5,218.5,462.0,221.5,469.5,217.0" stroke="black" stroke-width="2" fill="none" />
<polyline points="458.0,274.5,459.0,269.0,456.0,266.0,452.0,259.5,445.5,261.5,437.5,265.0,433.5,263.0,426.0,264.5,417.5,266.0,409.5,266.5,401.5,268.5,393.5,273.5,388.5,272.0,380.5,273.0,375.5,279.0,373.0,270.5,372.0,262.5,371.0,254.5,369.0,244.5,357.0,236.5,358.0,232.5,356.0,224.5,355.5,217.5,355.0,204.5,358.0,196.5,369.0,188.5,363.5,192.5,355.5,202.5" stroke="black" stroke-width="2" fill="none" />
<polyline points="350.0,216.0,342.0,214.5,334.0,214.0,326.0,213.0,318.5,213.0" stroke="black" stroke-width="2" fill="none" />
<polyline points="316.0,220.5,324.5,219.5,334.0,216.5,342.0,217.5,350.5,218.5" stroke="black" stroke-width="2" fill="none" />
<polyline points="360.5,220.0,368.5,215.0,376.5,214.0,384.5,216.5,393.0,225.5" stroke="black" stroke-width="2" fill="none" />
<polyline points="382.5,229.0,379.5,225.5,371.5,227.5" stroke="black" stroke-width="2" fill="none" />
<polyline points="375.5,225.5,372.5,233.5,376.5,236.0" stroke="black" stroke-width="2" fill="none" />
<polyline points="359.5,239.5,364.5,239.0,379.5,252.5,390.5,260.5,392.5,268.0,387.0,277.0,388.5,285.0" stroke="black" stroke-width="2" fill="none" />
<polyline points="372.0,291.0,364.0,293.0,362.0,281.0,364.0,269.0,358.0,262.5,354.0,254.5,349.0,247.0,346.0,236.0" stroke="black" stroke-width="2" fill="none" />
<polyline points="345.0,231.0,343.5,239.0,341.5,240.5,344.5,249.0,347.5,257.5" stroke="black" stroke-width="2" fill="none" />
<polyline points="345.5,255.5,337.5,247.5,329.5,240.5" stroke="black" stroke-width="2" fill="none" />
<polyline points="345.0,244.5,353.0,256.5,361.0,269.5,369.0,277.5,377.5,277.5,385.5,276.5,392.5,283.5,395.0,293.0,402.5,295.0,411.0,295.0,418.5,294.0,426.5,292.5" stroke="black" stroke-width="2" fill="none" />
<polyline points="393.0,314.5,400.0,323.0,404.0,331.0,406.5,338.0" stroke="black" stroke-width="2" fill="none" />
<polyline points="399.0,339.0,400.5,347.0,401.5,352.5" stroke="black" stroke-width="2" fill="none" />
<polyline points="393.0,359.5,385.0,356.5,383.0,359.5" stroke="black" stroke-width="2" fill="none" />
<polyline points="381.5,362.5,389.5,372.5,397.0,375.5,405.0,374.5,413.0,377.5,420.5,380.5,427.0,383.5,429.5,383.0,437.0,380.5,445.0,376.5,453.0,368.0,461.0,370.5,469.0,364.5,477.5,355.0" stroke="black" stroke-width="2" fill="none" />
<polyline points="398.0,353.5,390.0,355.0,382.0,352.0" stroke="black" stroke-width="2" fill="none" />
<polyline points="389.0,362.5,390.0,365.5" stroke="black" stroke-width="2" fill="none" />
<polyline points="386.0,350.0,374.5,344.5,366.5,342.5,358.0,336.5" stroke="black" stroke-width="2" fill="none" />
<polyline points="359.5,325.0,352.0,322.0,343.5,312.0" stroke="black" stroke-width="2" fill="none" />
<polyline points="339.0,315.5,347.0,324.0,355.5,328.0" stroke="black" stroke-width="2" fill="none" />
<polyline points="359.0,302.5,357.0,310.5,359.5,301.5" stroke="black" stroke-width="2" fill="none" />
<polyline points="356.5,302.0,352.5,310.0,355.0,312.5,363.0,314.5" stroke="black" stroke-width="2" fill="none" />
<polyline points="364.5,310.0,362.5,311.0,367.0,303.0,359.5,295.0" stroke="black" stroke-width="2" fill="none" />
<polyline points="370.5,287.0,376.5,295.0,383.0,303.0,390.0,311.0,389.5,319.0,390.5,327.0,391.5,335.5,381.5,342.0,390.0,347.5" stroke="black" stroke-width="2" fill="none" />
<polyline points="398.0,341.5,395.0,343.0,398.0,351.0,392.5,359.0,392.5,364.5,390.0,366.5,397.5,367.0" stroke="black" stroke-width="2" fill="none" />
<polyline points="324.5,379.5,273.5,427.5" stroke="black" stroke-width="2" fill="none" />
<polyline points="274.0,422.5,282.0,432.0,290.0,438.0,298.5,443.0" stroke="black" stroke-width="2" fill="none" />
<polyline points="285.5,432.0,334.5,435.5" stroke="black" stroke-width="2" fill="none" />
<polyline points="322.5,416.5,271.5,467.5" stroke="black" stroke-width="2" fill="none" />
<polyline points="277.5,461.5,327.5,460.0" stroke="black" stroke-width="2" fill="none" />
<polyline points="316.0,409.5,265.0,411.5" stroke="black" stroke-width="2" fill="none" />
<polyline points="263.5,405.5,256.5,417.5,248.5,429.0,240.0,432.0,232.0,430.0,225.0,428.0,217.0,425.0,209.0,423.0,201.0,421.0,189.0,417.0,182.5,413.0,181.5,410.5,173.5,416.5,165.5,418.5,157.0,420.5,149.0,422.0,140.5,423.0,133.0,423.0,125.0,427.5,117.0,430.5,109.0,434.0,102.0,436.5,100.0,435.0,95.0,435.5,99.5,427.5,98.5,419.0,85.5,410.5,76.5,402.5,69.0,395.0,64.0,387.5,60.0,379.5,57.5,372.0,56.0,364.0,55.5,356.0,55.5,348.0,57.0,340.5,58.0,332.5,59.0,324.5,50.5,320.0,42.5,327.0,34.5,333.5,26.5,341.0,18.5,351.5,10.5,360.5,9.0,359.0,12.0,351.0,14.0,343.0,17.5,334.5,22.5,326.5,26.5,318.5,31.5,310.0,38.5,302.0,46.5,294.0,55.5,286.0,66.5,278.0,80.5,270.0,90.0,262.0,85.0,268.0,77.0,272.0,69.0,276.0,61.0,281.0,53.0,287.0,45.0,295.0,37.5,303.5,29.5,313.5,22.0,327.0,14.0,343.0" stroke="black" stroke-width="2" fill="none" />
<polyline points="13.0,335.5,21.5,320.5,29.5,308.5,37.5,298.0,45.5,290.0,53.0,283.5,61.0,276.5,69.0,272.5,74.5,269.5,59.5,277.5,49.0,285.5,41.0,293.5,34.5,301.5,26.5,309.5,22.5,317.5,17.0,325.0,13.5,333.0,10.5,341.5,8.5,349.5,5.5,357.5,3.0,365.5,2.5,377.5,10.5,368.5,18.0,360.0,26.5,349.0,34.0,341.5,42.0,333.5,49.5,324.5,55.5,321.5,45.0,330.0,37.0,338.0,29.0,346.0,22.0,354.0,15.0,362.0,9.0,370.0,2.0,377.5" stroke="black" stroke-width="2" fill="none" />
<polyline points="14.5,379.5,65.5,328.0" stroke="black" stroke-width="2" fill="none" />
<polyline points="69.5,330.0,77.5,317.5,85.5,310.0,93.5,307.0,101.0,304.5,109.5,306.5,112.0,308.5,115.0,317.0,115.5,325.0,114.5,333.0,110.5,341.0,105.0,349.0,115.5,341.0,127.5,333.5,124.5,341.5,127.5,349.5,131.0,353.5,139.0,356.0,147.0,356.0,154.5,354.0" stroke="black" stroke-width="2" fill="none" />
<polyline points="145.5,348.5,138.0,351.5,130.5,348.0,122.5,343.5" stroke="black" stroke-width="2" fill="none" />
<polyline points="127.0,340.5,135.0,343.0" stroke="black" stroke-width="2" fill="none" />
<polyline points="134.5,343.0,137.5,335.5,133.5,332.5,125.5,336.5" stroke="black" stroke-width="2" fill="none" />
<polyline points="120.0,337.5,121.0,345.5" stroke="black" stroke-width="2" fill="none" />
<polyline points="119.5,334.5,71.0,384.5" stroke="black" stroke-width="2" fill="none" />
<polyline points="73.5,394.0,123.5,392.0" stroke="black" stroke-width="2" fill="none" />
<polyline points="120.0,389.5,116.5,381.5" stroke="black" stroke-width="2" fill="none" />
<polyline points="117.0,381.0,125.0,380.5,132.5,379.0" stroke="black" stroke-width="2" fill="none" />
<polyline points="130.0,367.0,178.0,319.0" stroke="black" stroke-width="2" fill="none" />
<polyline points="182.5,320.5,180.5,328.5,174.5,336.5,167.0,345.0" stroke="black" stroke-width="2" fill="none" />
<polyline points="167.5,334.5,115.0,331.5,62.0,332.0,12.0,332.5" stroke="black" stroke-width="2" fill="none" />
<polyline points="24.0,364.0,73.0,363.0,121.5,365.5,168.5,366.0" stroke="black" stroke-width="2" fill="none" />
<polyline points="162.0,367.0,161.5,375.0,147.0,382.5,140.0,388.5" stroke="black" stroke-width="2" fill="none" />
<polyline points="153.5,384.5,155.5,392.5,154.5,401.0,148.5,409.0" stroke="black" stroke-width="2" fill="none" />
<polyline points="147.0,426.5,139.0,426.5" stroke="black" stroke-width="2" fill="none" />
<polyline points="136.0,427.0,117.0,435.0,101.0,443.0,92.5,451.5,93.0,459.5,92.0,467.0" stroke="black" stroke-width="2" fill="none" />
<polyline points="87.0,474.5,79.0,469.5,71.0,476.5" stroke="black" stroke-width="2" fill="none" />
<polyline points="73.5,471.5,123.0,469.5" stroke="black" stroke-width="2" fill="none" />
<polyline points="123.0,434.5,72.5,482.5" stroke="black" stroke-width="2" fill="none" />
<polyline points="61.5,472.5,64.5,464.5,70.5,456.5" stroke="black" stroke-width="2" fill="none" />
<polyline points="71.5,448.5,57.0,455.5,65.0,453.0,73.5,447.0,81.5,444.5,95.5,440.5,103.5,435.0" stroke="black" stroke-width="2" fill="none" />
<polyline points="106.5,436.5,55.5,439.0" stroke="black" stroke-width="2" fill="none" />
<polyline points="60.0,441.0,50.0,449.0,52.0,456.5,56.0,458.5,64.0,456.5,72.0,457.5" stroke="black" stroke-width="2" fill="none" />
<polyline points="68.0,466.0,74.0,468.5,78.0,460.5,83.0,452.5" stroke="black" stroke-width="2" fill="none" />
<polyline points="84.5,454.5,83.0,462.5,82.5,470.0,73.5,475.0,71.5,469.5,79.5,456.5,93.5,446.5,101.5,443.5,109.5,439.5,117.5,434.5,125.0,431.5,133.5,428.5,141.5,425.5,150.0,426.0,158.0,424.5,166.0,423.0,178.0,420.0,186.5,422.0,194.0,424.0,205.0,429.5,213.0,430.0,221.0,432.0,228.5,434.0,236.5,436.5,245.0,439.5,253.0,441.5,260.5,444.5" stroke="black" stroke-width="2" fill="none" />
<polyline points="265.5,444.5,263.5,452.5,259.0,460.5,261.0,465.5,269.0,461.5,277.0,457.5,285.5,454.0,293.5,449.0" stroke="black" stroke-width="2" fill="none" />
<polyline points="273.0,417.0,281.0,412.0,289.5,411.5,297.5,410.5,305.5,410.5,313.5,410.5" stroke="black" stroke-width="2" fill="none" />
<polyline points="305.0,389.0,257.0,391.5" stroke="black" stroke-width="2" fill="none" />
<polyline points="254.0,378.0,246.0,374.5" stroke="black" stroke-width="2" fill="none" />
<polyline points="246.5,371.5,246.0,365.5,254.0,363.0,262.0,366.0" stroke="black" stroke-width="2" fill="none" />
<polyline points="270.0,375.0,278.0,372.0,286.0,368.0" stroke="black" stroke-width="2" fill="none" />
<polyline points="280.0,359.0,233.5,359.5" stroke="black" stroke-width="2" fill="none" />
<polyline points="228.5,361.0,276.5,309.5" stroke="black" stroke-width="2" fill="none" />
<polyline points="267.0,306.5,275.5,304.5,285.5,295.5,281.0,307.0,279.5,315.0,277.0,323.5,272.0,335.5,264.5,339.5,273.5,347.5,275.0,356.0,273.0,362.0,278.0,367.0,282.0,360.0" stroke="black" stroke-width="2" fill="none" />
<polyline points="278.0,354.5,277.5,352.5" stroke="black" stroke-width="2" fill="none" />
<polyline points="281.0,358.0,281.0,364.5,288.5,353.5,287.5,343.0,285.0,335.5,273.0,343.5,265.0,340.5" stroke="black" stroke-width="2" fill="none" />
<polyline points="260.0,338.5,268.0,334.5,268.5,336.5,276.0,349.5,284.0,345.5,286.5,346.5" stroke="black" stroke-width="2" fill="none" />
<polyline points="270.5,353.0,273.5,361.0,271.5,373.0,269.0,381.5" stroke="black" stroke-width="2" fill="none" />
<polyline points="248.0,390.0,239.5,390.0,231.5,389.5" stroke="black" stroke-width="2" fill="none" />
<polyline points="233.5,386.0,225.5,388.0,217.5,389.0" stroke="black" stroke-width="2" fill="none" />
<polyline points="210.0,385.0,225.0,377.0,241.5,368.5,240.5,370.5,232.5,373.5,224.0,377.5,216.0,381.5,207.5,386.0,199.5,390.0" stroke="black" stroke-width="2" fill="none" />
<polyline points="200.5,390.5,208.5,391.0,217.0,385.0,225.5,381.5,233.5,377.5,241.5,376.5,250.0,379.5" stroke="black" stroke-width="2" fill="none" />
<polyline points="253.5,385.0,243.0,377.0" stroke="black" stroke-width="2" fill="none" />
<polyline points="227.5,378.0,216.5,386.0,221.5,391.0,229.5,391.0,237.5,391.0,240.0,393.5,247.5,394.0,255.5,394.0,263.5,393.5" stroke="black" stroke-width="2" fill="none" />
<polyline points="264.0,387.5,256.5,388.5,255.5,380.5,245.5,372.5,248.0,361.0,240.0,364.0,232.0,367.5,224.0,371.5,215.5,375.0,207.5,379.0,199.0,383.5" stroke="black" stroke-width="2" fill="none" />
<polyline points="195.0,391.0,197.0,403.0" stroke="black" stroke-width="2" fill="none" />
<polyline points="192.5,405.5,201.0,409.0,209.0,411.0,217.5,412.0,226.0,414.0,234.5,415.0,242.5,418.0" stroke="black" stroke-width="2" fill="none" />
<polyline points="228.0,420.5,179.0,468.5" stroke="black" stroke-width="2" fill="none" />
<polyline points="188.0,460.5,178.5,452.5,175.5,445.0,172.0,437.0,170.0,429.5,166.5,419.0,182.5,411.0,192.5,402.0,197.0,395.0,195.0,392.0,198.0,384.0,200.0,376.0,201.0,367.5,195.0,367.5" stroke="black" stroke-width="2" fill="none" />
<polyline points="200.5,366.0,208.0,367.0,215.5,366.5,223.5,358.5,221.5,352.5,210.5,356.5,211.5,352.0,219.5,349.0" stroke="black" stroke-width="2" fill="none" />
<polyline points="223.0,352.5,214.5,359.5,206.5,355.0,205.5,351.5,210.0,343.5,218.5,339.5,210.5,343.5,211.0,352.0,214.0,344.0,220.5,341.0,212.5,346.0" stroke="black" stroke-width="2" fill="none" />
<polyline points="220.5,337.0,270.5,337.0" stroke="black" stroke-width="2" fill="none" />
<polyline points="271.0,329.5,263.0,330.0,254.5,336.0" stroke="black" stroke-width="2" fill="none" />
<polyline points="260.5,337.5,260.5,345.5,256.5,353.0,250.5,361.0,240.0,362.0,224.0,370.0,211.0,370.0,200.5,382.5,201.5,391.0,201.0,399.0,204.0,399.0,201.0,405.0" stroke="black" stroke-width="2" fill="none" />
<polyline points="189.5,410.0,197.5,411.0,205.0,415.0,213.0,419.0,220.5,423.0,228.5,426.0,236.5,424.0,238.5,422.0,235.0,430.0" stroke="black" stroke-width="2" fill="none" />
<polyline points="219.0,439.5,168.0,442.0" stroke="black" stroke-width="2" fill="none" />
<polyline points="172.0,440.5,180.5,455.5,188.5,462.5,197.0,464.0,205.0,457.5" stroke="black" stroke-width="2" fill="none" />
<polyline points="201.5,456.5,193.5,458.5,185.0,453.5,178.0,440.5" stroke="black" stroke-width="2" fill="none" />
<polyline points="192.0,438.5,190.0,430.5,185.5,422.0" stroke="black" stroke-width="2" fill="none" />
<polyline points="181.5,419.5,184.5,427.0,187.5,435.0,190.0,442.5" stroke="black" stroke-width="2" fill="none" />
<polyline points="204.5,428.5,207.5,436.5,208.5,444.0,209.0,452.0,202.0,460.0" stroke="black" stroke-width="2" fill="none" />
<polyline points="202.5,452.0,204.0,444.0,202.0,436.0,199.5,428.0,195.5,419.0" stroke="black" stroke-width="2" fill="none" />
<polyline points="185.0,412.0,192.5,410.0,195.5,410.0,211.5,418.0,230.5,426.0" stroke="black" stroke-width="2" fill="none" />
<polyline points="248.5,429.5,253.5,421.0,258.0,413.0,263.0,405.0" stroke="black" stroke-width="2" fill="none" />
<polyline points="284.5,411.5,274.5,419.5,278.0,427.5,288.0,435.5,300.0,443.5,288.5,451.5,270.5,459.5,261.0,457.0" stroke="black" stroke-width="2" fill="none" />
<polyline points="305.5,378.5,298.0,368.5" stroke="black" stroke-width="2" fill="none" />
<polyline points="298.0,367.5,295.0,375.5,295.0,383.5,293.0,391.5" stroke="black" stroke-width="2" fill="none" />
<polyline points="300.5,368.5,304.5,376.5,308.5,384.5,311.5,392.0,315.0,400.0,317.0,408.0" stroke="black" stroke-width="2" fill="none" />
<polyline points="288.0,392.0,280.0,391.0,271.5,391.0,263.5,390.0,259.5,385.0,260.5,377.5,258.0,369.5,260.0,363.0,266.0,361.0,270.0,353.0" stroke="black" stroke-width="2" fill="none" />
<polyline points="257.5,353.5,249.5,357.5" stroke="black" stroke-width="2" fill="none" />
<polyline points="234.0,337.5,226.5,329.5,218.5,328.5" stroke="black" stroke-width="2" fill="none" />
<polyline points="223.5,329.0,233.5,337.0,234.5,345.0,232.5,352.5,227.5,360.5,229.5,363.0,238.0,359.0,246.0,354.0,254.0,350.0" stroke="black" stroke-width="2" fill="none" />
<polyline points="262.5,331.0,255.0,339.0,255.5,347.5,244.5,355.5,231.5,363.0" stroke="black" stroke-width="2" fill="none" />
<polyline points="213.5,370.5,206.0,370.5,205.0,375.5" stroke="black" stroke-width="2" fill="none" />
<polyline points="183.0,387.0,176.0,398.0,174.5,389.5,176.0,381.0,184.0,373.0,183.0,374.0,175.0,383.0" stroke="black" stroke-width="2" fill="none" />
<polyline points="178.5,393.5,184.5,385.5,188.5,377.5,190.5,381.5,182.5,392.0,174.5,401.0,166.0,406.5,158.0,409.5,150.0,411.5,142.0,413.5,134.5,413.0,126.5,411.0" stroke="black" stroke-width="2" fill="none" />
<polyline points="125.5,409.0,133.5,410.0,141.5,410.0,149.5,408.0" stroke="black" stroke-width="2" fill="none" />
<polyline points="124.5,423.0,116.0,423.5,108.0,428.0,99.5,432.0,89.5,435.0,81.5,429.0,73.5,423.5" stroke="black" stroke-width="2" fill="none" />
<polyline points="75.5,420.0,75.5,428.5,82.5,436.5,79.5,449.5,72.5,458.0,68.5,466.0,61.5,468.0,69.5,457.0" stroke="black" stroke-width="2" fill="none" />
<polyline points="55.0,448.5,63.0,444.5,71.0,441.5,79.0,438.5" stroke="black" stroke-width="2" fill="none" />
<polyline points="82.5,430.0,78.0,422.0" stroke="black" stroke-width="2" fill="none" />
<polyline points="80.5,418.5,86.0,426.5,93.0,436.5,89.0,444.5,89.0,452.0,88.0,460.0,86.0,468.0,86.0,468.0" stroke="black" stroke-width="2" fill="none" />
<polyline points="102.5,425.0,95.0,429.5,87.0,426.5,78.5,417.5,70.5,419.5" stroke="black" stroke-width="2" fill="none" />
<polyline points="71.5,416.5,68.5,425.0,70.5,433.0,72.0,441.0,55.0,449.0,52.0,447.5,60.0,441.0,68.5,439.0,74.5,434.0,83.0,436.0" stroke="black" stroke-width="2" fill="none" />
<polyline points="86.0,374.0,80.0,366.5,82.0,358.0,68.0,356.0,64.0,347.5,64.0,339.5,66.5,331.0,69.5,323.0,73.5,318.5,65.5,333.5" stroke="black" stroke-width="2" fill="none" />
<polyline points="67.0,337.0,69.0,344.0,73.0,352.0,76.0,353.0" stroke="black" stroke-width="2" fill="none" />
<polyline points="74.0,360.0,82.0,362.0,90.0,375.5,97.5,378.5,105.5,380.5,113.0,382.0,119.0,389.0,127.0,393.5,135.0,389.5,141.5,384.5,149.5,382.0,157.5,378.0" stroke="black" stroke-width="2" fill="none" />
<polyline points="185.0,361.5,182.0,353.5,182.5,346.0" stroke="black" stroke-width="2" fill="none" />
<polyline points="193.5,318.0,185.5,335.0,177.5,346.5,169.5,355.5,161.5,365.5,153.5,370.5,145.5,374.5,144.0,371.0,156.0,363.0,165.0,355.0,174.0,347.5,179.0,339.5,184.5,331.0,189.5,323.0,192.5,315.0,194.5,307.0,197.5,299.0,198.5,291.5,197.0,290.0" stroke="black" stroke-width="2" fill="none" />
<polyline points="201.0,291.0,202.0,299.0,202.5,306.5,202.5,314.5,203.5,322.0,203.0,330.0,202.0,338.0,202.0,346.5,200.0,354.0,198.0,362.0,195.0,369.5,191.0,377.5,188.0,385.5,181.0,393.5,172.0,401.0,158.0,408.5" stroke="black" stroke-width="2" fill="none" />
<polyline points="176.5,419.5,175.0,427.5,176.0,435.5,179.0,444.0,182.0,452.0" stroke="black" stroke-width="2" fill="none" />
<polyline points="100.5,416.5,87.5,408.5,77.5,400.5,71.5,392.5,66.0,385.0,63.5,377.0,60.5,369.0,59.0,361.0,59.0,353.0,59.5,345.0,60.5,336.5,64.0,328.5,67.0,320.0,77.5,311.5,73.0,316.5,65.0,322.5" stroke="black" stroke-width="2" fill="none" />
<polyline points="73.0,333.5,81.0,331.0,89.0,332.0" stroke="black" stroke-width="2" fill="none" />
<polyline points="87.0,333.0,93.0,341.0,93.5,349.0,86.5,357.0,89.5,354.5,99.5,351.5,107.5,347.5,115.5,333.5" stroke="black" stroke-width="2" fill="none" />
<polyline points="138.5,322.0,147.5,330.0,149.5,338.5,146.5,347.0,143.0,353.0,151.0,351.0,159.0,347.0,167.5,340.5,175.5,331.5,184.0,320.0" stroke="black" stroke-width="2" fill="none" />
<polyline points="187.5,331.0,179.5,343.0,171.5,353.0,163.5,361.0,155.0,368.0,147.0,373.0,138.5,376.0,130.5,377.5,122.5,378.0,114.5,379.0,106.5,377.0,98.5,376.0,90.5,372.0,87.0,369.5,94.0,356.5,98.5,356.5,95.0,356.0,87.0,360.0" stroke="black" stroke-width="2" fill="none" />
<polyline points="87.0,368.0,95.0,366.0,102.5,366.0" stroke="black" stroke-width="2" fill="none" />
<polyline points="116.0,380.5,116.0,388.5,120.0,396.5" stroke="black" stroke-width="2" fill="none" />
<polyline points="80.5,351.0,82.0,343.0,78.0,341.0,70.0,344.0" stroke="black" stroke-width="2" fill="none" />
<polyline points="63.0,370.5,71.0,387.5,79.0,396.5,86.5,404.0,94.5,410.0,102.5,414.5,110.5,417.5,118.0,420.0,125.5,420.0,125.5,426.5,106.0,434.5" stroke="black" stroke-width="2" fill="none" />
<polyline points="107.5,423.0,99.5,418.0,92.0,411.5,84.0,407.0,75.5,399.0,67.5,389.5,59.5,374.5" stroke="black" stroke-width="2" fill="none" />
<polyline points="54.5,307.5,62.5,302.5,70.5,297.0,78.0,292.5,86.0,287.0,94.0,282.5,102.0,276.5,110.0,280.5,118.5,277.5" stroke="black" stroke-width="2" fill="none" />
<polyline points="120.0,279.0,171.0,229.5" stroke="black" stroke-width="2" fill="none" />
<polyline points="176.0,256.5,224.5,256.5,270.5,255.5" stroke="black" stroke-width="2" fill="none" />
<polyline points="275.5,245.5,227.0,247.0,176.0,247.5,123.5,248.5" stroke="black" stroke-width="2" fill="none" />
<polyline points="127.0,263.5,135.0,262.5,143.5,262.5,152.0,261.5,160.0,262.0,168.0,262.5,175.5,262.0,183.0,262.0,191.0,261.5,199.0,264.5,207.0,264.5,210.0,273.0,210.0,280.5,209.0,288.5,209.0,296.0,209.5,303.5,209.0,311.5,209.0,319.5,208.5,327.0,209.0,332.0,217.0,332.0,225.0,332.5" stroke="black" stroke-width="2" fill="none" />
<polyline points="224.5,307.5,232.5,288.5,240.5,269.5" stroke="black" stroke-width="2" fill="none" />
<polyline points="228.5,269.0,277.5,214.5,326.0,163.5" stroke="black" stroke-width="2" fill="none" />
<polyline points="339.0,176.5,318.0,184.5,300.0,186.5,288.5,196.5,296.5,192.5,304.0,190.5,312.5,186.5,321.0,183.5,329.5,182.0,337.5,179.0,346.0,175.0,353.5,173.5,361.5,170.5,369.0,167.5,377.0,164.5,385.0,161.5,392.5,158.0,400.5,156.5,408.5,154.5,416.5,152.5,424.5,150.5,432.5,148.5" stroke="black" stroke-width="2" fill="none" />
<polyline points="440.0,139.5,432.0,145.5,424.0,148.5,415.5,150.5,407.5,152.5,399.5,152.5,391.5,152.0,383.5,153.0,375.5,152.0,367.5,149.5,359.5,147.5,351.5,144.5,344.0,138.0,336.0,124.0" stroke="black" stroke-width="2" fill="none" />
<polyline points="333.0,131.0,341.0,141.5,349.0,148.5,357.0,152.0,365.0,155.0,373.0,156.0" stroke="black" stroke-width="2" fill="none" />
<polyline points="354.0,174.5,344.0,182.5,337.0,191.0,323.0,199.0,325.5,200.5,330.0,208.5,337.0,225.0,334.0,227.0,328.0,237.0,332.0,239.5,340.0,242.0,342.0,235.0,352.0,231.0,359.5,228.5,367.0,237.5,374.5,242.5,377.5,247.5,387.0,244.0" stroke="black" stroke-width="2" fill="none" />
<polyline points="396.5,250.5,388.5,250.5,381.0,252.5,373.0,250.0,366.5,242.0,358.5,239.5,350.5,233.5" stroke="black" stroke-width="2" fill="none" />
<polyline points="351.0,231.5,356.0,239.5,366.0,248.0,367.0,256.0,367.5,264.0,368.5,272.0,372.5,280.5" stroke="black" stroke-width="2" fill="none" />
<polyline points="341.5,262.5,334.0,267.0,321.0,278.0,313.0,276.0,305.0,270.5" stroke="black" stroke-width="2" fill="none" />
<polyline points="302.0,273.5,310.0,277.5" stroke="black" stroke-width="2" fill="none" />
<polyline points="319.5,281.5,312.0,285.0,303.5,289.0" stroke="black" stroke-width="2" fill="none" />
<polyline points="298.5,287.0,306.5,283.0" stroke="black" stroke-width="2" fill="none" />
<polyline points="297.0,302.5,288.5,296.5,280.5,298.0,272.0,300.0" stroke="black" stroke-width="2" fill="none" />
<polyline points="269.5,294.5,266.0,305.5,269.0,297.5,271.5,289.5,269.5,281.0,261.0,273.0,263.0,270.0" stroke="black" stroke-width="2" fill="none" />
<polyline points="260.5,271.5,268.5,267.5,276.0,267.0,284.0,265.0,291.5,253.5,299.5,245.5,293.0,251.5,287.5,259.0" stroke="black" stroke-width="2" fill="none" />
<polyline points="287.5,267.5,292.5,259.0,300.5,251.5,293.5,258.5,286.0,270.0,278.0,272.0,270.0,273.0" stroke="black" stroke-width="2" fill="none" />
<polyline points="272.0,271.5,276.0,280.0,277.0,287.5,274.5,295.5,277.5,287.0" stroke="black" stroke-width="2" fill="none" />
<polyline points="279.0,284.0,271.0,276.0" stroke="black" stroke-width="2" fill="none" />
<polyline points="269.5,280.5,261.5,274.0" stroke="black" stroke-width="2" fill="none" />
<polyline points="287.5,296.0,297.5,304.0,302.0,310.5" stroke="black" stroke-width="2" fill="none" />
<polyline points="295.5,307.0,287.0,306.5" stroke="black" stroke-width="2" fill="none" />
<polyline points="290.0,302.5,288.0,310.5,286.0,318.5,284.0,326.5,291.5,334.5,292.5,342.5,293.5,350.5,292.5,358.5,286.5,366.5" stroke="black" stroke-width="2" fill="none" />
<polyline points="195.5,357.5,188.5,360.0,180.0,366.0,172.0,371.0,167.5,373.0,171.0,371.0,186.5,363.0,196.5,355.0,197.0,347.0,198.0,339.0,198.0,331.0,197.5,323.5,199.0,316.0,198.0,308.0" stroke="black" stroke-width="2" fill="none" />
<polyline points="196.0,301.5,183.0,295.5,181.0,290.5,176.0,284.5,168.0,284.0,160.0,284.0,152.0,286.0,144.0,289.0,136.0,295.0,128.0,302.5,121.0,318.5,118.0,310.5,107.0,302.5" stroke="black" stroke-width="2" fill="none" />
<polyline points="98.5,302.5,106.0,302.0,114.0,305.0,122.0,318.0,133.0,304.0,139.5,296.0,147.5,292.5,154.5,289.0,162.5,287.0,170.5,287.0,178.5,290.5" stroke="black" stroke-width="2" fill="none" />
<polyline points="177.0,290.0,183.5,298.0,186.5,306.0,184.5,314.0,182.5,322.0,178.5,330.0,171.0,338.0,161.0,346.0,157.0,351.5,165.5,346.5,173.5,339.5,181.5,327.0" stroke="black" stroke-width="2" fill="none" />
<polyline points="182.0,289.5,188.0,297.5,190.5,304.5,189.5,312.5,196.0,318.5,191.5,326.0,187.5,334.0,182.5,342.0,177.0,350.0,169.0,358.0,160.0,366.0,147.5,374.0,137.0,381.5,140.0,384.5,126.5,392.5,119.5,394.5,128.0,395.5,135.0,392.0,143.0,388.0,150.5,384.5" stroke="black" stroke-width="2" fill="none" />
<polyline points="122.5,298.0,74.0,299.5" stroke="black" stroke-width="2" fill="none" />
<polyline points="90.0,305.5,98.0,300.5,106.0,294.5,112.0,283.0,120.0,281.0,128.0,278.0" stroke="black" stroke-width="2" fill="none" />
<polyline points="115.5,281.5,110.5,289.5,100.5,297.5,88.5,305.0,80.5,313.0,76.0,320.5,72.0,329.0,68.0,340.0,68.0,348.5,72.5,359.0,80.0,359.0,85.5,364.0,88.5,364.0,97.0,363.0,101.0,356.5,109.5,354.5" stroke="black" stroke-width="2" fill="none" />
<polyline points="150.5,335.0,142.5,322.5,134.5,321.5,126.5,323.5,123.5,320.5,126.5,312.5,132.0,304.5,139.0,296.5,148.5,289.5" stroke="black" stroke-width="2" fill="none" />
<polyline points="149.0,287.0,136.5,295.0,128.0,303.0,123.0,310.5,125.0,323.0,120.0,333.0,115.0,342.5,108.5,350.0,103.5,358.0,105.0,366.0" stroke="black" stroke-width="2" fill="none" />
<polyline points="106.5,276.0,100.5,278.0,89.5,286.0,77.5,294.0,67.0,301.5,56.0,309.5,54.0,317.5,44.0,325.5,35.0,333.5,27.0,342.0,21.5,350.0,14.0,357.5" stroke="black" stroke-width="2" fill="none" />
<polyline points="44.0,272.5,51.5,272.0,59.5,271.0,67.5,269.5,75.5,267.5" stroke="black" stroke-width="2" fill="none" />
<polyline points="92.5,263.0,84.5,263.0,76.5,262.5,68.5,263.5,60.5,264.5,52.5,267.5" stroke="black" stroke-width="2" fill="none" />
<polyline points="91.5,240.5,75.0,248.5,61.0,256.5,51.0,264.5,52.5,263.5,60.5,255.5,68.5,252.0,76.5,248.0,84.5,244.0,92.5,241.0,100.5,239.0,108.5,237.0,116.5,236.5,124.5,236.0,132.0,236.0,140.0,236.0,148.0,236.0,156.5,236.5,164.5,237.5,173.0,238.0,180.5,240.0,188.5,242.0,197.0,244.0,205.0,247.0,212.5,250.0,220.5,252.0,229.0,256.5,236.5,260.0" stroke="black" stroke-width="2" fill="none" />
<polyline points="220.0,253.0,237.0,261.0,237.0,269.0,232.5,276.5,228.0,284.5,225.5,292.5,222.5,300.5,219.0,308.0,215.0,316.0,210.5,324.0,220.5,302.0,229.0,282.0" stroke="black" stroke-width="2" fill="none" />
<polyline points="214.0,273.0,162.0,271.5" stroke="black" stroke-width="2" fill="none" />
<polyline points="178.5,263.0,230.5,216.0" stroke="black" stroke-width="2" fill="none" />
<polyline points="233.5,206.5,237.5,204.5,230.0,209.0,222.0,212.0,214.0,202.0,206.0,194.0" stroke="black" stroke-width="2" fill="none" />
<polyline points="206.0,193.0,206.0,201.0,204.0,209.0,204.0,217.0,203.0,225.5,208.0,229.5,216.0,232.0,224.0,235.5,232.0,237.5,240.5,240.5,248.5,242.5,256.0,234.5,264.0,224.5" stroke="black" stroke-width="2" fill="none" />
<polyline points="267.5,220.0,260.5,228.0,255.0,236.5" stroke="black" stroke-width="2" fill="none" />
<polyline points="241.5,255.5,233.5,252.5,225.5,250.0,218.0,247.0,210.0,243.0,202.0,241.0,194.0,239.0,186.0,237.5,178.0,235.5,170.0,234.5,164.5,232.5,156.5,231.5,148.0,230.5,139.5,229.5,131.5,229.5,123.0,230.5,115.0,231.5,107.0,233.0,98.5,236.0,90.5,237.5,82.5,240.0,74.5,243.5,66.5,249.0,58.5,252.5,51.0,259.5,43.0,267.0,43.0,268.0,50.5,259.5,59.5,251.5,72.5,243.5,93.5,235.5" stroke="black" stroke-width="2" fill="none" />
<polyline points="127.0,265.0,126.5,273.0,130.5,283.5,138.5,282.5,146.0,282.5,154.0,281.5,162.0,281.5,169.5,281.0,177.5,281.0,185.5,280.0,193.5,272.5,201.5,269.5,204.5,269.5" stroke="black" stroke-width="2" fill="none" />
<polyline points="195.5,269.5,191.5,277.5" stroke="black" stroke-width="2" fill="none" />
<polyline points="208.0,242.5,227.0,251.0,243.0,259.5,241.0,267.5,237.0,275.5,235.0,283.5,231.5,291.5,227.5,299.5,223.5,307.5,221.5,315.0,217.5,323.0,225.5,334.0,229.5,342.0,228.5,349.5,224.5,357.5,223.5,364.0,232.0,354.0" stroke="black" stroke-width="2" fill="none" />
<polyline points="300.5,299.5,299.5,291.5,305.0,283.5,303.0,275.5,301.5,267.5,299.5,259.5" stroke="black" stroke-width="2" fill="none" />
<polyline points="300.0,257.0,303.5,259.5,304.5,267.5,312.0,275.5,315.0,283.5,304.0,291.5,304.5,299.0,305.5,306.5" stroke="black" stroke-width="2" fill="none" />
<polyline points="349.0,252.0,346.0,244.5" stroke="black" stroke-width="2" fill="none" />
<polyline points="334.0,230.5,326.0,237.5,318.0,229.0" stroke="black" stroke-width="2" fill="none" />
<polyline points="332.5,201.5,341.0,198.0,349.5,193.0,357.5,190.5,365.5,187.5,373.5,184.0,381.5,182.0,389.5,180.5" stroke="black" stroke-width="2" fill="none" />
<polyline points="391.5,190.5,407.5,198.5,414.0,207.0,419.0,215.0,421.0,223.0,418.5,231.5,411.5,239.5" stroke="black" stroke-width="2" fill="none" />
<polyline points="378.0,245.5,370.0,246.0,361.0,237.5,357.0,237.5,353.0,227.5,349.0,224.5,339.0,226.0,336.0,230.5,328.5,226.5,320.5,227.5,312.5,224.0,305.0,216.0,297.0,208.0,289.0,199.5" stroke="black" stroke-width="2" fill="none" />
<polyline points="273.5,213.0,271.0,221.0,266.0,228.5,260.0,236.5,254.5,244.0" stroke="black" stroke-width="2" fill="none" />
<polyline points="274.0,213.0,266.0,215.0,257.5,216.5,249.0,216.5,245.0,217.5,244.0,209.5,243.0,201.5" stroke="black" stroke-width="2" fill="none" />
<polyline points="247.5,195.0,248.5,203.0,249.0,211.5,248.0,223.5,256.0,221.0,264.0,219.0" stroke="black" stroke-width="2" fill="none" />
<polyline points="283.0,167.5,332.0,166.5,381.0,171.0,429.0,172.5" stroke="black" stroke-width="2" fill="none" />
<polyline points="428.0,174.5,422.0,182.5,420.0,190.5,419.0,198.5,424.5,207.0,433.5,215.5,451.0,223.5,447.0,231.5,444.5,237.0,449.5,221.0" stroke="black" stroke-width="2" fill="none" />
<polyline points="420.0,227.5,412.5,239.5,405.0,244.5,397.0,246.5,388.5,246.5,391.5,240.5,395.0,232.5,392.0,224.0,386.0,216.0" stroke="black" stroke-width="2" fill="none" />
<polyline points="368.0,213.5,361.0,221.5,360.5,229.5,369.5,237.5,381.5,247.5,390.0,251.0,397.5,252.5,405.0,253.5,412.5,252.0,420.5,248.0,428.5,245.0" stroke="black" stroke-width="2" fill="none" />
<polyline points="412.5,244.5,404.5,247.5,417.5,240.5,423.0,230.5,424.5,222.5,421.5,214.0,417.5,207.0,410.5,198.5,398.5,190.5" stroke="black" stroke-width="2" fill="none" />
<polyline points="371.0,190.0,361.0,198.0,358.0,206.0,357.0,214.0" stroke="black" stroke-width="2" fill="none" />
<polyline points="410.0,159.0,418.0,160.0,426.0,162.5,434.0,162.0,441.5,159.5,450.0,157.5,458.0,153.5,466.5,150.5,474.5,145.5,482.5,138.5,490.5,129.5" stroke="black" stroke-width="2" fill="none" />
<polyline points="493.5,160.5,478.5,169.0,477.0,179.0,484.0,189.0,491.0,199.0,492.5,207.5,492.5,215.5,493.5,223.5,492.0,231.5,491.0,239.5,490.0,247.5,485.0,256.0,481.0,265.5,476.0,273.5,468.0,281.5,457.0,289.5,445.5,297.5,428.5,305.5,422.5,313.5,433.5,321.0,429.5,329.0,440.5,337.0" stroke="black" stroke-width="2" fill="none" />
<polyline points="494.5,169.5,486.5,172.0,478.5,175.0,487.5,170.5,496.5,162.0" stroke="black" stroke-width="2" fill="none" />
<polyline points="446.5,117.0,439.5,111.0,431.5,106.5,424.0,104.5,416.0,102.5,408.0,103.5,399.5,104.5,391.5,107.5,383.0,114.5" stroke="black" stroke-width="2" fill="none" />
<polyline points="382.0,117.0,390.0,107.0,398.5,103.0,406.5,101.0,414.0,99.5,422.0,99.5,430.0,102.5,437.5,104.5,445.0,110.0" stroke="black" stroke-width="2" fill="none" />
<polyline points="435.5,107.5,446.5,115.5,448.5,123.5,447.0,131.5,438.5,139.5,423.5,147.5" stroke="black" stroke-width="2" fill="none" />
<polyline points="412.0,157.5,420.5,165.0" stroke="black" stroke-width="2" fill="none" />
<polyline points="393.0,131.5,384.5,128.5" stroke="black" stroke-width="2" fill="none" />
<polyline points="383.0,124.0,390.5,127.5,399.0,130.5,407.0,130.0,414.5,128.5,422.5,122.5,421.5,123.5" stroke="black" stroke-width="2" fill="none" />
<polyline points="426.0,121.0,419.0,129.0" stroke="black" stroke-width="2" fill="none" />
<polyline points="395.0,130.0,385.0,122.5,387.0,115.5,395.0,107.0" stroke="black" stroke-width="2" fill="none" />
<polyline points="394.5,103.5,385.0,112.0,382.0,120.0,385.0,128.0,396.5,133.0,404.5,134.0,412.0,133.0,420.0,128.5" stroke="black" stroke-width="2" fill="none" />
<polyline points="436.5,105.0,446.5,112.0,451.5,120.0,451.5,128.0,449.0,135.5,440.0,143.5,440.0,143.5,448.0,137.0" stroke="black" stroke-width="2" fill="none" />
<polyline points="467.5,79.0,481.5,87.0,490.5,94.5,495.5,102.5,495.0,110.0,496.0,118.0,493.5,126.0,487.5,134.5,479.5,142.5,462.5,150.5,453.5,162.0,460.5,177.0,469.0,185.0,474.0,193.0,476.0,201.0,475.0,209.0,469.0,217.0,469.0,225.0,466.0,233.5,459.5,242.0,451.0,249.0,441.5,257.0,437.5,267.0,436.5,275.0,436.5,283.0,431.5,290.0,439.0,287.0,447.0,284.0,454.0,278.5,461.5,270.5" stroke="black" stroke-width="2" fill="none" />
<polyline points="326.5,171.5,318.5,174.5,310.5,178.5,302.5,181.5,294.5,183.5,287.0,187.5,279.0,190.5,271.0,192.5,268.0,186.5,263.5,178.5,259.0,170.5,255.0,162.5,250.5,154.5" stroke="black" stroke-width="2" fill="none" />
<polyline points="251.5,155.5,259.0,157.5,267.0,160.5,275.0,158.5" stroke="black" stroke-width="2" fill="none" />
<polyline points="280.5,152.0,288.5,154.0,293.5,156.0,301.5,156.5,309.5,146.5" stroke="black" stroke-width="2" fill="none" />
<polyline points="311.5,138.5,309.0,147.0,306.5,155.0" stroke="black" stroke-width="2" fill="none" />
<polyline points="317.5,139.0,321.0,147.5,324.0,155.0,326.5,163.0,328.5,171.0,313.5,178.5,290.5,186.5,285.5,197.5,292.5,205.5,300.5,213.5,309.5,221.5,315.5,229.5,323.5,237.0,332.0,244.5,340.0,252.5,349.5,260.5,355.0,262.5,360.0,271.0,368.5,279.5,378.5,288.0" stroke="black" stroke-width="2" fill="none" />
<polyline points="274.5,168.5,267.0,164.5,259.0,161.0" stroke="black" stroke-width="2" fill="none" />
<polyline points="251.5,158.5,259.0,172.5,267.5,184.5" stroke="black" stroke-width="2" fill="none" />
<polyline points="272.5,149.5,280.5,148.5,288.5,149.5,297.0,150.5,305.0,146.0,313.5,127.0" stroke="black" stroke-width="2" fill="none" />
<polyline points="311.5,127.5,309.5,135.5,306.0,143.5,299.0,151.0" stroke="black" stroke-width="2" fill="none" />
<polyline points="278.0,150.5,279.0,158.5,280.0,166.5" stroke="black" stroke-width="2" fill="none" />
<polyline points="273.0,156.0,274.0,148.0" stroke="black" stroke-width="2" fill="none" />
<polyline points="313.5,130.0,316.0,137.5,315.0,145.0,317.5,153.0,320.5,161.0,323.0,168.5,304.0,176.5,284.0,188.5,279.0,196.5,284.5,204.0,292.5,212.0,301.5,220.0,309.0,228.5,316.0,236.5,325.0,245.0,333.0,253.0,339.5,260.5,332.5,268.0,328.5,276.0,329.5,283.5,335.0,291.5,341.0,299.5,339.0,307.5,341.0,315.5,349.5,323.5,357.5,331.5,360.5,339.5,380.5,343.5,377.5,351.5,379.5,359.0,383.5,367.5,392.0,369.5,400.0,370.5" stroke="black" stroke-width="2" fill="none" />
<polyline points="226.0,207.0,238.0,198.5,242.5,196.5,234.5,201.5,226.5,206.5,218.5,202.0,210.0,191.0,201.5,188.0" stroke="black" stroke-width="2" fill="none" />
<polyline points="204.5,185.0,203.5,193.0,202.0,201.0,201.0,209.0,200.5,216.5,199.5,224.5,203.5,232.5,204.5,233.5,212.5,235.5,220.5,238.0,228.0,240.0,236.5,243.0,244.5,244.5,252.5,246.5,260.0,235.5,268.0,224.5" stroke="black" stroke-width="2" fill="none" />
<polyline points="221.0,212.0,214.5,204.0,208.5,196.0" stroke="black" stroke-width="2" fill="none" />
<polyline points="207.0,187.5,213.5,195.5,220.5,203.5" stroke="black" stroke-width="2" fill="none" />
<polyline points="345.5,145.5,337.0,138.0,333.0,129.5,331.0,122.0,331.5,114.0,333.5,106.0,338.5,98.0,345.5,90.0,358.0,81.5,373.0,73.0" stroke="black" stroke-width="2" fill="none" />
<polyline points="360.0,57.0,374.0,49.0" stroke="black" stroke-width="2" fill="none" />
<polyline points="375.0,48.5,390.0,56.0" stroke="black" stroke-width="2" fill="none" />
<polyline points="384.5,46.5,382.0,38.5,392.0,31.0,390.0,33.0,382.0,36.5" stroke="black" stroke-width="2" fill="none" />
<polyline points="393.5,34.5,401.5,28.5" stroke="black" stroke-width="2" fill="none" />
<polyline points="392.5,26.0,385.0,24.5,381.0,22.5,379.0,14.5" stroke="black" stroke-width="2" fill="none" />
<polyline points="360.5,35.5,352.5,28.0" stroke="black" stroke-width="2" fill="none" />
<polyline points="349.5,25.5,355.5,33.0,360.0,41.0,359.5,49.5,366.5,48.5,375.0,46.0,383.0,49.5,390.5,41.5,399.0,41.0,403.0,43.0,411.0,42.5,419.0,43.5,427.0,44.5,434.5,45.5,442.5,55.5,450.0,57.5" stroke="black" stroke-width="2" fill="none" />
<polyline points="455.0,39.5,454.0,42.5,450.0,37.0,456.0,29.0" stroke="black" stroke-width="2" fill="none" />
<polyline points="455.0,25.0,448.0,33.0,441.0,41.5,439.0,49.5,450.0,54.5,457.0,62.0,457.0,70.0,462.0,59.5,465.0,51.5,470.0,48.5,478.0,40.5" stroke="black" stroke-width="2" fill="none" />
<polyline points="369.0,23.0,375.0,14.5,375.5,13.5,367.5,24.5,359.5,25.5,351.5,24.0" stroke="black" stroke-width="2" fill="none" />
<polyline points="346.0,23.5,347.0,31.5,356.0,39.0,356.0,47.0,355.0,55.0,356.0,59.5,363.5,55.0,371.5,50.0,379.5,51.5,388.0,56.0" stroke="black" stroke-width="2" fill="none" />
<polyline points="353.0,34.0,345.0,25.5" stroke="black" stroke-width="2" fill="none" />
<polyline points="342.0,24.0,350.0,23.0,358.0,22.0,366.0,20.0,374.0,8.0,374.0,7.5,368.0,15.5" stroke="black" stroke-width="2" fill="none" />
</svg>