<svg xmlns="http://www.w3.org/2000/svg" version="1.1"><polyline points="111.5,11.5,105.0,19.5,102.5,27.5,99.0,35.5,92.0,43.5,80.0,53.0,75.0,61.0,68.5,68.5,60.5,71.5,66.0,70.5,73.5,66.5,74.0,60.5,82.0,50.0,90.5,46.0,98.0,45.0" stroke="black" stroke-width="2" fill="none" />
<polyline points="106.0,35.0,107.5,38.0,107.5,46.5,111.0,45.0,114.0,53.5,120.0,61.5" stroke="black" stroke-width="2" fill="none" />
<polyline points="113.5,56.5,121.5,63.5,129.0,61.0" stroke="black" stroke-width="2" fill="none" />
<polyline points="150.5,93.0,159.0,90.0,167.0,87.0,175.0,83.5,183.0,80.5,191.5,80.5" stroke="black" stroke-width="2" fill="none" />
<polyline points="187.0,83.5,178.0,86.5,169.5,87.5" stroke="black" stroke-width="2" fill="none" />
<polyline points="174.0,77.0,223.5,76.0" stroke="black" stroke-width="2" fill="none" />
<polyline points="218.0,70.0,169.0,121.5" stroke="black" stroke-width="2" fill="none" />
<polyline points="161.0,119.5,152.5,121.5,144.5,121.5,136.5,122.5,128.5,128.0,120.0,134.5,112.0,145.5,104.0,154.5,96.0,161.5,88.0,167.5,80.0,172.5" stroke="black" stroke-width="2" fill="none" />
<polyline points="80.5,169.5,82.5,177.5,79.5,185.5,75.5,193.5,69.0,202.0,66.0,209.0,60.0,217.0,55.5,225.5,47.0,233.5" stroke="black" stroke-width="2" fill="none" />
<polyline points="67.5,234.0,19.0,282.0" stroke="black" stroke-width="2" fill="none" />
<polyline points="24.0,277.0,32.0,285.5,39.5,285.5,47.5,282.5,55.0,275.5,63.0,265.5,71.0,253.5,79.0,238.5,86.5,222.0" stroke="black" stroke-width="2" fill="none" />
<polyline points="88.0,206.0,89.0,214.0,89.0,221.5,83.5,229.0,79.5,237.5,75.5,245.5,72.0,253.5,66.5,261.5,60.5,269.5,52.5,277.0,41.5,285.0" stroke="black" stroke-width="2" fill="none" />
<polyline points="27.0,301.0,35.0,318.5,43.0,330.5,51.0,344.5,59.0,356.5,67.0,366.5" stroke="black" stroke-width="2" fill="none" />
<polyline points="71.0,364.5,120.0,361.0,170.5,360.5" stroke="black" stroke-width="2" fill="none" />
<polyline points="177.5,371.5,224.0,372.5" stroke="black" stroke-width="2" fill="none" />
<polyline points="198.5,372.5,206.5,366.5,214.0,360.5,222.0,355.5,230.0,351.0,238.0,346.5,246.0,340.5,254.5,336.5,262.5,331.5,270.5,329.0,278.5,327.0" stroke="black" stroke-width="2" fill="none" />
<polyline points="266.0,339.0,213.0,340.0,163.0,340.5,113.5,340.0,64.5,340.0" stroke="black" stroke-width="2" fill="none" />
<polyline points="71.5,369.5,123.0,320.5" stroke="black" stroke-width="2" fill="none" />
<polyline points="121.0,322.0,109.0,330.0,102.0,338.0,96.0,346.5,92.0,354.5,89.0,362.5,87.5,371.0,85.0,379.0,88.5,380.5,89.5,382.5,97.5,378.5" stroke="black" stroke-width="2" fill="none" />
<polyline points="101.5,365.5,110.0,350.5,117.5,339.5,125.5,335.0" stroke="black" stroke-width="2" fill="none" />
<polyline points="140.5,339.5,149.0,351.0,157.0,358.0,165.0,363.5,173.0,366.5,181.0,365.5,189.5,361.5,197.5,356.0,205.5,351.0,213.5,344.0,221.5,339.5,229.5,333.0,237.5,330.0,245.5,325.0,254.0,322.5,262.0,319.5,270.0,320.0" stroke="black" stroke-width="2" fill="none" />
<polyline points="274.5,306.5,281.0,307.5,282.0,315.0,284.0,323.0" stroke="black" stroke-width="2" fill="none" />
<polyline points="279.0,305.5,271.0,301.0,262.5,302.0,255.0,300.5" stroke="black" stroke-width="2" fill="none" />
<polyline points="251.5,311.5,259.5,311.5,261.5,314.0" stroke="black" stroke-width="2" fill="none" />
<polyline points="241.5,327.5,252.5,319.5,245.0,322.5,237.0,322.5,229.5,323.5,221.5,322.5,213.0,320.5,205.0,316.0,196.5,311.0,188.5,305.0,180.5,298.0,172.5,288.0,164.5,277.0,156.5,263.0,149.0,248.0" stroke="black" stroke-width="2" fill="none" />
<polyline points="153.5,272.0,164.5,279.0,168.5,287.5,173.5,295.5,174.0,303.0,180.5,303.0,192.0,311.0" stroke="black" stroke-width="2" fill="none" />
<polyline points="193.5,315.0,185.5,308.5,178.0,302.0,170.0,308.0" stroke="black" stroke-width="2" fill="none" />
<polyline points="168.0,314.0,173.0,310.0,171.0,310.0,168.0,318.5,169.0,325.5,177.0,324.5,184.0,322.5,191.5,320.5,199.5,319.5,207.0,322.5,215.0,323.0,220.5,326.0,228.5,325.5,230.5,328.0,218.5,335.5,207.5,343.5,195.5,351.0,181.5,359.0" stroke="black" stroke-width="2" fill="none" />
<polyline points="171.5,389.0,163.0,394.0,155.5,399.0,147.5,404.5,139.5,410.5,132.0,417.0,124.0,426.0,115.5,427.0,128.5,420.5,137.0,412.5,147.0,404.0,159.5,396.0,170.0,388.5,175.5,380.5,193.5,370.0,205.5,362.0,217.5,353.5,230.5,346.0,242.5,337.5,253.0,335.5,264.0,325.0,275.0,320.5,278.5,312.0,271.5,304.5,271.0,303.5,263.0,303.5,255.0,305.0,247.0,305.0,239.0,307.5,231.0,306.0,223.0,302.5,214.5,294.5" stroke="black" stroke-width="2" fill="none" />
<polyline points="218.0,292.0,226.0,300.5" stroke="black" stroke-width="2" fill="none" />
<polyline points="234.5,285.5,242.5,278.5,250.5,274.5,258.5,272.0,266.5,276.0,274.5,276.0" stroke="black" stroke-width="2" fill="none" />
<polyline points="280.0,278.0,332.0,227.5" stroke="black" stroke-width="2" fill="none" />
<polyline points="310.0,240.5,259.0,240.0" stroke="black" stroke-width="2" fill="none" />
<polyline points="247.5,235.5,240.5,243.5,232.5,251.5,225.5,259.5,217.0,270.5,226.0,259.0,234.0,250.5,242.0,243.0,249.0,237.0,257.0,233.0,265.5,228.0,273.5,228.0,281.0,227.5" stroke="black" stroke-width="2" fill="none" />
<polyline points="281.5,227.0,285.0,234.5,285.0,243.0,282.5,250.5,281.0,258.0,276.0,266.0,271.0,273.5,267.0,277.5,269.0,281.0,261.5,289.0,255.5,297.0,258.5,292.0,266.0,285.0" stroke="black" stroke-width="2" fill="none" />
<polyline points="251.5,274.0,239.5,282.0,234.0,289.5,231.0,297.0" stroke="black" stroke-width="2" fill="none" />
<polyline points="200.0,314.5,190.0,306.0,179.0,297.5,172.0,290.5,168.5,282.5,156.0,285.5" stroke="black" stroke-width="2" fill="none" />
<polyline points="164.0,281.0,172.0,291.0" stroke="black" stroke-width="2" fill="none" />
<polyline points="171.5,270.5,221.5,222.5" stroke="black" stroke-width="2" fill="none" />
<polyline points="221.5,234.5,171.5,234.0" stroke="black" stroke-width="2" fill="none" />
<polyline points="173.0,236.0,175.5,228.0" stroke="black" stroke-width="2" fill="none" />
<polyline points="184.5,231.5,192.5,227.5,200.5,228.5,208.5,217.5,214.5,208.0" stroke="black" stroke-width="2" fill="none" />
<polyline points="216.5,198.5,215.5,206.0,211.5,214.0,205.5,222.0" stroke="black" stroke-width="2" fill="none" />
<polyline points="191.0,227.0,182.0,234.5" stroke="black" stroke-width="2" fill="none" />
<polyline points="181.5,247.0,232.0,248.5" stroke="black" stroke-width="2" fill="none" />
<polyline points="257.5,268.0,310.0,266.0" stroke="black" stroke-width="2" fill="none" />
<polyline points="306.5,292.0,298.0,302.0,290.0,307.0,290.0,314.0,301.5,306.0,307.5,298.0,312.0,290.0,317.0,282.5,318.5,276.0,317.5,268.0,318.5,260.0,317.5,251.5,315.5,243.5,312.5,235.5,311.0,227.0,310.5,219.5,303.0,205.5,295.5,201.5,288.0,204.0,280.5,205.0,272.5,207.0,272.0,209.5" stroke="black" stroke-width="2" fill="none" />
<polyline points="282.0,206.5,281.0,203.5,282.0,195.5,281.0,191.0,276.0,193.0,273.5,185.0,267.5,177.0,258.0,184.0,250.0,182.5,242.0,182.5,234.0,183.0" stroke="black" stroke-width="2" fill="none" />
<polyline points="235.0,185.5,234.0,193.5" stroke="black" stroke-width="2" fill="none" />
<polyline points="237.5,185.5,245.5,189.0" stroke="black" stroke-width="2" fill="none" />
<polyline points="262.0,187.0,257.0,186.0,264.0,183.0,261.0,177.0,255.0,175.0,258.0,173.0,261.0,170.0,254.5,170.5" stroke="black" stroke-width="2" fill="none" />
<polyline points="261.5,172.5,269.0,177.5" stroke="black" stroke-width="2" fill="none" />
<polyline points="269.0,173.5,260.5,170.5,258.0,178.0,250.5,180.0,249.0,178.0,241.5,179.5,233.5,180.5,225.5,179.5,217.0,181.5,209.0,187.0,200.5,195.0,192.5,207.0,184.5,216.0,176.5,226.5,168.5,226.0,160.5,231.0,152.5,220.5" stroke="black" stroke-width="2" fill="none" />
<polyline points="144.5,235.0,136.0,221.0,127.5,214.0,125.5,212.5" stroke="black" stroke-width="2" fill="none" />
<polyline points="122.5,208.5,127.5,209.5,133.0,217.5,139.0,225.5,143.0,234.0" stroke="black" stroke-width="2" fill="none" />
<polyline points="138.5,241.0,130.5,231.0,122.5,220.5" stroke="black" stroke-width="2" fill="none" />
<polyline points="118.0,220.5,126.5,233.5,134.5,243.5,142.5,250.5,150.5,259.0" stroke="black" stroke-width="2" fill="none" />
<polyline points="148.5,278.5,150.0,272.0,157.0,280.0,152.0,288.0,149.0,296.0,145.0,303.5,142.5,312.0,139.5,320.0,138.0,328.0,138.5,336.0,142.0,343.5,148.5,352.0,157.0,360.0" stroke="black" stroke-width="2" fill="none" />
<polyline points="155.5,370.5,147.5,365.0,139.5,360.0" stroke="black" stroke-width="2" fill="none" />
<polyline points="140.5,359.5,137.5,367.5,131.5,371.5,128.5,379.5,125.5,387.5,120.5,395.5,117.0,403.5,116.0,411.5,113.0,419.5,116.0,427.5" stroke="black" stroke-width="2" fill="none" />
<polyline points="121.5,420.0,72.5,470.5" stroke="black" stroke-width="2" fill="none" />
<polyline points="71.0,458.0,122.0,458.0,171.5,455.0" stroke="black" stroke-width="2" fill="none" />
<polyline points="176.0,457.0,126.5,508.5,74.0,557.0" stroke="black" stroke-width="2" fill="none" />
<polyline points="69.0,554.5,118.0,554.0,168.0,554.0,216.0,554.5" stroke="black" stroke-width="2" fill="none" />
<polyline points="225.5,525.0,179.5,525.5,131.0,529.0,80.0,529.0" stroke="black" stroke-width="2" fill="none" />
<polyline points="77.0,516.0,125.0,469.0,175.5,418.5" stroke="black" stroke-width="2" fill="none" />
<polyline points="179.0,431.0,125.5,427.0,75.0,426.5" stroke="black" stroke-width="2" fill="none" />
<polyline points="69.5,419.0,120.0,369.5,171.5,322.0" stroke="black" stroke-width="2" fill="none" />
<polyline points="170.5,319.5,178.0,320.5,185.5,317.5,193.0,316.5" stroke="black" stroke-width="2" fill="none" />
<polyline points="169.5,323.0,168.0,315.0" stroke="black" stroke-width="2" fill="none" />
<polyline points="146.0,338.5,154.5,347.5,162.5,356.5,170.5,361.0,178.5,361.0,186.5,358.5,194.5,353.0,203.0,348.0,211.0,342.0,219.0,336.0,227.5,331.5,235.0,328.0" stroke="black" stroke-width="2" fill="none" />
<polyline points="229.0,334.0,218.0,342.0,207.0,350.0,193.0,358.0" stroke="black" stroke-width="2" fill="none" />
<polyline points="194.0,397.5,202.0,409.5,210.5,420.0,219.0,427.0,227.5,434.0,235.0,442.5,243.0,448.5,251.0,455.0,258.5,461.0,266.5,468.0,274.5,476.0,283.0,483.0" stroke="black" stroke-width="2" fill="none" />
<polyline points="280.0,465.5,227.5,518.5,176.0,571.0,124.0,622.0" stroke="black" stroke-width="2" fill="none" />
<polyline points="112.5,620.5,120.5,620.5,128.5,618.5,136.5,615.0,144.5,609.5,152.5,604.5,161.0,593.0,169.0,585.0,177.5,574.5,185.5,559.0,193.5,545.5,201.5,535.5,209.0,526.5,217.0,519.5,225.0,520.0,233.0,520.5,241.0,520.5,249.5,522.5,257.5,525.5,265.5,528.0,273.5,532.0,281.5,535.0,288.5,537.5,296.5,542.5" stroke="black" stroke-width="2" fill="none" />
<polyline points="304.0,520.5,308.0,512.5,301.0,511.5,293.0,521.5,285.0,526.5,285.0,526.5,296.0,518.5,302.0,511.0,304.5,504.0,306.5,496.0,305.0,488.0,306.0,491.0" stroke="black" stroke-width="2" fill="none" />
<polyline points="307.0,484.0,315.5,487.0,323.0,491.0,331.0,500.0" stroke="black" stroke-width="2" fill="none" />
<polyline points="337.5,513.0,345.5,511.0" stroke="black" stroke-width="2" fill="none" />
<polyline points="338.0,518.5,334.5,526.5,339.5,528.0,340.0,536.0,339.0,544.0,339.0,552.5,340.0,560.5,340.0,568.5,342.0,571.5,342.5,579.5,343.0,587.5,342.0,595.5,336.0,606.0" stroke="black" stroke-width="2" fill="none" />
<polyline points="336.5,598.0,335.5,589.5" stroke="black" stroke-width="2" fill="none" />
<polyline points="332.5,589.5,334.5,597.0,335.5,605.5,336.5,613.0,335.5,620.5,334.0,628.5,332.5,636.5,331.5,643.5,326.5,651.5,321.5,656.0,329.5,644.5" stroke="black" stroke-width="2" fill="none" />
<polyline points="332.0,653.0,324.0,661.0" stroke="black" stroke-width="2" fill="none" />
<polyline points="313.5,658.5,364.5,657.5" stroke="black" stroke-width="2" fill="none" />
<polyline points="375.5,625.5,327.5,674.0" stroke="black" stroke-width="2" fill="none" />
<polyline points="313.0,681.5,261.0,683.5" stroke="black" stroke-width="2" fill="none" />
<polyline points="257.0,686.0,249.0,686.0" stroke="black" stroke-width="2" fill="none" />
<polyline points="220.5,691.0,228.5,690.0,236.5,690.0,244.0,691.0,252.0,690.5,259.5,689.5,268.0,687.5,276.0,686.0,284.0,685.0" stroke="black" stroke-width="2" fill="none" />
<polyline points="274.5,667.0,282.5,671.0,283.0,678.5,286.5,690.5,289.5,698.5,292.5,705.0,295.0,713.0,298.5,721.5,298.5,730.0,298.5,736.0,293.5,744.0,293.5,752.0,296.5,759.5,299.5,767.5,302.5,775.0,308.5,782.5,313.0,790.5,318.0,798.5,326.0,806.0,333.5,814.0,340.5,822.0,350.5,830.0,364.0,838.0,371.0,844.0,379.0,842.5,387.5,841.5,395.5,839.5,403.5,839.0,411.5,839.0,419.0,839.0,427.0,840.5,435.0,840.5,443.0,840.5,451.0,837.0,459.0,830.5,467.0,825.0,475.0,818.0,482.5,810.5,490.5,806.5,498.5,802.0" stroke="black" stroke-width="2" fill="none" />
<polyline points="475.0,803.0,526.0,804.5" stroke="black" stroke-width="2" fill="none" />
<polyline points="518.5,769.5,468.5,819.5" stroke="black" stroke-width="2" fill="none" />
<polyline points="480.5,785.5,529.5,784.5" stroke="black" stroke-width="2" fill="none" />
<polyline points="500.5,791.5,493.0,800.5,485.0,805.0,477.5,810.0,469.0,818.5,461.5,823.5,453.5,830.0,445.5,833.0,437.5,834.5,429.5,835.0,421.5,834.5,413.0,834.5,404.0,835.0,396.0,835.5" stroke="black" stroke-width="2" fill="none" />
<polyline points="413.5,834.0,405.5,833.0,397.0,834.0,389.5,837.5,381.5,839.5,373.5,840.0,365.5,840.0,357.5,835.0,349.5,830.0,341.5,824.0,333.5,813.5,325.5,805.5,317.5,797.5" stroke="black" stroke-width="2" fill="none" />
<polyline points="296.5,764.0,304.0,778.0,306.0,791.0,314.0,794.0,316.5,804.5,324.5,813.0,332.5,822.0,340.5,830.0,348.5,835.5,356.5,839.5,364.5,842.5" stroke="black" stroke-width="2" fill="none" />
<polyline points="274.0,768.5,223.0,766.5,172.0,764.5" stroke="black" stroke-width="2" fill="none" />
<polyline points="171.0,763.0,221.5,715.0" stroke="black" stroke-width="2" fill="none" />
<polyline points="227.0,721.5,234.5,735.5,242.5,738.0,250.5,740.0,258.0,742.5,266.0,749.5" stroke="black" stroke-width="2" fill="none" />
<polyline points="269.5,746.5,262.0,739.0,254.0,734.0,246.5,730.5,238.5,728.5,230.5,715.0" stroke="black" stroke-width="2" fill="none" />
<polyline points="222.5,704.0,168.5,705.5" stroke="black" stroke-width="2" fill="none" />
<polyline points="168.0,726.5,220.0,679.0" stroke="black" stroke-width="2" fill="none" />
<polyline points="211.5,678.5,162.0,678.5" stroke="black" stroke-width="2" fill="none" />
<polyline points="174.5,678.0,176.5,686.0,179.5,694.0,182.5,702.0,185.5,710.0,188.0,718.0,186.0,722.5" stroke="black" stroke-width="2" fill="none" />
<polyline points="179.0,739.0,228.5,736.5,278.0,735.0" stroke="black" stroke-width="2" fill="none" />
<polyline points="290.5,737.5,298.0,729.5,290.5,738.0,289.5,746.0,289.0,754.0,292.0,761.5,295.0,769.5,299.0,777.0,304.0,785.0,310.0,792.5,316.0,801.0,320.0,809.0,326.5,816.0,334.5,824.5,343.0,832.5,357.0,840.5" stroke="black" stroke-width="2" fill="none" />
<polyline points="306.0,746.0,303.0,738.0,302.0,734.5,294.0,739.5" stroke="black" stroke-width="2" fill="none" />
<polyline points="278.5,716.0,228.5,769.0" stroke="black" stroke-width="2" fill="none" />
<polyline points="231.0,799.5,246.0,791.5,257.5,783.5,265.5,775.0,268.5,766.5,269.5,758.5,267.0,750.0,259.0,742.0" stroke="black" stroke-width="2" fill="none" />
<polyline points="243.5,736.0,259.5,739.5,269.5,747.5,274.5,755.5,274.5,763.5,274.5,771.5,268.5,779.5,259.5,787.5,247.5,795.5,235.5,803.0" stroke="black" stroke-width="2" fill="none" />
<polyline points="310.0,745.5,306.5,739.5,305.0,731.5,304.0,725.5,301.5,717.5,298.5,709.5,295.5,701.5,292.5,693.5,289.5,685.5,286.5,677.5,284.0,670.0,286.0,660.5,298.5,652.5,301.0,651.0,293.5,657.0,286.0,661.0,278.5,663.5,270.5,663.5" stroke="black" stroke-width="2" fill="none" />
<polyline points="283.5,664.0,291.5,663.0,298.5,658.0,306.5,650.0" stroke="black" stroke-width="2" fill="none" />
<polyline points="313.5,653.5,317.5,645.5,315.5,643.0,307.5,646.5,299.5,647.0,292.0,647.0" stroke="black" stroke-width="2" fill="none" />
<polyline points="316.0,648.0,319.5,656.0,317.5,664.5,320.5,672.5,323.5,680.5,329.0,688.5,332.0,696.0,335.5,703.5,337.5,711.0,342.5,719.0,346.0,727.0,351.5,735.0" stroke="black" stroke-width="2" fill="none" />
<polyline points="346.0,718.0,354.0,723.0,362.5,726.0,370.5,727.0,379.0,731.0,387.0,734.0,395.0,737.0,399.0,744.0,405.0,740.0,412.5,743.0,421.0,746.5,428.5,749.5,437.0,752.0,445.0,757.0,453.5,758.5,461.5,761.5,469.0,764.5,476.5,767.5,484.5,770.5,492.0,776.0,500.0,780.0" stroke="black" stroke-width="2" fill="none" />
<polyline points="497.5,783.5,490.0,777.5,482.0,776.0,474.0,772.0,466.5,770.5,458.5,767.5,450.5,764.5,442.0,761.5,434.0,757.5,426.0,755.5,418.0,751.5,410.0,748.5,402.0,745.5,394.0,742.5,386.5,738.5,378.5,736.5,370.5,731.5,362.0,730.5,354.0,728.5,344.0,722.0,335.5,705.0" stroke="black" stroke-width="2" fill="none" />
<polyline points="316.0,636.0,363.5,635.5" stroke="black" stroke-width="2" fill="none" />
<polyline points="349.0,586.5,349.0,578.5" stroke="black" stroke-width="2" fill="none" />
<polyline points="328.0,500.5,320.0,492.0,312.0,486.0" stroke="black" stroke-width="2" fill="none" />
<polyline points="311.0,484.5,309.0,492.5,310.5,500.0,309.5,507.5,305.0,509.5,301.0,517.5,295.0,525.0,289.5,537.5,289.0,541.5,297.0,544.5" stroke="black" stroke-width="2" fill="none" />
<polyline points="263.5,528.0,282.5,531.0,290.5,529.5,298.5,522.5,306.5,508.0" stroke="black" stroke-width="2" fill="none" />
<polyline points="313.0,488.5,323.0,496.0,329.0,504.0,332.0,512.0,334.0,519.5,332.0,527.5" stroke="black" stroke-width="2" fill="none" />
<polyline points="315.0,486.5,325.5,494.5,331.5,502.0,336.0,510.0,341.0,513.0,345.0,518.0,343.0,526.0,341.5,534.0,341.5,542.0,342.5,550.0,345.0,554.0,344.5,562.0,345.5,570.5,345.5,578.5,345.5,586.5,345.5,594.5,342.5,600.5,339.5,608.5,340.0,615.5,338.5,623.0,338.5,631.0,336.5,639.0,334.0,647.0,329.5,655.5,324.0,663.5,326.0,671.0,330.0,679.5,333.0,688.0,336.0,696.0,340.0,704.0,343.5,712.0,347.5,720.0,353.0,729.5,354.5,736.5" stroke="black" stroke-width="2" fill="none" />
<polyline points="280.5,680.5,272.5,683.5,264.5,684.5,257.0,684.5,249.0,684.0,243.0,683.0,235.0,686.0,227.0,686.0,226.0,684.0,217.5,684.0,209.5,683.0,202.5,681.0,194.0,678.0,186.0,676.0,178.5,672.5,170.5,669.5,163.0,666.0,150.0,665.5,142.0,660.5,133.5,653.5,125.5,645.5,117.5,636.5,110.0,625.5" stroke="black" stroke-width="2" fill="none" />
<polyline points="111.5,625.5,120.0,634.5,128.0,643.0,136.5,652.0,144.5,655.5,153.0,661.0" stroke="black" stroke-width="2" fill="none" />
<polyline points="169.0,612.5,119.5,614.0,69.0,614.0" stroke="black" stroke-width="2" fill="none" />
<polyline points="69.0,617.5,117.0,570.5,164.5,525.0,214.5,479.0" stroke="black" stroke-width="2" fill="none" />
<polyline points="211.5,522.5,205.5,530.5,199.5,539.5,193.0,547.5,187.5,556.0,183.5,564.0,179.5,572.0,173.0,580.0,166.5,587.5,161.0,595.5,154.0,603.5,143.0,611.5" stroke="black" stroke-width="2" fill="none" />
<polyline points="160.5,576.5,111.0,577.5,61.5,578.5" stroke="black" stroke-width="2" fill="none" />
<polyline points="71.0,592.0,78.5,603.0,86.5,611.5,94.5,616.5,102.5,620.5,110.0,624.5,116.5,629.0,122.5,636.5,130.0,644.5,139.0,652.5,150.0,660.5,154.5,669.5,163.0,676.5,171.0,679.5,177.0,678.0,185.0,681.5,193.5,683.5,201.5,687.0,209.5,687.5,217.5,701.5" stroke="black" stroke-width="2" fill="none" />
<polyline points="219.0,691.0,219.0,699.0,224.5,706.5,227.5,714.5,231.0,722.5,235.5,730.5,241.0,744.0" stroke="black" stroke-width="2" fill="none" />
<polyline points="267.5,774.0,259.5,784.0,251.5,790.0,243.5,794.0,235.5,799.0,227.5,803.0,219.5,806.0,211.5,809.0,203.5,814.0,195.5,814.5,187.5,817.0,179.5,819.0,171.0,819.5,163.0,819.0,155.0,821.0,153.0,819.0,145.0,818.0,137.0,814.0,129.0,810.0,120.5,807.5,112.5,804.5,104.5,803.5,97.0,802.0,89.0,799.0,81.0,796.5,73.0,788.5" stroke="black" stroke-width="2" fill="none" />
<polyline points="68.0,789.0,75.5,798.0,83.5,804.5,91.5,805.5" stroke="black" stroke-width="2" fill="none" />
<polyline points="61.5,773.5,53.5,765.5" stroke="black" stroke-width="2" fill="none" />
<polyline points="55.0,756.5,63.0,767.0" stroke="black" stroke-width="2" fill="none" />
<polyline points="54.0,755.5,62.0,746.0,69.5,743.0,77.5,740.0,85.0,739.5,93.0,737.5,101.0,736.5,109.5,734.5,117.5,734.5,125.5,734.0,133.5,733.0,141.5,731.0,149.5,731.0,158.0,731.0,166.0,730.5,174.0,729.5,182.5,729.5,193.0,731.5,196.0,740.0" stroke="black" stroke-width="2" fill="none" />
<polyline points="150.0,733.5,142.0,733.5" stroke="black" stroke-width="2" fill="none" />
<polyline points="179.5,725.0,171.0,726.0,163.0,726.0,154.5,727.0,146.5,727.0,139.0,727.5,131.0,728.5,123.0,728.5,115.0,730.5,106.5,730.0,98.5,731.0,90.5,733.0,82.5,733.5,75.0,737.0,67.5,740.5,59.5,745.0,51.5,755.0" stroke="black" stroke-width="2" fill="none" />
<polyline points="64.0,739.0,54.0,747.0,51.5,755.0,54.5,763.0,61.5,771.0,64.5,779.5,67.5,788.0,73.0,796.5,83.0,804.5,97.5,808.5,105.5,808.5,113.5,811.5,121.5,814.5,129.5,818.0,137.5,822.5,145.5,824.5,154.0,826.0,162.0,826.0,170.5,825.5,178.5,824.0,186.5,821.5,194.5,819.5,202.0,816.5,210.0,813.5,218.0,811.0,226.0,808.5,234.0,804.5,242.5,799.5,250.5,795.5,258.5,789.0,267.5,782.0" stroke="black" stroke-width="2" fill="none" />
<polyline points="240.0,743.5,234.5,735.5,231.5,727.5,225.5,720.0,222.5,712.0,217.5,704.0,214.5,696.5,210.5,688.5" stroke="black" stroke-width="2" fill="none" />
<polyline points="68.5,742.0,57.5,750.0,55.0,758.0,61.5,766.5,66.0,775.0,69.0,783.5,73.5,791.5,84.5,800.0" stroke="black" stroke-width="2" fill="none" />
<polyline points="76.5,508.5,126.0,507.0,176.5,504.5,226.5,503.0,275.5,504.0" stroke="black" stroke-width="2" fill="none" />
<polyline points="273.5,482.5,222.5,487.5,171.0,491.5,120.0,494.0,70.5,496.0" stroke="black" stroke-width="2" fill="none" />
<polyline points="89.5,408.0,136.5,408.5" stroke="black" stroke-width="2" fill="none" />
<polyline points="133.5,393.5,83.0,394.0" stroke="black" stroke-width="2" fill="none" />
<polyline points="100.0,372.5,102.5,364.5,107.5,356.0,112.5,348.0,117.5,340.0,128.5,332.0,123.0,324.0,122.0,323.0,114.0,326.0,106.0,333.0,98.5,344.0,90.0,357.5" stroke="black" stroke-width="2" fill="none" />
<polyline points="65.0,330.0,114.0,284.5" stroke="black" stroke-width="2" fill="none" />
<polyline points="124.5,312.0,75.5,309.0" stroke="black" stroke-width="2" fill="none" />
<polyline points="69.0,299.0,121.5,297.5" stroke="black" stroke-width="2" fill="none" />
<polyline points="137.0,311.5,139.0,303.5,142.0,297.0,144.5,290.0,147.5,282.0,143.5,289.0" stroke="black" stroke-width="2" fill="none" />
<polyline points="193.5,250.0,201.5,254.0" stroke="black" stroke-width="2" fill="none" />
<polyline points="193.0,246.0,201.5,251.0,209.5,261.0,210.5,265.0,215.0,269.0,223.0,259.0,231.0,249.0,239.0,240.0,247.0,234.0,255.0,229.5,262.5,226.5,269.5,223.5,277.5,223.5,285.5,228.0" stroke="black" stroke-width="2" fill="none" />
<polyline points="288.0,229.0,289.5,237.0,287.5,244.5,286.5,253.5,282.0,261.5,278.5,269.5,275.0,268.0,283.0,260.0" stroke="black" stroke-width="2" fill="none" />
<polyline points="263.0,228.0,249.0,236.0,240.5,238.0,231.5,245.5,225.0,253.5,219.0,261.5,219.0,267.5,212.5,275.5,212.5,283.5,215.5,290.5,222.0,298.5" stroke="black" stroke-width="2" fill="none" />
<polyline points="240.0,343.0,230.0,351.0,218.5,359.0,205.0,366.5,196.0,374.5,195.0,382.5,193.0,390.5,195.0,398.5,199.0,406.5,194.0,411.0,202.0,418.5" stroke="black" stroke-width="2" fill="none" />
<polyline points="200.5,415.5,192.0,409.0" stroke="black" stroke-width="2" fill="none" />
<polyline points="203.5,413.0,210.5,421.0,219.0,429.0,228.0,436.0,235.5,444.0,247.0,452.0,255.0,460.0,267.0,468.0,276.0,476.5,283.5,484.5,287.5,492.5,289.0,500.5,288.5,509.0,285.5,517.0,284.0,530.0,281.0,534.5,289.5,542.5,298.0,545.5" stroke="black" stroke-width="2" fill="none" />
<polyline points="201.5,427.5,193.5,428.5,185.5,433.5,177.5,439.5,170.0,446.0,162.0,454.0,154.5,460.5,146.0,468.5,152.0,462.5,159.5,454.5,168.5,447.0,178.0,439.0,187.0,431.0" stroke="black" stroke-width="2" fill="none" />
<polyline points="165.0,427.5,173.0,421.5,181.0,413.5,188.5,410.0,182.5,413.0,173.5,421.0,164.5,429.5,163.5,437.0,161.5,445.0,155.5,453.0,149.5,461.5,143.0,469.5,148.5,462.0,156.5,452.0" stroke="black" stroke-width="2" fill="none" />
<polyline points="133.0,373.0,131.0,381.0,133.0,382.5,133.0,372.5" stroke="black" stroke-width="2" fill="none" />
<polyline points="143.5,360.5,152.5,368.5" stroke="black" stroke-width="2" fill="none" />
<polyline points="140.5,353.0,148.5,361.0,156.5,368.5,165.0,373.0,173.5,376.0,181.5,375.0,189.5,372.0,197.0,365.5,205.0,361.5,212.5,356.5,220.5,350.5,228.5,346.5,236.5,339.5,244.5,336.0,252.5,331.0,260.5,328.0,268.0,325.5,276.0,317.5" stroke="black" stroke-width="2" fill="none" />
<polyline points="302.5,247.0,299.0,245.5,302.0,238.0,303.5,230.0,303.0,222.0,301.0,213.5,292.5,205.5" stroke="black" stroke-width="2" fill="none" />
<polyline points="297.0,202.5,306.0,210.5,308.0,219.0,308.0,227.0,305.0,240.0,310.0,243.0,311.0,251.0,313.5,254.5,313.5,262.5,313.5,270.5,311.5,278.5,310.5,285.5,305.5,293.0,299.5,301.0,289.5,308.0,285.5,315.5,283.5,322.5,282.0,318.5,289.0,316.0,296.5,308.0,305.0,299.5" stroke="black" stroke-width="2" fill="none" />
<polyline points="244.5,192.0,237.0,191.0,232.5,194.0,232.5,185.5,228.5,184.0,220.0,185.0,212.0,190.5,204.0,196.5,202.0,206.5" stroke="black" stroke-width="2" fill="none" />
<polyline points="218.5,196.5,219.0,204.5,216.5,212.5,208.5,222.5,201.5,229.5,195.5,237.5,192.5,246.0,199.5,251.0,204.5,253.0,205.0,261.0,208.0,269.0,210.5,274.0,210.5,282.5,212.5,290.5,217.5,298.5" stroke="black" stroke-width="2" fill="none" />
<polyline points="142.0,242.0,138.0,233.5,134.5,225.5,129.5,217.0,122.5,209.0,122.5,207.0" stroke="black" stroke-width="2" fill="none" />
<polyline points="136.0,207.5,128.0,196.5,120.5,190.0,112.5,195.0" stroke="black" stroke-width="2" fill="none" />
<polyline points="110.5,190.0,118.5,186.0,126.5,189.5,134.5,198.0,143.0,207.0,145.0,216.5,147.0,222.0" stroke="black" stroke-width="2" fill="none" />
<polyline points="160.0,246.0,157.0,237.5,152.0,229.5,146.0,221.0,140.5,213.5,135.0,205.5,128.0,197.5,120.0,189.5" stroke="black" stroke-width="2" fill="none" />
<polyline points="119.5,187.5,113.0,196.0,114.0,204.5,119.0,211.5,122.0,219.0,127.0,227.5,133.0,235.5,139.0,243.0,148.5,244.0,151.5,252.0,155.5,260.5,157.5,265.0,162.5,273.5,161.5,281.0,157.5,288.5,152.0,296.5,149.5,304.5,147.5,312.5,145.5,320.5,143.5,328.0,146.5,336.5,153.0,344.5,158.5,352.5" stroke="black" stroke-width="2" fill="none" />
<polyline points="76.5,263.0,29.0,265.0" stroke="black" stroke-width="2" fill="none" />
<polyline points="21.5,269.0,29.5,269.0,37.0,266.5,44.5,262.0,52.5,254.0,60.5,245.5,68.0,234.5,76.0,219.0,83.5,204.0" stroke="black" stroke-width="2" fill="none" />
<polyline points="86.0,205.0,81.0,212.5,76.0,220.5,72.5,228.5,66.5,237.0,62.0,244.5,54.0,252.5,47.0,260.5,35.0,268.5" stroke="black" stroke-width="2" fill="none" />
<polyline points="20.0,269.5,23.0,277.5,28.0,286.0" stroke="black" stroke-width="2" fill="none" />
<polyline points="20.0,248.0,67.0,246.5" stroke="black" stroke-width="2" fill="none" />
<polyline points="16.0,204.0,24.0,189.0" stroke="black" stroke-width="2" fill="none" />
<polyline points="71.0,167.5,122.5,115.0,174.5,63.5,223.0,14.0" stroke="black" stroke-width="2" fill="none" />
<polyline points="222.0,31.0,233.0,39.5,246.5,47.5,257.5,56.0,267.5,64.0,279.0,71.5,292.5,79.5,302.5,87.5" stroke="black" stroke-width="2" fill="none" />
<polyline points="328.0,82.0,279.0,129.5" stroke="black" stroke-width="2" fill="none" />
<polyline points="271.5,120.5,320.5,117.5" stroke="black" stroke-width="2" fill="none" />
<polyline points="321.0,91.5,270.5,93.5" stroke="black" stroke-width="2" fill="none" />
<polyline points="268.5,98.0,260.5,92.5,253.0,86.0,245.0,78.0,237.0,67.5,229.0,63.0" stroke="black" stroke-width="2" fill="none" />
<polyline points="230.0,61.5,235.0,69.5,242.0,77.5,250.0,85.5,259.5,93.5,269.5,101.5,278.5,99.5" stroke="black" stroke-width="2" fill="none" />
<polyline points="279.0,100.0,274.0,93.0,270.0,85.0" stroke="black" stroke-width="2" fill="none" />
<polyline points="268.5,84.0,276.5,84.0,285.0,87.0,291.0,89.0,299.0,89.0" stroke="black" stroke-width="2" fill="none" />
<polyline points="230.5,115.5,184.0,114.0,137.5,117.0" stroke="black" stroke-width="2" fill="none" />
<polyline points="139.0,123.0,125.0,131.0,117.0,139.0,111.0,146.5,104.0,154.0,95.0,161.5,99.5,166.0,107.5,158.0,115.5,146.5,123.5,137.5,131.5,128.5,137.5,123.5,145.0,123.5,153.0,123.5,161.0,123.0" stroke="black" stroke-width="2" fill="none" />
<polyline points="169.0,116.0,173.0,108.0" stroke="black" stroke-width="2" fill="none" />
<polyline points="154.5,95.0,156.5,103.0,163.0,111.0,162.5,119.5,158.0,123.5,169.0,117.0,176.0,108.5,184.0,106.0,192.0,103.0,200.0,96.0,208.5,91.0,216.5,88.0" stroke="black" stroke-width="2" fill="none" />
<polyline points="223.0,90.0,174.5,89.0,125.0,88.5,74.0,89.0,25.0,89.5" stroke="black" stroke-width="2" fill="none" />
<polyline points="25.0,114.0,73.0,115.0" stroke="black" stroke-width="2" fill="none" />
<polyline points="60.0,120.5,68.0,126.5,76.5,133.5,84.5,130.5,93.0,130.0,101.5,126.5,109.5,125.0,117.5,120.0,125.5,113.0,133.5,108.0,141.5,102.0,149.5,99.0,157.5,102.5" stroke="black" stroke-width="2" fill="none" />
<polyline points="131.5,107.0,122.5,115.5,110.5,123.5" stroke="black" stroke-width="2" fill="none" />
<polyline points="132.5,128.0,125.5,136.0,119.5,143.5,111.5,151.5,106.5,159.5,98.5,167.5,89.5,175.5,90.5,183.0,90.0,190.5,92.0,193.0,92.0,201.0,93.0,209.0,95.0,212.5,96.0,220.5,98.0,229.0,98.5,237.0,100.5,243.5,101.5,252.0,105.0,258.0,107.0,266.0,110.0,274.0,113.0,282.0,114.5,290.0,117.5,297.5,120.5,305.5,123.5,312.0,128.0,320.0,133.0,322.0,130.5,330.5,132.5,333.0,134.0,341.0,136.5,349.0,139.5,357.0,148.5,363.0,157.5,371.0,163.5,377.0,171.5,380.0" stroke="black" stroke-width="2" fill="none" />
<polyline points="216.5,196.5,209.0,196.5,200.0,207.5,192.0,214.5,184.0,224.5,174.0,228.0,167.5,233.5,158.0,228.0,152.0,220.0,147.0,211.5,141.0,203.0,134.0,195.0,126.0,186.5" stroke="black" stroke-width="2" fill="none" />
<polyline points="114.0,187.0,111.0,195.0,111.0,203.5,114.5,211.5,118.0,219.5,123.0,227.0,129.0,235.5,135.0,244.0,144.0,252.0,152.0,260.0,151.5,268.0,149.5,276.0,144.5,283.5,140.5,291.5,137.5,300.0,134.0,308.0,131.0,315.5,131.5,314.5" stroke="black" stroke-width="2" fill="none" />
<polyline points="130.5,163.0,80.0,160.5" stroke="black" stroke-width="2" fill="none" />
<polyline points="81.0,144.0,132.0,143.0" stroke="black" stroke-width="2" fill="none" />
<polyline points="81.0,132.5,82.0,140.5,81.5,148.0,75.5,161.0" stroke="black" stroke-width="2" fill="none" />
<polyline points="60.5,102.5,68.5,92.5,76.5,83.5,88.5,92.5,97.0,96.0,105.0,94.0,113.0,86.0" stroke="black" stroke-width="2" fill="none" />
<polyline points="132.0,58.5,137.5,50.5,137.5,42.5,135.5,42.5,135.5,34.5,134.5,26.5,130.0,18.5,128.0,10.5,116.5,13.5,108.5,21.5" stroke="black" stroke-width="2" fill="none" />
<polyline points="105.0,22.0,113.0,11.0,121.0,8.0,128.5,11.0,136.0,20.5,144.0,18.0,152.0,15.0,160.0,14.0,168.0,14.0,176.0,14.0,184.0,15.0,190.0,17.0,197.5,19.5,205.5,24.0,213.5,28.0,221.5,32.5,229.5,37.5,237.5,43.0,245.5,48.0,254.0,53.0,262.0,59.0,270.0,65.0,277.5,71.0,285.5,77.0,294.0,81.0,302.0,85.5" stroke="black" stroke-width="2" fill="none" />
<polyline points="229.5,60.0,228.0,68.5,225.5,76.5,219.5,84.5" stroke="black" stroke-width="2" fill="none" />
<polyline points="203.5,90.0,198.5,98.0" stroke="black" stroke-width="2" fill="none" />
<polyline points="176.5,47.0,229.0,46.0" stroke="black" stroke-width="2" fill="none" />
<polyline points="114.5,14.5,108.0,22.5,105.0,30.0,101.5,38.0,98.5,45.5,100.5,53.5,103.0,61.5,107.0,69.5,110.0,76.5,112.5,84.5,104.5,93.0" stroke="black" stroke-width="2" fill="none" />
<polyline points="86.0,90.0,81.0,82.0,81.0,74.5" stroke="black" stroke-width="2" fill="none" />
<polyline points="72.0,75.0,22.0,128.0" stroke="black" stroke-width="2" fill="none" />
<polyline points="79.5,155.5,77.5,160.0,71.0,163.0,71.0,165.5,71.0,162.5,76.5,154.0,78.5,146.0,78.5,138.0,74.5,130.5,63.5,122.0,58.5,114.0,60.5,106.0,64.5,98.5,70.0,90.5,77.0,82.5,78.0,74.5,66.0,76.0,61.0,71.0,60.5,63.5,66.0,55.0,72.5,47.0,73.5,39.5,73.5,31.5,68.5,28.5,61.0,27.0,53.0,31.0,45.5,41.5,37.5,50.5,29.5,59.5" stroke="black" stroke-width="2" fill="none" />
<polyline points="26.0,56.0,34.0,45.0,42.0,36.0,50.0,25.5,58.0,21.5,66.0,22.5,74.0,27.5" stroke="black" stroke-width="2" fill="none" />
<polyline points="65.0,28.0,70.0,36.0,70.0,43.5,63.5,51.0,58.5,59.0,58.0,67.5,58.5,75.0" stroke="black" stroke-width="2" fill="none" />
<polyline points="57.0,61.0,65.0,50.0" stroke="black" stroke-width="2" fill="none" />
<polyline points="71.0,51.5,62.5,61.5" stroke="black" stroke-width="2" fill="none" />
<polyline points="73.0,71.0,78.0,63.5,80.5,55.5" stroke="black" stroke-width="2" fill="none" />
<polyline points="80.5,54.5,88.5,49.5,96.5,49.5" stroke="black" stroke-width="2" fill="none" />
<polyline points="58.5,26.5,49.5,34.5,42.5,42.5,36.0,50.5,27.5,58.5,27.5,67.0,27.5,75.0,27.0,82.5,27.0,90.5,27.5,98.0,27.5,106.0,26.0,114.0,25.0,122.5,25.0,130.5,25.0,138.5,27.0,146.5,27.0,154.0,30.0,162.0,33.0,169.5,32.5,176.5,32.5,184.5,33.5,192.5,33.5,201.0,36.5,209.0,38.5,214.0,39.5,222.0,42.5,230.0,45.5,234.5,53.5,226.5,61.5,216.5,69.0,204.5,77.5,191.5" stroke="black" stroke-width="2" fill="none" />
<polyline points="173.0,241.5,179.0,236.0,182.5,228.5,188.5,220.5,194.0,213.0,204.0,205.0,202.0,199.0,211.5,191.0,219.5,183.0" stroke="black" stroke-width="2" fill="none" />
<polyline points="218.5,181.5,207.0,189.5,199.0,197.5,193.5,205.5,187.0,213.5,181.0,221.0,169.0,230.0,164.5,238.0,163.5,245.5,167.0,241.0,172.0,241.5,178.0,245.0,184.0,247.0,189.0,242.0,197.0,235.5,205.0,224.5" stroke="black" stroke-width="2" fill="none" />
<polyline points="266.0,170.5,272.0,178.5,279.0,185.5" stroke="black" stroke-width="2" fill="none" />
<polyline points="285.5,177.5,285.5,179.5,285.5,187.5,285.5,190.5,287.0,198.5,292.0,204.0,300.0,208.0" stroke="black" stroke-width="2" fill="none" />
<polyline points="57.0,23.5,45.5,31.0,39.5,39.0,32.5,47.0,25.5,55.0,24.0,62.5,24.0,70.5,24.0,78.0,24.0,86.0,24.0,94.0,24.0,102.0,22.0,109.5,21.0,118.0,21.0,125.5,20.5,133.5,22.0,142.0,24.0,147.5,25.0,155.0,26.5,162.5,28.0,170.5,27.0,179.0,25.0,187.0,19.5,194.5,16.5,202.5,13.5,211.0,10.5,219.5,9.0,227.5,7.0,235.5,7.0,244.0,9.5,246.0,9.5,253.5,10.5,261.5,12.0,268.0,15.0,275.5,18.5,283.5,21.5,291.0,25.0,298.0,27.0,306.5,31.5,314.5,35.0,322.5,40.5,330.5,46.0,338.5,51.0,347.0,56.0,354.5,62.0,362.0,67.0,370.0,65.0,377.5,64.0,385.5,61.5,393.5,60.5,401.0,58.0,409.5,57.0,417.0,56.0,424.5,55.5,432.5,53.5,441.0,52.5,448.5,50.5,457.0,49.5,465.0,49.5,473.5,50.0,481.5,49.5,489.0,49.0,497.0,49.0,505.5,48.5,513.5,49.5,522.0,52.0,526.0,52.0,534.0,52.5,541.5,54.5,546.5,55.5,555.0,58.0,563.0,60.5,571.0,64.0,579.0,66.5,587.0,71.0,594.5,76.0,602.5,83.0,610.5,97.0,618.5,108.5,626.5,115.5,634.0,119.5,642.0,127.5,649.0,136.5,657.0,146.5,664.0,157.5,672.0,165.5,680.5,169.5,689.0,172.5,697.5,175.5,705.5,179.5,713.5,182.5,722.0,190.5,729.5,189.5,737.0,191.0,740.0" stroke="black" stroke-width="2" fill="none" />
<polyline points="463.0,826.5,474.0,819.0,482.0,811.0,494.5,800.0,499.0,792.0,496.0,784.0,480.0,775.5" stroke="black" stroke-width="2" fill="none" />
<polyline points="480.5,769.5,496.5,777.5,504.5,786.0,504.5,794.0,497.5,802.0,485.5,810.0,471.5,815.0,460.5,823.5,451.5,834.5" stroke="black" stroke-width="2" fill="none" />
</svg>