<svg xmlns="http://www.w3.org/2000/svg" version="1.1"><polyline points="296.0,27.5,300.5,35.5,303.0,44.0,302.5,52.5,300.5,61.0,294.5,69.5,289.5,77.5,285.5,86.0,283.5,94.0,283.5,102.0,296.5,110.0,307.0,117.0,317.5,124.5,327.5,132.5,334.5,140.5,339.5,148.5,345.0,156.5,351.5,164.5,360.5,172.5,361.5,184.5,361.0,192.5,361.0,200.0,363.5,207.5,363.5,215.5,361.5,223.0,360.5,231.0,362.0,239.0,357.0,247.0,352.5,255.0,359.0,263.0,359.0,271.0,359.0,279.0" stroke="black" stroke-width="2" fill="none" />
<polyline points="335.5,281.0,331.5,289.0,345.0,296.5,350.5,304.5,352.5,312.5,349.0,320.5,344.5,328.5,345.5,336.0,345.0,344.0,338.5,351.5" stroke="black" stroke-width="2" fill="none" />
<polyline points="338.0,351.0,330.0,356.0,322.5,356.0,314.5,352.0,306.5,344.0,298.5,333.0,290.5,322.5,282.0,326.5,274.0,328.5,266.5,330.5,258.5,331.5,251.0,332.5,243.0,333.5,235.0,339.5,227.0,342.5,219.0,350.5,210.5,354.5,202.5,353.5,194.0,346.0,186.0,329.0,178.5,324.5,170.5,320.5,162.5,316.5,155.0,311.5,147.0,302.5" stroke="black" stroke-width="2" fill="none" />
<polyline points="146.5,301.0,154.5,303.0,162.5,305.5,170.0,299.0" stroke="black" stroke-width="2" fill="none" />
<polyline points="179.0,291.5,182.5,283.5,181.0,275.5,178.5,267.0,178.5,265.0,170.0,259.5,162.0,259.5" stroke="black" stroke-width="2" fill="none" />
<polyline points="162.0,259.5,166.5,267.5,170.5,275.5,172.5,283.5,172.5,291.5,177.0,292.5" stroke="black" stroke-width="2" fill="none" />
<polyline points="184.5,286.5,233.5,285.0,281.5,287.0,330.5,286.0,380.5,284.0,429.5,283.5" stroke="black" stroke-width="2" fill="none" />
<polyline points="421.5,266.0,372.0,315.5,323.0,369.5,273.5,422.5" stroke="black" stroke-width="2" fill="none" />
<polyline points="269.5,410.5,319.0,409.0" stroke="black" stroke-width="2" fill="none" />
<polyline points="307.0,417.5,355.5,368.5" stroke="black" stroke-width="2" fill="none" />
<polyline points="353.0,382.5,362.0,391.0" stroke="black" stroke-width="2" fill="none" />
<polyline points="361.5,394.0,307.5,395.0,255.0,395.5" stroke="black" stroke-width="2" fill="none" />
<polyline points="259.0,407.5,266.0,398.5,276.5,390.5" stroke="black" stroke-width="2" fill="none" />
<polyline points="290.0,391.5,304.5,399.5" stroke="black" stroke-width="2" fill="none" />
<polyline points="322.0,399.0,330.5,391.0,340.5,383.0" stroke="black" stroke-width="2" fill="none" />
<polyline points="333.5,363.5,320.0,371.5,313.0,379.0" stroke="black" stroke-width="2" fill="none" />
<polyline points="309.5,350.5,303.0,342.5,298.0,334.5,292.5,326.5,283.5,320.5,283.5,321.0,285.0,318.0,274.0,324.0,285.0,313.0,277.5,318.0,269.5,321.0,261.0,323.0,253.5,325.0,245.5,328.0,237.5,329.5,229.5,330.0,221.5,329.0,214.0,329.0,206.0,330.0,198.0,328.0,189.5,324.5,181.0,321.0,172.5,319.0,164.5,315.0,156.5,310.0" stroke="black" stroke-width="2" fill="none" />
<polyline points="157.0,307.5,165.0,310.0,173.0,301.0,181.0,295.0,188.5,291.0,196.5,287.0,204.5,283.5,212.5,281.5,220.5,278.5,228.0,277.5,236.0,276.5,244.0,276.5,252.0,277.5,255.0,280.0,245.5,288.0,233.5,296.0" stroke="black" stroke-width="2" fill="none" />
<polyline points="231.5,309.0,281.5,309.5" stroke="black" stroke-width="2" fill="none" />
<polyline points="278.0,317.0,285.5,309.0,285.0,301.5,285.0,293.5,285.0,286.0" stroke="black" stroke-width="2" fill="none" />
<polyline points="286.0,285.5,294.0,283.5,301.5,282.5,309.5,283.5,317.5,273.5" stroke="black" stroke-width="2" fill="none" />
<polyline points="330.5,255.0,338.5,253.5" stroke="black" stroke-width="2" fill="none" />
<polyline points="332.0,253.5,333.0,261.5,331.5,269.5,332.5,278.0,328.5,286.0,341.0,294.0,349.0,299.5" stroke="black" stroke-width="2" fill="none" />
<polyline points="317.5,308.0,367.5,308.0,416.5,308.5" stroke="black" stroke-width="2" fill="none" />
<polyline points="425.0,330.5,436.5,322.5" stroke="black" stroke-width="2" fill="none" />
<polyline points="440.0,331.0,428.0,339.5" stroke="black" stroke-width="2" fill="none" />
<polyline points="435.0,332.0,482.0,330.5" stroke="black" stroke-width="2" fill="none" />
<polyline points="485.5,309.0,433.5,358.0" stroke="black" stroke-width="2" fill="none" />
<polyline points="443.5,331.0,435.5,333.0,427.5,339.0,420.0,345.0,412.0,343.5,404.5,337.5,396.5,343.5,389.0,350.5,381.0,351.0,373.5,349.5,365.5,343.5" stroke="black" stroke-width="2" fill="none" />
<polyline points="367.0,347.5,362.0,339.0" stroke="black" stroke-width="2" fill="none" />
<polyline points="361.5,339.0,369.5,342.0,378.0,338.0,386.0,331.5,393.5,327.5,401.5,326.0,409.5,329.0,417.0,333.0,425.0,330.0,432.5,324.0,440.5,322.5,448.5,327.5" stroke="black" stroke-width="2" fill="none" />
<polyline points="404.0,338.5,396.0,346.5" stroke="black" stroke-width="2" fill="none" />
<polyline points="381.0,336.0,394.5,328.0" stroke="black" stroke-width="2" fill="none" />
<polyline points="373.0,330.0,324.5,330.0" stroke="black" stroke-width="2" fill="none" />
<polyline points="319.5,321.5,370.0,270.0,419.0,220.5" stroke="black" stroke-width="2" fill="none" />
<polyline points="420.0,235.0,372.5,234.5" stroke="black" stroke-width="2" fill="none" />
<polyline points="374.0,229.0,424.0,182.0" stroke="black" stroke-width="2" fill="none" />
<polyline points="416.0,177.5,366.0,178.0,316.5,179.0,265.5,178.0" stroke="black" stroke-width="2" fill="none" />
<polyline points="265.5,175.5,314.0,126.5" stroke="black" stroke-width="2" fill="none" />
<polyline points="319.0,131.5,323.0,139.5,324.0,147.5,333.0,155.0,337.5,162.5,341.5,170.5,342.0,178.5,340.0,186.0,344.0,193.0,347.5,201.5,348.5,209.5,347.5,217.0,345.5,225.0,346.5,233.5,346.5,242.0,345.5,250.0" stroke="black" stroke-width="2" fill="none" />
<polyline points="333.0,237.0,325.5,252.0" stroke="black" stroke-width="2" fill="none" />
<polyline points="320.0,251.0,328.0,238.0" stroke="black" stroke-width="2" fill="none" />
<polyline points="367.5,249.0,419.5,247.0" stroke="black" stroke-width="2" fill="none" />
<polyline points="421.5,231.0,413.5,216.0,405.5,199.5" stroke="black" stroke-width="2" fill="none" />
<polyline points="378.5,188.0,368.5,183.5,358.5,183.5,350.5,169.0,342.5,158.0,335.0,147.0,327.5,136.0,319.0,132.5,311.0,123.5,303.0,123.0,296.0,112.5,287.5,108.5,279.5,105.0,271.5,104.0,263.5,101.5,255.5,101.5,248.0,101.5,240.5,101.5,232.5,101.5,224.5,101.0" stroke="black" stroke-width="2" fill="none" />
<polyline points="223.0,108.0,231.5,109.0,239.5,109.0,247.5,108.5,255.5,109.5,263.0,111.5,271.0,115.5,279.5,119.5,287.5,124.0,295.0,129.0,303.0,137.0,311.0,149.0,319.0,166.0" stroke="black" stroke-width="2" fill="none" />
<polyline points="331.5,156.5,323.0,150.5" stroke="black" stroke-width="2" fill="none" />
<polyline points="327.5,148.0,335.5,154.0,343.0,169.0" stroke="black" stroke-width="2" fill="none" />
<polyline points="336.0,189.0,342.5,192.0" stroke="black" stroke-width="2" fill="none" />
<polyline points="369.0,181.0,416.0,133.0" stroke="black" stroke-width="2" fill="none" />
<polyline points="364.0,120.5,415.0,71.0" stroke="black" stroke-width="2" fill="none" />
<polyline points="419.0,82.5,367.5,84.0" stroke="black" stroke-width="2" fill="none" />
<polyline points="378.0,63.5,386.0,66.5,394.0,77.5,402.0,90.0,410.5,102.0" stroke="black" stroke-width="2" fill="none" />
<polyline points="412.0,134.0,361.5,135.0" stroke="black" stroke-width="2" fill="none" />
<polyline points="352.0,109.0,360.0,98.0,368.0,89.5,376.0,81.5" stroke="black" stroke-width="2" fill="none" />
<polyline points="379.0,64.0,379.0,72.0,378.0,80.0,372.0,88.5,363.5,96.5,356.5,104.5,353.0,112.5,351.5,120.0,352.0,128.0,355.0,135.5,358.0,143.0,361.0,151.5,362.5,159.5,365.0,168.0,368.0,182.5,373.0,191.0,370.0,199.0,373.5,207.0,371.0,215.0,372.0,223.0,366.0,231.0,364.5,241.0,364.5,249.5,366.5,257.5,372.0,265.0,378.0,273.0,386.0,280.5,389.0,288.0,390.5,296.0,387.5,304.5,392.0,307.5,400.0,304.5,407.5,298.0,415.5,289.0" stroke="black" stroke-width="2" fill="none" />
<polyline points="391.0,285.5,383.0,273.5,375.0,264.5,367.0,252.5" stroke="black" stroke-width="2" fill="none" />
<polyline points="312.5,241.0,263.0,240.5" stroke="black" stroke-width="2" fill="none" />
<polyline points="256.0,238.0,265.0,232.0" stroke="black" stroke-width="2" fill="none" />
<polyline points="276.5,235.0,276.5,234.5,276.5,243.0,274.5,251.0,271.5,259.0,268.5,267.0,262.5,275.5,257.5,284.0,247.5,292.0,238.0,300.0" stroke="black" stroke-width="2" fill="none" />
<polyline points="231.0,324.5,280.0,276.0" stroke="black" stroke-width="2" fill="none" />
<polyline points="268.0,338.0,217.0,338.5" stroke="black" stroke-width="2" fill="none" />
<polyline points="214.5,354.0,222.5,353.0,230.5,348.0,239.0,341.0,248.0,341.0,256.0,345.0,264.5,348.0,272.5,346.5,280.5,340.0,272.5,347.0" stroke="black" stroke-width="2" fill="none" />
<polyline points="281.5,341.0,289.5,339.0,298.0,341.0,300.5,343.5" stroke="black" stroke-width="2" fill="none" />
<polyline points="304.0,349.0,296.0,349.5,288.0,351.0,280.5,357.0,273.5,363.0,265.5,366.0,257.5,366.0,249.5,364.0,241.0,360.5,232.5,363.0,224.5,363.0,216.0,356.5" stroke="black" stroke-width="2" fill="none" />
<polyline points="234.0,348.5,243.0,340.0" stroke="black" stroke-width="2" fill="none" />
<polyline points="246.5,340.5,260.5,348.0" stroke="black" stroke-width="2" fill="none" />
<polyline points="263.5,373.0,251.5,381.0,243.0,389.5" stroke="black" stroke-width="2" fill="none" />
<polyline points="229.5,415.0,212.5,407.0" stroke="black" stroke-width="2" fill="none" />
<polyline points="199.0,405.0,192.0,413.0,184.5,421.5" stroke="black" stroke-width="2" fill="none" />
<polyline points="166.0,398.0,181.0,390.0" stroke="black" stroke-width="2" fill="none" />
<polyline points="181.5,359.0,173.5,373.0,165.5,373.0,158.0,368.0,150.0,365.0,142.0,365.0,134.5,369.5,126.5,374.5,118.5,375.0,110.0,374.0,102.0,370.0,94.0,361.0" stroke="black" stroke-width="2" fill="none" />
<polyline points="92.0,360.0,100.5,359.0,108.5,362.5,116.5,361.5,124.0,353.0,132.0,349.0,140.0,347.5,148.0,347.0,156.5,350.0,164.5,355.5,173.0,354.5,181.0,350.5,188.5,352.0,179.5,361.0,176.5,369.5" stroke="black" stroke-width="2" fill="none" />
<polyline points="140.5,363.5,132.5,371.5" stroke="black" stroke-width="2" fill="none" />
<polyline points="139.5,389.0,153.0,397.5" stroke="black" stroke-width="2" fill="none" />
<polyline points="148.5,420.0,142.0,415.0,132.0,407.0" stroke="black" stroke-width="2" fill="none" />
<polyline points="128.0,407.5,118.0,415.0" stroke="black" stroke-width="2" fill="none" />
<polyline points="104.0,405.0,113.0,397.0,122.0,389.0" stroke="black" stroke-width="2" fill="none" />
<polyline points="89.5,402.0,87.5,405.0,91.5,413.5" stroke="black" stroke-width="2" fill="none" />
<polyline points="86.5,406.5,94.5,417.5,102.5,420.5,110.0,418.5,118.0,412.0,126.0,405.5,134.0,407.5,142.0,414.5,151.0,422.0,159.5,425.0,167.5,426.0,175.5,425.5,183.5,422.0,191.5,411.0,199.5,405.0,207.5,405.0,215.5,407.5,223.5,413.0,231.5,415.0,240.0,415.0,248.0,415.0,256.0,411.5,263.5,403.5,271.5,394.5,279.5,391.0,287.5,391.0,295.5,394.0,304.0,399.0,312.5,402.0,321.0,400.0,328.5,393.5,336.5,385.0,344.0,383.5,352.0,382.5,359.5,388.5,367.5,392.0,375.5,390.0,384.0,378.0,392.0,374.0,400.0,374.0" stroke="black" stroke-width="2" fill="none" />
<polyline points="405.0,370.5,407.0,362.5,406.0,359.5,398.0,364.5,389.5,364.0,381.5,364.5,373.5,368.5,366.0,373.0,358.5,374.0,351.0,368.0,343.0,365.0,335.5,365.0,327.0,368.0,319.0,374.5,311.0,381.5,303.5,384.5,295.5,380.5,287.0,375.0,279.0,373.0,271.0,374.0,263.0,375.0,255.0,381.0,247.0,387.5,239.0,395.0,230.5,395.0,222.0,394.0,213.5,390.0,205.5,388.0,197.5,386.5,189.5,387.5,181.5,388.0,173.0,390.0,165.0,395.0,157.0,398.0,149.5,394.0,142.0,390.0,134.0,387.0,125.5,387.0,117.5,390.0,109.5,399.5,101.5,405.5,93.0,406.0,85.0,403.5" stroke="black" stroke-width="2" fill="none" />
<polyline points="105.5,374.0,95.5,366.0,93.0,358.0" stroke="black" stroke-width="2" fill="none" />
<polyline points="120.5,355.5,132.5,347.0" stroke="black" stroke-width="2" fill="none" />
<polyline points="125.5,338.5,116.5,346.5" stroke="black" stroke-width="2" fill="none" />
<polyline points="109.5,335.0,120.5,327.0" stroke="black" stroke-width="2" fill="none" />
<polyline points="147.5,347.0,151.0,335.0,151.5,328.5,144.0,330.5,136.0,330.5,128.0,329.5,120.0,326.5,112.5,331.5,104.5,337.5,96.5,334.5,88.5,329.5,80.5,329.5,72.5,334.5,64.5,335.5" stroke="black" stroke-width="2" fill="none" />
<polyline points="64.5,338.0,66.5,345.5,70.5,347.5,79.0,345.0,87.0,340.5,93.0,346.0,101.0,348.0,109.5,348.0,117.5,344.0,125.5,337.5,133.5,339.5,141.5,342.5,149.5,337.5" stroke="black" stroke-width="2" fill="none" />
<polyline points="173.0,319.0,157.0,310.5,148.0,300.5" stroke="black" stroke-width="2" fill="none" />
<polyline points="145.5,300.0,149.0,308.0,157.5,316.0,175.5,324.0,186.0,332.0,190.0,340.5,194.0,348.5" stroke="black" stroke-width="2" fill="none" />
<polyline points="225.0,365.5,216.0,357.5,219.0,351.0,230.5,342.5,237.5,334.5" stroke="black" stroke-width="2" fill="none" />
<polyline points="270.5,364.0,281.5,356.0,291.5,349.0" stroke="black" stroke-width="2" fill="none" />
<polyline points="284.0,374.5,297.5,382.5" stroke="black" stroke-width="2" fill="none" />
<polyline points="374.0,391.0,382.5,383.0,387.5,375.0" stroke="black" stroke-width="2" fill="none" />
<polyline points="383.0,363.5,369.0,371.5" stroke="black" stroke-width="2" fill="none" />
<polyline points="280.5,229.5,272.5,230.0,268.5,235.0,260.5,238.0,252.5,241.0,244.5,243.0,236.5,245.5,228.5,247.5,220.5,249.5,212.5,250.5,204.5,252.0,196.5,253.0,188.0,252.5,180.0,253.5,172.0,254.0,164.0,254.0,156.0,254.0,148.0,254.0,140.0,254.5,132.0,253.5,124.0,254.0,116.5,253.0,108.5,247.0,107.5,245.5,108.5,237.5,118.5,230.0,125.5,222.0,125.0,214.0,126.0,206.0,126.5,197.5,128.0,189.5,131.0,182.0,133.0,174.0,136.0,166.0,139.5,157.5,141.0,150.5,133.0,160.5,125.0,160.5" stroke="black" stroke-width="2" fill="none" />
<polyline points="123.5,161.0,131.0,154.0,139.0,148.5,140.0,153.0" stroke="black" stroke-width="2" fill="none" />
<polyline points="132.0,175.5,140.0,156.5,148.5,145.5,156.5,135.5,165.0,127.5,173.0,122.5,181.0,118.5,188.5,113.5,196.5,110.0,204.0,109.0,212.0,109.0,220.0,108.0,228.0,104.5,236.0,104.5,244.0,104.5,252.5,105.5,260.5,107.0,268.0,109.0,276.0,112.0,283.5,117.0,291.5,121.0,299.5,128.0,308.0,137.5,316.5,148.5,324.0,169.5" stroke="black" stroke-width="2" fill="none" />
<polyline points="332.0,137.0,281.5,136.0,233.0,136.0,182.5,137.0" stroke="black" stroke-width="2" fill="none" />
<polyline points="184.0,161.0,133.5,213.5" stroke="black" stroke-width="2" fill="none" />
<polyline points="135.5,226.0,143.5,224.0,151.5,223.0,159.5,221.5,167.5,220.5,175.5,220.0,183.5,221.0,192.0,222.5,200.0,224.5" stroke="black" stroke-width="2" fill="none" />
<polyline points="202.5,197.5,210.5,209.5,218.0,216.0,226.5,220.0,235.0,221.5,243.0,222.0,251.0,220.0,258.5,215.5,266.5,208.5" stroke="black" stroke-width="2" fill="none" />
<polyline points="231.0,178.5,233.5,170.5,230.0,179.0,236.5,171.0" stroke="black" stroke-width="2" fill="none" />
<polyline points="234.0,162.0,222.0,170.0,219.0,178.0,219.5,186.0,222.5,193.5" stroke="black" stroke-width="2" fill="none" />
<polyline points="221.5,188.0,229.0,197.5,237.0,200.5,245.0,200.5,253.0,197.0" stroke="black" stroke-width="2" fill="none" />
<polyline points="253.0,166.0,245.0,163.0,237.0,162.0,229.0,164.5,221.0,172.5" stroke="black" stroke-width="2" fill="none" />
<polyline points="207.0,172.0,215.0,161.0,222.5,155.0,230.0,152.5,238.0,152.5,246.0,153.5,254.5,156.0,263.0,163.0,271.0,173.0" stroke="black" stroke-width="2" fill="none" />
<polyline points="270.0,147.5,261.5,142.5,253.5,139.5,245.5,139.0,237.5,139.5,229.0,140.5" stroke="black" stroke-width="2" fill="none" />
<polyline points="228.5,149.0,212.5,157.0,207.0,165.0,202.5,173.5,200.5,182.0,200.5,190.0,202.5,197.5,207.0,205.0,212.0,213.0" stroke="black" stroke-width="2" fill="none" />
<polyline points="206.5,194.5,214.5,209.0,222.5,214.0,230.5,217.0,238.0,218.5,246.0,217.0,254.5,215.0,263.0,208.5,271.0,194.5,262.5,198.5" stroke="black" stroke-width="2" fill="none" />
<polyline points="274.5,175.5,266.5,161.5,258.5,154.5,250.5,150.0,242.5,149.0,234.5,148.5,226.5,149.0,218.5,153.0,210.5,158.5,202.5,170.0" stroke="black" stroke-width="2" fill="none" />
<polyline points="231.0,151.5,216.0,159.5,209.0,167.5,206.0,176.0,205.5,183.5,205.5,191.5,207.5,199.5,213.0,208.0" stroke="black" stroke-width="2" fill="none" />
<polyline points="177.5,199.0,127.5,202.0" stroke="black" stroke-width="2" fill="none" />
<polyline points="123.0,203.0,115.0,192.0" stroke="black" stroke-width="2" fill="none" />
<polyline points="111.0,194.5,119.0,206.0" stroke="black" stroke-width="2" fill="none" />
<polyline points="123.0,226.0,115.0,231.0,107.0,238.5" stroke="black" stroke-width="2" fill="none" />
<polyline points="103.5,239.5,111.5,228.5,119.5,224.5" stroke="black" stroke-width="2" fill="none" />
<polyline points="104.5,245.5,112.5,254.5,120.5,257.0,128.5,259.5,136.5,260.0,144.5,260.0,152.5,260.5,160.5,262.0" stroke="black" stroke-width="2" fill="none" />
<polyline points="155.5,259.5,161.5,267.5,166.0,275.5,168.0,283.5,169.0,291.5,167.0,299.5,169.0,309.5,177.5,311.5,185.5,311.5,193.0,310.5,201.5,308.5,209.0,307.5,217.0,305.5,225.0,303.5,233.0,300.5,240.5,296.0,248.5,289.0,256.5,282.0,264.5,270.0,272.5,252.0" stroke="black" stroke-width="2" fill="none" />
<polyline points="253.5,282.0,245.5,289.0,237.5,293.5,229.5,298.5,222.0,301.5,213.5,303.5,206.0,304.0,198.0,304.0,189.5,306.5,181.5,307.5,173.5,308.0,168.5,303.5,178.0,295.5,193.0,288.0,213.5,280.0" stroke="black" stroke-width="2" fill="none" />
<polyline points="208.0,224.0,200.5,221.0,192.0,218.0,184.0,217.5,176.0,216.5,168.0,216.5,160.0,217.5,152.0,217.5,144.0,221.0,136.0,224.5,145.0,220.5" stroke="black" stroke-width="2" fill="none" />
<polyline points="124.0,200.5,119.0,192.0,116.0,184.0" stroke="black" stroke-width="2" fill="none" />
<polyline points="110.0,174.5,118.0,160.5,126.0,152.5,134.5,144.5,143.0,137.5,151.0,136.5,159.0,128.5,167.0,122.5,174.5,118.0,182.0,113.0,190.0,110.5,181.5,118.5,167.5,126.0,158.5,134.0,151.0,141.5,146.0,149.5,128.5,154.0,124.5,161.0,121.0,172.0,123.5,174.0" stroke="black" stroke-width="2" fill="none" />
<polyline points="113.5,171.0,112.5,179.0,113.0,187.0,116.5,195.0,121.5,203.0" stroke="black" stroke-width="2" fill="none" />
<polyline points="113.5,169.5,166.0,170.0" stroke="black" stroke-width="2" fill="none" />
<polyline points="244.0,163.0,257.0,171.0,259.5,179.0,258.5,187.0,254.5,194.5" stroke="black" stroke-width="2" fill="none" />
<polyline points="263.0,197.5,254.5,201.5,252.5,208.5,244.5,211.5,245.5,210.0,262.0,209.0,269.0,201.0,272.0,193.0,273.5,185.0,272.0,177.0,269.0,169.5,261.5,162.0,250.5,154.0" stroke="black" stroke-width="2" fill="none" />
<polyline points="248.5,150.0,262.5,158.0,270.5,166.0,273.5,174.0,275.5,182.5,274.0,190.5,273.0,198.5,268.0,206.5,259.0,214.5" stroke="black" stroke-width="2" fill="none" />
<polyline points="272.5,128.0,323.5,78.5" stroke="black" stroke-width="2" fill="none" />
<polyline points="315.5,108.0,267.0,107.0" stroke="black" stroke-width="2" fill="none" />
<polyline points="268.0,110.0,285.0,118.0,296.5,126.0,304.5,134.5,310.5,142.5,316.5,151.0,319.5,159.0,322.5,166.5,325.5,174.5,327.5,182.5,328.5,190.5,328.5,198.5,328.5,206.5,330.5,214.5,334.0,222.5,334.0,230.5,333.0,238.0,329.0,246.0,325.5,253.5,325.5,261.5,322.5,269.5,319.5,277.5,320.5,275.0" stroke="black" stroke-width="2" fill="none" />
<polyline points="382.0,217.0,383.0,208.5,384.0,200.0,382.0,192.0,378.0,184.0" stroke="black" stroke-width="2" fill="none" />
<polyline points="376.5,183.5,377.0,191.5,375.5,199.5,378.0,207.5,375.0,215.0,376.0,223.0" stroke="black" stroke-width="2" fill="none" />
<polyline points="361.5,172.5,353.5,166.5,345.0,154.5,337.0,144.5,329.5,133.5,321.5,126.5,313.5,120.5,305.5,115.0,297.5,109.0,290.0,106.5,282.0,102.5" stroke="black" stroke-width="2" fill="none" />
<polyline points="287.0,108.5,298.0,116.0,311.5,124.5,317.5,132.5,321.0,140.5,322.0,148.5,330.5,156.5,334.5,165.0,337.5,173.5,337.5,181.5,335.5,190.0,340.5,197.5,343.5,205.5,344.0,213.0,343.0,220.5,340.0,228.0,343.0,236.0,342.5,244.0,346.5,254.0,354.5,242.5,365.5,231.5" stroke="black" stroke-width="2" fill="none" />
<polyline points="363.0,240.5,354.5,252.0,352.0,247.0,356.5,239.5,356.0,231.5,357.5,223.5,359.5,215.0,360.0,207.0,355.0,199.0,358.5,191.0,358.0,183.0,354.0,175.5,349.0,167.5,343.0,159.5,337.0,152.0,331.5,144.0,323.5,136.0" stroke="black" stroke-width="2" fill="none" />
<polyline points="329.0,87.5,280.0,86.0,231.0,87.5" stroke="black" stroke-width="2" fill="none" />
<polyline points="231.5,110.0,281.0,60.5" stroke="black" stroke-width="2" fill="none" />
<polyline points="300.0,63.0,292.0,75.0,284.0,91.0" stroke="black" stroke-width="2" fill="none" />
<polyline points="263.5,113.5,281.5,121.5,294.0,129.0,302.0,137.0,308.0,145.0,313.5,153.0,317.5,161.0,320.0,169.0,322.0,177.5,323.0,185.5,324.0,193.5,324.0,201.5,325.0,210.0,329.0,218.0,331.0,226.0,330.5,234.0,327.5,242.0,321.0,250.0,322.0,257.5,319.5,265.0,317.0,272.5,314.0,281.0,322.0,285.0,330.5,282.0,338.5,280.0,346.5,285.5,354.5,286.5" stroke="black" stroke-width="2" fill="none" />
<polyline points="264.0,132.5,255.5,127.5,247.5,125.5,239.5,127.5,231.5,131.5,228.5,135.5,237.5,127.5" stroke="black" stroke-width="2" fill="none" />
<polyline points="252.5,126.5,265.5,135.0,269.0,143.0,271.5,145.5" stroke="black" stroke-width="2" fill="none" />
<polyline points="197.0,89.5,204.5,76.0,212.5,64.0,220.5,59.5,228.5,53.0,236.0,49.5,244.5,45.5,253.0,42.5,261.5,38.5,270.0,35.5,278.0,32.5,285.5,31.5,293.5,29.5,301.0,36.0" stroke="black" stroke-width="2" fill="none" />
<polyline points="280.5,30.0,259.5,38.0,239.5,46.0,226.5,54.0,214.5,62.5,208.0,70.5,203.0,78.5,199.5,86.5,196.5,95.0,194.5,103.0,183.5,110.5,171.0,119.0,159.5,127.5,151.0,135.5,136.0,141.5,131.0,149.5,119.5,158.0,114.5,165.5,110.5,173.5,109.5,181.5,109.5,189.5,111.5,197.5,116.5,205.5,121.0,213.5,120.0,221.0,110.0,228.5,104.0,236.5,102.0,244.5,106.0,253.0" stroke="black" stroke-width="2" fill="none" />
<polyline points="85.5,328.5,99.0,337.0" stroke="black" stroke-width="2" fill="none" />
<polyline points="398.5,306.0,408.5,298.0,415.0,290.0,421.0,282.0,424.0,274.0,425.5,265.5,425.5,257.5,425.5,249.0,424.0,241.0,421.0,233.0,418.0,225.0,413.0,217.5,409.0,209.5,405.0,201.5,403.5,193.5,403.5,185.5,406.0,177.5,409.0,169.5,412.0,162.0,414.5,153.5,416.5,145.5,418.0,138.0,417.5,130.0,415.5,122.0,413.5,113.5,410.5,105.0,407.0,97.0,400.0,89.5,396.0,81.5,391.0,73.0,383.0,65.0" stroke="black" stroke-width="2" fill="none" />
</svg>