<svg xmlns="http://www.w3.org/2000/svg" version="1.1"><polyline points="223.5,25.5,212.5,33.5,205.5,41.5,199.5,49.5,195.5,57.5,191.0,66.0,188.0,74.0,184.0,82.0,182.0,90.0,177.5,97.5,174.5,105.5,173.0,113.5,169.5,121.5,168.0,130.0,167.0,138.0,176.0,146.0" stroke="black" stroke-width="2" fill="none" />
<polyline points="174.5,140.0,166.5,137.5" stroke="black" stroke-width="2" fill="none" />
<polyline points="165.5,135.5,173.5,112.5,181.5,93.0,189.5,71.0,197.5,55.0,205.5,42.5,213.5,34.0,221.5,27.5,229.0,25.5,236.5,25.5,244.5,25.5,252.5,27.5,260.5,34.0,268.5,42.0,277.0,46.0,285.5,50.0,293.5,55.0,301.5,59.0,309.5,62.5,317.5,64.5,325.5,62.5,333.0,63.5,341.0,67.5" stroke="black" stroke-width="2" fill="none" />
<polyline points="337.5,65.0,312.5,88.5,286.5,114.5,259.5,140.0,232.0,164.5,205.0,188.5,180.0,212.5" stroke="black" stroke-width="2" fill="none" />
<polyline points="180.0,214.0,205.0,214.0" stroke="black" stroke-width="2" fill="none" />
<polyline points="212.0,227.5,238.5,203.5,263.5,180.0,288.0,157.5,312.5,134.5,338.5,111.0,363.5,85.5" stroke="black" stroke-width="2" fill="none" />
<polyline points="367.0,98.0,342.5,98.0" stroke="black" stroke-width="2" fill="none" />
<polyline points="350.0,99.5,358.5,105.5,367.0,114.5" stroke="black" stroke-width="2" fill="none" />
<polyline points="365.5,113.0,341.0,139.0,315.0,162.5" stroke="black" stroke-width="2" fill="none" />
<polyline points="308.5,168.5,333.0,168.5,358.5,166.5" stroke="black" stroke-width="2" fill="none" />
<polyline points="368.0,159.5,341.5,183.0,313.5,208.0,286.0,232.0,259.5,256.0,234.0,280.5,206.5,306.0" stroke="black" stroke-width="2" fill="none" />
<polyline points="211.5,302.0,236.0,301.5,262.0,299.5" stroke="black" stroke-width="2" fill="none" />
<polyline points="238.5,309.5,262.5,284.5,286.5,259.0,312.0,233.0,338.0,208.5" stroke="black" stroke-width="2" fill="none" />
<polyline points="354.0,189.0,346.0,181.5" stroke="black" stroke-width="2" fill="none" />
<polyline points="345.5,182.5,347.0,190.5,348.0,198.5,348.5,206.5,349.5,214.5,351.5,222.5,357.5,223.5" stroke="black" stroke-width="2" fill="none" />
<polyline points="365.5,207.5,340.0,231.5,313.5,255.0,288.0,279.0,262.5,302.5,236.0,326.5" stroke="black" stroke-width="2" fill="none" />
<polyline points="234.5,318.5,260.5,319.0,286.0,319.0,311.5,318.0,335.5,317.5,362.0,316.0" stroke="black" stroke-width="2" fill="none" />
<polyline points="358.5,310.5,333.5,334.5,308.0,359.0" stroke="black" stroke-width="2" fill="none" />
<polyline points="312.0,353.5,337.0,353.0" stroke="black" stroke-width="2" fill="none" />
<polyline points="332.5,343.5,307.0,345.5,282.0,346.5,258.0,346.5,233.5,346.5" stroke="black" stroke-width="2" fill="none" />
<polyline points="236.5,356.5,261.5,356.5,287.0,357.0" stroke="black" stroke-width="2" fill="none" />
<polyline points="262.0,356.0,286.5,331.5,312.5,306.5,339.5,281.5,365.0,257.5" stroke="black" stroke-width="2" fill="none" />
<polyline points="360.5,271.0,336.0,270.5,310.5,271.0,285.0,273.5,259.5,274.0,233.5,272.0,207.5,272.0" stroke="black" stroke-width="2" fill="none" />
<polyline points="207.0,287.0,232.5,261.5,259.5,236.5,286.0,212.5,311.0,188.0,334.0,164.0,358.0,138.5" stroke="black" stroke-width="2" fill="none" />
<polyline points="359.5,150.5,333.0,151.0,307.0,152.0,282.5,152.0,258.0,153.5" stroke="black" stroke-width="2" fill="none" />
<polyline points="273.5,159.0,282.0,169.0,290.0,170.5" stroke="black" stroke-width="2" fill="none" />
<polyline points="287.0,167.5,263.0,169.5,239.5,171.0,215.0,171.5,190.5,172.0,165.5,174.0" stroke="black" stroke-width="2" fill="none" />
<polyline points="166.0,185.5,190.0,185.5,214.0,185.0,238.5,184.0" stroke="black" stroke-width="2" fill="none" />
<polyline points="245.5,197.5,253.5,185.0,262.0,180.5,270.0,178.0,278.0,176.5,286.0,176.5,294.0,178.0" stroke="black" stroke-width="2" fill="none" />
<polyline points="290.0,188.5,265.5,213.5,239.0,238.0,213.0,264.0" stroke="black" stroke-width="2" fill="none" />
<polyline points="204.5,247.0,230.0,245.5,256.0,242.5,281.5,242.0,307.5,242.0,333.5,241.0" stroke="black" stroke-width="2" fill="none" />
<polyline points="334.5,252.0,310.0,252.0,284.5,251.5" stroke="black" stroke-width="2" fill="none" />
<polyline points="292.5,244.0,300.5,259.5,308.0,274.0,315.5,285.0,323.0,292.0,331.0,296.0,339.0,299.0,347.0,294.5,359.0,305.5,367.5,317.5,375.5,328.0,383.5,334.5,391.0,340.0,399.0,345.0,407.0,349.0" stroke="black" stroke-width="2" fill="none" />
<polyline points="407.0,334.0,383.0,358.0" stroke="black" stroke-width="2" fill="none" />
<polyline points="388.0,356.5,413.0,358.0" stroke="black" stroke-width="2" fill="none" />
<polyline points="383.5,335.5,359.0,361.0" stroke="black" stroke-width="2" fill="none" />
<polyline points="366.0,343.5,390.0,343.0,413.5,342.0" stroke="black" stroke-width="2" fill="none" />
<polyline points="366.0,334.5,341.0,335.5" stroke="black" stroke-width="2" fill="none" />
<polyline points="336.5,338.0,349.5,346.0" stroke="black" stroke-width="2" fill="none" />
<polyline points="332.0,337.0,324.5,345.0,312.5,353.0" stroke="black" stroke-width="2" fill="none" />
<polyline points="286.5,359.5,312.0,334.5,338.0,309.0" stroke="black" stroke-width="2" fill="none" />
<polyline points="335.5,308.5,311.5,308.0" stroke="black" stroke-width="2" fill="none" />
<polyline points="312.5,293.0,289.0,316.0,264.0,340.5,238.0,365.0" stroke="black" stroke-width="2" fill="none" />
<polyline points="235.0,367.0,211.0,369.0" stroke="black" stroke-width="2" fill="none" />
<polyline points="206.0,341.5,198.0,358.0,189.5,370.0,181.5,381.5,177.5,384.0,185.5,376.0,191.5,368.0,196.5,360.0,201.0,352.0,205.0,344.0,206.5,336.0,208.5,328.0,210.0,319.5,211.0,311.0,212.0,303.0,214.0,295.5,208.0,287.5,203.0,279.5,198.5,272.0,194.5,264.0,191.0,256.0,188.5,248.5,194.5,247.0,187.0,241.0" stroke="black" stroke-width="2" fill="none" />
<polyline points="190.5,237.5,217.0,211.0,242.5,185.5,267.0,160.0,292.5,134.0" stroke="black" stroke-width="2" fill="none" />
<polyline points="287.0,125.5,278.5,133.5,278.0,141.5,279.0,149.0,282.0,156.0,288.0,163.5" stroke="black" stroke-width="2" fill="none" />
<polyline points="290.0,165.0,282.0,156.0" stroke="black" stroke-width="2" fill="none" />
<polyline points="280.0,145.5,288.0,153.5,295.5,155.5,303.5,153.0" stroke="black" stroke-width="2" fill="none" />
<polyline points="303.0,125.5,295.5,123.0,287.0,125.0,279.5,132.5" stroke="black" stroke-width="2" fill="none" />
<polyline points="275.0,125.0,283.0,115.0,291.0,112.0,299.0,111.5,307.0,114.5,315.0,126.5" stroke="black" stroke-width="2" fill="none" />
<polyline points="314.0,122.0,339.0,121.5,364.5,120.5" stroke="black" stroke-width="2" fill="none" />
<polyline points="366.5,125.5,339.5,126.0" stroke="black" stroke-width="2" fill="none" />
<polyline points="350.0,114.0,360.5,122.0,362.5,129.5,359.0,137.5,347.5,145.5,351.0,153.5" stroke="black" stroke-width="2" fill="none" />
<polyline points="346.5,145.5,354.0,141.5" stroke="black" stroke-width="2" fill="none" />
<polyline points="366.0,138.5,341.5,139.5,316.0,141.0,292.5,141.5,267.0,142.5,242.5,144.5,218.0,146.0,192.0,147.0" stroke="black" stroke-width="2" fill="none" />
<polyline points="186.0,135.5,211.5,113.0,235.5,90.0,259.5,65.5" stroke="black" stroke-width="2" fill="none" />
<polyline points="258.0,60.5,233.5,61.0" stroke="black" stroke-width="2" fill="none" />
<polyline points="240.0,41.5,214.5,64.5,188.0,87.5" stroke="black" stroke-width="2" fill="none" />
<polyline points="191.0,80.5,215.5,81.0,239.5,81.0,264.5,81.0,291.0,81.0" stroke="black" stroke-width="2" fill="none" />
<polyline points="287.0,66.5,261.5,91.0,236.0,114.0,211.0,138.0,186.5,162.5,162.0,186.0" stroke="black" stroke-width="2" fill="none" />
<polyline points="180.0,183.5,172.5,174.5,165.0,165.0,157.0,157.0,149.0,149.0,141.0,141.0,133.0,134.0,125.0,128.0,117.0,121.0,109.5,115.5" stroke="black" stroke-width="2" fill="none" />
<polyline points="109.5,117.0,107.5,125.0,106.0,132.5,105.0,140.0,105.0,148.0,106.0,156.5,107.5,164.0,108.5,171.5,111.0,179.5,114.5,188.0,117.5,196.5,122.5,204.0,126.0,212.0" stroke="black" stroke-width="2" fill="none" />
<polyline points="125.0,216.5,117.0,201.5,108.5,183.5" stroke="black" stroke-width="2" fill="none" />
<polyline points="113.0,183.0,121.0,200.0,128.5,215.0,136.0,208.0,144.0,203.5,152.0,200.5,160.0,198.5,167.5,198.0,175.5,199.0,184.0,199.5" stroke="black" stroke-width="2" fill="none" />
<polyline points="184.5,197.5,208.5,197.0,232.0,194.0,256.0,191.5,281.5,191.0,307.0,191.0,333.0,188.5,359.5,186.5" stroke="black" stroke-width="2" fill="none" />
<polyline points="345.5,184.0,352.0,191.5,357.0,199.5,360.0,207.0,362.5,215.5,357.5,223.0" stroke="black" stroke-width="2" fill="none" />
<polyline points="363.0,217.0,338.0,217.0,312.0,217.0,285.5,219.5,261.0,221.5,236.0,222.5,209.5,224.0,185.5,225.0" stroke="black" stroke-width="2" fill="none" />
<polyline points="185.5,231.0,211.0,230.0" stroke="black" stroke-width="2" fill="none" />
<polyline points="232.0,232.0,258.0,231.5" stroke="black" stroke-width="2" fill="none" />
<polyline points="262.5,248.5,236.5,250.0" stroke="black" stroke-width="2" fill="none" />
<polyline points="229.0,284.5,222.0,292.5,220.0,300.5,217.5,308.5,216.5,316.5,216.0,324.5,214.0,332.0,212.0,340.0,209.0,347.5,205.0,355.0,199.0,363.5,193.0,371.0,191.5,374.0,199.5,362.0,207.5,347.5" stroke="black" stroke-width="2" fill="none" />
<polyline points="230.5,332.5,256.0,330.5" stroke="black" stroke-width="2" fill="none" />
<polyline points="252.0,341.5,264.0,350.0" stroke="black" stroke-width="2" fill="none" />
<polyline points="248.5,340.5,243.5,348.5,236.5,356.0,227.0,364.0,215.0,372.5,202.0,380.5" stroke="black" stroke-width="2" fill="none" />
<polyline points="177.5,387.5,185.5,385.5,194.0,383.5,202.0,380.5,210.5,376.0,218.5,370.0,226.0,365.0,233.5,358.5,241.0,349.5,249.0,339.5,257.0,343.5,265.0,348.5,273.0,351.5,281.5,354.5,290.0,356.0,298.5,357.0,306.5,355.0,314.0,352.0,322.0,346.5,330.0,337.5,338.0,337.5,346.0,342.5,354.5,346.0,362.5,350.5,370.5,352.0,378.5,353.0,386.5,354.0,394.5,354.5,402.5,353.5,410.0,352.0" stroke="black" stroke-width="2" fill="none" />
<polyline points="379.5,338.5,371.5,333.0,363.5,327.0,355.5,319.0,347.5,311.0" stroke="black" stroke-width="2" fill="none" />
<polyline points="348.0,302.5,355.5,305.0,363.5,319.5,371.0,328.5,379.0,334.5" stroke="black" stroke-width="2" fill="none" />
<polyline points="383.0,342.0,376.0,334.0,367.0,326.0,360.5,317.5,357.0,309.5,351.5,301.5" stroke="black" stroke-width="2" fill="none" />
<polyline points="363.0,283.5,337.5,283.5" stroke="black" stroke-width="2" fill="none" />
<polyline points="333.5,292.0,309.5,292.0,285.0,292.0,259.5,293.5,234.0,295.5,209.0,296.5" stroke="black" stroke-width="2" fill="none" />
<polyline points="228.5,285.5,233.5,293.5,234.0,301.5,234.5,309.5,233.5,317.5,233.0,325.5,229.0,333.5,224.5,341.5,218.5,349.5,211.5,357.0,203.0,365.5,192.5,374.0,200.5,367.5,208.0,360.5,216.0,352.5,224.0,340.5,231.5,327.5" stroke="black" stroke-width="2" fill="none" />
<polyline points="326.0,282.5,317.0,274.5,309.0,266.5,303.5,258.5,297.5,250.5,293.0,242.5" stroke="black" stroke-width="2" fill="none" />
<polyline points="289.5,239.5,297.5,247.0,305.5,259.0,313.5,270.0,321.0,278.5,328.5,284.5,336.5,288.5,344.5,286.0" stroke="black" stroke-width="2" fill="none" />
<polyline points="347.5,279.5,343.0,272.5,335.0,259.5,327.0,255.5" stroke="black" stroke-width="2" fill="none" />
<polyline points="328.0,256.5,336.0,264.0,340.5,272.0,341.5,280.5" stroke="black" stroke-width="2" fill="none" />
<polyline points="340.5,283.5,332.5,281.0,324.5,274.0,316.0,266.0,308.0,254.5,300.5,243.5" stroke="black" stroke-width="2" fill="none" />
<polyline points="299.0,242.0,307.0,242.5,315.0,248.0,323.0,257.0,327.5,260.5,330.0,268.5" stroke="black" stroke-width="2" fill="none" />
<polyline points="349.5,274.0,349.5,282.0,349.0,290.0,345.0,298.0,346.5,307.5,350.5,315.5,358.0,323.5,368.5,331.5,380.0,339.0" stroke="black" stroke-width="2" fill="none" />
<polyline points="347.5,251.0,355.5,243.0,363.5,236.0" stroke="black" stroke-width="2" fill="none" />
<polyline points="349.5,243.0,341.5,243.0,333.5,242.5,325.5,242.0,317.5,238.0,309.5,234.0" stroke="black" stroke-width="2" fill="none" />
<polyline points="305.0,230.5,315.0,238.0" stroke="black" stroke-width="2" fill="none" />
<polyline points="304.5,243.0,317.0,251.5,323.0,259.5,327.0,267.5" stroke="black" stroke-width="2" fill="none" />
<polyline points="344.5,241.5,337.0,241.5,329.0,239.0,321.0,237.0,313.0,233.0,305.5,229.5" stroke="black" stroke-width="2" fill="none" />
<polyline points="299.0,241.0,303.5,249.0,309.5,257.0,315.5,265.0,323.5,273.5,333.5,281.5" stroke="black" stroke-width="2" fill="none" />
<polyline points="325.0,292.5,315.0,284.5,308.5,277.0,304.0,269.0,300.0,261.5,296.0,253.5,292.5,246.0,289.5,238.0" stroke="black" stroke-width="2" fill="none" />
<polyline points="251.0,199.5,258.0,191.5,273.0,183.5" stroke="black" stroke-width="2" fill="none" />
<polyline points="262.5,179.0,251.5,186.5,246.5,194.5,245.5,202.5,251.5,196.5,259.5,188.5,267.5,185.0,275.5,183.5,283.5,182.5,291.5,183.0" stroke="black" stroke-width="2" fill="none" />
<polyline points="307.0,148.0,310.0,140.5,308.0,132.0,299.0,124.0" stroke="black" stroke-width="2" fill="none" />
<polyline points="287.5,121.0,263.0,121.5,238.5,121.0,213.5,120.5,188.0,120.0" stroke="black" stroke-width="2" fill="none" />
<polyline points="186.5,110.0,211.0,86.5,234.0,61.5,259.0,38.0" stroke="black" stroke-width="2" fill="none" />
<polyline points="259.5,40.0,234.0,40.5,209.0,41.5" stroke="black" stroke-width="2" fill="none" />
<polyline points="193.0,72.0,216.5,70.5,241.0,69.5,265.0,68.0,289.5,66.0,316.5,64.5,341.0,63.0" stroke="black" stroke-width="2" fill="none" />
<polyline points="336.5,65.5,344.5,73.0,347.0,81.0,349.0,88.5,350.5,96.5,355.0,104.5,364.5,112.5,369.5,121.0,371.5,129.0,371.5,137.0,369.5,145.0,364.5,153.0,362.5,161.0,363.5,168.5,365.5,176.0,366.5,183.5,368.0,191.5,369.0,199.5,369.0,207.5,369.5,215.5,369.0,223.5,366.5,231.5,358.0,239.5,349.0,247.5,349.0,255.0,352.5,263.5,353.0,271.5,354.0,279.5,353.5,288.0,352.5,296.0,359.0,304.0,364.0,312.0,369.5,320.0,376.0,328.0,386.0,336.0,399.0,344.0,411.0,352.0" stroke="black" stroke-width="2" fill="none" />
<polyline points="363.5,118.5,356.0,109.5,348.0,106.5,339.5,105.5,331.5,108.5" stroke="black" stroke-width="2" fill="none" />
<polyline points="335.0,106.0,334.0,114.5,339.5,114.5,347.5,112.5,356.0,115.5" stroke="black" stroke-width="2" fill="none" />
<polyline points="350.5,108.5,360.5,116.5,365.5,124.5,367.0,132.5,366.5,140.5,363.0,148.5,356.0,155.5,364.0,146.0" stroke="black" stroke-width="2" fill="none" />
<polyline points="310.5,108.5,337.0,85.0" stroke="black" stroke-width="2" fill="none" />
<polyline points="334.5,83.0,310.0,83.5" stroke="black" stroke-width="2" fill="none" />
<polyline points="310.5,66.0,285.0,91.0,259.0,116.5,233.5,141.0,210.0,166.5,186.0,190.5" stroke="black" stroke-width="2" fill="none" />
<polyline points="165.0,210.5,180.0,218.5,187.0,226.0,192.5,234.0,195.0,242.0,187.0,243.5,195.0,262.0,203.0,278.5,211.0,289.5,225.5,287.5,233.5,291.0" stroke="black" stroke-width="2" fill="none" />
<polyline points="152.5,211.0,140.5,219.0,132.5,226.5" stroke="black" stroke-width="2" fill="none" />
<polyline points="135.5,209.0,149.5,201.0" stroke="black" stroke-width="2" fill="none" />
<polyline points="134.5,163.0,158.5,138.0" stroke="black" stroke-width="2" fill="none" />
<polyline points="162.5,159.5,138.0,160.5" stroke="black" stroke-width="2" fill="none" />
<polyline points="137.5,148.5,162.5,148.0" stroke="black" stroke-width="2" fill="none" />
<polyline points="184.0,157.5,208.5,158.0,233.5,159.0" stroke="black" stroke-width="2" fill="none" />
<polyline points="237.0,131.5,211.0,131.5" stroke="black" stroke-width="2" fill="none" />
<polyline points="212.5,106.5,237.0,105.5" stroke="black" stroke-width="2" fill="none" />
<polyline points="282.5,114.5,276.5,123.0,272.5,131.0,272.0,139.0,272.0,147.0,273.5,154.5,275.5,163.0,286.5,171.0" stroke="black" stroke-width="2" fill="none" />
<polyline points="311.0,163.0,303.0,169.0,302.0,169.0,312.5,161.0,316.5,153.0,318.5,145.0,317.5,137.0,315.5,129.0,310.5,120.5,302.5,112.5" stroke="black" stroke-width="2" fill="none" />
<polyline points="365.5,94.0,341.0,96.0,315.5,96.5,288.5,97.0,261.0,98.0,234.0,98.5,209.0,99.0,183.5,99.5" stroke="black" stroke-width="2" fill="none" />
<polyline points="138.0,112.5,113.0,135.5" stroke="black" stroke-width="2" fill="none" />
<polyline points="116.0,130.0,140.0,130.5" stroke="black" stroke-width="2" fill="none" />
<polyline points="139.5,115.0,114.0,115.0" stroke="black" stroke-width="2" fill="none" />
<polyline points="109.0,120.0,119.0,128.0,129.0,136.0,138.0,143.5,146.5,151.0,154.5,159.0,162.5,167.0,169.5,175.0,176.5,183.0,183.5,190.5,186.5,198.5" stroke="black" stroke-width="2" fill="none" />
<polyline points="127.0,114.0,119.0,106.0,111.0,98.0" stroke="black" stroke-width="2" fill="none" />
<polyline points="111.5,98.0,118.0,106.0,126.0,113.5" stroke="black" stroke-width="2" fill="none" />
<polyline points="133.5,123.0,125.5,117.0,117.5,110.0,109.5,103.0" stroke="black" stroke-width="2" fill="none" />
<polyline points="109.0,97.0,112.0,105.0,120.5,113.5,129.5,121.0" stroke="black" stroke-width="2" fill="none" />
<polyline points="109.0,93.5,117.0,101.0,125.0,109.0,133.5,117.0,140.5,124.0,148.0,131.5,155.0,139.5,163.0,148.0" stroke="black" stroke-width="2" fill="none" />
<polyline points="177.5,144.0,170.0,152.0,162.0,144.0,154.0,135.0,145.5,127.5,137.5,119.0,129.5,112.0,121.5,103.5,113.0,95.5,105.0,90.0" stroke="black" stroke-width="2" fill="none" />
<polyline points="105.5,91.0,105.5,99.0,105.0,107.0,104.5,115.0,103.5,123.0,102.0,131.0,101.5,138.5,101.5,146.0,101.5,154.0,102.5,162.5,103.5,170.5,105.5,178.5,107.5,186.0,112.0,194.0,116.0,202.5,120.0,210.5,124.5,218.5,125.0,226.0,128.0,231.5,136.0,223.5,144.0,215.5,151.5,211.5,159.5,210.5,167.5,212.5,175.5,216.5,183.5,222.5,191.5,235.5" stroke="black" stroke-width="2" fill="none" />
<polyline points="302.5,60.5,287.5,52.5,272.5,44.5,262.0,36.0,255.0,28.0" stroke="black" stroke-width="2" fill="none" />
</svg>