<svg xmlns="http://www.w3.org/2000/svg" version="1.1"><polyline points="347.0,66.0,360.0,74.0,368.5,82.5,373.5,90.5,372.0,98.0,371.5,106.0" stroke="black" stroke-width="2" fill="none" />
<polyline points="383.5,105.0,359.5,129.5,336.5,155.5,312.5,181.0,288.5,207.0,263.0,232.5,240.0,257.5,215.5,281.5,191.0,305.0,165.5,329.5" stroke="black" stroke-width="2" fill="none" />
<polyline points="166.0,341.0,190.0,341.5,214.5,342.5,239.5,342.5" stroke="black" stroke-width="2" fill="none" />
<polyline points="256.0,338.0,283.5,313.5,308.5,288.0,334.0,262.5,360.5,236.5,387.5,211.0,414.0,187.5" stroke="black" stroke-width="2" fill="none" />
<polyline points="406.0,186.5,380.5,187.5,356.5,187.0,330.5,185.5,306.5,185.5,284.0,186.0,261.5,186.0,237.0,186.0,212.5,186.0,187.5,186.5,161.5,188.0,135.5,189.0" stroke="black" stroke-width="2" fill="none" />
<polyline points="137.0,194.5,145.0,193.0,153.0,190.0" stroke="black" stroke-width="2" fill="none" />
<polyline points="150.5,188.0,159.0,186.0" stroke="black" stroke-width="2" fill="none" />
<polyline points="166.0,188.0,192.0,164.0" stroke="black" stroke-width="2" fill="none" />
<polyline points="188.0,163.5,196.0,160.5,204.0,157.5,212.0,145.5,208.5,153.5,193.0,161.5,191.0,154.0,199.0,150.0,207.0,145.0,217.5,140.0,225.5,140.0,233.5,140.0,242.0,142.0,250.0,144.0,258.5,145.5" stroke="black" stroke-width="2" fill="none" />
<polyline points="263.5,140.5,239.0,165.0" stroke="black" stroke-width="2" fill="none" />
<polyline points="237.5,158.0,261.5,157.0,286.5,155.0" stroke="black" stroke-width="2" fill="none" />
<polyline points="288.0,158.5,311.0,134.0,334.5,109.0,359.0,83.0" stroke="black" stroke-width="2" fill="none" />
<polyline points="363.5,96.0,364.5,104.0" stroke="black" stroke-width="2" fill="none" />
<polyline points="375.0,93.0,378.0,101.0,388.5,109.5,394.0,117.5,383.0,120.0,390.0,128.0,398.0,131.5,400.5,139.0,401.5,147.0,399.5,148.0,407.5,150.5,403.0,151.5,403.0,158.5,399.5,156.5" stroke="black" stroke-width="2" fill="none" />
<polyline points="391.0,153.5,366.5,178.0" stroke="black" stroke-width="2" fill="none" />
<polyline points="367.5,182.5,342.5,183.0,316.5,184.5" stroke="black" stroke-width="2" fill="none" />
<polyline points="327.0,188.0,320.0,188.0,311.5,198.5,303.5,195.5" stroke="black" stroke-width="2" fill="none" />
<polyline points="307.5,203.5,315.5,192.5,325.0,184.5,326.0,176.5,329.0,168.5,323.5,159.0,323.5,155.0" stroke="black" stroke-width="2" fill="none" />
<polyline points="338.5,156.5,364.0,157.0" stroke="black" stroke-width="2" fill="none" />
<polyline points="360.5,163.0,358.5,171.0,356.5,174.5" stroke="black" stroke-width="2" fill="none" />
<polyline points="364.5,177.0,356.5,182.0,348.5,181.5,340.5,184.0,335.5,182.0,333.5,178.0,335.5,170.0,329.5,173.5" stroke="black" stroke-width="2" fill="none" />
<polyline points="335.5,172.5,341.0,168.5,337.5,176.5,339.5,166.0" stroke="black" stroke-width="2" fill="none" />
<polyline points="341.5,176.0,350.0,166.0,357.5,159.0,365.5,153.0,366.5,152.0,356.5,160.0,347.0,168.0,341.0,176.5,329.5,189.5,318.5,196.5,314.5,203.5,307.5,212.5,309.5,220.0,305.5,226.0,310.5,208.5,317.0,198.5,322.0,200.0,330.5,193.0,339.0,190.5,344.0,185.5,352.0,186.5,356.0,183.5,364.5,185.5,361.5,191.5,356.0,199.5,359.5,192.5" stroke="black" stroke-width="2" fill="none" />
<polyline points="364.5,201.0,357.5,209.0,349.5,217.0,338.5,219.0,336.5,227.0" stroke="black" stroke-width="2" fill="none" />
<polyline points="338.0,220.0,346.0,215.0,354.0,213.5,361.5,209.5" stroke="black" stroke-width="2" fill="none" />
<polyline points="366.0,212.0,390.0,186.0,414.5,160.0" stroke="black" stroke-width="2" fill="none" />
<polyline points="414.0,162.5,406.0,150.0,398.0,136.0,387.0,125.5" stroke="black" stroke-width="2" fill="none" />
<polyline points="393.0,132.0,367.0,156.5,340.0,180.0" stroke="black" stroke-width="2" fill="none" />
<polyline points="330.5,183.0,330.5,189.0,321.5,191.0,321.5,200.0,331.0,192.0" stroke="black" stroke-width="2" fill="none" />
<polyline points="340.0,198.0,341.0,192.5,348.0,199.5,352.0,207.0,337.0,215.0,334.0,223.0,339.0,234.5,338.0,248.5,336.0,257.0" stroke="black" stroke-width="2" fill="none" />
<polyline points="336.0,248.0,361.0,248.5" stroke="black" stroke-width="2" fill="none" />
<polyline points="374.5,257.0,366.5,263.5" stroke="black" stroke-width="2" fill="none" />
<polyline points="368.5,269.0,343.5,268.5,318.0,269.5,291.5,271.0,267.0,270.5,241.5,269.5,215.0,269.0,189.5,268.0,166.0,267.5,141.5,267.0" stroke="black" stroke-width="2" fill="none" />
<polyline points="140.5,267.0,148.5,264.0,156.0,259.0,144.0,259.5,142.5,263.0,137.5,277.0,139.5,281.0,147.5,268.5,155.5,269.5,151.0,276.0,153.0,283.0,162.5,291.0,157.5,303.0" stroke="black" stroke-width="2" fill="none" />
<polyline points="159.5,296.0,152.0,296.0" stroke="black" stroke-width="2" fill="none" />
<polyline points="155.5,304.5,147.0,305.5,139.0,305.0,136.5,301.0,135.0,293.5,139.5,289.5,143.5,282.0,147.5,274.5,139.0,292.5" stroke="black" stroke-width="2" fill="none" />
<polyline points="136.0,294.0,161.5,294.0,188.5,294.0,215.0,293.5" stroke="black" stroke-width="2" fill="none" />
<polyline points="212.0,296.0,214.5,308.0" stroke="black" stroke-width="2" fill="none" />
<polyline points="209.0,316.0,184.5,341.0,159.5,363.5" stroke="black" stroke-width="2" fill="none" />
<polyline points="165.0,358.5,189.5,358.0" stroke="black" stroke-width="2" fill="none" />
<polyline points="183.0,362.0,208.5,339.0" stroke="black" stroke-width="2" fill="none" />
<polyline points="213.0,327.0,187.5,327.5,161.5,327.5,135.5,329.5" stroke="black" stroke-width="2" fill="none" />
<polyline points="137.5,333.0,160.0,307.5,184.0,281.5,209.0,258.5,235.5,235.0,260.0,210.5,282.5,185.0,306.5,161.0" stroke="black" stroke-width="2" fill="none" />
<polyline points="323.5,163.5,315.5,172.5,311.5,183.5,307.5,180.0,305.0,179.0,312.0,173.0,304.0,180.0" stroke="black" stroke-width="2" fill="none" />
<polyline points="311.5,210.0,287.5,235.5,264.5,258.5,239.5,282.0" stroke="black" stroke-width="2" fill="none" />
<polyline points="241.0,279.0,233.0,273.0" stroke="black" stroke-width="2" fill="none" />
<polyline points="232.5,267.5,235.5,275.5,240.5,283.5,248.5,291.5,251.5,299.0,256.5,307.0,255.5,315.0,255.5,323.0,255.5,329.0,263.5,322.5,271.5,331.5,279.5,339.5" stroke="black" stroke-width="2" fill="none" />
<polyline points="286.0,341.5,311.0,317.0,336.0,291.5,361.0,266.0,386.0,241.0,412.0,216.5" stroke="black" stroke-width="2" fill="none" />
<polyline points="409.0,234.0,383.0,234.5" stroke="black" stroke-width="2" fill="none" />
<polyline points="383.0,236.0,358.5,237.0,332.5,237.0,306.5,236.5,282.0,238.0,259.0,241.5,236.0,243.0,210.5,242.5,185.5,240.5,161.0,240.0,136.5,240.5,112.0,241.0" stroke="black" stroke-width="2" fill="none" />
<polyline points="114.0,242.0,122.0,250.0,130.0,252.5,137.5,250.0,145.5,242.0,153.5,232.5" stroke="black" stroke-width="2" fill="none" />
<polyline points="163.5,230.0,189.5,230.5,214.0,231.5" stroke="black" stroke-width="2" fill="none" />
<polyline points="235.5,230.0,259.0,229.0,283.5,228.0,308.0,228.0" stroke="black" stroke-width="2" fill="none" />
<polyline points="324.0,218.0,321.0,226.0,317.5,234.0,322.0,242.0,325.0,249.5,334.0,251.0,334.5,250.5,342.5,247.0" stroke="black" stroke-width="2" fill="none" />
<polyline points="340.0,220.0,348.0,220.0" stroke="black" stroke-width="2" fill="none" />
<polyline points="341.5,211.5,315.5,236.0,288.0,261.0,261.0,286.5" stroke="black" stroke-width="2" fill="none" />
<polyline points="267.5,280.5,275.5,274.5,283.5,271.5,278.0,269.5,270.5,277.5,273.5,264.5,281.5,261.5,289.5,261.5,297.5,261.5,303.5,269.5,309.0,281.5,302.5,289.0,288.5,297.0" stroke="black" stroke-width="2" fill="none" />
<polyline points="276.5,276.5,283.0,276.0,285.0,266.0,276.5,269.0,268.5,274.0" stroke="black" stroke-width="2" fill="none" />
<polyline points="278.0,261.5,271.0,269.0,269.0,277.5,269.0,285.5,269.5,293.5,271.5,296.0,279.0,298.0,286.5,299.0,294.0,295.0,302.0,289.0" stroke="black" stroke-width="2" fill="none" />
<polyline points="320.0,281.5,345.0,280.5" stroke="black" stroke-width="2" fill="none" />
<polyline points="349.0,283.5,357.5,279.5,366.0,275.5" stroke="black" stroke-width="2" fill="none" />
<polyline points="361.0,284.5,335.5,310.5,310.0,336.0,285.5,362.0" stroke="black" stroke-width="2" fill="none" />
<polyline points="287.0,366.5,295.0,363.0,303.0,361.0,311.0,361.0,319.0,360.0,327.0,361.0,335.0,363.0,343.5,365.0,351.5,369.0,359.5,374.0,367.5,375.0" stroke="black" stroke-width="2" fill="none" />
<polyline points="370.0,373.5,362.5,365.5" stroke="black" stroke-width="2" fill="none" />
<polyline points="357.5,363.5,331.5,364.0,305.0,364.0,279.5,363.0" stroke="black" stroke-width="2" fill="none" />
<polyline points="288.5,346.0,313.5,345.0,336.5,343.5,361.0,342.5" stroke="black" stroke-width="2" fill="none" />
<polyline points="363.0,340.5,338.0,365.5" stroke="black" stroke-width="2" fill="none" />
<polyline points="341.5,366.0,355.5,374.0,366.5,381.5" stroke="black" stroke-width="2" fill="none" />
<polyline points="368.5,391.0,343.0,414.5" stroke="black" stroke-width="2" fill="none" />
<polyline points="360.0,409.0,384.5,408.0" stroke="black" stroke-width="2" fill="none" />
<polyline points="367.0,406.5,391.0,382.0" stroke="black" stroke-width="2" fill="none" />
<polyline points="386.0,394.0,360.0,393.0,334.5,392.0,308.5,390.5,283.5,389.0" stroke="black" stroke-width="2" fill="none" />
<polyline points="282.0,392.5,290.0,394.0,297.5,394.0" stroke="black" stroke-width="2" fill="none" />
<polyline points="310.0,399.5,318.0,399.5" stroke="black" stroke-width="2" fill="none" />
<polyline points="312.5,407.0,336.5,383.5" stroke="black" stroke-width="2" fill="none" />
<polyline points="341.5,377.5,341.5,385.5,351.5,387.0,360.0,384.0" stroke="black" stroke-width="2" fill="none" />
<polyline points="356.0,380.5,358.0,388.0,359.5,395.0" stroke="black" stroke-width="2" fill="none" />
<polyline points="376.0,395.5,377.0,387.5,374.0,380.0,371.5,375.0,368.5,371.5,361.5,363.5,361.5,355.5,360.5,347.5,355.5,339.5,352.0,331.5,351.0,324.0,352.5,315.5,352.5,307.0,351.5,299.0,345.0,296.5,345.0,292.0" stroke="black" stroke-width="2" fill="none" />
<polyline points="350.5,294.5,358.0,298.0" stroke="black" stroke-width="2" fill="none" />
<polyline points="366.5,307.5,343.5,310.0,318.5,312.0" stroke="black" stroke-width="2" fill="none" />
<polyline points="352.5,331.5,360.0,346.5" stroke="black" stroke-width="2" fill="none" />
<polyline points="384.0,345.5,385.0,337.5" stroke="black" stroke-width="2" fill="none" />
<polyline points="382.5,337.0,372.5,339.0,377.0,338.0,377.0,343.0,377.0,344.5,385.0,340.5" stroke="black" stroke-width="2" fill="none" />
<polyline points="361.0,319.5,334.5,343.0,309.0,364.5" stroke="black" stroke-width="2" fill="none" />
<polyline points="306.5,365.5,302.5,374.0" stroke="black" stroke-width="2" fill="none" />
<polyline points="299.5,378.0,291.5,382.0,283.5,384.0,275.0,388.0" stroke="black" stroke-width="2" fill="none" />
<polyline points="278.5,387.0,286.5,385.0,294.0,384.0" stroke="black" stroke-width="2" fill="none" />
<polyline points="312.5,386.5,320.5,382.5,326.5,390.5" stroke="black" stroke-width="2" fill="none" />
<polyline points="344.5,381.0,349.5,389.0,356.0,396.5" stroke="black" stroke-width="2" fill="none" />
<polyline points="351.0,386.5,343.0,377.5" stroke="black" stroke-width="2" fill="none" />
<polyline points="328.5,369.5,329.5,377.5,332.0,385.5,333.5,393.5,329.0,396.5,326.5,399.5" stroke="black" stroke-width="2" fill="none" />
<polyline points="328.5,388.5,320.5,387.0,320.0,389.0,311.5,391.5,313.0,389.5,313.0,385.5,325.0,377.0,326.5,369.5" stroke="black" stroke-width="2" fill="none" />
<polyline points="306.5,366.5,305.5,374.5,308.5,382.5,307.5,390.5,309.0,398.0,314.0,396.0,321.5,394.0,323.0,391.0,337.5,393.0,346.0,392.0,357.0,392.0,365.0,394.0" stroke="black" stroke-width="2" fill="none" />
<polyline points="359.5,315.5,333.5,315.5,308.0,315.5,283.0,316.0,258.5,317.0" stroke="black" stroke-width="2" fill="none" />
<polyline points="264.5,324.0,268.5,332.0,277.0,340.0,281.5,348.0,282.0,356.0,283.5,364.0,284.5,372.0,274.5,379.0,272.5,386.5,272.0,394.5,273.0,402.0" stroke="black" stroke-width="2" fill="none" />
<polyline points="278.0,396.5,286.0,395.0,294.0,395.0" stroke="black" stroke-width="2" fill="none" />
<polyline points="295.5,392.0,293.5,389.5,285.5,390.5,277.5,395.5" stroke="black" stroke-width="2" fill="none" />
<polyline points="274.0,392.5,278.0,381.0,286.0,379.0,284.0,383.0,276.0,391.0,274.0,399.0,277.5,403.5,285.5,401.0,293.5,399.0" stroke="black" stroke-width="2" fill="none" />
<polyline points="271.0,383.5,279.0,375.5,288.5,369.5,279.0,379.5,274.0,387.5,277.0,395.5,282.0,397.5,274.0,404.5,282.0,408.5,290.0,408.5,298.5,407.5,306.0,404.5,314.5,406.5,322.5,407.5,330.0,405.0,338.5,406.0,346.5,406.0,354.5,403.0,362.0,403.0,370.0,399.5" stroke="black" stroke-width="2" fill="none" />
<polyline points="281.0,329.0,255.5,330.0" stroke="black" stroke-width="2" fill="none" />
<polyline points="258.0,295.5,284.0,295.0,308.5,294.5,333.5,293.0,359.5,290.0" stroke="black" stroke-width="2" fill="none" />
<polyline points="358.5,295.0,351.0,286.5" stroke="black" stroke-width="2" fill="none" />
<polyline points="317.0,260.5,294.0,261.5" stroke="black" stroke-width="2" fill="none" />
<polyline points="298.5,263.5,304.5,271.0,305.0,279.5,298.0,282.5,306.0,279.5" stroke="black" stroke-width="2" fill="none" />
<polyline points="261.0,260.0,252.5,271.0" stroke="black" stroke-width="2" fill="none" />
<polyline points="244.0,268.5,240.0,277.0,241.0,281.5,249.0,289.5" stroke="black" stroke-width="2" fill="none" />
<polyline points="219.5,295.5,193.5,296.0" stroke="black" stroke-width="2" fill="none" />
<polyline points="209.0,288.5,217.0,280.5,225.0,273.5,232.5,265.5,228.0,270.5,220.0,278.5,209.5,286.5,212.5,295.0,215.5,303.0,213.5,311.0,215.0,319.5,215.5,327.0,219.5,335.0,225.5,343.0,223.5,351.0,218.5,358.0,226.5,353.0,221.0,361.0,211.0,369.0,208.0,377.5,203.5,385.5" stroke="black" stroke-width="2" fill="none" />
<polyline points="208.5,372.5,217.0,363.5,225.0,356.0" stroke="black" stroke-width="2" fill="none" />
<polyline points="210.5,362.5,185.5,387.5" stroke="black" stroke-width="2" fill="none" />
<polyline points="165.5,375.0,157.5,376.0,149.5,374.0,141.5,381.5,133.0,374.5" stroke="black" stroke-width="2" fill="none" />
<polyline points="134.5,373.5,132.5,370.5,125.0,379.0,125.5,387.0,143.0,388.5,151.0,385.5,159.0,384.0" stroke="black" stroke-width="2" fill="none" />
<polyline points="160.5,371.5,185.0,370.5,209.0,367.0" stroke="black" stroke-width="2" fill="none" />
<polyline points="199.0,389.0,191.0,391.0,183.0,393.5,175.5,394.0,167.5,393.0,160.0,394.5,152.0,394.5,144.5,393.0,137.0,393.0,129.0,389.0" stroke="black" stroke-width="2" fill="none" />
<polyline points="132.5,395.5,156.5,394.5" stroke="black" stroke-width="2" fill="none" />
<polyline points="157.0,395.0,149.0,395.0" stroke="black" stroke-width="2" fill="none" />
<polyline points="142.5,373.0,150.5,370.0,158.5,365.5,166.0,364.5" stroke="black" stroke-width="2" fill="none" />
<polyline points="170.0,367.5,169.0,371.5,162.0,380.5" stroke="black" stroke-width="2" fill="none" />
<polyline points="168.5,356.5,159.0,364.5,148.0,370.5,143.0,379.5,144.0,381.5,150.0,373.0,158.0,369.5,163.0,360.0,171.0,358.0,181.0,364.0" stroke="black" stroke-width="2" fill="none" />
<polyline points="182.0,371.0,174.0,375.0,169.0,372.0,166.0,370.0,158.0,374.0,148.0,384.0,140.0,387.0,147.0,383.5,158.5,373.0,160.0,367.5,169.0,361.5,179.5,360.0,181.5,352.0" stroke="black" stroke-width="2" fill="none" />
<polyline points="215.0,326.5,223.0,338.5" stroke="black" stroke-width="2" fill="none" />
<polyline points="239.5,270.0,216.5,271.0,192.0,273.0" stroke="black" stroke-width="2" fill="none" />
<polyline points="184.0,249.5,209.0,248.0,234.5,248.0" stroke="black" stroke-width="2" fill="none" />
<polyline points="254.5,237.5,262.5,228.5,265.5,220.0,274.0,219.5,282.5,218.0" stroke="black" stroke-width="2" fill="none" />
<polyline points="290.0,206.0,266.0,206.5,241.0,207.0,215.5,207.0" stroke="black" stroke-width="2" fill="none" />
<polyline points="221.5,209.5,230.0,210.0" stroke="black" stroke-width="2" fill="none" />
<polyline points="240.0,197.0,232.0,197.0,223.5,198.0,215.5,199.0" stroke="black" stroke-width="2" fill="none" />
<polyline points="202.0,189.5,208.5,181.5" stroke="black" stroke-width="2" fill="none" />
<polyline points="205.5,176.5,191.5,184.5" stroke="black" stroke-width="2" fill="none" />
<polyline points="188.5,176.0,212.0,175.0" stroke="black" stroke-width="2" fill="none" />
<polyline points="214.0,177.5,222.0,173.0,230.0,172.0,238.0,174.0,246.0,174.5,259.0,185.5,267.0,185.5" stroke="black" stroke-width="2" fill="none" />
<polyline points="265.5,186.0,239.5,210.0,216.0,237.0,192.0,263.0,168.0,286.5" stroke="black" stroke-width="2" fill="none" />
<polyline points="158.0,282.5,155.0,271.5,147.0,271.5" stroke="black" stroke-width="2" fill="none" />
<polyline points="146.5,259.0,154.0,256.0,159.0,249.0,167.0,253.0" stroke="black" stroke-width="2" fill="none" />
<polyline points="165.5,256.0,141.0,256.0" stroke="black" stroke-width="2" fill="none" />
<polyline points="142.0,256.5,168.5,231.0,193.5,205.0" stroke="black" stroke-width="2" fill="none" />
<polyline points="190.5,204.5,199.0,201.5,207.0,201.0,211.5,201.0,216.5,203.0,215.5,211.5,211.5,216.5,217.0,219.5,217.0,216.5,225.0,214.5,234.0,213.5" stroke="black" stroke-width="2" fill="none" />
<polyline points="238.0,189.0,212.5,213.5,185.5,237.5,159.5,262.5,136.0,287.0" stroke="black" stroke-width="2" fill="none" />
<polyline points="135.0,279.5,127.0,288.5" stroke="black" stroke-width="2" fill="none" />
<polyline points="142.5,278.5,145.5,270.5,156.0,257.0,151.5,253.0,143.5,257.0" stroke="black" stroke-width="2" fill="none" />
<polyline points="150.5,246.5,158.5,238.0,166.0,231.5,173.5,227.5,181.5,228.0" stroke="black" stroke-width="2" fill="none" />
<polyline points="168.5,226.5,160.5,234.5,152.5,243.0,151.0,251.5,160.0,255.5,165.0,257.5" stroke="black" stroke-width="2" fill="none" />
<polyline points="157.0,222.5,157.5,231.5,149.5,240.0,141.5,251.5,146.5,245.5,151.0,237.5,159.0,229.5,162.5,221.0" stroke="black" stroke-width="2" fill="none" />
<polyline points="160.5,221.5,155.5,229.5,149.0,237.5,144.0,245.5,140.0,256.5,137.0,264.5,136.0,272.5,134.0,280.0,126.0,287.5,126.0,295.5,129.0,303.5,128.5,311.5,126.5,319.0,128.5,327.0,131.5,330.0,139.5,314.0,147.5,324.5,155.5,331.5,163.0,339.0" stroke="black" stroke-width="2" fill="none" />
<polyline points="137.5,323.5,162.5,322.5,188.0,321.5,212.0,319.5" stroke="black" stroke-width="2" fill="none" />
<polyline points="183.5,355.0,177.5,351.0,170.0,349.0,158.0,353.5,150.0,361.5,142.0,367.5,134.0,369.5,126.0,376.5,136.5,372.5,148.5,370.0,148.0,363.5,157.5,355.5,161.5,348.0,163.0,340.5,154.0,333.0,145.5,324.5,140.0,317.0" stroke="black" stroke-width="2" fill="none" />
<polyline points="136.5,315.0,133.5,323.0,130.5,331.0" stroke="black" stroke-width="2" fill="none" />
<polyline points="110.0,264.5,133.5,241.0,158.0,215.5,184.0,189.5,209.5,163.5" stroke="black" stroke-width="2" fill="none" />
<polyline points="216.5,170.0,224.0,169.0,232.0,169.0,240.0,169.5" stroke="black" stroke-width="2" fill="none" />
<polyline points="249.0,161.0,240.5,156.5,232.5,154.5,224.5,153.5,216.5,156.5" stroke="black" stroke-width="2" fill="none" />
<polyline points="217.0,150.5,225.0,149.5,233.0,149.5,241.0,151.5,249.0,152.0" stroke="black" stroke-width="2" fill="none" />
<polyline points="243.0,157.0,245.5,165.0,248.0,177.0" stroke="black" stroke-width="2" fill="none" />
<polyline points="257.5,173.0,265.5,166.0,273.5,163.0,260.5,169.0,257.5,177.5,260.0,182.5,267.5,177.5,271.5,176.5,272.0,184.5" stroke="black" stroke-width="2" fill="none" />
<polyline points="271.5,167.5,264.0,173.5,264.5,178.5,270.0,170.5,274.0,162.5" stroke="black" stroke-width="2" fill="none" />
<polyline points="264.5,162.5,289.5,137.5,315.0,112.5,340.0,88.5" stroke="black" stroke-width="2" fill="none" />
<polyline points="337.5,64.5,313.5,88.5" stroke="black" stroke-width="2" fill="none" />
<polyline points="314.0,76.5,289.5,79.0,263.5,80.5,236.0,80.0,210.0,79.5" stroke="black" stroke-width="2" fill="none" />
<polyline points="214.0,77.5,206.5,84.5,216.5,82.5,216.5,71.5,211.5,68.5" stroke="black" stroke-width="2" fill="none" />
<polyline points="206.0,60.0,214.0,59.5,215.0,62.5,219.0,55.5" stroke="black" stroke-width="2" fill="none" />
<polyline points="221.0,56.0,211.5,47.0,203.5,51.5" stroke="black" stroke-width="2" fill="none" />
<polyline points="204.5,47.0,212.0,43.5,210.0,49.5,203.5,49.5,194.5,52.5,198.5,54.0,201.0,62.0,197.5,67.0,197.5,74.5,200.0,76.0,202.0,84.0,203.0,75.0,211.0,72.5,219.0,71.5,219.0,74.0" stroke="black" stroke-width="2" fill="none" />
<polyline points="215.5,83.0,207.5,84.0" stroke="black" stroke-width="2" fill="none" />
<polyline points="209.0,89.5,233.0,64.0,258.0,39.0" stroke="black" stroke-width="2" fill="none" />
<polyline points="258.0,53.0,232.0,53.5,206.0,55.0,180.5,56.0" stroke="black" stroke-width="2" fill="none" />
<polyline points="187.0,62.5,212.5,39.0" stroke="black" stroke-width="2" fill="none" />
<polyline points="198.5,30.0,206.5,30.0,214.5,28.0,222.0,26.0,230.0,28.5,238.0,30.5,246.0,32.5,251.0,42.0,255.0,50.0,263.0,57.5" stroke="black" stroke-width="2" fill="none" />
<polyline points="261.0,67.5,236.5,91.5,212.5,115.5" stroke="black" stroke-width="2" fill="none" />
<polyline points="214.0,106.5,239.0,107.0" stroke="black" stroke-width="2" fill="none" />
<polyline points="232.5,105.5,219.0,112.5,227.5,108.5,236.0,105.0,249.0,106.0,257.5,105.5,266.0,106.0,268.0,108.5,280.0,108.5,288.5,109.0" stroke="black" stroke-width="2" fill="none" />
<polyline points="271.5,111.0,263.0,114.5" stroke="black" stroke-width="2" fill="none" />
<polyline points="265.0,113.0,291.5,90.5,317.0,66.0" stroke="black" stroke-width="2" fill="none" />
<polyline points="316.5,70.0,308.5,70.0,301.0,70.5" stroke="black" stroke-width="2" fill="none" />
<polyline points="298.0,68.5,306.0,66.5,314.0,64.5,322.0,65.5" stroke="black" stroke-width="2" fill="none" />
<polyline points="292.5,62.5,268.5,87.0,243.5,109.5,217.0,133.0" stroke="black" stroke-width="2" fill="none" />
<polyline points="218.0,127.5,242.5,127.5" stroke="black" stroke-width="2" fill="none" />
<polyline points="231.5,106.0,220.0,114.5,218.0,122.5,220.0,127.0,229.0,129.5,237.5,130.5,245.5,130.0,253.5,130.5,261.5,128.0,269.5,123.0,277.5,119.5,285.5,115.0,286.0,111.5,297.0,117.5,305.0,118.5,308.0,108.5" stroke="black" stroke-width="2" fill="none" />
<polyline points="311.5,107.0,306.5,115.0,295.5,116.0,297.0,124.5,289.0,132.5,296.5,125.5" stroke="black" stroke-width="2" fill="none" />
<polyline points="306.5,123.5,315.0,116.0,323.0,116.0,330.5,119.0,338.5,126.0" stroke="black" stroke-width="2" fill="none" />
<polyline points="339.0,133.0,363.5,108.5,388.5,84.5" stroke="black" stroke-width="2" fill="none" />
<polyline points="383.0,93.5,359.5,96.0,334.5,98.5,309.5,98.0,285.0,98.5,261.0,99.0,236.5,98.0,210.0,97.5" stroke="black" stroke-width="2" fill="none" />
<polyline points="206.0,107.0,198.5,106.0,190.5,107.0,181.5,117.0,174.0,128.0,172.0,143.0" stroke="black" stroke-width="2" fill="none" />
<polyline points="174.5,131.5,176.5,119.5,170.5,127.5,168.5,135.5,163.5,144.0,164.5,128.5,167.5,116.5" stroke="black" stroke-width="2" fill="none" />
<polyline points="172.5,118.0,180.5,115.0,182.0,102.5,189.0,102.0" stroke="black" stroke-width="2" fill="none" />
<polyline points="184.0,97.0,170.0,104.5,163.5,112.5,157.5,121.0,154.5,129.0,152.5,137.0,154.5,144.5,151.5,152.5,151.0,160.5,142.5,168.5,136.5,176.5,130.5,184.5,122.5,193.0,113.0,201.5,106.0,209.5,104.0,217.5,104.0,225.5,108.0,233.5,113.0,241.5,120.0,249.0" stroke="black" stroke-width="2" fill="none" />
<polyline points="120.0,223.0,145.0,222.5,169.0,222.5,192.5,222.0,215.0,221.0,239.5,220.0,263.0,219.0,285.5,216.5,309.0,215.5,334.0,215.0,358.0,215.5,384.0,215.0,408.5,214.5" stroke="black" stroke-width="2" fill="none" />
<polyline points="383.5,205.5,357.5,205.5" stroke="black" stroke-width="2" fill="none" />
<polyline points="366.0,201.0,358.0,200.5,352.5,201.5,344.5,200.5" stroke="black" stroke-width="2" fill="none" />
<polyline points="326.5,218.0,330.0,226.0,336.0,234.5,337.0,242.5,331.0,250.5,330.0,251.5,338.0,242.0,342.0,243.0,350.5,245.5" stroke="black" stroke-width="2" fill="none" />
<polyline points="378.0,247.0,376.5,254.5,388.5,243.5,396.0,233.0" stroke="black" stroke-width="2" fill="none" />
<polyline points="405.0,198.5,397.0,212.5,394.0,228.5,396.0,220.5,399.0,216.0,403.5,207.5,408.5,199.5,411.5,191.5,413.5,183.5,413.5,175.5" stroke="black" stroke-width="2" fill="none" />
<polyline points="411.5,176.5,411.0,168.0,413.0,165.0" stroke="black" stroke-width="2" fill="none" />
<polyline points="411.0,155.5,385.5,158.5,361.5,160.0,336.0,161.0,309.5,160.5,284.0,161.0,256.5,162.0,230.5,162.0,204.5,161.0,178.5,160.5,152.0,161.5" stroke="black" stroke-width="2" fill="none" />
<polyline points="151.0,154.0,154.0,157.0,154.0,165.0,157.0,173.5" stroke="black" stroke-width="2" fill="none" />
<polyline points="162.5,164.5,187.5,140.0" stroke="black" stroke-width="2" fill="none" />
<polyline points="183.5,150.0,158.0,150.5" stroke="black" stroke-width="2" fill="none" />
<polyline points="164.5,133.5,190.0,133.5,216.0,134.5,242.0,136.0,267.0,137.5,292.5,138.0,319.5,140.0,344.5,142.0,368.5,143.0,393.0,143.5,418.5,144.5" stroke="black" stroke-width="2" fill="none" />
<polyline points="410.0,154.0,413.0,162.0,415.0,170.0,415.5,178.0,415.5,186.0,415.5,194.0,413.0,202.0,410.0,210.0,404.5,218.5,397.5,226.5,394.5,234.5,388.0,242.5,380.0,250.5,373.0,258.5,367.0,266.5,366.0,275.0,353.0,282.5,352.0,291.0,360.0,299.0" stroke="black" stroke-width="2" fill="none" />
<polyline points="251.5,284.5,252.5,276.0,255.5,268.0,261.5,260.0,255.5,252.0,254.5,244.5,256.0,236.5,261.0,228.5,268.5,220.5" stroke="black" stroke-width="2" fill="none" />
<polyline points="224.0,219.5,216.0,221.5,204.0,215.5,196.0,215.5" stroke="black" stroke-width="2" fill="none" />
<polyline points="196.0,216.0,204.0,213.0,212.0,212.0,224.0,202.5,232.0,200.0,239.5,200.5" stroke="black" stroke-width="2" fill="none" />
<polyline points="243.0,186.0,235.0,186.0,227.5,187.0,220.0,187.0,210.0,178.5,202.5,178.5,194.5,183.5,183.5,196.0,179.5,192.0,181.5,184.0,185.5,171.0,182.5,171.0,181.5,163.0,187.0,160.5,193.5,152.0,208.5,143.5,198.5,142.5,190.5,145.5,182.5,149.5,174.0,149.5,171.0,146.0,172.0,137.5,173.0,132.5,171.5,129.5,177.5,121.0,177.0,118.0,168.5,128.0" stroke="black" stroke-width="2" fill="none" />
<polyline points="154.5,125.5,162.5,113.5,170.5,104.5,178.5,100.0,187.0,97.0,195.0,96.0" stroke="black" stroke-width="2" fill="none" />
<polyline points="186.0,86.5,212.0,61.5,238.0,37.5" stroke="black" stroke-width="2" fill="none" />
<polyline points="243.0,37.0,251.0,43.0,258.5,56.0,266.5,59.5,274.5,59.0,282.5,60.0,290.5,63.0,298.5,63.0,306.5,60.0,315.0,59.0,322.5,59.0,331.0,60.0,335.5,62.0,343.5,64.0,351.5,67.0,359.5,73.0,367.0,80.0,375.0,97.5,382.5,105.5,390.5,112.5" stroke="black" stroke-width="2" fill="none" />
<polyline points="394.0,115.0,368.5,117.0,341.5,117.5,313.0,116.5,286.0,114.5,261.5,115.0,237.5,115.5,212.0,114.0,185.5,112.0,160.0,111.0" stroke="black" stroke-width="2" fill="none" />
<polyline points="197.5,116.0,193.5,118.0,201.5,116.0" stroke="black" stroke-width="2" fill="none" />
<polyline points="204.0,106.0,208.0,114.0,207.0,122.5,207.5,131.0,206.0,138.0,190.0,146.0" stroke="black" stroke-width="2" fill="none" />
<polyline points="177.0,159.0,177.0,161.0,178.5,169.0,180.5,177.0,185.0,179.5,195.0,176.5,203.0,173.5" stroke="black" stroke-width="2" fill="none" />
<polyline points="198.5,162.5,189.0,170.0,188.0,178.5,185.0,190.0,193.0,192.0,201.0,190.5,209.0,184.5" stroke="black" stroke-width="2" fill="none" />
<polyline points="215.0,190.5,215.0,182.5,219.0,174.0" stroke="black" stroke-width="2" fill="none" />
<polyline points="209.5,163.5,202.0,163.5,194.0,166.5,195.5,176.5,208.5,168.0,212.5,165.5,217.5,157.5,216.0,148.0,219.0,139.5" stroke="black" stroke-width="2" fill="none" />
<polyline points="219.0,107.5,227.0,100.5,235.0,96.0,243.0,93.5,251.5,91.5,259.5,90.5,267.5,90.5,275.5,91.5,284.0,93.5,292.0,97.0" stroke="black" stroke-width="2" fill="none" />
<polyline points="285.5,100.5,277.5,103.5,267.5,104.0,259.5,103.5,251.5,103.5,243.5,103.5,239.0,108.5,232.0,110.5,224.0,115.5,220.5,110.5,226.0,102.5,240.0,94.5" stroke="black" stroke-width="2" fill="none" />
<polyline points="253.5,83.0,250.0,80.0,249.0,77.5" stroke="black" stroke-width="2" fill="none" />
<polyline points="267.0,87.0,274.5,88.0,282.5,89.0,290.5,91.5,298.5,92.5,306.5,94.5" stroke="black" stroke-width="2" fill="none" />
<polyline points="319.5,81.5,311.5,81.0,303.5,77.5,295.5,77.5,287.5,77.5" stroke="black" stroke-width="2" fill="none" />
<polyline points="286.0,80.0,294.0,81.0,302.0,81.5,310.0,84.5,310.0,85.0" stroke="black" stroke-width="2" fill="none" />
<polyline points="282.0,93.0,282.0,102.5,283.5,115.5,268.0,122.5" stroke="black" stroke-width="2" fill="none" />
<polyline points="283.5,131.0,310.0,130.0" stroke="black" stroke-width="2" fill="none" />
<polyline points="308.0,134.5,316.0,147.5,324.0,152.0,327.5,155.0" stroke="black" stroke-width="2" fill="none" />
<polyline points="357.5,162.0,353.5,169.5,349.5,176.0,357.5,162.0" stroke="black" stroke-width="2" fill="none" />
<polyline points="371.0,153.0,372.5,161.0,367.5,169.0,364.5,177.0,350.0,187.5" stroke="black" stroke-width="2" fill="none" />
<polyline points="397.5,158.0,399.5,150.0,392.5,140.0,395.0,127.5,393.0,119.5,389.0,120.0,381.0,117.0" stroke="black" stroke-width="2" fill="none" />
<polyline points="346.5,141.5,343.5,133.5,337.5,125.5,326.5,117.0" stroke="black" stroke-width="2" fill="none" />
<polyline points="315.0,114.0,305.5,122.0,305.5,130.0,309.0,138.0,314.0,146.5,321.5,154.0,321.5,162.5,320.0,168.5,315.0,176.5,307.0,181.0,303.0,188.5,306.0,197.0,305.0,207.5,305.0,215.5,304.0,224.0,306.0,229.0,314.0,228.0,323.0,223.0,334.0,223.0,341.0,213.0,348.5,209.0,360.5,210.0" stroke="black" stroke-width="2" fill="none" />
<polyline points="271.5,153.5,267.0,161.0,258.5,165.0,270.5,158.0,275.0,153.5,273.0,146.0" stroke="black" stroke-width="2" fill="none" />
<polyline points="275.5,148.0,267.5,145.5,259.5,155.5,257.5,160.5,261.5,152.5,269.0,144.5" stroke="black" stroke-width="2" fill="none" />
<polyline points="279.0,76.5,263.0,84.5,268.0,82.0,276.0,79.0,284.0,76.5,292.0,74.5,299.5,73.5,307.0,73.0,315.0,72.5" stroke="black" stroke-width="2" fill="none" />
<polyline points="336.5,68.0,313.5,67.5,287.0,66.0,262.0,65.0,236.5,65.5,209.5,66.5,185.0,67.0" stroke="black" stroke-width="2" fill="none" />
<polyline points="194.0,52.5,202.0,49.5,199.0,61.0,204.0,68.0,215.5,64.5" stroke="black" stroke-width="2" fill="none" />
<polyline points="201.5,59.5,207.0,60.5,203.0,68.5,203.0,78.5,205.0,82.0,205.0,89.0,197.0,101.5,201.0,96.5,211.0,88.5,220.0,86.5" stroke="black" stroke-width="2" fill="none" />
<polyline points="188.5,40.5,196.5,35.5,199.0,33.5,192.0,42.5,191.0,51.0,193.0,59.0,192.0,67.0,195.0,75.5,197.0,83.5,201.0,92.0,197.0,97.5,189.0,101.5,187.5,107.5,185.0,113.5,165.0,116.5,159.0,125.5,163.0,129.5,158.0,137.5,157.0,145.5,167.0,148.5,165.5,156.5,163.0,164.5,161.5,172.5,166.5,177.5" stroke="black" stroke-width="2" fill="none" />
<polyline points="150.5,184.5,142.5,188.5" stroke="black" stroke-width="2" fill="none" />
<polyline points="140.5,183.5,136.0,192.5,132.0,188.5,141.0,186.5,141.0,178.5" stroke="black" stroke-width="2" fill="none" />
<polyline points="146.5,199.5,144.5,207.5,139.5,213.5,137.5,218.5,143.5,209.0" stroke="black" stroke-width="2" fill="none" />
<polyline points="143.0,201.0,141.0,198.5,134.5,201.5,126.5,204.5" stroke="black" stroke-width="2" fill="none" />
<polyline points="120.0,210.0,128.5,208.0,134.5,205.5,138.5,206.5,137.0,214.5" stroke="black" stroke-width="2" fill="none" />
<polyline points="124.5,196.0,116.0,201.0" stroke="black" stroke-width="2" fill="none" />
<polyline points="105.0,213.0,112.5,202.0,121.0,196.5,129.0,188.5,137.5,179.5,145.5,168.5,153.0,168.0,154.0,170.5,155.0,178.5,145.0,186.0,135.0,189.5,128.0,193.5,118.0,201.0,112.0,209.0,115.5,221.5,126.5,217.5,126.5,218.0,124.5,226.0" stroke="black" stroke-width="2" fill="none" />
<polyline points="126.0,224.5,118.5,221.0,114.5,214.5,106.5,218.5" stroke="black" stroke-width="2" fill="none" />
<polyline points="163.5,204.0,189.5,203.5" stroke="black" stroke-width="2" fill="none" />
<polyline points="185.0,42.5,208.5,42.0,232.5,41.0,258.5,41.0" stroke="black" stroke-width="2" fill="none" />
</svg>