<svg xmlns="http://www.w3.org/2000/svg" version="1.1"><polyline points="161.0,31.5,144.5,39.5,128.5,48.0,116.5,56.0,110.5,64.5,108.5,72.5,104.5,80.5,103.5,88.5,101.5,97.0,99.0,105.0,98.0,113.0,95.0,121.0,94.0,128.5,92.5,136.5,91.5,145.0,90.5,153.5,90.0,161.0,88.0,168.5,88.0,176.5,88.5,184.5,88.0,192.5,87.5,200.5,87.5,208.5,87.5,216.0,87.5,224.0,87.5,231.5,88.5,239.0,88.5,247.0,90.5,248.0,90.5,256.0,91.5,264.0,93.5,272.0,94.5,280.0,95.5,287.5,98.0,294.5,100.0,303.0,102.0,311.5,103.0,320.0,105.0,328.5,108.0,333.5,110.0,341.5,112.0,349.5,115.0,357.5,117.0,365.0,119.5,372.5,123.0,381.0,125.0,389.0,127.5,397.5,129.5,405.5,133.0,413.0,136.0,421.0,140.0,429.5,142.0,437.5,145.0,445.5,148.5,453.5,153.0,462.0,162.0,470.0,167.5,478.0,176.5,486.0,182.5,494.0,190.5,502.0" stroke="black" stroke-width="2" fill="none" />
<polyline points="185.0,517.0,233.5,517.0,282.5,514.5,330.0,512.0" stroke="black" stroke-width="2" fill="none" />
<polyline points="326.0,526.5,375.0,479.0" stroke="black" stroke-width="2" fill="none" />
<polyline points="320.0,482.5,271.0,530.5" stroke="black" stroke-width="2" fill="none" />
<polyline points="225.0,521.0,274.0,470.0" stroke="black" stroke-width="2" fill="none" />
<polyline points="276.5,462.0,272.5,454.5" stroke="black" stroke-width="2" fill="none" />
<polyline points="305.0,455.5,306.5,447.5,307.5,439.0,308.0,431.0" stroke="black" stroke-width="2" fill="none" />
<polyline points="310.5,429.5,310.5,437.5,309.0,445.0,308.0,453.5,306.0,461.5,320.0,468.5" stroke="black" stroke-width="2" fill="none" />
<polyline points="328.5,438.0,334.5,430.0,333.5,426.0,338.5,418.0,345.5,410.0,345.0,402.0,346.0,393.5,349.0,385.5,351.0,377.5,355.5,370.0,358.0,362.0,363.0,354.0,367.0,346.0,372.0,337.5,376.0,329.5,381.0,321.5,386.0,313.5,390.5,306.0,395.5,298.0,400.5,290.0,405.5,282.5,411.5,274.5,411.5,266.5,410.5,258.5,407.5,254.0,411.5,245.5,405.0,236.5,402.0,234.5,400.5,226.5,399.0,218.5,397.0,211.0,397.0,203.0,397.0,195.0,397.5,187.0,397.0,178.5,397.5,170.0,397.5,161.5,398.0,153.5,398.0,145.5,399.0,137.5,399.0,129.5,396.5,124.5" stroke="black" stroke-width="2" fill="none" />
<polyline points="368.5,123.0,418.5,76.5" stroke="black" stroke-width="2" fill="none" />
<polyline points="417.5,91.0,367.5,92.5" stroke="black" stroke-width="2" fill="none" />
<polyline points="387.5,92.0,398.5,100.0,398.5,108.5,398.0,116.5,397.0,124.5,395.5,133.0,392.5,142.0,392.5,149.5,392.5,157.5,390.0,165.5,390.0,173.5,389.0,181.5,388.0,189.5,386.5,198.0,385.5,205.5,383.5,213.5,383.5,221.0,382.0,229.0,370.0,237.0,366.0,241.5" stroke="black" stroke-width="2" fill="none" />
<polyline points="361.5,255.0,353.5,257.0,345.0,259.0,336.5,261.0,329.5,264.0,322.0,265.0,314.0,265.5,305.5,267.5,297.5,268.0" stroke="black" stroke-width="2" fill="none" />
<polyline points="297.5,269.0,299.5,276.5" stroke="black" stroke-width="2" fill="none" />
<polyline points="298.0,271.5,306.5,280.5,314.5,280.5,322.5,281.0,330.5,281.5,338.0,281.5,346.5,281.5,355.0,281.0,363.0,276.0,371.5,270.0,379.5,262.5,387.0,255.5" stroke="black" stroke-width="2" fill="none" />
<polyline points="390.5,255.5,383.0,263.0,375.0,270.0,367.0,276.0,359.0,281.5,351.0,284.0,343.0,284.0,335.5,284.0,328.0,284.0,320.0,284.0,312.0,284.0,304.0,284.5,300.0,282.5,297.0,274.5,294.0,266.0" stroke="black" stroke-width="2" fill="none" />
<polyline points="294.5,266.0,302.5,265.0,311.0,263.0,319.5,263.0,327.5,262.0,336.0,259.0,344.0,258.0,351.5,255.0,359.5,253.0,367.0,248.5,375.0,244.0,383.0,240.5,391.0,244.5,389.5,249.5,385.0,257.5,376.0,265.5,366.0,273.5" stroke="black" stroke-width="2" fill="none" />
<polyline points="373.0,275.0,320.5,326.5" stroke="black" stroke-width="2" fill="none" />
<polyline points="330.5,309.5,379.5,309.5" stroke="black" stroke-width="2" fill="none" />
<polyline points="376.0,323.0,369.0,331.0,362.5,339.0,356.5,346.5,351.0,355.0,346.0,363.0,341.0,370.5,336.0,378.5,331.0,386.5,325.5,394.0,320.5,402.0,316.5,409.5,318.0,419.5,326.0,428.0" stroke="black" stroke-width="2" fill="none" />
<polyline points="332.5,433.0,324.0,439.0,316.0,433.0,308.0,429.5,300.0,429.5,292.5,429.5,284.5,429.5,276.5,429.0,268.5,429.0,260.5,428.5,252.5,429.0,244.5,429.0,236.5,428.5,228.0,428.5,220.0,428.5,211.5,428.5,203.5,429.5,196.0,434.0,188.0,439.0,180.0,430.0,172.0,416.5" stroke="black" stroke-width="2" fill="none" />
<polyline points="169.5,414.5,176.0,422.5,182.0,430.5,189.0,438.5" stroke="black" stroke-width="2" fill="none" />
<polyline points="204.0,431.0,205.5,439.0,206.5,447.0,206.5,455.0,205.5,463.5" stroke="black" stroke-width="2" fill="none" />
<polyline points="222.5,472.0,175.0,522.0" stroke="black" stroke-width="2" fill="none" />
<polyline points="179.0,486.5,230.0,483.5,279.0,481.0,328.0,478.5,377.0,476.0" stroke="black" stroke-width="2" fill="none" />
<polyline points="367.5,411.5,417.5,362.5" stroke="black" stroke-width="2" fill="none" />
<polyline points="413.5,315.5,363.5,367.5" stroke="black" stroke-width="2" fill="none" />
<polyline points="354.5,367.0,362.0,353.0,370.5,338.0" stroke="black" stroke-width="2" fill="none" />
<polyline points="368.5,335.5,363.0,343.5,357.0,351.5,351.0,359.5,346.0,367.0,340.0,375.0,336.0,383.0,330.5,391.0,324.5,399.0,321.0,407.5,318.0,412.0,326.0,398.0,333.5,385.5,342.0,372.5,350.0,360.5,358.0,348.5,366.0,338.5" stroke="black" stroke-width="2" fill="none" />
<polyline points="369.0,342.5,416.0,340.5" stroke="black" stroke-width="2" fill="none" />
<polyline points="416.5,349.0,369.0,349.0" stroke="black" stroke-width="2" fill="none" />
<polyline points="331.0,386.5,382.0,387.0,432.0,387.0" stroke="black" stroke-width="2" fill="none" />
<polyline points="424.5,403.0,376.0,404.5" stroke="black" stroke-width="2" fill="none" />
<polyline points="318.5,416.0,326.5,424.0,334.0,425.5,341.5,413.5,343.5,416.0,338.5,424.5,342.5,419.5,348.5,416.0,350.5,424.5,351.5,432.5,354.5,435.0,355.5,443.5,350.0,451.5,342.0,459.5,336.0,467.5,329.0,471.5" stroke="black" stroke-width="2" fill="none" />
<polyline points="347.5,453.5,339.5,463.5,330.5,472.0,322.5,470.5,319.0,466.0,311.0,463.5,299.0,461.5,291.5,461.5,283.5,461.5,275.0,454.5,267.0,452.5,259.0,452.5,250.5,452.5,242.5,452.0,234.5,461.0,226.5,461.0,219.0,461.0,211.5,460.0,205.0,463.5,197.0,466.5,189.0,470.5,181.5,469.5,174.5,462.5,168.0,454.5,162.5,446.5,160.0,438.5,164.0,430.5,165.0,422.5,167.0,415.0,166.5,417.0" stroke="black" stroke-width="2" fill="none" />
<polyline points="169.0,410.5,177.0,421.5,185.5,428.5,194.0,421.0" stroke="black" stroke-width="2" fill="none" />
<polyline points="205.5,428.5,194.5,437.0" stroke="black" stroke-width="2" fill="none" />
<polyline points="208.0,431.0,209.0,439.5,210.0,447.5,211.0,455.5" stroke="black" stroke-width="2" fill="none" />
<polyline points="175.0,462.5,167.0,452.5,158.5,444.0" stroke="black" stroke-width="2" fill="none" />
<polyline points="150.5,453.5,158.0,463.0,166.0,471.0,174.5,479.5,182.5,488.5,190.5,496.5,198.5,501.5,206.0,502.0,214.0,502.0,222.0,501.5,230.0,502.0,238.5,501.5,246.5,501.5,254.5,501.5,262.5,502.0,270.5,502.0,278.5,502.0,287.0,502.0,295.0,501.5,303.0,501.5,310.5,501.5,318.5,501.5,326.5,496.0,334.5,488.5,342.5,479.5,350.0,470.5,358.5,461.5,366.5,448.5,374.5,430.0" stroke="black" stroke-width="2" fill="none" />
<polyline points="324.0,440.0,314.0,432.0" stroke="black" stroke-width="2" fill="none" />
<polyline points="178.5,368.0,130.0,415.5" stroke="black" stroke-width="2" fill="none" />
<polyline points="128.5,410.5,177.0,410.5" stroke="black" stroke-width="2" fill="none" />
<polyline points="185.0,367.5,136.0,370.5" stroke="black" stroke-width="2" fill="none" />
<polyline points="122.5,373.5,169.5,325.0,217.0,276.5" stroke="black" stroke-width="2" fill="none" />
<polyline points="226.5,309.5,175.0,307.5" stroke="black" stroke-width="2" fill="none" />
<polyline points="170.0,283.0,219.5,282.5" stroke="black" stroke-width="2" fill="none" />
<polyline points="218.5,220.0,269.0,172.5,317.5,126.0" stroke="black" stroke-width="2" fill="none" />
<polyline points="319.5,146.5,269.5,145.0,218.0,144.5" stroke="black" stroke-width="2" fill="none" />
<polyline points="221.0,128.0,273.0,81.0,323.5,33.5" stroke="black" stroke-width="2" fill="none" />
<polyline points="312.5,62.0,312.5,63.0,313.0,71.0,310.0,79.5,308.5,88.0,308.5,96.5,307.5,104.5,307.5,112.5,306.5,120.5,305.5,128.5,304.5,136.0,304.0,144.5,304.0,152.5,300.0,161.0,300.5,169.0,300.0,177.0,299.0,185.0,296.0,193.0" stroke="black" stroke-width="2" fill="none" />
<polyline points="275.5,215.5,327.0,166.0" stroke="black" stroke-width="2" fill="none" />
<polyline points="320.0,173.0,267.5,173.5,218.5,173.5" stroke="black" stroke-width="2" fill="none" />
<polyline points="222.5,187.0,274.5,137.0,328.0,84.5,380.5,34.5" stroke="black" stroke-width="2" fill="none" />
<polyline points="382.0,45.0,394.0,53.0,403.5,60.5,406.0,69.0,408.0,77.5,411.0,85.0,413.0,93.5,414.5,101.5,415.5,109.5,416.5,117.5,419.5,123.5,420.5,131.0,421.5,139.0,422.5,146.5,423.5,154.5,423.5,162.5,425.0,170.5,425.5,179.0" stroke="black" stroke-width="2" fill="none" />
<polyline points="427.0,172.0,427.5,180.0,427.0,188.0,428.0,195.5,427.5,203.0,427.0,210.5,427.0,218.0,427.5,226.0,426.5,234.0,424.0,242.5,424.0,250.5,423.0,258.5,422.5,266.5,422.0,275.0,421.0,283.5,418.5,291.5,417.5,300.0,416.0,308.0,414.0,316.0,413.0,324.0,410.0,332.0,408.0,340.0,406.5,348.0,402.5,356.0,400.0,364.0,398.0,372.0,393.5,379.5,391.5,387.5,388.0,395.5,384.0,403.0,382.0,411.0,380.0,419.0,376.0,427.0,373.5,435.5,368.5,443.5,367.0,451.5,362.0,459.0,355.5,466.5,347.5,474.0,340.5,482.0,333.5,490.0,325.5,498.0" stroke="black" stroke-width="2" fill="none" />
<polyline points="329.0,280.0,380.5,279.5" stroke="black" stroke-width="2" fill="none" />
<polyline points="406.5,280.5,397.0,296.5,390.0,306.5,382.0,318.0,372.0,327.0,364.0,337.0,356.0,347.5,348.0,357.0,340.0,370.0,332.0,382.0,324.0,395.5,316.0,410.5,308.0,416.0,300.0,416.0,292.0,416.0,284.0,416.0,276.0,416.5,268.0,417.0,260.0,417.0,252.5,416.5,244.0,416.5,236.0,416.5,228.0,416.0,220.0,416.5,211.5,416.5,203.5,416.5,195.5,413.5,194.0,406.0,186.0,392.0,178.0,379.0,170.5,366.0,162.5,353.0,155.0,343.0,147.0,333.0,139.0,324.5,132.0,317.5,124.0,305.5,116.5,294.5,107.0,278.0" stroke="black" stroke-width="2" fill="none" />
<polyline points="122.5,254.5,130.5,261.0,139.0,270.0,147.0,274.5,154.5,280.5,162.5,284.0,171.0,284.0,179.0,284.0,186.5,284.5,194.5,284.5,202.5,284.5,210.5,284.5,219.0,272.5,216.5,273.5" stroke="black" stroke-width="2" fill="none" />
<polyline points="214.0,204.0,264.0,207.0,313.5,208.0" stroke="black" stroke-width="2" fill="none" />
<polyline points="303.5,165.0,304.0,157.0" stroke="black" stroke-width="2" fill="none" />
<polyline points="362.5,119.0,412.5,119.5" stroke="black" stroke-width="2" fill="none" />
<polyline points="398.0,99.5,391.0,94.5,383.0,90.5,379.0,87.5,370.5,84.0,363.0,81.0,360.0,78.5,352.0,75.5,344.0,73.5,336.0,71.5,331.5,68.5,324.0,66.0,316.0,65.0" stroke="black" stroke-width="2" fill="none" />
<polyline points="315.0,76.5,315.0,84.5,314.0,92.5" stroke="black" stroke-width="2" fill="none" />
<polyline points="280.5,24.0,230.0,76.5" stroke="black" stroke-width="2" fill="none" />
<polyline points="224.0,93.0,276.0,93.0,324.0,91.5" stroke="black" stroke-width="2" fill="none" />
<polyline points="323.0,123.0,271.5,123.0,222.0,122.0" stroke="black" stroke-width="2" fill="none" />
<polyline points="223.0,110.5,272.5,108.5,321.5,109.5" stroke="black" stroke-width="2" fill="none" />
<polyline points="375.5,68.0,325.0,67.0,273.5,66.5,221.5,65.5,170.5,66.5" stroke="black" stroke-width="2" fill="none" />
<polyline points="181.5,46.0,230.5,46.5,276.0,44.5,322.0,43.0,370.5,42.0" stroke="black" stroke-width="2" fill="none" />
<polyline points="405.5,67.0,397.5,54.0,389.5,50.0,381.5,45.0,374.0,42.0,366.0,37.0,358.0,34.5,350.0,33.0,342.0,27.5,334.0,25.5,328.0,22.0,320.5,20.0,312.5,18.0,304.5,17.0,296.5,15.0,292.5,12.5,285.0,11.0,277.0,11.5,269.0,11.5,261.0,10.5,252.5,10.5,244.0,11.5,235.5,11.5,227.0,12.5,219.0,15.0,211.5,16.5,204.0,18.5,196.0,21.0,188.0,23.0,180.0,25.5,172.0,28.0,164.0,32.0,155.5,35.0,147.5,38.5,140.5,42.5,132.5,46.0,125.0,50.5,117.0,54.5,109.0,66.5" stroke="black" stroke-width="2" fill="none" />
<polyline points="122.0,78.0,175.5,79.0" stroke="black" stroke-width="2" fill="none" />
<polyline points="180.0,107.0,131.5,109.5" stroke="black" stroke-width="2" fill="none" />
<polyline points="116.5,100.5,124.5,94.5,132.5,91.5,140.0,86.5,148.0,83.0,155.5,77.5,163.5,75.0,171.5,72.0,179.0,68.0,187.0,66.0,195.0,62.5,200.0,63.5,200.5,71.5,201.0,79.5,202.0,87.5,202.5,95.0" stroke="black" stroke-width="2" fill="none" />
<polyline points="205.5,80.0,205.5,88.0,206.0,95.5,206.0,103.5,205.5,111.5,206.5,119.0,207.5,127.0,208.0,135.5,209.0,144.0,209.5,152.0,210.0,160.0,213.0,160.0,213.5,167.5,213.5,175.5,215.5,183.5,217.5,191.5,222.5,194.5,227.0,198.5,235.5,198.0,244.0,197.5,252.0,197.5,260.0,197.5,267.5,197.5,275.5,198.0,283.0,198.0,291.0,197.0" stroke="black" stroke-width="2" fill="none" />
<polyline points="364.0,239.0,355.5,242.0,347.5,245.0,339.5,247.0,331.5,249.0,323.5,251.0,315.5,252.0,307.5,254.0,299.0,254.5,291.0,255.5,283.0,255.5,275.5,257.0,267.5,257.0,259.5,257.5,251.5,257.0,243.5,257.0,235.5,256.5,227.5,256.5,219.5,257.0,212.0,255.0,203.5,255.0,197.0,253.0,189.0,250.5,180.5,249.0,172.5,244.5,164.5,242.5,156.0,239.5,147.5,237.5,139.5,233.0,131.5,228.0" stroke="black" stroke-width="2" fill="none" />
<polyline points="128.5,228.0,136.5,235.0" stroke="black" stroke-width="2" fill="none" />
<polyline points="132.5,243.5,149.0,251.5" stroke="black" stroke-width="2" fill="none" />
<polyline points="125.5,252.0,133.5,259.0,141.5,266.0,149.5,273.5,157.5,279.0,165.5,281.0,174.0,281.0,181.5,281.0,190.0,281.0,198.5,281.0,206.5,281.0,214.5,276.0" stroke="black" stroke-width="2" fill="none" />
<polyline points="182.5,339.5,134.5,341.5" stroke="black" stroke-width="2" fill="none" />
<polyline points="145.0,333.5,153.0,344.5,161.0,355.5,169.0,367.5,176.0,378.0,184.0,391.5" stroke="black" stroke-width="2" fill="none" />
<polyline points="227.0,387.5,177.5,389.5,129.0,392.5" stroke="black" stroke-width="2" fill="none" />
<polyline points="128.0,401.5,136.0,421.5" stroke="black" stroke-width="2" fill="none" />
<polyline points="162.5,372.5,154.0,355.5,146.0,342.0,138.0,327.5" stroke="black" stroke-width="2" fill="none" />
<polyline points="137.5,324.0,144.5,331.5,148.0,339.5,152.0,347.0,158.0,355.5,164.5,363.5,169.5,371.0,174.5,378.5,179.5,386.5,185.5,394.5,189.0,402.5,194.5,410.5,199.5,413.5,192.5,422.0" stroke="black" stroke-width="2" fill="none" />
<polyline points="192.5,404.0,189.5,396.0,184.0,388.0,180.0,380.0,175.0,372.0,170.0,365.0,165.0,357.5,159.0,349.5,153.5,341.0,147.5,333.0" stroke="black" stroke-width="2" fill="none" />
<polyline points="212.0,268.0,204.0,267.0,196.0,266.0,188.0,264.0,180.0,262.5,175.5,260.0,167.5,258.0,159.5,255.0,151.5,251.0,143.5,249.0,135.5,244.0,127.5,241.5" stroke="black" stroke-width="2" fill="none" />
<polyline points="126.5,242.0,124.5,250.0,132.0,258.0,141.0,266.0,151.0,274.0" stroke="black" stroke-width="2" fill="none" />
<polyline points="123.0,242.5,131.0,239.5,139.5,245.0,147.5,248.0,155.5,252.0,163.5,254.0,172.0,257.5,180.0,259.0,188.0,262.0,196.0,264.5,204.0,264.5,212.0,266.5,220.0,267.0,218.0,276.5" stroke="black" stroke-width="2" fill="none" />
<polyline points="149.5,278.5,139.5,270.5,130.5,263.0,123.0,255.0,124.0,247.0,126.0,239.0" stroke="black" stroke-width="2" fill="none" />
<polyline points="111.0,249.0,103.0,247.0" stroke="black" stroke-width="2" fill="none" />
<polyline points="102.5,240.5,110.5,238.5,114.5,241.0,107.5,252.0" stroke="black" stroke-width="2" fill="none" />
<polyline points="165.5,247.0,143.5,239.0,130.5,231.5,128.0,223.5,126.0,216.0,126.0,208.0,128.5,200.5,128.0,192.5,128.0,184.5,126.0,177.0,126.5,168.5" stroke="black" stroke-width="2" fill="none" />
<polyline points="122.0,152.5,122.0,160.5,122.0,169.0,122.5,177.0,123.5,185.0,124.0,193.0,125.0,201.0,128.5,209.5,128.5,217.5,130.5,224.5,135.5,232.5,143.5,238.0,151.0,242.0,159.0,244.5,165.5,247.5,173.5,250.0,182.0,252.0,190.0,254.0,196.5,256.5,204.5,257.5,212.5,257.5,220.5,259.5,229.0,259.5,237.5,260.5,245.5,260.5,253.5,261.0,261.5,261.0,269.5,261.0,277.5,258.5,286.0,258.5,294.0,258.5,302.0,257.5,309.5,256.5,317.5,255.5,325.0,253.5,332.5,251.5,340.5,249.5,349.0,247.0,357.0,244.0,365.0,241.5,376.0,232.5" stroke="black" stroke-width="2" fill="none" />
<polyline points="381.5,238.5,366.5,246.5,367.5,250.0,375.5,246.5,383.5,241.5" stroke="black" stroke-width="2" fill="none" />
<polyline points="382.0,242.5,367.0,251.0" stroke="black" stroke-width="2" fill="none" />
<polyline points="392.0,244.0,393.5,252.0,386.5,260.5,377.0,268.5,367.0,277.0" stroke="black" stroke-width="2" fill="none" />
<polyline points="403.0,246.0,411.0,247.5" stroke="black" stroke-width="2" fill="none" />
<polyline points="407.0,238.0,401.0,246.0,403.0,237.5" stroke="black" stroke-width="2" fill="none" />
<polyline points="382.5,231.0,374.5,236.0,375.5,235.0,385.5,227.5,387.0,219.5,389.0,212.5,389.0,205.0,390.5,197.0,391.5,188.5,392.5,181.0,393.5,173.0,393.5,165.0" stroke="black" stroke-width="2" fill="none" />
<polyline points="225.5,29.0,175.5,79.5,126.5,127.0" stroke="black" stroke-width="2" fill="none" />
<polyline points="119.0,127.0,120.0,135.0,120.5,144.0,120.0,152.0,120.0,160.0" stroke="black" stroke-width="2" fill="none" />
<polyline points="90.5,168.0,91.0,176.0" stroke="black" stroke-width="2" fill="none" />
<polyline points="128.5,92.0,116.5,100.5,116.5,108.5,117.5,116.5,117.5,124.5,116.0,132.5,116.0,141.0,117.0,149.0,117.5,157.5,117.5,165.5,119.0,173.0,118.5,181.5,119.0,189.5,119.0,197.5,119.0,205.5,118.0,213.0,116.0,221.0,113.5,229.0,109.5,237.0,101.0,242.0,103.0,250.0,103.0,257.0,102.5,264.5,101.5,272.5,105.5,277.5,110.0,285.5,113.0,289.0,118.0,297.5,124.0,305.5,128.5,313.5,133.0,322.0,139.0,330.0,143.0,337.5,148.0,345.0,152.0,353.0,157.0,361.0,160.0,369.0,164.0,376.5,166.0,384.5,168.0,392.0,169.0,400.0,169.0,408.0,175.0,416.5,181.0,425.0" stroke="black" stroke-width="2" fill="none" />
</svg>