<svg xmlns="http://www.w3.org/2000/svg" version="1.1"><polyline points="199.5,4.0,212.0,12.0,219.5,20.0,225.5,28.0,229.0,36.0,232.0,44.5,232.5,49.0,234.5,53.0,237.0,60.5,237.5,68.5,240.5,76.5,241.5,84.5,242.5,98.5,244.0,106.5,246.5,114.5,245.0,122.5,245.0,130.0,245.0,137.5,240.0,139.5,232.5,147.5" stroke="black" stroke-width="2" fill="none" />
<polyline points="228.5,135.0,176.5,184.5,124.5,233.5" stroke="black" stroke-width="2" fill="none" />
<polyline points="135.5,232.0,143.5,230.0,144.0,233.5,133.0,235.0,130.0,240.0,130.0,255.0,141.0,263.0,142.0,273.5,131.5,281.5,121.0,290.0,123.0,296.0,131.0,290.0,139.0,283.0" stroke="black" stroke-width="2" fill="none" />
<polyline points="121.5,303.0,74.5,301.5" stroke="black" stroke-width="2" fill="none" />
<polyline points="61.0,310.5,69.0,302.0,76.5,293.0,84.0,285.0,92.0,275.0,93.5,274.0,86.0,282.5,79.0,290.5,72.0,298.5,63.5,306.0,62.5,315.5,69.0,323.5" stroke="black" stroke-width="2" fill="none" />
<polyline points="76.0,326.0,68.0,321.0,60.0,313.5" stroke="black" stroke-width="2" fill="none" />
<polyline points="51.0,320.5,61.0,328.5,60.0,337.5,49.5,339.5,36.5,351.0,44.0,347.5,52.0,346.0,59.5,341.5" stroke="black" stroke-width="2" fill="none" />
<polyline points="50.0,342.5,42.0,344.0" stroke="black" stroke-width="2" fill="none" />
<polyline points="40.5,339.5,48.5,331.5,53.5,335.0,62.0,332.5" stroke="black" stroke-width="2" fill="none" />
<polyline points="84.0,336.0,36.5,336.5" stroke="black" stroke-width="2" fill="none" />
<polyline points="37.0,330.5,29.5,338.5" stroke="black" stroke-width="2" fill="none" />
<polyline points="26.0,330.5,28.5,327.0,31.0,326.5,29.0,320.0,21.0,328.5,17.0,337.5,20.5,329.5,26.5,321.5,16.5,326.5,16.5,320.0,8.5,311.0" stroke="black" stroke-width="2" fill="none" />
<polyline points="4.5,310.0,8.5,305.5,4.5,313.5,8.0,318.5,4.0,330.0,10.5,338.5,20.5,345.5" stroke="black" stroke-width="2" fill="none" />
<polyline points="27.5,350.5,19.5,344.5,11.0,336.5,2.5,324.5" stroke="black" stroke-width="2" fill="none" />
<polyline points="8.5,303.0,16.5,300.5,24.5,298.5,32.5,289.5,40.5,292.5,49.5,307.5,57.0,299.5,65.0,290.0,73.0,282.0" stroke="black" stroke-width="2" fill="none" />
<polyline points="75.0,283.0,127.0,281.5,179.0,277.5" stroke="black" stroke-width="2" fill="none" />
<polyline points="173.5,260.5,124.5,259.5" stroke="black" stroke-width="2" fill="none" />
<polyline points="122.0,257.0,130.0,260.0,138.0,264.0" stroke="black" stroke-width="2" fill="none" />
<polyline points="141.0,261.0,133.0,257.0" stroke="black" stroke-width="2" fill="none" />
<polyline points="131.0,255.5,139.0,258.5" stroke="black" stroke-width="2" fill="none" />
<polyline points="131.0,251.5,138.5,254.5,146.5,255.0,154.5,251.0,163.0,239.5" stroke="black" stroke-width="2" fill="none" />
<polyline points="165.0,233.5,113.0,238.0" stroke="black" stroke-width="2" fill="none" />
<polyline points="113.0,248.0,121.0,249.0,111.0,250.0,103.0,258.0,102.5,266.0,101.5,273.5,101.5,282.0,103.5,290.0,107.5,298.0" stroke="black" stroke-width="2" fill="none" />
<polyline points="101.5,299.5,93.5,304.5,92.5,305.5,93.0,305.5,103.5,297.5,101.5,290.0,97.5,281.5,97.5,273.5" stroke="black" stroke-width="2" fill="none" />
<polyline points="100.0,258.5,108.0,251.5,114.5,250.5,127.0,259.0,131.0,264.0" stroke="black" stroke-width="2" fill="none" />
<polyline points="128.5,248.0,136.5,250.0,145.0,238.5,153.5,238.0,161.5,235.5,170.0,229.5,164.5,238.0,156.5,246.0,152.0,254.0,150.0,247.0,160.0,244.5,168.0,238.5,169.0,235.0,176.5,224.0,184.5,221.5,192.5,228.0,201.0,235.0" stroke="black" stroke-width="2" fill="none" />
<polyline points="184.0,217.0,192.0,225.0,201.0,233.0,207.5,240.5,208.0,249.0,209.5,257.0,212.5,265.0,217.5,272.5,228.5,280.5,234.5,288.5,243.0,296.5,253.0,304.5,263.5,312.5,277.0,323.0,280.0,331.0,280.0,336.0,285.0,343.0,292.0,350.5" stroke="black" stroke-width="2" fill="none" />
<polyline points="291.0,349.5,283.0,337.0" stroke="black" stroke-width="2" fill="none" />
<polyline points="275.0,347.0,324.5,344.0,378.0,339.5" stroke="black" stroke-width="2" fill="none" />
<polyline points="355.0,335.0,306.5,386.0" stroke="black" stroke-width="2" fill="none" />
<polyline points="284.5,373.0,337.5,322.5" stroke="black" stroke-width="2" fill="none" />
<polyline points="331.0,306.5,280.0,306.0,229.5,305.0" stroke="black" stroke-width="2" fill="none" />
<polyline points="221.0,319.0,273.0,269.0,325.5,217.5" stroke="black" stroke-width="2" fill="none" />
<polyline points="320.0,210.5,315.5,203.0" stroke="black" stroke-width="2" fill="none" />
<polyline points="312.0,191.5,317.0,199.5,323.0,207.5,326.0,215.5,328.5,223.5,329.0,231.0,329.0,239.0,331.0,246.5,331.0,254.0,330.5,261.5,330.5,269.5,330.5,277.5,328.5,286.0,329.0,294.5,328.0,303.0,324.0,306.5,332.0,311.5,330.5,319.5,332.5,322.0,335.5,332.0,331.5,334.0" stroke="black" stroke-width="2" fill="none" />
<polyline points="332.5,322.0,328.0,318.5,326.5,321.5,327.5,320.5,328.5,312.5,323.0,303.5" stroke="black" stroke-width="2" fill="none" />
<polyline points="332.5,295.5,332.5,303.5,337.5,311.0,336.0,319.0,342.0,324.0,338.5,332.5" stroke="black" stroke-width="2" fill="none" />
<polyline points="337.5,339.0,329.5,341.5,321.5,336.5,308.0,326.5,300.0,314.5" stroke="black" stroke-width="2" fill="none" />
<polyline points="294.0,324.5,286.0,317.5" stroke="black" stroke-width="2" fill="none" />
<polyline points="287.0,317.0,297.5,323.0" stroke="black" stroke-width="2" fill="none" />
<polyline points="301.5,337.5,301.5,341.5,295.0,342.5,293.0,330.0,299.0,330.0,294.5,324.0,294.0,315.5,282.5,312.5,286.0,304.0,289.0,301.5,281.5,310.5" stroke="black" stroke-width="2" fill="none" />
<polyline points="270.5,317.0,320.5,268.0" stroke="black" stroke-width="2" fill="none" />
<polyline points="327.0,261.0,319.0,245.0" stroke="black" stroke-width="2" fill="none" />
<polyline points="318.0,247.0,323.0,254.5,326.0,262.0,327.0,270.0,324.5,277.5" stroke="black" stroke-width="2" fill="none" />
<polyline points="335.5,288.0,287.0,289.0,235.5,288.5" stroke="black" stroke-width="2" fill="none" />
<polyline points="243.5,290.5,251.5,301.0,259.5,306.5" stroke="black" stroke-width="2" fill="none" />
<polyline points="268.0,302.5,260.5,294.5,252.5,282.0" stroke="black" stroke-width="2" fill="none" />
<polyline points="253.5,278.5,261.5,278.0,264.5,276.0,272.5,275.0,280.0,276.0,290.0,283.0,298.0,300.0,308.0,309.0" stroke="black" stroke-width="2" fill="none" />
<polyline points="316.5,292.5,324.5,290.0" stroke="black" stroke-width="2" fill="none" />
<polyline points="315.5,283.0,308.0,280.0,300.0,267.0" stroke="black" stroke-width="2" fill="none" />
<polyline points="299.0,262.0,307.0,254.0,315.5,245.0,323.5,245.5" stroke="black" stroke-width="2" fill="none" />
<polyline points="324.0,243.0,323.0,237.0" stroke="black" stroke-width="2" fill="none" />
<polyline points="318.0,241.5,320.0,236.5,321.0,239.5,326.0,247.5" stroke="black" stroke-width="2" fill="none" />
<polyline points="334.5,242.5,283.0,241.0,233.5,239.0" stroke="black" stroke-width="2" fill="none" />
<polyline points="231.0,231.0,284.5,182.0,339.0,131.0,388.0,82.0" stroke="black" stroke-width="2" fill="none" />
<polyline points="385.5,112.0,336.0,114.0,285.5,115.0" stroke="black" stroke-width="2" fill="none" />
<polyline points="275.0,115.5,277.0,114.5,276.5,122.0" stroke="black" stroke-width="2" fill="none" />
<polyline points="264.5,112.5,264.0,120.0,267.0,128.0,268.5,135.5,258.5,143.0,254.5,151.0,258.5,142.5,267.0,135.5,271.5,136.5,279.5,142.5" stroke="black" stroke-width="2" fill="none" />
<polyline points="274.5,141.0,278.5,149.0,283.0,153.5,278.5,162.5,273.5,170.0,277.0,172.0,279.0,176.0,287.0,170.0,292.0,163.0" stroke="black" stroke-width="2" fill="none" />
<polyline points="299.5,154.0,294.5,162.0,286.5,167.5,287.5,176.0,279.5,181.0,287.0,175.5,290.0,178.5" stroke="black" stroke-width="2" fill="none" />
<polyline points="275.0,166.5,283.0,157.5,290.0,152.5,297.5,152.0" stroke="black" stroke-width="2" fill="none" />
<polyline points="312.5,159.0,320.5,158.0,328.0,160.0,336.0,159.0,343.5,159.5,351.5,166.5,359.0,171.0,367.0,172.0,375.0,171.5,382.5,170.5,390.5,169.0,398.5,167.5,407.0,166.5,415.0,164.5,423.0,165.0,431.0,165.0,439.0,165.0,446.5,165.0,454.5,165.0,462.5,165.5,470.5,166.0,478.5,164.0,486.5,161.5,495.0,160.5,503.0,159.0,511.5,148.0" stroke="black" stroke-width="2" fill="none" />
<polyline points="519.5,133.5,469.5,184.0" stroke="black" stroke-width="2" fill="none" />
<polyline points="467.5,171.5,516.5,171.5" stroke="black" stroke-width="2" fill="none" />
<polyline points="520.5,138.5,469.5,140.0" stroke="black" stroke-width="2" fill="none" />
<polyline points="481.0,136.5,480.0,144.5,480.5,147.0" stroke="black" stroke-width="2" fill="none" />
<polyline points="491.5,145.5,493.5,149.5,498.5,149.0,498.5,145.0,505.5,138.5" stroke="black" stroke-width="2" fill="none" />
<polyline points="507.0,126.0,499.0,125.5" stroke="black" stroke-width="2" fill="none" />
<polyline points="499.5,133.0,491.5,135.0" stroke="black" stroke-width="2" fill="none" />
<polyline points="474.0,129.0,469.0,126.5,469.0,118.5" stroke="black" stroke-width="2" fill="none" />
<polyline points="465.5,116.5,473.5,110.0,481.5,113.0,489.0,113.0,497.5,110.5,505.5,113.5,512.5,126.0" stroke="black" stroke-width="2" fill="none" />
<polyline points="502.5,114.5,509.0,122.5,512.0,139.0,511.5,147.0,506.5,155.0" stroke="black" stroke-width="2" fill="none" />
<polyline points="480.5,135.5,476.0,143.5,474.0,143.5,478.0,135.5,474.0,125.0,477.5,125.5,477.5,117.5" stroke="black" stroke-width="2" fill="none" />
<polyline points="478.5,111.0,467.0,115.0,465.5,122.5,464.5,130.0" stroke="black" stroke-width="2" fill="none" />
<polyline points="436.5,132.0,382.0,135.0,327.5,138.5,274.5,140.5,224.0,141.0,175.5,141.0" stroke="black" stroke-width="2" fill="none" />
<polyline points="173.5,155.5,165.5,163.5" stroke="black" stroke-width="2" fill="none" />
<polyline points="177.5,155.5,226.5,157.0" stroke="black" stroke-width="2" fill="none" />
<polyline points="224.5,181.5,174.5,231.5,125.0,283.5,77.0,334.0,29.0,384.5" stroke="black" stroke-width="2" fill="none" />
<polyline points="39.5,307.5,31.5,300.0" stroke="black" stroke-width="2" fill="none" />
<polyline points="31.0,297.5,35.0,305.5" stroke="black" stroke-width="2" fill="none" />
<polyline points="26.5,303.0,18.5,306.0" stroke="black" stroke-width="2" fill="none" />
<polyline points="32.0,289.5,25.0,297.5,20.0,303.5,21.5,313.5,23.0,317.5,18.0,325.5,12.0,332.0,16.0,321.0,22.5,317.0,33.0,323.5,41.0,321.5,42.0,316.5,47.0,325.0,56.0,324.0" stroke="black" stroke-width="2" fill="none" />
<polyline points="80.0,321.0,84.5,318.0" stroke="black" stroke-width="2" fill="none" />
<polyline points="78.0,271.5,85.5,257.5,93.5,247.5,101.5,239.0,110.0,234.0,118.0,232.0" stroke="black" stroke-width="2" fill="none" />
<polyline points="137.5,234.0,145.5,232.0,141.5,243.0" stroke="black" stroke-width="2" fill="none" />
<polyline points="154.0,240.5,149.0,248.5,150.0,256.5" stroke="black" stroke-width="2" fill="none" />
<polyline points="156.5,223.5,164.5,221.5,173.0,214.0,181.0,206.5,188.5,197.5,192.5,199.5,192.0,198.0" stroke="black" stroke-width="2" fill="none" />
<polyline points="182.5,216.0,178.0,224.0,173.0,232.0,166.0,240.0,159.0,248.0,157.0,256.0,155.5,264.0,149.5,272.0,142.0,280.0,131.5,288.5,121.0,296.5,102.5,306.5,93.5,314.5,84.5,322.0,75.0,330.0,66.0,338.0,59.0,342.5,55.5,339.5,63.0,340.0,71.0,333.0,79.0,326.0,87.0,318.0,95.0,310.5,103.5,305.5,111.5,301.0,114.5,291.0,122.5,286.0,130.5,281.0,138.5,275.0,145.5,273.5,153.0,264.5" stroke="black" stroke-width="2" fill="none" />
<polyline points="213.5,265.0,221.5,275.0,230.0,281.0,238.0,292.0,246.5,300.5,254.5,306.5,262.5,311.5,270.5,317.5,278.5,320.5" stroke="black" stroke-width="2" fill="none" />
<polyline points="296.0,286.5,288.0,273.5" stroke="black" stroke-width="2" fill="none" />
<polyline points="286.0,273.5,289.0,281.5,292.0,289.5,294.0,297.5,300.0,305.0,299.0,313.0,304.5,321.0,308.0,329.0,311.0,336.5,311.0,343.5,305.5,350.5" stroke="black" stroke-width="2" fill="none" />
<polyline points="320.0,371.5,269.5,373.5" stroke="black" stroke-width="2" fill="none" />
<polyline points="298.5,279.5,290.5,272.5" stroke="black" stroke-width="2" fill="none" />
<polyline points="292.5,273.0,300.5,281.0" stroke="black" stroke-width="2" fill="none" />
<polyline points="300.5,277.0,292.5,271.5" stroke="black" stroke-width="2" fill="none" />
<polyline points="293.5,271.0,302.5,279.0" stroke="black" stroke-width="2" fill="none" />
<polyline points="290.5,269.0,240.0,270.0" stroke="black" stroke-width="2" fill="none" />
<polyline points="239.5,274.0,243.5,282.0,245.5,290.0,251.5,298.0" stroke="black" stroke-width="2" fill="none" />
<polyline points="249.0,276.5,257.0,276.5,265.0,272.0,265.5,270.0,275.5,266.5,283.5,263.0" stroke="black" stroke-width="2" fill="none" />
<polyline points="290.0,269.5,291.0,268.5,290.0,276.5,294.0,284.5,299.0,292.5,301.0,299.0,305.0,307.0,313.0,315.0,313.0,322.5,317.5,330.0,322.5,338.0,332.5,335.0,342.0,329.5,338.0,337.5" stroke="black" stroke-width="2" fill="none" />
<polyline points="273.5,304.5,265.5,303.0,257.5,294.5,252.5,287.5,249.5,279.5,243.0,278.0" stroke="black" stroke-width="2" fill="none" />
<polyline points="238.5,275.0,245.5,280.0,249.0,288.0,254.0,296.0" stroke="black" stroke-width="2" fill="none" />
<polyline points="278.0,299.5,279.5,291.0,280.5,283.0,280.0,275.0" stroke="black" stroke-width="2" fill="none" />
<polyline points="245.5,261.0,244.5,263.0,236.5,263.0" stroke="black" stroke-width="2" fill="none" />
<polyline points="220.0,279.5,269.5,232.0,321.5,186.5,372.5,138.0" stroke="black" stroke-width="2" fill="none" />
<polyline points="367.0,132.5,372.0,138.5,371.0,146.5" stroke="black" stroke-width="2" fill="none" />
<polyline points="370.0,148.5,370.0,142.0,372.0,134.5,367.5,131.5,359.5,131.5" stroke="black" stroke-width="2" fill="none" />
<polyline points="355.5,138.0,364.0,146.5" stroke="black" stroke-width="2" fill="none" />
<polyline points="367.0,157.0,366.0,151.0,366.5,141.0,362.5,133.0,349.0,132.0" stroke="black" stroke-width="2" fill="none" />
<polyline points="346.5,143.0,355.0,132.0,356.0,134.0,358.0,135.0,363.5,139.0,361.0,147.0,357.5,154.5,359.5,158.5,363.0,158.5" stroke="black" stroke-width="2" fill="none" />
<polyline points="356.0,159.0,348.0,156.0" stroke="black" stroke-width="2" fill="none" />
<polyline points="356.5,153.0,348.0,152.0,342.5,155.5,334.5,157.0" stroke="black" stroke-width="2" fill="none" />
<polyline points="330.5,154.5,338.0,151.5,346.0,147.5,354.0,147.5" stroke="black" stroke-width="2" fill="none" />
<polyline points="353.5,117.5,351.5,125.5,344.5,133.5,336.0,141.5,342.5,135.5,350.5,125.0,361.5,122.0,370.5,118.0,378.5,117.5,386.5,119.0,390.5,121.0,398.5,122.0,406.5,123.0,414.0,126.0,422.0,131.0,430.0,132.0,438.0,131.5,446.5,132.5,454.5,132.5,462.0,133.5" stroke="black" stroke-width="2" fill="none" />
<polyline points="453.5,152.0,442.5,143.5,434.5,139.0,427.0,138.0,419.0,138.0" stroke="black" stroke-width="2" fill="none" />
<polyline points="410.0,142.5,402.0,135.5,395.0,135.5" stroke="black" stroke-width="2" fill="none" />
<polyline points="400.5,132.0,408.5,130.5,416.5,131.5,424.0,133.5,432.0,135.0,440.0,139.0,448.0,147.5" stroke="black" stroke-width="2" fill="none" />
<polyline points="404.5,127.0,396.5,127.5,390.5,122.5,382.5,123.5,374.5,124.5" stroke="black" stroke-width="2" fill="none" />
<polyline points="375.5,124.5,379.0,132.5,379.0,141.0,376.0,149.0,373.0,157.0,375.5,161.5,383.5,161.5" stroke="black" stroke-width="2" fill="none" />
<polyline points="413.0,147.5,406.0,139.0,402.5,131.0" stroke="black" stroke-width="2" fill="none" />
<polyline points="402.0,126.5,394.0,134.5,399.0,137.5,408.0,146.0,411.0,154.0,408.5,157.0" stroke="black" stroke-width="2" fill="none" />
<polyline points="385.5,83.0,336.0,84.0,285.0,86.5" stroke="black" stroke-width="2" fill="none" />
<polyline points="285.0,78.5,293.0,87.0" stroke="black" stroke-width="2" fill="none" />
<polyline points="291.5,93.0,284.0,84.5,276.0,79.5,267.5,82.0,259.5,85.0" stroke="black" stroke-width="2" fill="none" />
<polyline points="262.5,85.5,265.5,93.5,271.5,101.5" stroke="black" stroke-width="2" fill="none" />
<polyline points="272.0,103.0,264.0,93.0" stroke="black" stroke-width="2" fill="none" />
<polyline points="252.0,99.5,243.5,92.5" stroke="black" stroke-width="2" fill="none" />
<polyline points="246.5,91.5,253.0,99.5" stroke="black" stroke-width="2" fill="none" />
<polyline points="242.5,110.5,240.5,118.5,239.5,126.5,239.0,134.0" stroke="black" stroke-width="2" fill="none" />
<polyline points="226.0,136.5,218.0,139.5,210.0,140.5,202.0,135.5,194.0,127.5,182.0,120.5,177.0,112.0,171.5,103.5,166.0,96.0,160.0,88.0,152.0,71.5,144.0,59.5" stroke="black" stroke-width="2" fill="none" />
<polyline points="144.5,56.5,152.5,43.5,159.0,44.0,159.0,52.0,157.0,57.5,161.0,67.5,170.5,72.5,178.5,79.5,186.5,80.0" stroke="black" stroke-width="2" fill="none" />
<polyline points="176.5,86.0,226.5,38.0" stroke="black" stroke-width="2" fill="none" />
<polyline points="222.0,45.0,171.0,46.5" stroke="black" stroke-width="2" fill="none" />
<polyline points="159.0,52.0,167.0,52.0,175.0,48.5,182.5,46.5,190.0,43.5,198.0,38.5,198.0,34.5" stroke="black" stroke-width="2" fill="none" />
<polyline points="209.5,31.0,211.5,30.0,208.5,31.0,211.0,39.0,212.5,47.0,211.5,55.0,209.5,63.0,205.5,70.5,208.5,73.0,210.5,70.0,212.5,64.0,220.5,59.0,220.0,61.0,216.0,63.0,214.5,69.5,205.5,69.5,214.0,69.0,222.0,65.0,224.0,62.5" stroke="black" stroke-width="2" fill="none" />
<polyline points="229.0,54.0,221.0,45.0" stroke="black" stroke-width="2" fill="none" />
<polyline points="213.0,35.5,214.5,43.0,212.5,49.5,214.5,52.5,210.5,59.5,207.5,70.5,213.5,72.5" stroke="black" stroke-width="2" fill="none" />
<polyline points="221.0,109.0,213.0,114.0,205.0,116.5,197.0,118.5,189.5,114.5,182.5,107.0,174.5,94.0" stroke="black" stroke-width="2" fill="none" />
<polyline points="166.5,89.5,166.5,86.5,174.0,88.5,182.0,86.5" stroke="black" stroke-width="2" fill="none" />
<polyline points="184.0,82.5,176.5,81.5,168.5,77.0,165.5,78.0" stroke="black" stroke-width="2" fill="none" />
<polyline points="156.0,83.0,159.0,92.5,166.5,103.0,174.0,113.0,181.5,124.5,189.5,127.5,197.0,131.0" stroke="black" stroke-width="2" fill="none" />
<polyline points="198.5,124.5,206.0,131.5,214.0,136.5" stroke="black" stroke-width="2" fill="none" />
<polyline points="203.5,134.0,196.0,133.0,189.0,123.5,181.0,118.0,172.5,106.5,164.5,96.5" stroke="black" stroke-width="2" fill="none" />
<polyline points="161.5,106.5,153.5,93.5,145.0,78.5" stroke="black" stroke-width="2" fill="none" />
<polyline points="152.0,48.0,152.0,56.0,157.0,64.0,160.5,72.0,164.5,77.0,167.5,78.0,172.5,91.0,178.0,99.0,182.0,107.0,189.0,114.5,197.0,122.5,205.0,130.5" stroke="black" stroke-width="2" fill="none" />
<polyline points="195.5,121.0,203.5,121.0,211.5,118.5,219.5,114.5,214.5,112.0" stroke="black" stroke-width="2" fill="none" />
<polyline points="214.5,117.0,225.5,109.0" stroke="black" stroke-width="2" fill="none" />
<polyline points="240.5,116.0,240.5,124.0,240.5,132.0" stroke="black" stroke-width="2" fill="none" />
<polyline points="260.0,128.5,310.5,78.5" stroke="black" stroke-width="2" fill="none" />
<polyline points="318.5,65.5,331.0,73.5,340.0,81.5,342.5,83.5,350.0,91.0,354.5,99.0,357.5,107.0,358.5,115.0,357.5,123.0,351.5,136.5,349.5,148.0,338.0,153.5,346.5,163.0,357.0,171.0" stroke="black" stroke-width="2" fill="none" />
<polyline points="327.0,184.5,275.5,183.5,225.5,181.5,176.0,180.0,124.5,179.5" stroke="black" stroke-width="2" fill="none" />
<polyline points="108.5,169.0,116.5,155.0,124.5,147.0,132.5,139.0,141.0,133.0,148.5,127.0,156.5,121.0,164.0,120.0" stroke="black" stroke-width="2" fill="none" />
<polyline points="158.0,119.0,150.0,127.0,138.5,135.0,129.5,143.5,121.5,151.5,116.0,159.5,110.0,167.0,109.0,175.0,109.0,182.5,111.0,190.5,115.0,198.5,117.0,206.5,121.0,214.5,122.0,222.5,122.0,230.0,108.0,236.0,96.5,244.0,90.0,252.0,83.0,259.5,79.0,267.5,76.5,275.5,72.5,283.5,65.5,292.0,57.5,300.0,48.0,305.0,52.0,319.0,48.0,328.5,47.5,336.0,35.5,343.0,31.5,347.0,34.5,339.0" stroke="black" stroke-width="2" fill="none" />
<polyline points="41.5,330.0,33.0,332.5,36.0,338.0,44.0,326.0,41.0,317.5,45.0,309.5,45.0,301.5,41.0,294.0" stroke="black" stroke-width="2" fill="none" />
<polyline points="120.5,211.0,112.5,195.0" stroke="black" stroke-width="2" fill="none" />
<polyline points="172.5,219.5,168.5,221.5,160.5,226.0,161.0,225.0,170.5,217.0,172.5,212.0,181.5,204.0,188.5,196.0,191.5,188.5,187.5,180.5,185.5,172.5,181.5,164.5,179.0,157.0" stroke="black" stroke-width="2" fill="none" />
<polyline points="195.5,144.5,208.5,152.5,216.5,160.5,221.0,160.5,226.5,167.0,230.5,167.0,238.5,163.0,242.0,159.0" stroke="black" stroke-width="2" fill="none" />
<polyline points="236.0,181.5,234.0,189.5,230.5,189.5" stroke="black" stroke-width="2" fill="none" />
<polyline points="235.5,195.5,243.5,188.5,251.5,186.0,259.0,187.5" stroke="black" stroke-width="2" fill="none" />
<polyline points="257.5,187.5,264.0,195.5,260.0,203.0" stroke="black" stroke-width="2" fill="none" />
<polyline points="260.5,216.0,268.0,214.0,276.0,210.0,284.0,207.0,292.5,204.0" stroke="black" stroke-width="2" fill="none" />
<polyline points="291.0,213.0,292.0,221.0,290.5,229.0,290.5,234.0,289.5,231.0,293.0,234.0" stroke="black" stroke-width="2" fill="none" />
<polyline points="292.0,235.5,295.0,227.5" stroke="black" stroke-width="2" fill="none" />
<polyline points="308.5,233.0,306.5,240.5,301.0,248.5,288.0,255.0,284.0,263.0,284.5,259.5,288.5,257.5,300.0,248.5,306.0,249.0,308.5,238.0" stroke="black" stroke-width="2" fill="none" />
<polyline points="311.5,232.5,309.0,240.5,309.0,248.0" stroke="black" stroke-width="2" fill="none" />
<polyline points="316.0,243.5,309.0,251.5,300.0,259.5,300.0,268.0,305.0,276.0,312.0,284.0" stroke="black" stroke-width="2" fill="none" />
<polyline points="276.0,207.5,268.0,210.5,260.0,216.5,252.0,220.5,253.5,219.5,261.5,209.5,280.5,205.5" stroke="black" stroke-width="2" fill="none" />
<polyline points="259.5,201.5,251.0,208.5,243.0,210.0,235.0,204.0" stroke="black" stroke-width="2" fill="none" />
<polyline points="232.0,205.0,235.0,213.0" stroke="black" stroke-width="2" fill="none" />
<polyline points="230.5,205.5,238.0,213.5,246.0,214.0" stroke="black" stroke-width="2" fill="none" />
<polyline points="243.0,209.0,234.5,201.5,235.5,193.5,246.5,185.5" stroke="black" stroke-width="2" fill="none" />
<polyline points="275.0,150.5,283.0,147.5" stroke="black" stroke-width="2" fill="none" />
<polyline points="313.0,158.0,312.0,166.0,313.5,174.5,312.5,182.5,312.0,190.5,304.0,192.5,307.0,193.0,303.5,200.5,303.5,200.5,316.0,195.0,323.5,208.0" stroke="black" stroke-width="2" fill="none" />
<polyline points="341.5,102.5,333.5,101.0,325.5,98.5,320.5,95.5,312.5,94.5,304.5,96.0" stroke="black" stroke-width="2" fill="none" />
<polyline points="296.0,105.0,295.0,97.0,289.0,89.0,277.0,81.0" stroke="black" stroke-width="2" fill="none" />
<polyline points="286.0,78.5,293.0,86.5" stroke="black" stroke-width="2" fill="none" />
<polyline points="256.5,75.5,244.5,83.0,252.0,79.0,260.0,76.0,268.0,73.0,276.0,71.0,284.5,68.0,292.5,66.0,301.0,65.0,309.0,64.0,317.0,64.0,325.0,67.0,333.5,73.0,341.5,80.5,349.5,88.5,356.5,100.0" stroke="black" stroke-width="2" fill="none" />
<polyline points="224.0,27.5,216.0,15.0,207.5,8.0,199.5,3.5,191.0,2.5" stroke="black" stroke-width="2" fill="none" />
<polyline points="187.0,9.0,196.0,17.5,197.0,27.5,201.0,36.0,185.0,44.0" stroke="black" stroke-width="2" fill="none" />
<polyline points="212.5,27.0,208.0,25.0,200.0,25.0,197.0,18.0,189.0,11.0,181.5,9.5" stroke="black" stroke-width="2" fill="none" />
<polyline points="176.0,3.0,168.0,4.0,160.5,7.0,152.5,12.0,144.5,19.5,136.5,33.5" stroke="black" stroke-width="2" fill="none" />
<polyline points="151.0,44.0,145.0,52.0,143.0,60.5,148.0,68.5,153.5,76.0,153.5,84.0,156.5,92.0,163.0,100.5,171.0,108.5,177.0,116.5,182.5,124.5,195.0,132.5,209.0,140.0" stroke="black" stroke-width="2" fill="none" />
<polyline points="172.0,158.5,164.0,165.5,158.5,161.5,160.5,153.5,162.5,145.5,158.5,137.5" stroke="black" stroke-width="2" fill="none" />
<polyline points="158.5,136.0,152.5,144.0,145.0,152.0,148.0,147.0,156.0,140.0,165.0,142.0,172.0,139.0,179.5,140.5,187.5,141.5,195.0,144.0,203.0,148.0,211.0,154.5,219.0,153.5,227.0,152.5,235.0,147.0" stroke="black" stroke-width="2" fill="none" />
<polyline points="229.5,132.0,232.5,124.5,235.0,116.5,237.0,108.5,237.0,100.5,237.5,93.0,236.5,85.0,235.5,77.0,235.5,69.0,234.5,61.0,231.5,56.0,223.5,48.0,221.5,39.5,220.0,31.5" stroke="black" stroke-width="2" fill="none" />
<polyline points="160.5,7.0,149.5,14.5,142.5,22.5,137.5,30.5,136.5,38.5,135.5,46.5,136.5,54.5,138.5,62.5,142.5,70.5,144.0,78.5,149.0,87.0,153.5,94.5,158.5,102.5,163.5,110.5,166.5,118.5" stroke="black" stroke-width="2" fill="none" />
</svg>