<svg xmlns="http://www.w3.org/2000/svg" version="1.1"><polyline points="270.5,10.5,287.5,19.0,304.5,27.0,314.5,35.0,321.5,43.0,325.5,50.5,329.5,59.0,331.5,67.0,333.5,75.0,335.0,83.0,336.0,91.5,336.0,99.0,336.5,107.0,336.5,115.0,337.0,123.0,337.0,130.5,337.0,138.5,337.5,146.5,337.5,154.5,337.5,162.5,337.5,170.5,336.0,178.5,336.0,186.5,336.0,194.5,336.0,202.5,335.0,211.0,335.5,219.0,333.5,227.5,326.5,235.5,320.0,243.5,313.0,251.5,316.0,259.5,329.5,267.5,340.5,275.5,353.5,277.0" stroke="black" stroke-width="2" fill="none" />
<polyline points="355.0,290.0,372.0,298.0,376.0,306.0,383.0,314.5" stroke="black" stroke-width="2" fill="none" />
<polyline points="380.5,321.0,328.0,370.5,279.5,421.0,229.5,470.0" stroke="black" stroke-width="2" fill="none" />
<polyline points="224.5,449.5,241.5,457.5,258.5,465.5,275.0,473.0,291.5,481.0,306.5,488.5,308.5,496.5,301.5,504.5" stroke="black" stroke-width="2" fill="none" />
<polyline points="323.5,485.5,373.0,484.0" stroke="black" stroke-width="2" fill="none" />
<polyline points="368.0,470.5,316.5,521.5,268.0,571.0,220.5,620.5" stroke="black" stroke-width="2" fill="none" />
<polyline points="238.0,630.5,246.0,630.0,254.0,630.5,261.5,639.5,269.5,663.5,277.5,684.0,285.5,699.0" stroke="black" stroke-width="2" fill="none" />
<polyline points="273.0,707.5,321.0,706.0,368.5,706.5" stroke="black" stroke-width="2" fill="none" />
<polyline points="368.5,692.5,365.0,684.5,364.0,676.5,364.0,676.0" stroke="black" stroke-width="2" fill="none" />
<polyline points="368.0,674.5,370.0,683.0,374.0,682.0,381.5,679.5,389.0,686.5,397.0,695.0" stroke="black" stroke-width="2" fill="none" />
<polyline points="401.5,707.5,410.0,723.0" stroke="black" stroke-width="2" fill="none" />
<polyline points="417.5,715.0,425.5,730.0,434.0,745.0" stroke="black" stroke-width="2" fill="none" />
<polyline points="437.5,724.0,390.0,776.0,339.5,825.0" stroke="black" stroke-width="2" fill="none" />
<polyline points="327.0,835.0,375.5,834.0,425.0,830.5,476.5,828.5" stroke="black" stroke-width="2" fill="none" />
<polyline points="481.5,820.5,434.0,869.5" stroke="black" stroke-width="2" fill="none" />
<polyline points="377.5,857.5,429.0,808.5,479.5,756.5" stroke="black" stroke-width="2" fill="none" />
<polyline points="431.5,769.5,384.0,818.0,333.5,871.5" stroke="black" stroke-width="2" fill="none" />
<polyline points="315.0,851.5,365.5,851.0,416.0,854.5,466.5,856.0" stroke="black" stroke-width="2" fill="none" />
<polyline points="414.5,761.5,362.5,762.0" stroke="black" stroke-width="2" fill="none" />
<polyline points="345.0,789.0,353.0,786.0,361.5,784.5,370.0,781.5,378.0,781.0,386.5,778.5,395.0,778.0,403.0,779.0,411.5,780.0,419.5,780.5,428.0,782.5,435.5,785.5" stroke="black" stroke-width="2" fill="none" />
<polyline points="368.5,806.0,318.5,804.5" stroke="black" stroke-width="2" fill="none" />
<polyline points="318.5,791.5,369.0,788.5,420.0,785.5,470.5,782.5" stroke="black" stroke-width="2" fill="none" />
<polyline points="427.0,735.0,372.5,736.0,321.5,735.5" stroke="black" stroke-width="2" fill="none" />
<polyline points="328.5,741.5,337.0,756.5,345.0,759.0,353.0,760.0,361.0,760.0,369.0,758.0,377.0,757.0,385.0,757.5,393.0,754.5,401.0,752.5,409.0,749.5" stroke="black" stroke-width="2" fill="none" />
<polyline points="412.5,685.0,404.0,678.0,396.0,669.0" stroke="black" stroke-width="2" fill="none" />
<polyline points="379.0,677.5,388.0,685.5,396.0,693.5,400.0,701.5,402.0,709.5,406.5,717.0,409.5,725.0,411.5,733.5,412.0,741.5,402.0,749.5" stroke="black" stroke-width="2" fill="none" />
<polyline points="388.5,710.5,380.5,696.5,373.0,695.5,365.0,681.5" stroke="black" stroke-width="2" fill="none" />
<polyline points="372.5,685.0,376.0,677.0" stroke="black" stroke-width="2" fill="none" />
<polyline points="378.5,691.5,382.5,699.5,387.5,707.5,391.5,715.5,394.0,723.5,396.0,731.5,387.5,740.0" stroke="black" stroke-width="2" fill="none" />
<polyline points="392.0,741.0,383.5,744.0,375.0,745.5,367.0,746.5,359.0,747.0,351.0,747.0,342.5,743.5,334.5,733.5" stroke="black" stroke-width="2" fill="none" />
<polyline points="338.5,739.5,335.5,731.5,333.0,723.5,332.0,715.5" stroke="black" stroke-width="2" fill="none" />
<polyline points="332.0,715.5,382.0,666.5,430.5,617.5,481.5,567.0" stroke="black" stroke-width="2" fill="none" />
<polyline points="478.5,554.5,426.0,557.5" stroke="black" stroke-width="2" fill="none" />
<polyline points="436.0,571.5,485.0,573.0,536.0,572.0" stroke="black" stroke-width="2" fill="none" />
<polyline points="528.0,561.5,478.0,611.0" stroke="black" stroke-width="2" fill="none" />
<polyline points="470.0,611.0,521.0,611.0" stroke="black" stroke-width="2" fill="none" />
<polyline points="478.5,564.5,486.5,556.5,488.5,549.0,490.5,540.5,489.0,533.0,487.0,529.0,479.0,529.0,471.5,537.5" stroke="black" stroke-width="2" fill="none" />
<polyline points="468.0,531.0,476.0,522.5,484.5,522.5" stroke="black" stroke-width="2" fill="none" />
<polyline points="481.5,527.5,471.5,536.0,468.5,544.0,467.5,551.5,467.0,559.5,471.5,567.5" stroke="black" stroke-width="2" fill="none" />
<polyline points="467.5,558.0,475.5,568.0,483.5,562.0" stroke="black" stroke-width="2" fill="none" />
<polyline points="469.5,579.5,461.5,572.5" stroke="black" stroke-width="2" fill="none" />
<polyline points="452.0,573.5,460.0,583.5,468.0,585.5" stroke="black" stroke-width="2" fill="none" />
<polyline points="452.0,576.5,450.0,568.5,451.0,560.5,452.0,552.0,453.0,543.5,455.0,535.5,457.0,527.5,458.0,519.0,458.0,511.0,458.0,503.5,457.5,495.5,457.5,488.0,456.5,479.5,455.0,472.0,456.0,464.0,458.0,456.0,460.0,448.5,462.5,440.5,465.0,432.5,469.5,424.5,470.5,414.5,462.5,422.5" stroke="black" stroke-width="2" fill="none" />
<polyline points="466.0,431.5,473.5,421.5,481.5,419.5,489.5,427.0" stroke="black" stroke-width="2" fill="none" />
<polyline points="481.5,434.5,531.5,435.5" stroke="black" stroke-width="2" fill="none" />
<polyline points="532.0,426.0,484.5,475.5,436.5,525.0" stroke="black" stroke-width="2" fill="none" />
<polyline points="428.5,527.0,477.0,527.0,527.0,527.0" stroke="black" stroke-width="2" fill="none" />
<polyline points="534.5,478.5,484.5,527.5,435.5,574.0" stroke="black" stroke-width="2" fill="none" />
<polyline points="435.5,579.5,429.0,587.5,431.0,595.0,433.0,598.0,440.5,601.5,448.5,601.5" stroke="black" stroke-width="2" fill="none" />
<polyline points="453.0,600.5,445.0,591.0,437.0,580.0,428.5,586.0" stroke="black" stroke-width="2" fill="none" />
<polyline points="437.0,580.5,441.0,588.5,451.0,596.0" stroke="black" stroke-width="2" fill="none" />
<polyline points="426.0,609.0,418.0,604.0" stroke="black" stroke-width="2" fill="none" />
<polyline points="418.0,602.0,420.5,603.0" stroke="black" stroke-width="2" fill="none" />
<polyline points="416.5,601.5,424.5,605.5" stroke="black" stroke-width="2" fill="none" />
<polyline points="420.0,630.5,370.0,630.0" stroke="black" stroke-width="2" fill="none" />
<polyline points="379.0,632.0,371.0,618.0,363.5,625.0,355.5,638.5" stroke="black" stroke-width="2" fill="none" />
<polyline points="353.5,626.5,362.0,613.5,370.0,607.5,378.5,616.0" stroke="black" stroke-width="2" fill="none" />
<polyline points="372.5,617.0,377.0,625.5,381.5,633.5" stroke="black" stroke-width="2" fill="none" />
<polyline points="367.5,615.5,364.5,623.5,359.0,631.5,356.0,639.5,355.5,648.0,355.5,656.0,355.5,664.0" stroke="black" stroke-width="2" fill="none" />
<polyline points="363.0,657.5,415.5,657.5" stroke="black" stroke-width="2" fill="none" />
<polyline points="419.0,667.5,369.5,716.5,320.5,767.0" stroke="black" stroke-width="2" fill="none" />
<polyline points="346.0,791.5,354.5,791.5,363.0,790.0,371.0,789.0,379.5,787.0,387.5,786.0,396.0,787.0,404.5,789.0,412.5,790.0,420.5,790.0,428.5,791.0,436.5,792.0" stroke="black" stroke-width="2" fill="none" />
<polyline points="418.0,681.5,365.0,682.5,314.0,686.5,264.0,689.0" stroke="black" stroke-width="2" fill="none" />
<polyline points="232.5,682.5,183.0,683.0,132.5,685.0" stroke="black" stroke-width="2" fill="none" />
<polyline points="126.0,675.5,171.5,629.5,218.5,582.5" stroke="black" stroke-width="2" fill="none" />
<polyline points="189.5,583.0,235.0,581.5,281.0,576.5,329.5,571.5" stroke="black" stroke-width="2" fill="none" />
<polyline points="330.0,573.0,312.0,581.5,296.0,589.5,287.5,597.5,281.0,605.0,275.0,613.5,269.0,621.0,264.0,628.5,266.0,636.5,269.0,644.5,271.0,652.0,274.0,660.0,277.0,668.0,279.5,676.0,283.5,684.0,287.5,692.0" stroke="black" stroke-width="2" fill="none" />
<polyline points="311.0,688.0,263.0,736.0" stroke="black" stroke-width="2" fill="none" />
<polyline points="289.0,728.5,297.0,746.0" stroke="black" stroke-width="2" fill="none" />
<polyline points="335.5,755.0,331.5,746.5,328.0,738.5,327.0,730.5,329.0,723.0,330.0,715.0" stroke="black" stroke-width="2" fill="none" />
<polyline points="327.5,658.5,320.0,672.5,311.5,682.5,304.0,690.5,296.5,698.0,288.5,692.0,280.5,675.0,272.5,653.0" stroke="black" stroke-width="2" fill="none" />
<polyline points="261.0,629.5,263.5,637.0,265.5,645.5,268.0,653.5,271.0,662.0,273.0,670.5,275.5,679.0,279.5,687.0,283.5,695.5,288.5,703.5,288.0,711.5,286.5,719.0,286.5,726.5,289.5,734.0,293.5,742.0,297.5,750.0,297.5,758.0,296.0,766.0,295.5,774.5,297.0,782.5,299.0,790.5,298.0,798.5,296.5,806.5,296.0,814.5,295.0,823.0,295.5,831.0,299.5,839.0" stroke="black" stroke-width="2" fill="none" />
<polyline points="296.5,832.5,305.0,841.0,313.0,843.0,321.0,846.0,329.0,848.5,337.5,851.5,345.5,854.5,353.5,854.5,361.5,854.5,370.0,854.0,378.0,853.0,386.0,853.0,394.0,853.0,402.0,853.0,409.5,851.5,417.5,851.5,425.5,851.5,433.5,851.0,441.5,847.0,449.0,842.5,457.0,836.5" stroke="black" stroke-width="2" fill="none" />
<polyline points="336.0,851.0,315.5,843.0" stroke="black" stroke-width="2" fill="none" />
<polyline points="225.5,831.5,176.5,883.0" stroke="black" stroke-width="2" fill="none" />
<polyline points="216.5,860.5,164.0,862.0,113.0,862.0,61.5,862.0,9.5,862.0" stroke="black" stroke-width="2" fill="none" />
<polyline points="18.5,869.5,70.0,822.0,121.0,776.5,173.0,732.5,224.5,684.5" stroke="black" stroke-width="2" fill="none" />
<polyline points="220.0,724.5,170.0,774.5,121.5,822.5,72.5,870.0" stroke="black" stroke-width="2" fill="none" />
<polyline points="79.0,818.5,129.0,816.0,175.5,815.0,221.5,813.5" stroke="black" stroke-width="2" fill="none" />
<polyline points="225.0,779.5,175.0,829.5,126.0,879.5" stroke="black" stroke-width="2" fill="none" />
<polyline points="132.0,850.0,153.0,842.5" stroke="black" stroke-width="2" fill="none" />
<polyline points="222.0,845.5,169.5,843.5,119.0,842.5,68.5,842.5,19.0,843.5" stroke="black" stroke-width="2" fill="none" />
<polyline points="21.0,839.5,29.0,843.5,37.0,845.0,45.0,847.0,52.5,848.0,60.5,850.0,68.5,851.0,76.5,851.0,84.5,852.0,92.5,852.0,100.5,852.0,108.5,852.0,116.5,852.0,124.5,852.0,133.0,850.5,141.5,846.5,149.5,843.5,157.5,842.0,165.5,840.0,173.5,839.0,181.5,838.5,189.5,837.5,197.5,835.5,205.5,831.5,213.0,827.5" stroke="black" stroke-width="2" fill="none" />
<polyline points="222.5,760.5,175.5,761.5,127.5,764.5" stroke="black" stroke-width="2" fill="none" />
<polyline points="140.5,757.5,148.5,750.0,156.5,742.0,163.5,734.0,158.5,754.0,150.5,767.5,142.5,770.5,134.5,770.0,126.5,769.0,119.0,768.0,110.5,766.5,102.5,764.0,94.5,762.5,86.5,761.5,79.0,759.5" stroke="black" stroke-width="2" fill="none" />
<polyline points="64.0,764.5,72.5,753.0,80.5,741.5,88.5,729.0,96.5,710.0" stroke="black" stroke-width="2" fill="none" />
<polyline points="105.5,700.5,113.5,682.5,121.5,665.5,126.5,657.0,121.0,664.5,117.0,672.5,114.0,680.0,110.0,688.0,106.0,696.0,105.0,704.0,103.0,712.0,102.0,720.0,101.0,728.0,99.0,736.0,93.5,744.0,84.0,752.0,79.5,760.5,84.5,753.5,92.5,747.0,102.5,738.0" stroke="black" stroke-width="2" fill="none" />
<polyline points="103.0,744.5,111.0,755.0" stroke="black" stroke-width="2" fill="none" />
<polyline points="121.0,750.5,133.0,758.5" stroke="black" stroke-width="2" fill="none" />
<polyline points="125.5,732.5,176.0,734.5,228.5,737.0" stroke="black" stroke-width="2" fill="none" />
<polyline points="215.0,751.0,223.0,768.5" stroke="black" stroke-width="2" fill="none" />
<polyline points="167.0,678.5,117.5,727.0" stroke="black" stroke-width="2" fill="none" />
<polyline points="121.5,711.5,174.0,710.0,226.0,711.5" stroke="black" stroke-width="2" fill="none" />
<polyline points="218.5,685.5,210.5,699.0,202.5,693.0,194.5,687.5,186.0,681.0,178.0,668.0" stroke="black" stroke-width="2" fill="none" />
<polyline points="183.0,663.0,130.5,663.5" stroke="black" stroke-width="2" fill="none" />
<polyline points="114.0,656.0,106.0,666.5" stroke="black" stroke-width="2" fill="none" />
<polyline points="115.0,685.5,123.0,667.5,127.0,662.0,122.0,670.0,119.5,678.0,115.5,686.0,114.5,694.0,114.5,701.5,112.5,710.0,112.0,718.0,110.0,726.5,108.0,734.0,102.0,742.0,104.0,749.5,111.0,757.5,118.5,749.5,126.5,754.5,134.5,760.0,142.0,755.5,150.0,747.5,157.5,739.5,166.0,732.5,164.0,740.5,160.5,749.0,157.0,757.0,152.5,765.5" stroke="black" stroke-width="2" fill="none" />
<polyline points="114.5,808.0,106.0,805.0,98.0,801.0,90.0,798.0,81.5,796.5,73.5,795.5,66.0,796.5,58.5,796.5,50.5,796.5" stroke="black" stroke-width="2" fill="none" />
<polyline points="54.5,788.0,48.5,793.0,57.0,788.0,65.0,788.5,73.0,788.5,80.5,789.5,88.5,789.0,96.5,790.5,104.5,794.5,112.5,798.5,120.5,803.5" stroke="black" stroke-width="2" fill="none" />
<polyline points="109.0,804.5,91.0,796.5" stroke="black" stroke-width="2" fill="none" />
<polyline points="96.5,790.0,112.5,798.0,121.5,806.5" stroke="black" stroke-width="2" fill="none" />
<polyline points="77.5,790.0,126.5,790.0,176.0,788.0,227.0,784.0" stroke="black" stroke-width="2" fill="none" />
<polyline points="216.0,691.0,219.0,683.0,222.0,675.0,225.0,667.0,227.0,659.0,230.0,650.5,232.5,642.5,234.5,634.5,234.5,627.5,226.5,626.5,218.5,620.0,210.5,614.0,202.5,606.0,194.5,598.5,186.5,591.5,178.0,583.5,169.5,577.0,161.5,573.0,153.5,570.0,145.5,572.0" stroke="black" stroke-width="2" fill="none" />
<polyline points="148.5,569.0,146.5,577.0,146.5,585.0,151.5,593.0,155.5,601.0,160.5,608.5,163.0,617.0,166.0,625.0,168.0,633.0,170.5,641.0,172.5,649.0,175.5,657.0,177.5,665.5,180.0,673.5,186.0,682.0,197.0,689.5,207.5,697.5,220.5,689.5" stroke="black" stroke-width="2" fill="none" />
<polyline points="241.0,628.5,239.0,636.5,236.0,645.0,234.0,653.5,232.0,661.5,229.0,669.5,226.5,677.5,223.0,685.5,219.0,693.5,215.0,702.0,217.0,710.0,218.0,718.0,216.0,726.0,215.0,734.0,213.0,742.0,212.5,750.0,216.0,758.0,220.5,766.0,223.5,774.0,225.0,782.0,220.0,790.0,218.0,797.5,218.0,805.5,217.0,813.5,216.0,821.5,211.0,829.5" stroke="black" stroke-width="2" fill="none" />
<polyline points="60.5,777.5,52.5,781.5,44.5,786.5,36.5,793.5,28.5,801.5,20.5,816.5" stroke="black" stroke-width="2" fill="none" />
<polyline points="74.5,615.5,125.5,566.5" stroke="black" stroke-width="2" fill="none" />
<polyline points="109.5,584.5,61.0,585.0,14.5,587.5" stroke="black" stroke-width="2" fill="none" />
<polyline points="18.5,592.0,26.5,609.0,34.0,617.0,42.0,618.0,50.0,617.5,58.5,620.0,66.5,623.5,74.5,623.5,82.5,623.5,90.0,619.0,98.0,613.0,106.0,604.0" stroke="black" stroke-width="2" fill="none" />
<polyline points="117.0,612.5,62.5,610.0,9.0,607.5" stroke="black" stroke-width="2" fill="none" />
<polyline points="28.0,614.5,73.5,565.0,123.5,517.0" stroke="black" stroke-width="2" fill="none" />
<polyline points="122.5,531.5,73.5,535.0,24.5,536.0" stroke="black" stroke-width="2" fill="none" />
<polyline points="19.0,546.5,27.0,544.5,35.0,543.5,43.0,547.5" stroke="black" stroke-width="2" fill="none" />
<polyline points="38.0,545.5,46.0,553.0,49.0,561.0,49.0,568.5,50.0,576.0,48.0,584.0,44.0,592.0,32.0,600.0,31.0,601.0,39.0,597.0,47.0,588.5" stroke="black" stroke-width="2" fill="none" />
<polyline points="55.0,590.5,47.5,602.5,39.5,606.0,31.5,604.0" stroke="black" stroke-width="2" fill="none" />
<polyline points="38.0,589.5,30.0,580.0" stroke="black" stroke-width="2" fill="none" />
<polyline points="29.5,573.0,80.0,524.0" stroke="black" stroke-width="2" fill="none" />
<polyline points="70.0,502.0,22.0,501.0" stroke="black" stroke-width="2" fill="none" />
<polyline points="17.0,481.5,68.0,484.0" stroke="black" stroke-width="2" fill="none" />
<polyline points="68.0,471.0,76.0,485.5,84.0,496.5,92.5,496.0,100.5,496.0,108.5,490.0,117.0,477.0,126.0,469.0,122.5,477.0,118.5,485.0,113.5,493.0,112.0,501.0,111.5,509.0,111.5,517.5,111.0,526.0,110.5,534.0,110.5,542.0,110.0,550.0,105.0,558.0,105.5,566.5,109.5,574.5,110.5,582.5,110.5,590.0,109.5,598.0,105.5,605.5,98.0,613.5,88.0,621.5" stroke="black" stroke-width="2" fill="none" />
<polyline points="89.0,601.0,81.0,610.0,73.0,612.0,65.0,610.0" stroke="black" stroke-width="2" fill="none" />
<polyline points="64.5,607.0,72.5,605.0,80.5,600.5,89.5,600.5,82.5,609.0" stroke="black" stroke-width="2" fill="none" />
<polyline points="123.0,606.5,131.0,590.5,139.0,583.5,150.0,592.0,158.5,606.0" stroke="black" stroke-width="2" fill="none" />
<polyline points="179.0,599.5,229.5,601.5,278.0,604.0,325.0,604.5" stroke="black" stroke-width="2" fill="none" />
<polyline points="335.5,628.5,343.5,612.0,352.0,598.0,360.5,591.5,374.0,591.5" stroke="black" stroke-width="2" fill="none" />
<polyline points="372.5,607.5,378.5,615.5,381.5,623.5,382.5,632.0" stroke="black" stroke-width="2" fill="none" />
<polyline points="367.5,607.0,361.5,615.0,355.5,623.0,354.0,631.0,352.0,639.0,351.5,647.5,351.5,655.5,351.0,663.5" stroke="black" stroke-width="2" fill="none" />
<polyline points="359.5,577.5,351.5,568.5,343.5,569.5,335.5,570.0,327.0,572.0,319.5,575.5,311.5,579.5,304.0,582.5,296.0,587.5,288.5,595.0,280.5,604.0,272.0,615.5,264.0,627.5" stroke="black" stroke-width="2" fill="none" />
<polyline points="268.0,615.5,318.5,566.0,366.5,516.0" stroke="black" stroke-width="2" fill="none" />
<polyline points="382.5,509.5,333.0,511.5" stroke="black" stroke-width="2" fill="none" />
<polyline points="340.5,513.0,341.5,505.5,341.0,498.0,337.5,490.0" stroke="black" stroke-width="2" fill="none" />
<polyline points="327.5,463.5,380.5,412.5,431.5,360.5,483.0,309.5" stroke="black" stroke-width="2" fill="none" />
<polyline points="475.0,317.0,424.0,320.0" stroke="black" stroke-width="2" fill="none" />
<polyline points="407.5,319.0,399.0,332.0,391.0,341.0,383.0,347.0,375.0,357.0" stroke="black" stroke-width="2" fill="none" />
<polyline points="372.0,348.5,380.0,339.5,388.0,329.5,396.0,319.5" stroke="black" stroke-width="2" fill="none" />
<polyline points="380.0,317.0,371.5,317.5,363.0,311.5,355.0,311.5,347.5,304.5" stroke="black" stroke-width="2" fill="none" />
<polyline points="346.5,301.0,354.5,290.0,362.5,295.0,370.5,297.0,379.0,308.0" stroke="black" stroke-width="2" fill="none" />
<polyline points="402.5,277.5,410.5,276.5,415.5,279.0,416.0,286.5,416.0,294.5,414.0,302.5,410.5,310.5,407.0,318.5,401.5,326.5,397.0,334.5,389.0,342.5,378.0,351.0,375.0,359.0,375.5,367.0,380.5,375.0,389.5,382.5,399.0,390.5" stroke="black" stroke-width="2" fill="none" />
<polyline points="393.5,401.5,382.5,394.0" stroke="black" stroke-width="2" fill="none" />
<polyline points="379.5,392.0,379.5,400.5,379.5,408.5,379.5,416.5,380.0,424.5,381.0,432.5,377.0,440.0,372.5,448.0,367.5,456.0,362.5,464.0,356.5,472.0,350.0,480.5,345.5,488.5,346.5,496.5,346.5,504.5,346.5,512.5,344.5,520.5,352.0,529.0,355.5,537.0,357.5,544.5,359.5,552.0,359.5,560.0,360.5,568.5,363.5,576.5,366.5,585.0,374.5,593.0,380.5,601.0,383.5,609.5,385.5,617.5,388.5,625.0,390.5,633.0,392.0,641.0,393.0,649.0,395.0,657.0,396.0,665.0,399.0,673.0,408.0,680.5,414.0,688.0,416.0,696.0,417.0,704.5,418.0,712.5,421.0,720.0,425.0,728.0,429.5,735.5,433.5,744.0,437.5,752.0,440.0,760.0,442.0,768.0,445.0,776.0,450.5,784.0,452.5,792.0,454.0,799.5,455.0,807.5,457.0,815.5,458.0,824.0,458.5,832.0,451.0,840.0,438.0,848.0" stroke="black" stroke-width="2" fill="none" />
<polyline points="402.5,580.5,410.5,598.5,418.0,607.5,426.0,612.5,434.0,615.5,441.5,617.5,449.0,617.5,456.5,616.5,464.0,611.5,472.0,604.5,479.5,594.0,487.5,583.5,496.0,568.5" stroke="black" stroke-width="2" fill="none" />
<polyline points="490.0,518.0,482.0,515.5,474.0,515.5" stroke="black" stroke-width="2" fill="none" />
<polyline points="425.5,510.5,476.5,509.0,528.5,509.0" stroke="black" stroke-width="2" fill="none" />
<polyline points="522.5,489.0,474.0,488.0,424.0,488.0" stroke="black" stroke-width="2" fill="none" />
<polyline points="472.0,461.5,480.0,457.5,488.0,457.0" stroke="black" stroke-width="2" fill="none" />
<polyline points="477.0,457.0,471.5,465.0,473.5,473.0,474.0,481.0,474.0,488.5,474.0,496.0,474.0,504.0,473.5,511.5,471.5,523.0,467.5,531.0,465.5,539.0,463.5,547.0,462.5,555.5,462.0,564.0,461.0,572.0,471.0,580.5" stroke="black" stroke-width="2" fill="none" />
<polyline points="409.5,552.0,401.0,561.5" stroke="black" stroke-width="2" fill="none" />
<polyline points="370.5,554.5,322.0,559.0,272.0,561.5" stroke="black" stroke-width="2" fill="none" />
<polyline points="255.5,551.5,263.5,558.5,271.5,561.5,279.5,564.0,288.0,565.5,296.5,564.0,304.5,563.5,313.0,561.0,321.5,558.0" stroke="black" stroke-width="2" fill="none" />
<polyline points="313.0,565.5,320.5,557.5,314.5,564.5,307.0,568.5,299.0,570.5,291.0,572.0,283.0,574.5,275.0,575.5,266.5,576.5,258.5,577.5,250.5,577.5,243.0,574.5,235.0,569.5,227.0,562.5,219.5,555.0,211.5,545.5" stroke="black" stroke-width="2" fill="none" />
<polyline points="209.5,544.0,214.5,552.0,222.5,560.5,230.5,568.5,242.0,576.5" stroke="black" stroke-width="2" fill="none" />
<polyline points="266.5,560.0,255.0,552.0,253.5,544.0,249.0,542.0,241.0,542.0,233.0,542.0,225.5,543.0,217.5,542.5,210.0,543.0" stroke="black" stroke-width="2" fill="none" />
<polyline points="164.5,533.5,156.5,531.5,151.5,528.5,149.5,521.0,148.5,512.5,149.0,504.0,147.5,496.0,143.0,488.0,134.5,479.0,126.5,470.0,118.5,484.0,110.0,498.5" stroke="black" stroke-width="2" fill="none" />
<polyline points="104.0,498.0,111.5,490.0,116.0,482.0,119.5,473.5,123.0,465.5,122.5,457.5,121.0,449.0,118.5,441.0,117.5,432.5,117.5,424.5,116.5,417.0,114.5,409.0,113.5,395.5,122.5,387.0,132.5,380.0,138.0,372.5,141.0,364.5,143.0,356.0,142.0,348.0,140.0,340.0,137.0,332.0,130.5,324.0,125.0,316.0,120.5,308.5,116.5,301.0,117.5,293.0,118.5,285.5,113.0,288.0,105.0,292.0" stroke="black" stroke-width="2" fill="none" />
<polyline points="106.0,290.0,106.0,298.0,111.0,306.0,116.0,314.0,120.0,322.5,124.0,330.5,128.0,338.5,130.0,347.0,132.0,355.0,133.0,363.0,131.0,371.0,129.0,379.0,121.0,383.5" stroke="black" stroke-width="2" fill="none" />
<polyline points="121.5,356.5,71.5,358.5" stroke="black" stroke-width="2" fill="none" />
<polyline points="76.0,354.0,84.0,344.5,92.0,337.5" stroke="black" stroke-width="2" fill="none" />
<polyline points="84.5,336.5,72.5,344.5,64.0,352.0,59.0,360.0,59.0,367.5,65.5,375.5,73.5,383.5,82.0,392.0,93.0,400.0" stroke="black" stroke-width="2" fill="none" />
<polyline points="84.0,424.5,134.0,374.0,184.0,323.5,233.5,273.5" stroke="black" stroke-width="2" fill="none" />
<polyline points="247.5,276.0,251.5,284.0" stroke="black" stroke-width="2" fill="none" />
<polyline points="272.0,276.5,222.0,327.0,172.5,376.5,121.0,425.0" stroke="black" stroke-width="2" fill="none" />
<polyline points="125.5,424.5,176.5,423.5,228.5,422.5,279.0,424.0,327.0,428.5,376.5,430.5" stroke="black" stroke-width="2" fill="none" />
<polyline points="380.0,432.0,388.0,444.0,396.0,456.0,404.0,466.0,411.5,473.0,420.0,475.5,427.5,474.5,435.5,472.0,444.0,467.0,452.0,457.0" stroke="black" stroke-width="2" fill="none" />
<polyline points="428.0,420.5,481.0,373.5" stroke="black" stroke-width="2" fill="none" />
<polyline points="470.5,380.0,418.5,378.5,367.5,379.5,317.5,382.5,267.5,384.5" stroke="black" stroke-width="2" fill="none" />
<polyline points="280.0,373.0,329.0,321.0" stroke="black" stroke-width="2" fill="none" />
<polyline points="336.0,303.5,289.0,304.5,238.0,304.5,183.5,302.5,132.5,301.5" stroke="black" stroke-width="2" fill="none" />
<polyline points="131.5,296.5,139.0,291.5,147.5,292.5" stroke="black" stroke-width="2" fill="none" />
<polyline points="147.0,291.0,154.0,299.0,146.0,306.0" stroke="black" stroke-width="2" fill="none" />
<polyline points="163.0,302.5,171.0,322.5,178.5,322.5,186.0,322.5" stroke="black" stroke-width="2" fill="none" />
<polyline points="185.0,312.0,177.0,296.5" stroke="black" stroke-width="2" fill="none" />
<polyline points="160.5,287.0,168.0,279.0,176.0,276.0,176.0,283.0,176.0,291.0,178.0,299.0,182.0,306.5,186.0,314.0" stroke="black" stroke-width="2" fill="none" />
<polyline points="170.5,322.0,166.5,314.0,163.5,306.0,161.5,298.0,159.0,290.5,161.0,282.5,172.5,274.5,162.0,276.5,154.0,276.0,146.0,276.5,138.0,277.5,130.0,279.0,121.5,271.0,113.5,265.0,105.5,267.0,97.5,271.0,90.0,275.5,82.5,279.5,74.5,284.0,67.0,289.0,59.0,295.0,51.0,307.0,43.5,321.0,35.5,340.5" stroke="black" stroke-width="2" fill="none" />
<polyline points="35.0,356.0,42.5,366.5,50.5,372.5,58.5,381.5,58.0,394.5,55.0,402.5,50.5,410.5,47.0,418.5,44.0,426.5,43.5,434.5,51.0,442.5,58.5,450.5,63.5,458.5,66.5,466.5,69.5,475.0,74.0,483.0,79.0,491.0" stroke="black" stroke-width="2" fill="none" />
<polyline points="82.0,474.0,28.0,522.0" stroke="black" stroke-width="2" fill="none" />
<polyline points="33.0,547.5,27.0,555.5,26.0,563.5,26.0,571.5,27.5,579.5,32.0,587.5" stroke="black" stroke-width="2" fill="none" />
<polyline points="23.5,561.5,73.0,558.5,124.5,554.5" stroke="black" stroke-width="2" fill="none" />
<polyline points="154.5,570.0,172.0,578.0,179.5,586.5,187.5,594.5,196.5,602.5,205.5,610.5,215.0,618.5,227.0,626.5" stroke="black" stroke-width="2" fill="none" />
<polyline points="172.5,633.5,121.0,633.5" stroke="black" stroke-width="2" fill="none" />
<polyline points="43.0,554.5,35.0,547.5,27.5,551.5" stroke="black" stroke-width="2" fill="none" />
<polyline points="35.5,548.0,43.5,556.0,45.5,564.0,46.0,572.0,45.5,580.5,43.0,588.5" stroke="black" stroke-width="2" fill="none" />
<polyline points="17.5,463.0,25.5,444.5,33.5,435.5,45.0,426.0,53.0,405.0,61.0,386.5,69.0,391.5,77.0,399.0,85.0,404.0,93.0,408.5,101.0,409.5,109.0,408.5,117.0,410.5" stroke="black" stroke-width="2" fill="none" />
<polyline points="125.0,450.0,172.5,451.5,222.5,450.0,270.5,449.0,319.0,449.0,368.0,451.0" stroke="black" stroke-width="2" fill="none" />
<polyline points="380.0,439.0,385.5,447.0,390.5,455.0,396.5,463.0,400.5,471.0,400.5,478.5,401.5,486.5,402.0,494.5,402.0,502.5,403.0,510.5,405.0,518.5,407.0,526.5,412.0,534.5,411.0,542.5,409.0,550.5,401.5,558.0,400.5,566.0,400.5,574.5,401.0,582.5,405.0,590.5,408.5,598.5,415.5,606.5" stroke="black" stroke-width="2" fill="none" />
<polyline points="354.0,571.5,359.0,579.5,362.0,587.5,355.5,595.5,349.5,603.5,346.0,611.0,342.0,618.5,339.5,626.5,337.0,634.5,335.0,642.5,334.0,651.0,329.5,658.5,325.5,666.5,319.5,674.5,313.0,682.5,305.0,690.5,295.5,698.5" stroke="black" stroke-width="2" fill="none" />
<polyline points="277.5,529.0,328.0,529.0,378.0,528.5" stroke="black" stroke-width="2" fill="none" />
<polyline points="298.0,527.0,297.0,519.0,297.0,511.0,308.0,503.5,314.0,495.5,308.0,489.5,300.0,485.5,291.5,482.0,283.5,477.0,276.0,474.0,267.5,469.0,259.5,464.5,251.5,461.5,244.0,457.5,236.0,453.0,228.0,448.5,220.0,446.5" stroke="black" stroke-width="2" fill="none" />
<polyline points="219.5,446.5,219.0,454.5,219.0,462.5,220.0,470.5,220.0,478.5,220.0,487.0,227.5,492.0,235.5,493.5,243.5,495.5,252.0,497.5,260.0,500.5,268.0,502.5,276.5,504.5,284.5,507.5,292.5,511.0,302.5,509.5,310.5,502.0,318.5,493.0,326.5,493.0,334.0,492.0,345.0,485.0,353.0,477.0,360.5,465.5,368.5,453.0,376.5,439.0,384.5,444.5,392.0,455.0,399.5,466.0" stroke="black" stroke-width="2" fill="none" />
<polyline points="407.5,469.0,400.5,461.5,394.0,453.5,388.0,445.0,383.0,437.0" stroke="black" stroke-width="2" fill="none" />
<polyline points="369.0,401.5,318.0,399.5" stroke="black" stroke-width="2" fill="none" />
<polyline points="322.5,396.5,314.5,389.5,306.5,390.5,298.5,375.0,290.5,377.0,282.5,369.5,274.5,374.0,266.5,370.0,258.5,366.0,251.0,361.0,243.0,361.0" stroke="black" stroke-width="2" fill="none" />
<polyline points="243.0,360.0,250.5,368.0,256.5,376.0,259.5,384.0,260.0,391.5,260.0,399.5,263.5,408.0,268.0,416.5" stroke="black" stroke-width="2" fill="none" />
<polyline points="260.5,403.5,268.0,415.0,276.5,413.0,285.0,415.0,293.0,416.0,301.0,418.5,309.0,414.0,317.5,421.0" stroke="black" stroke-width="2" fill="none" />
<polyline points="318.5,421.0,309.5,412.5" stroke="black" stroke-width="2" fill="none" />
<polyline points="323.0,410.0,321.0,415.0,325.0,407.0,324.0,399.0,318.5,391.0,308.0,391.5,306.0,383.5,299.0,375.5" stroke="black" stroke-width="2" fill="none" />
<polyline points="253.5,370.0,245.5,362.0" stroke="black" stroke-width="2" fill="none" />
<polyline points="249.0,361.0,262.0,369.0" stroke="black" stroke-width="2" fill="none" />
<polyline points="241.5,376.5,233.0,369.0,225.5,367.0,218.0,366.0,210.0,368.0,202.0,372.0,194.0,384.0" stroke="black" stroke-width="2" fill="none" />
<polyline points="181.0,379.0,189.0,361.0,195.0,352.5,203.0,355.5" stroke="black" stroke-width="2" fill="none" />
<polyline points="204.5,345.0,190.5,353.0,183.5,356.5,191.5,352.5,199.5,347.5,207.5,345.0" stroke="black" stroke-width="2" fill="none" />
<polyline points="207.0,345.5,208.0,353.5,190.0,357.0,189.0,365.0,185.0,373.5,182.0,382.0,180.0,390.0,179.5,398.0,181.0,406.5" stroke="black" stroke-width="2" fill="none" />
<polyline points="195.5,401.0,203.0,412.0,210.5,416.0,218.5,418.5,226.5,417.0,234.0,414.5,242.0,406.5" stroke="black" stroke-width="2" fill="none" />
<polyline points="229.0,430.0,180.0,480.5" stroke="black" stroke-width="2" fill="none" />
<polyline points="159.0,488.5,167.0,484.5,175.0,478.0,183.0,472.5,191.5,466.0,199.5,459.0,207.5,452.0,215.5,448.5,206.0,452.5,196.0,460.5,187.0,468.5,178.0,476.5,167.5,484.5,157.5,492.0,164.5,500.0,171.5,507.5,171.5,516.0,171.0,524.0,174.0,532.0,182.0,535.0,190.0,535.0,197.5,535.0,205.5,535.0,213.5,533.5,221.5,534.5,229.5,533.5,237.5,533.0,245.5,532.5,253.5,532.5,261.5,532.0,270.0,531.5,278.0,532.0,286.0,531.0,294.0,528.5,305.0,528.5,313.0,527.5,321.0,526.0,328.5,522.5,336.5,520.5,347.5,524.0,355.5,534.5" stroke="black" stroke-width="2" fill="none" />
<polyline points="293.0,527.0,293.0,519.0,292.0,511.5,270.0,503.0" stroke="black" stroke-width="2" fill="none" />
<polyline points="271.0,471.5,322.5,417.5,375.0,365.0,428.5,314.0,481.5,266.5" stroke="black" stroke-width="2" fill="none" />
<polyline points="472.5,292.0,422.0,291.0" stroke="black" stroke-width="2" fill="none" />
<polyline points="428.0,287.0,436.0,295.0,444.0,302.0" stroke="black" stroke-width="2" fill="none" />
<polyline points="434.0,283.5,443.0,292.0,451.0,300.0,456.0,308.0,457.5,316.0,462.5,323.5,467.0,332.0,469.0,340.0,470.0,348.0,469.5,356.0,468.5,364.0" stroke="black" stroke-width="2" fill="none" />
<polyline points="478.0,350.0,428.5,354.0,377.5,355.5,327.5,359.5,276.5,362.5,227.0,363.0,176.5,362.5" stroke="black" stroke-width="2" fill="none" />
<polyline points="178.5,353.0,173.5,345.0" stroke="black" stroke-width="2" fill="none" />
<polyline points="153.0,372.5,161.5,356.5,169.5,345.5,178.0,347.5,165.0,351.5,160.0,359.5,156.0,367.5,153.5,376.0,154.5,384.0,157.5,391.5,161.5,399.5,176.0,408.0" stroke="black" stroke-width="2" fill="none" />
<polyline points="181.5,410.0,173.5,406.0,165.5,402.0,157.5,390.0" stroke="black" stroke-width="2" fill="none" />
<polyline points="141.5,339.5,133.0,326.5,124.5,316.5,116.0,303.0" stroke="black" stroke-width="2" fill="none" />
<polyline points="106.0,295.0,113.5,308.0,121.5,322.5" stroke="black" stroke-width="2" fill="none" />
<polyline points="129.5,288.5,175.5,285.0,222.0,282.0,270.5,283.0,320.0,286.5" stroke="black" stroke-width="2" fill="none" />
<polyline points="337.5,271.0,286.5,320.5,235.5,372.5,186.0,422.0,137.5,469.5" stroke="black" stroke-width="2" fill="none" />
<polyline points="130.0,470.0,134.0,478.0,140.0,486.5,144.0,494.5,145.0,502.5,145.5,510.0,146.0,518.0,147.0,525.5,147.0,533.0,145.0,540.5,143.0,548.5,143.0,556.5,143.5,565.0,142.5,573.0,140.0,581.5,131.0,589.5,127.0,598.0,123.0,606.0,122.5,614.5,121.0,623.0,120.0,631.5,120.5,639.0,120.5,647.0,116.5,655.0,109.0,663.0,105.5,671.0,106.0,679.0,104.5,687.5,102.5,696.0,100.5,703.5,97.5,711.5,95.5,719.5,91.0,727.5,86.0,735.0,80.5,743.0,74.0,751.5,68.0,759.5,64.5,767.0,62.5,774.5,48.5,782.5,38.5,790.5,30.0,798.5,24.0,806.5,21.5,814.5,20.0,823.0,20.5,831.0,21.0,839.0" stroke="black" stroke-width="2" fill="none" />
<polyline points="163.0,500.0,154.5,490.0,146.5,493.0" stroke="black" stroke-width="2" fill="none" />
<polyline points="158.0,491.0,165.0,499.0" stroke="black" stroke-width="2" fill="none" />
<polyline points="160.0,491.0,168.0,499.5,176.0,504.5,184.0,499.5,192.0,495.5,200.0,492.5,207.5,489.5,215.5,487.5" stroke="black" stroke-width="2" fill="none" />
<polyline points="206.5,490.0,189.0,498.0,175.0,508.0,182.5,504.0,190.5,499.5,198.5,495.5,206.0,493.0,214.5,490.0,222.5,487.5,230.5,488.5,239.0,490.5,247.0,492.0,254.5,494.0,262.5,496.0,271.0,499.0,279.0,501.5,287.0,504.5,294.5,507.0,302.0,504.0,310.0,494.5" stroke="black" stroke-width="2" fill="none" />
<polyline points="213.5,447.0,215.5,455.0,215.5,463.5,216.0,471.5,216.5,480.0,208.5,491.0,189.0,499.0,176.0,506.0,173.5,514.5,173.0,522.5,173.0,530.5" stroke="black" stroke-width="2" fill="none" />
<polyline points="127.0,383.5,119.0,385.5,111.0,389.0,103.0,390.0,95.0,388.5,86.5,381.5,78.5,366.5" stroke="black" stroke-width="2" fill="none" />
<polyline points="77.5,373.0,129.0,375.5,179.0,380.0,230.5,384.0" stroke="black" stroke-width="2" fill="none" />
<polyline points="229.0,370.0,241.5,378.0,246.0,385.0,248.0,393.0,246.0,400.5,241.5,408.5,226.5,416.5" stroke="black" stroke-width="2" fill="none" />
<polyline points="210.0,416.5,198.0,408.5,194.0,400.5,193.0,392.5,195.0,384.5,200.0,377.0,213.0,368.5" stroke="black" stroke-width="2" fill="none" />
<polyline points="253.0,328.5,261.0,318.0,269.0,307.5,277.0,299.5,285.0,292.5,293.0,287.5,285.5,292.5,275.5,300.5,269.0,309.0,264.0,317.0,257.0,324.5,254.5,333.0,257.5,336.5,265.5,332.0,273.0,323.5,280.5,321.5" stroke="black" stroke-width="2" fill="none" />
<polyline points="286.0,306.5,294.0,294.5,295.5,293.5,290.5,301.0,286.5,309.0,286.5,316.5,272.5,324.0,266.0,332.0" stroke="black" stroke-width="2" fill="none" />
<polyline points="300.5,313.0,308.5,314.0,316.5,313.5,324.5,314.0,332.0,315.5" stroke="black" stroke-width="2" fill="none" />
<polyline points="349.5,307.5,348.0,299.5,352.0,291.5,340.5,281.5,332.5,276.0,324.5,270.0,316.5,265.5,308.5,264.5" stroke="black" stroke-width="2" fill="none" />
<polyline points="311.5,262.0,324.5,270.0,335.5,277.5,345.5,285.5,344.0,293.5,341.0,301.5,339.0,310.0,343.5,295.0" stroke="black" stroke-width="2" fill="none" />
<polyline points="387.0,276.0,396.0,268.5" stroke="black" stroke-width="2" fill="none" />
<polyline points="404.0,274.5,402.0,282.5,402.0,290.5,400.5,299.0,399.5,307.5,398.0,315.5,392.0,324.0,386.0,332.0,379.0,340.0,372.0,348.0,370.0,356.0,370.5,364.0,371.5,372.0,374.0,380.0,383.0,387.5,393.0,395.0,405.0,403.0" stroke="black" stroke-width="2" fill="none" />
<polyline points="378.5,393.5,386.5,397.5,394.5,403.0,402.5,408.0,410.5,411.0,418.0,411.0,426.5,409.0,435.0,404.5,443.0,398.0,451.0,394.5,459.5,387.5,467.0,397.5,478.0,410.0,486.0,412.0,494.0,418.5" stroke="black" stroke-width="2" fill="none" />
<polyline points="483.0,413.5,433.5,414.0" stroke="black" stroke-width="2" fill="none" />
<polyline points="423.5,398.0,415.5,398.0,407.5,396.5,399.5,391.5,391.5,385.5,383.0,377.5,374.5,366.5" stroke="black" stroke-width="2" fill="none" />
<polyline points="372.0,375.0,380.0,385.0,388.5,391.5,396.5,397.0,404.0,403.0,412.0,404.5,420.5,404.5" stroke="black" stroke-width="2" fill="none" />
<polyline points="434.0,366.5,442.0,369.5" stroke="black" stroke-width="2" fill="none" />
<polyline points="449.5,357.5,441.5,354.5" stroke="black" stroke-width="2" fill="none" />
<polyline points="425.0,342.0,432.5,342.0,440.5,346.0,440.5,351.5,448.5,357.5,451.5,365.5,451.5,373.0" stroke="black" stroke-width="2" fill="none" />
<polyline points="460.0,387.5,450.0,395.5,437.0,403.5" stroke="black" stroke-width="2" fill="none" />
<polyline points="462.5,388.0,466.5,396.0,469.5,404.0,471.5,412.0,462.5,420.0,459.5,428.5,458.5,436.5,456.0,444.0,454.0,451.5,450.0,459.5,440.5,467.5" stroke="black" stroke-width="2" fill="none" />
<polyline points="491.0,451.0,490.5,443.0,489.5,435.0,489.0,427.0,480.0,419.0" stroke="black" stroke-width="2" fill="none" />
<polyline points="466.5,382.5,474.0,373.5" stroke="black" stroke-width="2" fill="none" />
<polyline points="466.5,325.0,414.5,324.5,361.5,322.5,310.5,322.0,258.0,324.5,208.5,325.5,158.5,328.5,109.0,334.5,58.5,335.5" stroke="black" stroke-width="2" fill="none" />
<polyline points="53.5,334.5,57.5,326.5,62.5,318.5,69.5,311.0,77.5,303.0,85.0,295.5,81.0,292.5,73.0,292.5,65.0,299.5,57.0,309.5,49.0,322.5" stroke="black" stroke-width="2" fill="none" />
<polyline points="73.0,292.0,64.0,300.0,58.5,308.0,53.5,316.0,50.0,324.5,49.5,332.5,50.5,341.0,59.5,324.0,67.0,314.0,75.5,306.5,83.0,298.5" stroke="black" stroke-width="2" fill="none" />
<polyline points="107.5,264.5,93.5,272.5,79.5,280.5,66.5,288.5,57.5,297.0,51.5,305.0,47.5,313.0,42.5,321.0,38.5,329.0,36.0,337.0,34.0,345.0,33.5,353.0,36.5,361.0,45.5,369.0,55.0,376.5,58.0,384.5,55.0,392.5,51.0,400.5,48.0,408.0,45.0,416.0,41.5,423.5,37.5,431.5,28.5,439.5,23.5,447.5,20.0,455.5,17.0,463.5,14.5,472.0,14.0,480.0,13.0,488.5,12.0,496.5,12.0,504.5,10.5,512.5,10.5,520.5,9.5,529.0,9.5,537.5,10.0,546.0,9.5,554.0,10.5,562.0,11.5,570.5,13.5,578.5,15.5,586.0,17.5,594.0,20.5,602.0,24.5,610.0,32.5,617.5" stroke="black" stroke-width="2" fill="none" />
<polyline points="52.0,458.0,44.0,445.0,36.0,456.0" stroke="black" stroke-width="2" fill="none" />
<polyline points="42.0,445.0,38.5,453.0,39.5,461.0,43.5,469.0,41.0,476.5,40.0,484.5,39.0,492.5,38.0,500.5,38.0,508.0,38.0,516.0,37.5,523.5,36.5,531.5,24.5,539.5,19.5,541.5,27.0,538.5,35.0,537.5" stroke="black" stroke-width="2" fill="none" />
<polyline points="60.5,452.5,53.0,443.5,45.5,437.0" stroke="black" stroke-width="2" fill="none" />
<polyline points="44.0,445.5,49.0,453.5,53.5,461.5,55.0,469.0,55.0,477.0,54.0,485.0,54.0,493.0,53.0,501.5,53.0,509.5,52.0,517.5,52.0,526.0,52.0,534.0,52.0,541.5,52.0,549.5,54.5,557.5,55.5,566.0,56.5,574.0,57.5,581.5,56.0,589.5,51.0,597.5" stroke="black" stroke-width="2" fill="none" />
<polyline points="40.0,423.5,48.0,404.0,56.0,385.0,70.0,395.5,81.5,403.5" stroke="black" stroke-width="2" fill="none" />
<polyline points="65.0,365.0,118.0,312.5,168.5,262.0" stroke="black" stroke-width="2" fill="none" />
<polyline points="173.5,251.0,182.0,262.0,189.5,271.0,197.5,280.5,205.0,281.0,212.5,276.0,220.5,276.0,228.0,276.0,236.0,276.0,243.5,276.5,251.5,285.5,259.5,281.5,267.5,275.0,275.5,270.0,283.5,263.5" stroke="black" stroke-width="2" fill="none" />
<polyline points="281.0,249.5,289.0,240.0,296.5,231.0,305.0,223.0,313.0,215.0,321.0,205.0" stroke="black" stroke-width="2" fill="none" />
<polyline points="320.5,209.0,372.0,209.0" stroke="black" stroke-width="2" fill="none" />
<polyline points="370.5,176.5,320.5,224.5" stroke="black" stroke-width="2" fill="none" />
<polyline points="325.0,236.0,316.5,245.0,308.5,254.0" stroke="black" stroke-width="2" fill="none" />
<polyline points="310.5,256.5,319.0,261.5,327.0,266.0,335.0,271.0,343.5,277.5,351.5,277.0,359.5,276.0,367.5,276.5,375.5,278.5,383.5,281.5,391.5,271.5,399.5,268.5,407.5,267.0,415.5,267.0,423.5,268.5,431.5,273.5,439.0,279.5,446.5,288.0,454.5,296.0,462.5,305.0,470.5,318.5" stroke="black" stroke-width="2" fill="none" />
<polyline points="451.5,324.5,459.5,337.5" stroke="black" stroke-width="2" fill="none" />
<polyline points="466.5,328.0,458.0,315.0,450.0,297.5,442.0,289.5,434.0,282.5,426.5,284.0" stroke="black" stroke-width="2" fill="none" />
<polyline points="429.5,282.0,430.0,290.5,438.0,298.5,447.0,306.5,450.0,314.5,451.0,322.5,455.0,330.5,460.0,338.5,462.0,347.0,461.5,354.5,462.5,363.0,468.0,366.0" stroke="black" stroke-width="2" fill="none" />
<polyline points="450.5,374.5,444.0,380.5,442.5,372.5,432.5,364.5,431.0,356.5,424.5,348.5,424.5,340.5" stroke="black" stroke-width="2" fill="none" />
<polyline points="425.0,270.0,435.0,277.5,443.5,286.0,452.5,294.0,459.0,301.5,465.0,310.0,470.0,318.0,473.0,326.0,476.5,334.0,478.5,341.5,479.5,349.0,480.5,357.0,477.5,365.5,471.0,373.5,464.5,382.0,467.5,390.0,471.0,398.0,474.0,406.0,488.5,414.5,496.0,422.5,499.0,430.5,501.0,438.5,502.5,446.5,503.5,454.5,504.0,462.5,504.0,470.5,504.0,478.5,504.0,486.5,503.5,494.0,504.5,502.0,505.0,510.0,504.5,518.0,504.5,525.5,503.0,533.5,502.5,541.5,501.5,549.0,499.5,557.0,497.5,565.0,493.5,573.0,489.5,581.0,482.5,589.0,477.0,597.0,471.0,605.0,460.5,613.0" stroke="black" stroke-width="2" fill="none" />
<polyline points="304.0,304.0,301.0,310.0,305.0,302.0,307.0,293.5,307.5,285.0,308.5,277.0,308.5,268.5,309.5,260.5" stroke="black" stroke-width="2" fill="none" />
<polyline points="292.0,242.5,291.5,251.0,290.5,259.0,280.0,267.0,268.0,274.5,257.0,282.0" stroke="black" stroke-width="2" fill="none" />
<polyline points="258.5,268.0,251.5,260.0" stroke="black" stroke-width="2" fill="none" />
<polyline points="255.5,259.0,261.5,266.5" stroke="black" stroke-width="2" fill="none" />
<polyline points="289.0,243.0,278.0,258.0,269.5,263.5,261.5,267.5,253.5,257.5,245.5,256.5,237.5,257.0,229.5,257.0,221.5,257.0,213.0,257.0,205.5,257.0,197.5,266.0,189.5,261.0,181.5,252.5" stroke="black" stroke-width="2" fill="none" />
<polyline points="179.5,257.0,187.5,264.0,195.5,272.0" stroke="black" stroke-width="2" fill="none" />
<polyline points="195.5,272.0,187.5,264.5,178.5,256.5,178.5,248.5,177.5,241.0,176.5,234.5,168.5,228.5,160.5,221.5,152.5,210.5" stroke="black" stroke-width="2" fill="none" />
<polyline points="137.0,215.0,145.0,230.0,153.0,243.5,161.5,256.5,170.0,268.5" stroke="black" stroke-width="2" fill="none" />
<polyline points="202.5,267.5,208.5,259.5" stroke="black" stroke-width="2" fill="none" />
<polyline points="206.5,256.5,199.5,265.0" stroke="black" stroke-width="2" fill="none" />
<polyline points="208.0,274.0,201.0,281.5" stroke="black" stroke-width="2" fill="none" />
<polyline points="199.0,284.0,192.0,276.0,186.0,268.0,179.0,260.5,172.5,252.5,172.5,244.0,173.5,236.0" stroke="black" stroke-width="2" fill="none" />
<polyline points="173.5,213.5,165.5,204.5,157.0,196.5,149.0,190.5" stroke="black" stroke-width="2" fill="none" />
<polyline points="151.0,190.0,152.0,198.0,153.0,206.0,155.0,214.0,162.0,222.0,171.0,230.5,181.5,238.0,181.0,246.0,182.0,254.5,190.0,262.5,203.0,264.5,211.0,260.0,219.0,260.5,227.0,260.5,235.0,260.5,243.0,260.5,251.0,261.5,259.0,270.5,267.0,269.5,274.5,265.5" stroke="black" stroke-width="2" fill="none" />
<polyline points="274.0,265.0,281.0,257.0,284.5,249.0,291.5,241.5" stroke="black" stroke-width="2" fill="none" />
<polyline points="333.0,190.5,384.5,192.5" stroke="black" stroke-width="2" fill="none" />
<polyline points="380.0,162.5,328.5,161.5" stroke="black" stroke-width="2" fill="none" />
<polyline points="323.5,174.5,375.0,125.0" stroke="black" stroke-width="2" fill="none" />
<polyline points="361.5,84.5,312.0,134.5" stroke="black" stroke-width="2" fill="none" />
<polyline points="316.5,133.0,366.0,133.5" stroke="black" stroke-width="2" fill="none" />
<polyline points="371.0,102.0,324.5,103.5" stroke="black" stroke-width="2" fill="none" />
<polyline points="323.5,72.5,373.0,71.0" stroke="black" stroke-width="2" fill="none" />
<polyline points="326.0,21.5,276.5,71.5,229.0,120.5" stroke="black" stroke-width="2" fill="none" />
<polyline points="232.5,107.5,234.5,99.5,234.5,97.5" stroke="black" stroke-width="2" fill="none" />
<polyline points="237.5,95.0,238.5,103.0" stroke="black" stroke-width="2" fill="none" />
<polyline points="230.5,108.0,222.5,95.0" stroke="black" stroke-width="2" fill="none" />
<polyline points="224.0,96.0,228.0,103.5" stroke="black" stroke-width="2" fill="none" />
<polyline points="224.0,109.0,216.0,108.0,208.0,96.5" stroke="black" stroke-width="2" fill="none" />
<polyline points="208.5,106.5,206.0,98.5,205.0,90.0,204.0,81.5,204.0,74.0,203.0,66.0,202.5,58.0,194.5,56.0,186.5,55.0,178.5,57.5,171.0,61.0,163.5,64.5,155.5,68.5,147.5,77.0" stroke="black" stroke-width="2" fill="none" />
<polyline points="131.0,75.0,139.0,58.0,147.5,46.0,156.0,38.0,163.5,32.0,171.5,27.0,179.5,23.5,187.5,20.5,195.5,17.5,204.0,15.5,212.0,13.0,220.0,11.5,228.0,9.0,236.0,8.5,244.5,8.0,252.5,8.0,260.5,8.5,268.0,9.5,276.0,12.5,284.0,16.5,292.0,20.5,300.0,24.5,307.5,28.5,315.5,34.5,323.5,44.5" stroke="black" stroke-width="2" fill="none" />
<polyline points="323.5,66.5,270.0,68.0,216.5,67.0,165.0,67.0" stroke="black" stroke-width="2" fill="none" />
<polyline points="175.0,82.0,223.0,31.5" stroke="black" stroke-width="2" fill="none" />
<polyline points="238.0,48.0,245.0,56.0,251.0,63.5,255.0,71.5" stroke="black" stroke-width="2" fill="none" />
<polyline points="253.5,72.5,245.5,71.5" stroke="black" stroke-width="2" fill="none" />
<polyline points="244.5,71.0,244.0,79.5,244.0,87.5,244.0,95.5,243.5,103.5,241.5,107.0" stroke="black" stroke-width="2" fill="none" />
<polyline points="221.5,103.0,220.5,95.0" stroke="black" stroke-width="2" fill="none" />
<polyline points="221.5,83.0,273.5,36.5" stroke="black" stroke-width="2" fill="none" />
<polyline points="277.0,47.0,272.0,55.0,268.0,63.0,264.0,70.5,261.0,78.5,257.0,86.0,254.0,94.0,250.5,102.0,247.5,110.0" stroke="black" stroke-width="2" fill="none" />
<polyline points="267.0,81.0,217.0,79.5" stroke="black" stroke-width="2" fill="none" />
<polyline points="198.5,50.5,200.5,44.5,208.0,47.5,216.0,49.0,223.5,49.0,231.0,50.5,239.0,51.5,247.5,60.0" stroke="black" stroke-width="2" fill="none" />
<polyline points="278.0,49.5,296.0,57.0,308.5,65.0,310.5,73.0,312.0,80.5,313.5,89.0,315.0,97.0,316.5,105.0,317.5,113.0,318.5,121.0,319.5,129.0,320.5,137.0,321.5,145.5,322.5,157.5,323.0,166.0,323.0,174.0,316.5,182.0,306.5,189.5,298.5,197.5,291.0,205.0,289.0,207.0,297.0,198.0,305.0,191.5,313.0,184.5,321.0,178.5" stroke="black" stroke-width="2" fill="none" />
<polyline points="322.0,180.0,312.0,188.0,303.5,196.0,295.5,204.0,289.5,211.0,297.5,202.0,305.0,194.0,313.0,187.0,320.5,181.0" stroke="black" stroke-width="2" fill="none" />
<polyline points="324.0,182.5,324.0,190.5,323.5,198.5,320.0,206.5,313.5,214.5,305.5,222.0,297.5,230.0,290.0,238.0,283.0,246.5,278.5,254.0,272.0,262.0" stroke="black" stroke-width="2" fill="none" />
<polyline points="303.0,171.5,308.0,163.5,306.5,157.5,298.5,157.0,290.5,158.0,282.0,159.5,273.5,161.0,265.5,162.0,257.0,164.5" stroke="black" stroke-width="2" fill="none" />
<polyline points="266.5,162.5,255.5,170.0,255.0,178.0,260.0,177.0,268.0,175.5,276.0,174.5,283.5,173.5,291.5,172.0,299.5,168.5" stroke="black" stroke-width="2" fill="none" />
<polyline points="301.5,166.5,306.5,158.5" stroke="black" stroke-width="2" fill="none" />
<polyline points="322.0,156.0,314.0,157.0,305.5,167.5,297.0,176.0,289.0,175.5,280.5,176.5,272.0,178.0,264.0,180.0,257.0,177.0,257.0,168.5,248.5,165.0,241.0,164.5,233.0,165.5,225.0,166.0,217.5,166.0,210.0,167.0,202.0,167.0,193.5,168.0" stroke="black" stroke-width="2" fill="none" />
<polyline points="196.5,167.0,196.5,175.0" stroke="black" stroke-width="2" fill="none" />
<polyline points="190.5,181.0,183.0,180.5,175.0,181.0,167.0,177.0,159.0,165.5" stroke="black" stroke-width="2" fill="none" />
<polyline points="157.5,162.5,165.5,163.5,173.5,165.5,181.5,167.0,189.5,168.5,197.5,176.5" stroke="black" stroke-width="2" fill="none" />
<polyline points="195.0,184.0,187.0,184.0,178.5,184.5,170.5,184.5,162.0,178.5,154.5,166.0,146.5,165.0" stroke="black" stroke-width="2" fill="none" />
<polyline points="151.5,163.0,157.5,170.5,162.5,178.5" stroke="black" stroke-width="2" fill="none" />
<polyline points="150.0,184.5,157.5,192.5,165.5,200.5,173.5,208.5,181.5,220.0" stroke="black" stroke-width="2" fill="none" />
<polyline points="175.5,215.5,168.5,207.5,160.0,199.0,152.0,191.0" stroke="black" stroke-width="2" fill="none" />
<polyline points="168.5,178.5,163.0,170.5,158.0,162.0" stroke="black" stroke-width="2" fill="none" />
<polyline points="147.0,154.0,155.0,159.0,163.0,161.0,170.5,162.0,178.5,164.0,186.5,165.0,194.5,166.5,203.0,165.5,211.0,165.5,219.0,164.5,227.0,164.0,235.0,163.0,242.5,163.0,250.5,162.0,258.5,161.0,266.5,159.5,274.5,157.0,282.5,156.0,290.5,155.5,298.5,154.5,306.5,154.5,314.5,153.5" stroke="black" stroke-width="2" fill="none" />
<polyline points="320.5,42.0,269.0,44.0,219.5,43.0,171.0,40.5" stroke="black" stroke-width="2" fill="none" />
<polyline points="190.5,51.0,172.0,59.0,157.5,67.5,147.5,75.5,145.5,83.0,144.5,91.0,145.0,99.5,145.5,107.5,144.5,115.5,145.5,123.5,145.5,131.0,146.0,139.5,147.0,147.5,148.0,155.5,148.0,165.5,149.0,173.5,150.0,181.5,155.0,189.5,163.0,198.0,170.5,205.5,177.5,214.0,183.0,222.0" stroke="black" stroke-width="2" fill="none" />
<polyline points="193.0,176.0,189.5,168.0" stroke="black" stroke-width="2" fill="none" />
<polyline points="193.5,54.0,194.5,62.0,196.5,70.0,197.5,78.0,199.0,86.5,200.5,94.5,201.5,102.0,202.5,110.0,206.5,114.0,215.0,114.0,223.0,114.5,231.0,115.0,239.0,115.0,247.0,113.0,254.5,95.0,262.5,77.5,270.0,60.0,278.0,49.0,286.0,52.0,293.5,56.0,301.5,60.0,310.0,65.0" stroke="black" stroke-width="2" fill="none" />
<polyline points="196.0,15.0,176.0,23.5,162.5,31.5,151.5,40.0,145.5,48.0,140.0,55.5,135.5,63.5,131.5,71.5,131.0,79.5,130.0,87.5,130.0,96.0,130.0,103.5,129.5,112.0,130.5,120.0,130.0,127.5,130.0,136.0,130.0,144.0,130.0,152.0,131.5,160.0,131.5,167.5,132.5,175.0,132.5,183.0,133.5,191.5,134.0,199.5,135.5,208.0,137.5,216.0,142.0,224.0,146.0,232.0,151.5,240.5,157.0,248.5,162.0,256.5,168.0,264.5,169.5,272.5" stroke="black" stroke-width="2" fill="none" />
<polyline points="141.5,289.0,131.5,297.0,131.5,305.5,135.5,309.5,143.5,307.0,151.5,305.0" stroke="black" stroke-width="2" fill="none" />
<polyline points="124.0,273.0,115.0,265.0" stroke="black" stroke-width="2" fill="none" />
<polyline points="142.0,366.5,134.0,382.5,123.5,389.5,115.5,397.0,107.0,403.5,99.0,403.5,91.0,400.5,82.5,394.0,74.5,385.5,66.5,376.5,58.5,367.5" stroke="black" stroke-width="2" fill="none" />
<polyline points="58.0,362.0,65.5,351.0,73.5,344.0,81.5,338.0,89.0,335.5,91.0,339.0,81.5,347.5,77.0,355.5,78.5,363.5,82.0,371.5,85.0,379.5,91.0,387.0" stroke="black" stroke-width="2" fill="none" />
</svg>