<svg xmlns="http://www.w3.org/2000/svg" version="1.1"><polyline points="183.5,50.5,167.5,58.0,157.0,66.0,152.5,74.5,148.0,83.0,143.5,91.5,140.5,99.5,137.0,108.0,135.0,116.0,132.0,124.5,131.0,132.5,128.0,140.5,127.0,148.0,120.5,156.0,116.5,164.0,112.0,172.0,110.0,180.5,108.5,188.5,107.5,196.0,108.0,203.5,108.0,211.5,108.0,219.5,110.0,227.5,111.5,236.0,113.5,244.0,118.5,251.5,124.0,259.0,127.5,267.0,127.5,274.5,127.5,282.0,131.5,290.0,134.5,298.0,138.0,306.0,143.0,314.5,150.0,322.5,156.5,331.0,164.5,339.5,172.0,347.5,181.5,356.0,192.5,364.0,207.5,372.0,221.5,380.0,232.0,388.0,245.0,396.0,255.5,403.5,268.5,411.5" stroke="black" stroke-width="2" fill="none" />
<polyline points="268.0,376.0,217.5,428.0" stroke="black" stroke-width="2" fill="none" />
<polyline points="220.0,412.5,268.5,412.0" stroke="black" stroke-width="2" fill="none" />
<polyline points="277.5,391.5,228.5,391.5" stroke="black" stroke-width="2" fill="none" />
<polyline points="239.0,370.0,247.0,376.5,254.5,380.0,262.5,385.0,270.0,388.0,278.5,384.5,286.0,381.5" stroke="black" stroke-width="2" fill="none" />
<polyline points="277.0,384.5,290.0,377.0,290.0,369.0,289.0,361.0" stroke="black" stroke-width="2" fill="none" />
<polyline points="294.5,357.5,302.5,357.5,310.5,357.0,318.5,356.5,326.5,356.5,334.5,354.0,347.0,357.0,346.5,365.5,347.0,373.5,341.0,377.5" stroke="black" stroke-width="2" fill="none" />
<polyline points="322.5,388.0,373.0,389.0" stroke="black" stroke-width="2" fill="none" />
<polyline points="376.5,386.5,328.5,433.5" stroke="black" stroke-width="2" fill="none" />
<polyline points="325.0,418.0,373.5,415.5" stroke="black" stroke-width="2" fill="none" />
<polyline points="352.0,374.5,354.5,366.5,357.5,359.0,351.5,358.0" stroke="black" stroke-width="2" fill="none" />
<polyline points="348.5,374.5,348.0,366.5,349.5,358.5,341.5,356.5,333.5,356.5" stroke="black" stroke-width="2" fill="none" />
<polyline points="277.5,358.0,232.5,359.5,185.5,360.5" stroke="black" stroke-width="2" fill="none" />
<polyline points="217.5,369.0,265.5,320.5" stroke="black" stroke-width="2" fill="none" />
<polyline points="279.0,325.5,230.5,323.0,182.5,322.5" stroke="black" stroke-width="2" fill="none" />
<polyline points="177.5,307.0,225.0,305.0" stroke="black" stroke-width="2" fill="none" />
<polyline points="209.5,322.5,160.0,372.0" stroke="black" stroke-width="2" fill="none" />
<polyline points="122.0,316.5,172.5,269.0,223.0,222.5,272.5,172.0" stroke="black" stroke-width="2" fill="none" />
<polyline points="233.5,186.0,183.0,234.0,132.0,280.5" stroke="black" stroke-width="2" fill="none" />
<polyline points="127.0,286.5,135.0,301.5,143.5,315.0,151.5,324.0,160.0,334.0,168.5,343.5,176.5,349.5,184.0,357.5,192.0,362.5,200.5,368.5,208.0,372.5,216.5,376.0,224.5,380.0,232.5,385.0,240.0,391.0,248.0,396.0,256.0,402.0,264.0,407.0,272.0,412.0,280.0,414.5,288.5,414.5,296.0,413.5,304.0,413.0,311.5,413.0,319.5,412.0,327.5,412.0,335.5,410.5,343.5,408.0" stroke="black" stroke-width="2" fill="none" />
<polyline points="280.5,354.0,272.0,356.0,264.0,351.0,256.0,344.5" stroke="black" stroke-width="2" fill="none" />
<polyline points="251.5,351.0,244.0,359.0,236.5,367.0,242.5,375.0,259.0,382.5" stroke="black" stroke-width="2" fill="none" />
<polyline points="237.0,366.0,245.0,357.0,252.5,351.0,260.5,356.0,269.0,362.5,277.5,363.5,285.5,359.0,292.5,359.0,292.5,367.5,292.5,375.5,294.5,381.0,302.0,380.5,310.0,376.5,318.0,374.5,326.0,373.5,334.0,374.5,342.0,379.0" stroke="black" stroke-width="2" fill="none" />
<polyline points="373.0,332.0,364.5,344.5,362.5,342.5,367.5,334.0,372.0,326.5,375.5,318.5" stroke="black" stroke-width="2" fill="none" />
<polyline points="377.0,317.5,369.0,325.0,365.0,333.0,361.0,340.5,361.0,340.0" stroke="black" stroke-width="2" fill="none" />
<polyline points="331.5,286.0,380.0,237.5" stroke="black" stroke-width="2" fill="none" />
<polyline points="377.0,236.5,375.0,244.5,377.0,248.5,385.0,244.5,393.0,242.0" stroke="black" stroke-width="2" fill="none" />
<polyline points="393.5,223.5,385.5,225.5,377.0,227.0,368.5,229.0,360.5,228.5,352.0,229.5,344.0,229.0,336.0,228.5,328.5,228.5,320.0,228.5,312.5,226.5,304.0,225.0,296.0,224.0,288.0,221.0,285.0,226.0,278.0,228.0,264.0,222.0" stroke="black" stroke-width="2" fill="none" />
<polyline points="264.0,225.0,315.5,225.5,366.0,228.5" stroke="black" stroke-width="2" fill="none" />
<polyline points="372.0,237.5,370.0,240.0,373.5,248.0,375.5,251.5,383.5,250.5,391.5,248.0,397.5,248.0,395.5,256.0,393.5,264.0,391.5,272.0,389.5,280.0,385.5,288.0,382.5,296.0,380.5,304.0,376.5,312.0,368.5,320.0,364.5,328.0,360.5,336.5,355.5,344.5,363.5,342.5,371.5,330.5,372.0,320.5" stroke="black" stroke-width="2" fill="none" />
<polyline points="356.5,236.5,348.5,236.5,341.0,236.0,330.0,233.5,320.0,235.5,312.0,236.0,303.5,230.5,295.5,229.5,287.5,230.0" stroke="black" stroke-width="2" fill="none" />
<polyline points="293.0,231.5,300.5,233.0,308.5,234.0,316.5,232.0,319.0,234.0" stroke="black" stroke-width="2" fill="none" />
<polyline points="313.0,227.0,263.5,276.0" stroke="black" stroke-width="2" fill="none" />
<polyline points="292.5,252.0,300.5,253.0" stroke="black" stroke-width="2" fill="none" />
<polyline points="315.5,245.0,320.5,237.0,313.5,247.0,305.0,248.5,297.0,246.5,289.0,245.5,281.0,244.0,273.5,242.0,266.0,239.0,258.0,235.0" stroke="black" stroke-width="2" fill="none" />
<polyline points="248.0,233.5,257.0,226.0,265.0,218.0,257.0,222.0,248.5,229.0,240.5,229.0,232.5,223.0" stroke="black" stroke-width="2" fill="none" />
<polyline points="231.0,226.5,241.5,234.5,253.5,242.5,264.5,246.5,272.5,249.5,280.5,252.5,289.5,255.5,297.5,256.0,305.5,257.0,314.0,257.0,322.0,251.0,330.0,240.0,335.5,242.0,343.0,242.0,351.0,241.5,359.0,241.5,367.0,240.5,371.5,234.0,380.5,234.0,388.5,232.0" stroke="black" stroke-width="2" fill="none" />
<polyline points="384.0,247.0,400.0,243.0,400.5,235.0,403.0,227.0,408.5,219.0" stroke="black" stroke-width="2" fill="none" />
<polyline points="405.5,221.5,397.5,226.5,386.5,227.5,403.5,219.0,410.0,211.0,408.0,203.0" stroke="black" stroke-width="2" fill="none" />
<polyline points="400.0,210.5,400.0,202.5,400.5,194.5,398.5,186.5" stroke="black" stroke-width="2" fill="none" />
<polyline points="372.0,171.0,320.5,173.0" stroke="black" stroke-width="2" fill="none" />
<polyline points="324.5,174.5,374.0,124.5" stroke="black" stroke-width="2" fill="none" />
<polyline points="387.0,120.5,388.0,124.5,389.5,132.5,392.5,140.5,394.0,149.0,395.0,157.0,396.0,165.5,397.0,173.5" stroke="black" stroke-width="2" fill="none" />
<polyline points="383.0,141.5,332.0,140.0" stroke="black" stroke-width="2" fill="none" />
<polyline points="318.5,122.0,368.0,74.0" stroke="black" stroke-width="2" fill="none" />
<polyline points="372.0,82.5,322.0,81.5" stroke="black" stroke-width="2" fill="none" />
<polyline points="346.5,73.0,354.5,72.0,363.0,78.5,371.0,87.0,379.5,96.0,387.5,109.0,395.5,127.5" stroke="black" stroke-width="2" fill="none" />
<polyline points="395.5,122.0,387.5,105.0,379.0,93.0,371.0,82.5,363.5,75.0,355.5,68.5,347.5,62.5,339.5,58.5,331.5,53.5,323.5,50.5,315.5,48.5,307.5,47.5,300.0,45.5,292.0,44.5,284.0,43.5,275.5,42.5,267.5,42.5,259.5,42.5,251.5,43.0,244.0,42.5,236.5,43.5,228.5,44.0,220.5,45.0,212.5,46.0,204.5,46.5,196.0,48.5,188.0,51.5,180.0,53.5,171.5,57.0,163.5,62.0,155.5,70.0,147.5,82.0,139.5,97.0,131.5,119.0" stroke="black" stroke-width="2" fill="none" />
<polyline points="165.5,138.0,218.0,134.5" stroke="black" stroke-width="2" fill="none" />
<polyline points="211.5,156.5,162.5,155.0" stroke="black" stroke-width="2" fill="none" />
<polyline points="174.5,131.0,225.0,83.0" stroke="black" stroke-width="2" fill="none" />
<polyline points="230.0,97.5,235.0,105.5" stroke="black" stroke-width="2" fill="none" />
<polyline points="238.5,107.5,230.5,101.5" stroke="black" stroke-width="2" fill="none" />
<polyline points="229.5,99.0,240.0,107.0" stroke="black" stroke-width="2" fill="none" />
<polyline points="236.0,102.5,228.0,98.5" stroke="black" stroke-width="2" fill="none" />
<polyline points="225.0,98.5,233.0,94.5,240.5,90.5,248.5,86.5,257.0,84.0,265.0,81.5,273.0,79.0,281.0,78.0,289.0,77.5,297.0,86.0,305.0,101.0,313.5,115.0" stroke="black" stroke-width="2" fill="none" />
<polyline points="339.0,108.5,388.0,108.5" stroke="black" stroke-width="2" fill="none" />
<polyline points="391.0,120.5,394.0,128.5,396.0,137.0,398.0,145.0,398.5,153.5,400.5,158.5,400.5,166.0,400.5,174.0,400.5,182.0,400.5,189.5,403.0,197.0,401.0,202.0,400.5,210.0,387.5,223.0,396.0,231.5,395.5,239.5,399.5,249.0,397.5,257.0,395.5,265.5,393.5,273.5,390.5,282.0,387.0,289.5,384.0,297.5,382.0,305.5,379.0,313.5,376.0,321.5,374.0,329.0,368.5,337.0,362.5,345.0,360.5,353.0,358.0,361.0,357.0,369.0,354.5,377.0,352.5,385.0,351.5,393.0,351.0,401.5" stroke="black" stroke-width="2" fill="none" />
<polyline points="284.0,324.0,276.0,313.0,268.0,302.5,260.0,293.5,252.0,287.0,244.0,281.0,235.5,275.0,227.5,268.0,219.5,263.5" stroke="black" stroke-width="2" fill="none" />
<polyline points="225.5,263.0,235.0,270.5,245.0,278.5,255.0,286.0,263.0,294.0,269.5,302.0,275.0,309.5,281.0,317.5,285.5,325.5,287.5,333.5,289.5,341.5,292.5,346.5,300.5,346.5,309.0,347.5,317.5,347.5,326.0,347.5,334.5,347.5,342.5,347.0,351.0,347.0,359.0,337.0,366.0,330.0,371.0,316.0,379.0,307.0,387.0,285.5" stroke="black" stroke-width="2" fill="none" />
<polyline points="335.0,235.5,329.0,243.5,323.0,252.0" stroke="black" stroke-width="2" fill="none" />
<polyline points="281.0,218.0,273.0,217.0,274.0,214.0" stroke="black" stroke-width="2" fill="none" />
<polyline points="270.5,211.5,216.0,210.0,159.5,207.0,106.5,206.0" stroke="black" stroke-width="2" fill="none" />
<polyline points="112.5,223.0,162.5,222.0,214.5,226.0" stroke="black" stroke-width="2" fill="none" />
<polyline points="228.5,225.5,221.5,233.5,215.0,242.0,213.0,250.0,220.0,258.0,221.0,266.0,226.0,274.0,230.5,282.5,236.5,290.5,241.0,298.5,246.0,306.5,251.0,314.0,256.0,322.0,259.5,330.0,257.5,338.0,257.5,345.5,268.5,353.5" stroke="black" stroke-width="2" fill="none" />
<polyline points="264.5,361.5,255.5,353.5" stroke="black" stroke-width="2" fill="none" />
<polyline points="215.5,276.5,164.5,325.5" stroke="black" stroke-width="2" fill="none" />
<polyline points="121.5,277.5,174.0,277.0,224.5,276.5" stroke="black" stroke-width="2" fill="none" />
<polyline points="224.0,268.0,231.5,282.0,239.5,292.0,247.5,305.0,255.5,317.0" stroke="black" stroke-width="2" fill="none" />
<polyline points="286.0,322.5,277.5,313.0,269.5,301.5,261.0,292.5,253.0,285.0,245.5,278.0,237.5,272.0,230.0,265.0,222.0,258.5,214.0,249.5" stroke="black" stroke-width="2" fill="none" />
<polyline points="212.0,244.0,220.0,234.5,228.5,225.0,236.5,229.0,244.5,235.0,252.5,241.5,261.0,244.5,269.0,244.0" stroke="black" stroke-width="2" fill="none" />
<polyline points="238.5,243.0,236.5,235.0" stroke="black" stroke-width="2" fill="none" />
<polyline points="237.0,237.0,229.0,233.0,228.0,243.0,230.0,234.5" stroke="black" stroke-width="2" fill="none" />
<polyline points="231.0,232.0,232.5,240.0" stroke="black" stroke-width="2" fill="none" />
<polyline points="226.0,238.5,227.0,232.5,223.0,241.0,225.0,245.0,227.5,242.5,233.5,247.0" stroke="black" stroke-width="2" fill="none" />
<polyline points="225.0,250.5,174.0,253.5,125.5,253.0" stroke="black" stroke-width="2" fill="none" />
<polyline points="126.5,261.5,118.5,252.5,110.5,235.5" stroke="black" stroke-width="2" fill="none" />
<polyline points="121.0,222.0,170.0,173.0,219.0,125.0,268.0,75.5" stroke="black" stroke-width="2" fill="none" />
<polyline points="273.5,83.5,221.5,85.0,169.0,84.5" stroke="black" stroke-width="2" fill="none" />
<polyline points="181.5,121.0,233.5,121.0,284.0,118.0" stroke="black" stroke-width="2" fill="none" />
<polyline points="253.5,95.0,245.5,93.5" stroke="black" stroke-width="2" fill="none" />
<polyline points="245.0,90.5,253.5,89.5,254.5,87.5" stroke="black" stroke-width="2" fill="none" />
<polyline points="247.5,85.5,231.0,93.5,225.5,101.0,226.0,109.0,226.5,117.0,227.5,125.5,228.5,134.0,229.5,142.0,230.5,150.5,232.0,158.5,233.0,166.5,233.0,174.5,234.5,182.5,235.5,190.5,238.0,199.0,239.0,207.5,238.0,215.0,232.0,223.0,241.0,230.5,253.0,230.0,261.0,223.0,269.5,218.0,277.5,214.0,286.0,218.5,294.0,221.5,301.5,223.5,309.5,224.5,317.5,226.5,325.0,226.5,333.5,227.0,341.5,226.5,349.5,227.0,357.5,227.0,365.5,227.0,373.5,226.5,381.5,224.5,389.5,221.5,397.0,217.5,402.5,218.0" stroke="black" stroke-width="2" fill="none" />
<polyline points="360.5,103.0,353.0,87.0" stroke="black" stroke-width="2" fill="none" />
<polyline points="352.0,81.5,351.0,82.0,354.0,90.0,359.0,98.0,360.5,106.5,363.5,114.0,365.5,122.0,366.5,130.0,367.5,137.5,368.5,145.5" stroke="black" stroke-width="2" fill="none" />
<polyline points="400.0,175.5,400.0,167.0,398.5,159.0,397.0,151.0,396.0,143.0,393.0,135.5,391.5,127.5,392.0,119.5,389.0,111.5,383.0,104.0,378.0,95.5,372.0,87.5,364.0,79.0,352.0,80.0" stroke="black" stroke-width="2" fill="none" />
<polyline points="324.5,50.5,340.5,59.0,353.5,67.0,363.0,75.5,372.0,83.5,378.0,91.5,383.5,100.0,389.5,108.5,392.5,116.5,396.5,124.5,398.5,132.5,402.5,140.0,403.5,148.0,406.0,156.0,407.0,164.0,408.0,171.5,408.0,179.5,407.0,187.0,408.0,195.0,407.5,203.0,406.5,211.0,394.5,219.0" stroke="black" stroke-width="2" fill="none" />
<polyline points="267.0,177.5,212.0,175.5,157.0,176.5,107.5,179.0" stroke="black" stroke-width="2" fill="none" />
<polyline points="109.5,175.0,117.5,157.5" stroke="black" stroke-width="2" fill="none" />
<polyline points="243.0,120.0,245.0,128.0,247.0,136.0,253.0,142.0,255.5,150.0,257.5,158.0,259.0,165.5,261.0,173.5,263.0,181.0,266.0,188.5,267.5,196.5,269.5,204.5,269.5,212.5,271.5,220.5,261.5,229.0,253.5,235.5,263.0,239.0,278.0,251.0,288.0,254.5,295.0,250.5,303.5,252.5,312.0,252.0,320.5,246.0" stroke="black" stroke-width="2" fill="none" />
<polyline points="225.5,267.0,235.0,275.0,244.5,283.0,255.5,290.5,262.5,298.0,270.0,305.5,275.0,313.5,280.0,322.0,285.0,330.0,287.5,338.0,287.5,346.0,276.5,354.0" stroke="black" stroke-width="2" fill="none" />
<polyline points="400.5,222.0,392.0,225.0,384.0,228.5,376.0,231.0,368.0,232.0,360.0,233.0,352.0,233.5,344.0,233.5,336.0,232.0,327.5,231.0,319.5,230.0,311.5,229.5,303.5,227.5,295.5,227.0,287.5,225.0,279.5,222.0,276.5,227.5,272.0,220.5,269.0,224.5,261.0,229.0,249.0,235.0,255.0,224.0,261.5,216.0,264.5,208.0,263.5,200.0,261.5,192.0,259.5,184.0,257.5,176.0,255.0,168.0,253.5,160.5,251.5,152.0,249.5,144.0,247.5,136.0,246.5,128.0,243.5,120.5" stroke="black" stroke-width="2" fill="none" />
<polyline points="284.0,75.0,293.0,83.0,299.0,91.0,303.5,99.5,307.5,108.5,312.5,116.5,317.0,125.0,319.5,133.0,321.5,141.0,324.0,149.0,328.0,151.0,335.5,152.0,343.5,153.0,351.5,153.0,359.5,152.0,367.5,148.5" stroke="black" stroke-width="2" fill="none" />
</svg>