<svg xmlns="http://www.w3.org/2000/svg" version="1.1"><polyline points="161.5,33.5,144.5,41.0,128.5,49.0,116.5,57.0,110.5,65.0,108.0,73.0,104.5,80.5,104.0,88.5,102.0,96.0,100.0,103.5,98.5,111.5,96.0,119.5,95.0,128.0,94.0,136.0,93.5,144.0,92.0,152.0,91.0,160.0,89.0,167.5,88.5,175.0,88.5,183.0,87.0,191.0,87.0,199.0,87.0,207.5,87.5,216.0,87.5,224.0,88.0,232.0,89.0,240.5,89.0,248.5,91.0,250.0,91.0,258.0,92.0,266.0,94.0,274.0,94.5,282.0,95.5,290.0,97.5,297.0,99.5,305.0,101.5,312.5,103.0,320.5,105.5,328.0,108.5,332.5,110.5,340.5,112.5,348.5,115.0,356.5,116.5,364.5,118.0,372.5,121.5,380.5,124.0,389.0,126.5,397.5,128.5,405.5,132.5,414.0,135.5,422.0,139.5,430.0,142.0,438.0,145.0,446.0,149.0,454.0,154.0,461.5,163.0,469.5,168.5,477.5,178.0,485.0,184.0,493.5,192.5,501.5" stroke="black" stroke-width="2" fill="none" />
<polyline points="175.0,503.0,225.5,504.0,273.5,505.0,322.5,504.0" stroke="black" stroke-width="2" fill="none" />
<polyline points="330.0,532.5,380.0,483.0" stroke="black" stroke-width="2" fill="none" />
<polyline points="335.0,472.0,284.5,521.0" stroke="black" stroke-width="2" fill="none" />
<polyline points="242.0,522.5,290.5,472.0" stroke="black" stroke-width="2" fill="none" />
<polyline points="278.0,461.5,274.0,453.5" stroke="black" stroke-width="2" fill="none" />
<polyline points="306.5,455.5,307.5,447.0,309.0,439.0,310.0,431.0" stroke="black" stroke-width="2" fill="none" />
<polyline points="311.0,429.0,311.0,437.0,309.0,445.0,308.0,453.0,306.0,461.0,320.0,468.0" stroke="black" stroke-width="2" fill="none" />
<polyline points="329.5,437.5,335.5,429.5,334.5,425.0,339.0,417.0,346.0,408.5,345.0,400.0,346.5,391.5,349.5,383.5,351.5,375.5,356.0,367.5,359.0,359.5,364.5,351.0,368.0,343.5,373.0,335.5,377.0,328.0,381.5,320.0,386.5,312.5,391.0,304.5,396.5,297.0,401.5,289.0,406.5,281.5,412.5,273.5,412.5,265.5,412.0,257.5,409.0,253.0,412.5,245.0,405.5,235.5,402.0,233.5,400.0,225.5,398.0,217.0,396.0,209.0,396.0,201.0,396.0,193.0,396.0,185.0,396.0,177.5,397.0,169.5,397.5,162.0,398.5,154.0,398.5,146.0,399.5,138.0,400.0,130.0,397.0,125.0" stroke="black" stroke-width="2" fill="none" />
<polyline points="375.5,138.0,426.5,87.5" stroke="black" stroke-width="2" fill="none" />
<polyline points="428.0,106.5,378.0,106.5" stroke="black" stroke-width="2" fill="none" />
<polyline points="388.0,92.0,399.0,99.5,399.0,108.0,398.5,116.0,397.5,124.5,396.5,132.5,393.5,141.5,394.0,149.5,394.0,157.0,391.0,165.0,391.0,173.0,390.0,181.0,389.0,188.5,388.0,196.5,386.5,205.0,384.5,213.0,384.5,221.0,382.5,229.0,370.5,237.0,366.5,241.5" stroke="black" stroke-width="2" fill="none" />
<polyline points="361.5,255.0,353.5,257.0,345.5,259.0,337.5,260.5,330.5,263.5,322.5,264.0,314.0,264.5,306.0,266.5,298.0,266.5" stroke="black" stroke-width="2" fill="none" />
<polyline points="299.0,268.0,301.0,276.0" stroke="black" stroke-width="2" fill="none" />
<polyline points="299.5,273.0,307.5,281.5,315.5,281.5,323.5,281.0,331.0,281.0,339.0,281.0,347.0,281.0,355.0,280.0,363.0,275.0,371.5,268.5,379.5,261.5,387.5,254.5" stroke="black" stroke-width="2" fill="none" />
<polyline points="391.5,256.0,383.5,264.0,376.0,271.0,368.0,277.0,360.0,283.0,352.0,285.0,344.0,284.5,336.5,284.5,328.5,284.5,320.5,284.0,312.5,284.0,304.5,284.0,300.5,282.0,297.5,274.0,294.5,266.0" stroke="black" stroke-width="2" fill="none" />
<polyline points="295.5,266.0,303.5,265.0,311.5,263.0,319.5,263.5,327.5,261.5,335.5,258.5,343.5,257.5,351.5,254.5,359.5,252.5,367.0,248.0,375.0,244.0,383.0,240.5,391.0,244.5,389.0,249.5,384.5,257.5,375.5,265.5,365.0,273.0" stroke="black" stroke-width="2" fill="none" />
<polyline points="380.0,273.5,331.5,321.0" stroke="black" stroke-width="2" fill="none" />
<polyline points="328.5,308.0,377.0,307.5" stroke="black" stroke-width="2" fill="none" />
<polyline points="377.5,321.5,370.5,329.5,363.5,337.5,357.5,345.5,351.5,353.0,346.5,361.0,341.5,369.0,336.0,377.0,331.0,384.5,326.0,392.5,321.0,400.5,317.0,408.5,318.0,418.5,326.5,427.0" stroke="black" stroke-width="2" fill="none" />
<polyline points="333.0,432.0,325.0,438.0,316.5,432.0,308.5,428.0,301.0,428.0,293.0,428.0,285.5,428.0,277.5,428.0,269.5,428.0,261.5,428.5,253.5,428.5,245.5,428.5,237.5,428.5,229.0,428.5,220.5,428.5,212.5,429.0,204.5,430.0,196.5,435.0,189.0,440.0,181.0,431.0,173.0,418.0" stroke="black" stroke-width="2" fill="none" />
<polyline points="168.5,415.5,174.5,423.0,180.5,430.5,187.5,438.5" stroke="black" stroke-width="2" fill="none" />
<polyline points="204.0,431.5,205.0,439.5,205.5,447.5,205.5,456.0,205.0,464.0" stroke="black" stroke-width="2" fill="none" />
<polyline points="222.5,478.0,170.0,526.5" stroke="black" stroke-width="2" fill="none" />
<polyline points="173.0,492.5,222.5,492.5,272.5,488.5,324.5,485.0,377.5,483.5" stroke="black" stroke-width="2" fill="none" />
<polyline points="365.5,425.0,417.0,376.0" stroke="black" stroke-width="2" fill="none" />
<polyline points="393.5,356.5,441.0,354.0" stroke="black" stroke-width="2" fill="none" />
<polyline points="412.0,330.0,362.0,377.0" stroke="black" stroke-width="2" fill="none" />
<polyline points="355.0,368.5,363.0,354.5,370.5,339.5" stroke="black" stroke-width="2" fill="none" />
<polyline points="366.0,338.5,358.0,349.0,350.5,361.0,342.5,373.0,334.5,386.0,326.0,399.0,318.0,413.5,321.0,408.5,325.0,400.5,331.0,392.5,336.0,384.5,340.0,376.5,346.0,368.5,351.0,360.0,357.0,352.0,363.0,343.5,368.0,335.5" stroke="black" stroke-width="2" fill="none" />
<polyline points="382.0,328.0,433.5,329.5" stroke="black" stroke-width="2" fill="none" />
<polyline points="422.5,406.5,373.0,403.5" stroke="black" stroke-width="2" fill="none" />
<polyline points="337.5,383.5,386.5,383.5,437.0,381.5" stroke="black" stroke-width="2" fill="none" />
<polyline points="318.0,416.5,325.5,424.5,333.0,425.0,341.0,413.0,343.0,414.5,338.0,422.5,341.5,417.5,347.5,414.5,349.5,423.0,350.5,431.0,353.5,434.5,354.5,442.5,349.5,450.0,341.5,458.5,335.5,467.0,328.5,471.5" stroke="black" stroke-width="2" fill="none" />
<polyline points="347.5,453.0,339.5,463.5,330.5,472.5,322.0,471.5,318.0,467.5,310.0,464.0,298.0,462.0,290.0,461.5,282.0,461.5,274.0,454.5,266.5,452.0,258.0,452.0,250.0,452.0,242.5,452.0,234.5,460.5,226.5,461.0,219.0,461.5,211.0,460.5,204.0,463.5,196.0,466.5,188.0,470.5,181.0,469.5,173.5,462.5,167.5,454.5,162.0,446.5,160.0,438.5,164.5,430.5,165.5,422.5,167.5,415.0,166.5,417.0" stroke="black" stroke-width="2" fill="none" />
<polyline points="170.5,409.5,178.5,420.5,186.5,428.0,194.5,421.0" stroke="black" stroke-width="2" fill="none" />
<polyline points="203.5,428.0,192.5,436.0" stroke="black" stroke-width="2" fill="none" />
<polyline points="208.0,432.5,208.5,440.5,209.5,448.0,210.5,455.5" stroke="black" stroke-width="2" fill="none" />
<polyline points="174.5,463.5,166.5,453.5,158.0,445.5" stroke="black" stroke-width="2" fill="none" />
<polyline points="150.0,455.5,158.0,465.5,166.0,473.0,173.5,482.0,181.5,490.5,189.0,498.0,197.0,503.5,205.0,503.5,213.0,503.5,221.5,503.0,229.5,503.0,237.5,503.0,246.0,503.0,254.0,503.0,262.0,502.5,270.0,503.0,278.5,502.5,286.5,503.0,294.5,503.0,302.0,503.0,310.0,503.0,318.5,503.0,327.0,497.0,335.0,488.5,342.5,479.0,350.5,470.0,358.0,461.0,365.5,448.0,373.0,430.0" stroke="black" stroke-width="2" fill="none" />
<polyline points="325.0,438.5,314.5,430.5" stroke="black" stroke-width="2" fill="none" />
<polyline points="306.5,282.5,358.0,282.5" stroke="black" stroke-width="2" fill="none" />
<polyline points="363.5,240.5,355.5,243.5,347.5,246.5,340.0,248.5,332.0,250.0,324.0,252.0,315.5,252.5,307.5,254.5,299.5,255.0,292.0,256.0,283.5,256.5,275.5,257.5,267.5,258.0,259.0,257.5,251.0,257.5,243.0,257.5,235.0,256.0,227.0,256.0,219.0,255.5,211.0,253.5,203.0,253.5,196.0,251.5,188.5,249.5,180.5,249.0,173.0,245.0,165.0,243.0,156.5,240.5,148.0,238.5,140.0,233.0,132.0,228.0" stroke="black" stroke-width="2" fill="none" />
<polyline points="130.0,228.5,138.0,235.0" stroke="black" stroke-width="2" fill="none" />
<polyline points="127.0,239.0,124.5,247.0,123.5,255.0,131.5,263.0,140.5,271.0,150.5,279.0" stroke="black" stroke-width="2" fill="none" />
<polyline points="175.0,278.5,224.0,278.5" stroke="black" stroke-width="2" fill="none" />
<polyline points="224.5,273.0,174.5,324.0,124.5,371.0" stroke="black" stroke-width="2" fill="none" />
<polyline points="126.5,374.0,177.5,373.5,227.0,372.5" stroke="black" stroke-width="2" fill="none" />
<polyline points="167.0,375.5,117.5,422.5" stroke="black" stroke-width="2" fill="none" />
<polyline points="133.5,407.5,182.0,406.5" stroke="black" stroke-width="2" fill="none" />
<polyline points="183.5,392.0,175.5,379.0,168.5,368.5,160.5,356.5,152.0,346.0,144.0,335.0" stroke="black" stroke-width="2" fill="none" />
<polyline points="150.0,333.5,156.0,341.5,161.5,349.5,167.0,358.0,172.0,366.5,176.5,374.0,181.5,382.0,185.0,390.0,191.0,398.0,194.0,406.5" stroke="black" stroke-width="2" fill="none" />
<polyline points="182.5,351.5,134.5,354.0" stroke="black" stroke-width="2" fill="none" />
<polyline points="115.0,342.0,165.0,341.5" stroke="black" stroke-width="2" fill="none" />
<polyline points="171.5,314.5,221.5,312.0" stroke="black" stroke-width="2" fill="none" />
<polyline points="211.0,268.0,203.0,267.0,194.5,266.0,186.5,264.0,179.0,263.5,174.5,261.5,166.5,259.5,159.0,256.5,151.0,252.0,143.0,250.0,135.0,245.0,127.5,243.0" stroke="black" stroke-width="2" fill="none" />
<polyline points="126.5,244.0,125.0,251.5,132.0,259.5,141.0,267.5,150.5,275.0" stroke="black" stroke-width="2" fill="none" />
<polyline points="125.5,253.5,133.5,260.5,141.0,267.5,149.0,274.5,157.0,279.5,165.0,281.5,173.5,281.5,181.5,281.5,190.0,281.5,198.0,282.0,205.5,282.0,213.5,277.0" stroke="black" stroke-width="2" fill="none" />
<polyline points="231.0,219.0,281.5,168.0,332.0,115.5" stroke="black" stroke-width="2" fill="none" />
<polyline points="326.5,144.0,277.5,142.5,228.5,144.0" stroke="black" stroke-width="2" fill="none" />
<polyline points="233.0,162.5,284.0,113.5,334.5,63.0,386.5,10.0" stroke="black" stroke-width="2" fill="none" />
<polyline points="381.0,45.5,393.0,53.5,403.0,61.5,406.0,69.5,408.0,77.0,411.0,85.0,413.5,92.5,416.0,100.5,417.0,108.5,418.0,116.5,421.0,122.5,422.0,130.5,423.0,139.0,423.5,147.0,424.5,155.0,424.0,163.0,425.5,171.0,425.5,178.5" stroke="black" stroke-width="2" fill="none" />
<polyline points="427.5,170.5,427.5,178.5,428.0,186.5,429.5,194.5,429.5,202.5,429.5,210.0,429.5,218.5,429.5,226.0,428.5,234.0,426.0,242.5,426.0,250.0,425.0,258.0,424.0,266.5,423.0,274.5,422.0,282.0,419.0,290.0,418.0,298.0,415.5,306.5,413.5,314.5,412.0,322.5,409.5,331.0,407.5,339.0,405.5,346.5,401.5,354.5,399.5,362.5,398.0,370.0,394.0,378.0,392.0,386.0,389.0,394.0,385.0,402.0,383.0,410.0,381.0,418.0,377.0,426.0,373.5,434.5,368.0,443.0,365.5,451.0,360.5,459.5,353.5,467.5,345.5,475.5,338.5,483.5,331.5,492.0,323.5,500.0" stroke="black" stroke-width="2" fill="none" />
<polyline points="161.5,373.5,153.0,356.0,145.0,341.5,136.5,326.5" stroke="black" stroke-width="2" fill="none" />
<polyline points="139.0,322.5,146.0,330.5,150.5,339.0,154.5,347.0,160.0,355.5,166.0,363.5,171.0,372.0,175.5,380.0,180.5,387.5,186.5,395.5,190.5,404.0,195.5,411.5,200.5,414.5,193.5,422.0" stroke="black" stroke-width="2" fill="none" />
<polyline points="138.0,421.0,130.0,401.0" stroke="black" stroke-width="2" fill="none" />
<polyline points="107.5,276.0,117.0,292.0,125.0,303.0,133.0,315.0,140.0,322.0,147.5,331.5,155.5,341.0,163.0,351.0,170.5,364.0,178.0,377.5,186.0,390.5,194.0,404.5,195.5,412.5,203.5,415.5,211.5,416.0,219.5,416.0,227.5,416.0,235.5,416.0,243.5,416.0,251.5,416.0,259.5,416.0,267.5,416.0,275.5,416.0,284.0,416.0,292.0,416.0,300.5,416.0,308.5,416.0,316.0,410.5,324.0,395.0,332.0,381.5,339.5,369.0,347.5,356.0,356.0,346.5,364.0,336.0,372.0,326.5,382.5,318.0,390.0,306.5,397.0,296.5,406.5,280.5" stroke="black" stroke-width="2" fill="none" />
<polyline points="411.0,249.0,403.5,248.0" stroke="black" stroke-width="2" fill="none" />
<polyline points="403.5,240.0,401.5,248.0,407.5,240.0" stroke="black" stroke-width="2" fill="none" />
<polyline points="391.5,244.0,393.5,252.0,386.5,260.0,377.5,268.0,367.5,276.5" stroke="black" stroke-width="2" fill="none" />
<polyline points="367.5,250.5,382.0,242.5" stroke="black" stroke-width="2" fill="none" />
<polyline points="383.0,240.5,367.5,248.5,368.5,251.5,376.5,248.5,384.5,243.0" stroke="black" stroke-width="2" fill="none" />
<polyline points="318.5,203.5,266.0,205.0,212.0,205.0" stroke="black" stroke-width="2" fill="none" />
<polyline points="218.5,192.5,271.5,190.0,322.5,189.0" stroke="black" stroke-width="2" fill="none" />
<polyline points="331.0,162.0,282.0,215.0" stroke="black" stroke-width="2" fill="none" />
<polyline points="296.5,192.0,299.5,184.0,300.0,176.0,301.0,167.5,301.0,159.5,305.0,152.0,304.5,143.5,305.5,136.0,306.5,127.5,307.5,119.5,308.5,112.0,308.0,104.5,309.0,97.0,309.0,89.0,310.5,81.0,313.5,73.0,314.0,65.0,314.0,64.0" stroke="black" stroke-width="2" fill="none" />
<polyline points="316.0,66.5,324.0,67.0,332.5,69.0,336.5,72.0,344.5,74.0,352.0,76.0,360.0,78.5,362.5,80.0,370.0,83.0,378.0,85.5,381.5,88.5,390.0,92.5,397.0,97.5" stroke="black" stroke-width="2" fill="none" />
<polyline points="382.0,85.5,433.0,83.5" stroke="black" stroke-width="2" fill="none" />
<polyline points="375.0,59.0,330.0,57.5,281.5,57.5,230.5,58.0,179.5,58.5" stroke="black" stroke-width="2" fill="none" />
<polyline points="177.0,54.5,227.0,51.5,276.0,49.5,326.0,48.5,375.5,47.5" stroke="black" stroke-width="2" fill="none" />
<polyline points="328.5,15.0,281.5,64.5,233.5,120.5" stroke="black" stroke-width="2" fill="none" />
<polyline points="230.5,110.0,277.5,110.0,328.0,109.5" stroke="black" stroke-width="2" fill="none" />
<polyline points="333.0,79.0,278.5,81.0,229.0,79.5" stroke="black" stroke-width="2" fill="none" />
<polyline points="229.5,85.0,280.5,37.5" stroke="black" stroke-width="2" fill="none" />
<polyline points="313.5,76.5,313.5,84.5,312.5,92.5" stroke="black" stroke-width="2" fill="none" />
<polyline points="304.5,156.5,304.0,164.5" stroke="black" stroke-width="2" fill="none" />
<polyline points="326.0,163.0,279.5,164.0,233.0,164.0" stroke="black" stroke-width="2" fill="none" />
<polyline points="174.0,114.0,123.5,114.0" stroke="black" stroke-width="2" fill="none" />
<polyline points="113.5,120.5,159.5,71.0,208.5,21.0" stroke="black" stroke-width="2" fill="none" />
<polyline points="205.0,78.5,205.0,86.0,206.0,94.0,206.5,102.0,206.5,110.5,207.0,118.5,208.0,126.5,209.0,134.5,210.0,142.5,211.0,151.0,211.5,159.0,214.0,159.0,215.0,167.0,215.0,174.5,217.0,182.0,219.0,189.5,224.0,193.0,227.5,197.0,235.5,197.0,243.5,197.5,251.0,197.5,259.5,197.0,267.5,197.0,275.5,197.0,283.0,197.5,290.5,196.5" stroke="black" stroke-width="2" fill="none" />
<polyline points="217.0,274.0,220.0,273.0,212.0,285.0,204.0,285.0,196.0,285.0,188.0,285.0,180.0,285.0,172.0,285.5,164.0,285.5,155.5,282.5,147.5,276.5,139.5,271.5,131.5,262.5,123.5,255.5" stroke="black" stroke-width="2" fill="none" />
<polyline points="123.0,244.0,131.0,240.5,139.0,245.5,147.0,248.5,155.5,253.0,163.5,255.0,171.5,258.0,179.5,259.0,187.5,262.5,195.5,264.5,203.5,264.5,211.5,266.5,220.0,267.5,218.0,277.5" stroke="black" stroke-width="2" fill="none" />
<polyline points="146.5,252.0,130.5,244.0" stroke="black" stroke-width="2" fill="none" />
<polyline points="112.0,248.0,104.5,246.0" stroke="black" stroke-width="2" fill="none" />
<polyline points="103.0,240.0,111.0,238.5,115.0,242.0,108.0,253.0" stroke="black" stroke-width="2" fill="none" />
<polyline points="167.0,247.5,145.0,239.0,131.5,231.0,128.5,223.5,126.0,215.0,126.0,207.0,128.0,199.5,127.0,191.5,127.0,183.5,125.5,175.5,125.5,167.5" stroke="black" stroke-width="2" fill="none" />
<polyline points="122.5,152.0,123.0,160.0,123.0,168.0,123.0,176.0,123.5,184.0,124.0,192.5,125.0,200.5,129.5,210.0,129.5,218.0,131.5,225.5,136.5,233.5,144.5,239.5,151.5,243.5,159.5,246.5,166.5,249.5,175.0,251.5,183.0,253.5,191.0,255.0,198.0,257.0,206.0,258.0,214.0,258.0,222.0,260.0,230.0,260.0,238.0,261.0,246.0,260.5,254.0,261.5,262.0,261.0,270.0,261.5,277.5,259.5,285.0,259.5,292.5,260.0,300.5,258.5,309.0,257.0,317.0,256.0,325.0,253.5,333.0,251.5,341.0,249.0,349.0,246.0,356.5,243.0,364.5,241.0,375.0,232.5" stroke="black" stroke-width="2" fill="none" />
<polyline points="382.5,232.5,374.5,237.5,375.5,236.5,385.5,228.0,386.5,220.0,388.5,212.5,389.0,204.0,389.5,196.5,390.5,188.5,391.5,181.0,393.0,173.5,393.0,165.5" stroke="black" stroke-width="2" fill="none" />
<polyline points="176.5,96.5,128.5,98.5" stroke="black" stroke-width="2" fill="none" />
<polyline points="128.5,90.0,116.5,99.0,116.5,107.0,117.5,115.0,117.5,123.5,117.0,131.0,117.0,139.5,118.0,147.0,118.0,155.0,118.5,163.0,119.5,171.0,119.0,179.0,120.0,187.0,120.0,195.0,120.0,203.0,118.5,211.5,116.5,219.0,114.0,227.0,109.5,235.0,101.0,240.5,103.0,248.5,103.0,255.5,102.5,263.5,101.5,271.5,105.5,277.0,109.5,285.0,112.5,289.0,117.5,297.0,123.5,305.0,127.5,313.0,132.5,321.0,138.5,329.0,142.5,337.0,148.0,345.0,152.0,353.0,157.5,361.0,160.5,369.0,164.0,376.5,166.0,384.0,168.0,391.5,168.5,399.0,168.5,407.0,175.0,415.5,181.0,424.0" stroke="black" stroke-width="2" fill="none" />
<polyline points="90.0,177.0,90.0,169.0" stroke="black" stroke-width="2" fill="none" />
<polyline points="120.5,160.5,120.5,152.5,120.5,144.5,119.5,135.5,118.5,128.0" stroke="black" stroke-width="2" fill="none" />
<polyline points="117.0,101.0,125.0,95.0,132.5,92.0,140.5,86.5,148.5,83.5,156.5,78.5,164.5,76.0,173.0,73.0,181.0,69.0,189.5,67.5,197.5,63.5,202.5,64.5,202.5,72.5,202.0,80.5,203.5,88.5,203.0,96.5" stroke="black" stroke-width="2" fill="none" />
<polyline points="110.0,66.0,118.0,54.0,126.0,49.5,134.0,44.5,141.5,42.0,148.5,38.0,156.5,35.0,164.5,32.0,172.5,28.0,180.5,25.5,188.5,22.5,196.0,20.5,204.0,18.5,212.0,16.0,219.5,15.0,227.5,13.0,235.5,12.0,243.5,12.0,251.5,11.5,260.0,11.5,268.0,12.5,275.5,12.0,283.5,11.5,291.5,12.5,295.5,14.5,303.5,16.5,311.5,17.5,320.0,19.5,328.5,21.0,334.5,24.0,342.5,26.0,350.0,31.0,358.5,33.0,366.0,36.0,374.0,41.5,382.0,44.5,390.0,49.5,397.5,53.5,405.5,66.5" stroke="black" stroke-width="2" fill="none" />
</svg>