<svg xmlns="http://www.w3.org/2000/svg" version="1.1"><polyline points="286.5,28.0,277.5,29.0,266.5,37.5,260.0,45.5,253.0,54.0,248.0,62.5,245.0,70.5,247.5,77.0,249.5,80.0,245.5,83.0,253.5,78.0,255.0,69.0,262.0,61.5,272.0,55.0,279.5,51.0,267.5,54.0,258.5,62.0,250.0,70.0,246.0,71.0,248.0,62.0,256.0,50.0,264.0,40.5,272.5,34.5,280.5,29.5,289.0,27.0" stroke="black" stroke-width="2" fill="none" />
<polyline points="283.5,31.5,272.5,37.0,264.5,43.5,256.5,52.5,249.5,62.5,251.0,62.0,254.0,56.5,261.5,48.5,270.0,40.5,277.5,32.5" stroke="black" stroke-width="2" fill="none" />
<polyline points="271.5,55.5,281.5,48.0,273.5,51.0,265.0,56.5,257.0,64.5,249.0,68.5,243.0,77.0,240.0,72.0,240.0,63.5,240.5,55.0,242.5,47.0,246.0,38.5,249.5,30.0,253.5,30.0,246.5,34.5" stroke="black" stroke-width="2" fill="none" />
<polyline points="246.0,37.5,244.5,46.0,243.0,53.5,241.0,60.5,241.0,68.0" stroke="black" stroke-width="2" fill="none" />
<polyline points="255.5,77.5,259.5,78.5,263.0,86.5,264.5,94.5" stroke="black" stroke-width="2" fill="none" />
<polyline points="264.5,74.5,213.5,125.0" stroke="black" stroke-width="2" fill="none" />
<polyline points="214.5,129.0,209.5,137.0,210.0,145.0,209.0,153.5,206.0,161.5,203.0,169.5,205.0,183.0,205.0,196.0,212.5,203.0,220.5,208.0,228.5,208.0,236.5,208.0,245.0,198.0" stroke="black" stroke-width="2" fill="none" />
<polyline points="223.0,204.5,174.0,203.0" stroke="black" stroke-width="2" fill="none" />
<polyline points="171.5,215.0,222.0,165.5" stroke="black" stroke-width="2" fill="none" />
<polyline points="221.5,173.5,230.0,181.0,236.0,189.0,235.0,197.5" stroke="black" stroke-width="2" fill="none" />
<polyline points="230.5,182.5,222.5,174.5" stroke="black" stroke-width="2" fill="none" />
<polyline points="210.5,189.5,216.5,197.5,226.5,210.0,234.5,214.5,242.5,218.0,250.5,222.0,258.0,222.0,266.0,221.0,273.5,220.0,281.5,215.5,289.0,213.0,297.0,204.0,305.5,195.0,313.0,194.0,321.0,207.0,329.0,214.0" stroke="black" stroke-width="2" fill="none" />
<polyline points="338.5,201.0,330.5,196.0" stroke="black" stroke-width="2" fill="none" />
<polyline points="314.5,194.5,311.5,202.5,309.0,210.5,308.5,218.5,309.5,226.5,314.5,234.5" stroke="black" stroke-width="2" fill="none" />
<polyline points="321.0,235.0,273.5,231.5,221.5,229.5,169.0,228.0,118.0,226.5,65.0,225.0" stroke="black" stroke-width="2" fill="none" />
<polyline points="60.0,202.5,68.0,192.0,76.0,188.0,84.0,184.0,92.0,181.5,100.5,178.5,108.5,176.0,116.5,173.5,124.5,173.0,132.5,171.0,140.5,169.0,148.0,167.5,156.0,166.5,164.0,166.0,171.0,168.0,174.5,176.0,172.5,184.5,169.5,192.0,166.5,200.0,161.0,208.5,156.0,216.5,151.0,224.5,144.0,232.0,138.5,239.5,130.5,247.0" stroke="black" stroke-width="2" fill="none" />
<polyline points="111.0,248.0,119.0,253.0,127.5,250.0,136.0,243.0,144.0,233.0,152.0,223.0,160.0,210.5,168.5,194.0" stroke="black" stroke-width="2" fill="none" />
<polyline points="175.0,209.5,166.5,221.5,158.5,239.5" stroke="black" stroke-width="2" fill="none" />
<polyline points="176.5,232.0,184.5,215.0" stroke="black" stroke-width="2" fill="none" />
<polyline points="187.0,191.5,195.0,197.5,206.0,195.5,215.0,203.5,229.0,211.5,244.0,219.5" stroke="black" stroke-width="2" fill="none" />
<polyline points="224.5,227.5,176.5,275.0,127.0,326.0" stroke="black" stroke-width="2" fill="none" />
<polyline points="125.5,339.0,174.5,335.5,223.5,334.5" stroke="black" stroke-width="2" fill="none" />
<polyline points="204.0,332.5,212.0,344.5,219.5,358.5,227.5,373.0,235.5,387.0,243.5,398.0,251.0,410.5,259.0,421.5,267.0,433.0,275.0,445.0,283.0,458.0,291.0,468.0,299.0,477.0,307.0,488.0,314.5,495.5,322.0,503.5,330.5,511.5,339.0,519.5" stroke="black" stroke-width="2" fill="none" />
<polyline points="344.5,537.5,352.5,537.5" stroke="black" stroke-width="2" fill="none" />
<polyline points="334.5,567.0,383.0,566.0,430.0,564.5" stroke="black" stroke-width="2" fill="none" />
<polyline points="426.5,517.5,375.0,567.0" stroke="black" stroke-width="2" fill="none" />
<polyline points="354.5,534.5,362.0,526.0,367.0,518.0,370.5,510.0,372.5,502.0,373.5,494.5,373.5,486.5,375.0,478.5,376.0,470.5,377.5,462.0,379.0,454.0,385.0,446.0,391.0,442.0" stroke="black" stroke-width="2" fill="none" />
<polyline points="404.5,444.0,412.5,453.5" stroke="black" stroke-width="2" fill="none" />
<polyline points="420.5,467.5,369.5,516.5,316.0,567.5" stroke="black" stroke-width="2" fill="none" />
<polyline points="321.0,564.0,316.5,567.0,313.0,569.0,321.5,562.5,330.0,572.5,338.5,577.5,347.0,584.0,355.0,587.0,363.0,584.0,371.5,579.0,379.5,570.5,387.5,555.0,395.5,542.0,403.5,529.0,411.5,516.0" stroke="black" stroke-width="2" fill="none" />
<polyline points="388.0,514.5,437.0,513.5" stroke="black" stroke-width="2" fill="none" />
<polyline points="430.5,482.0,380.5,483.5" stroke="black" stroke-width="2" fill="none" />
<polyline points="372.0,473.5,421.5,427.5" stroke="black" stroke-width="2" fill="none" />
<polyline points="427.5,452.5,378.5,451.5" stroke="black" stroke-width="2" fill="none" />
<polyline points="375.0,459.0,383.0,447.0,391.5,440.5,399.5,443.5,408.0,450.0,412.5,457.5,416.5,465.5,418.5,473.5,418.5,481.5,417.0,489.5,416.5,497.5,413.0,505.0,411.0,513.0,407.0,521.5,400.0,529.5,394.5,537.5,389.5,545.5,386.0,553.5,381.5,561.5,378.5,570.0,370.5,578.0" stroke="black" stroke-width="2" fill="none" />
<polyline points="341.0,583.0,332.0,575.5,324.0,567.0" stroke="black" stroke-width="2" fill="none" />
<polyline points="315.5,527.0,365.5,530.0,416.0,531.0" stroke="black" stroke-width="2" fill="none" />
<polyline points="317.0,483.0,269.0,533.5" stroke="black" stroke-width="2" fill="none" />
<polyline points="258.5,502.5,310.0,501.0" stroke="black" stroke-width="2" fill="none" />
<polyline points="320.5,471.0,271.0,471.5" stroke="black" stroke-width="2" fill="none" />
<polyline points="267.0,430.5,216.5,480.0" stroke="black" stroke-width="2" fill="none" />
<polyline points="220.0,455.0,269.5,455.0" stroke="black" stroke-width="2" fill="none" />
<polyline points="271.5,424.5,222.0,426.0" stroke="black" stroke-width="2" fill="none" />
<polyline points="214.5,421.0,264.5,371.5" stroke="black" stroke-width="2" fill="none" />
<polyline points="225.5,371.0,175.0,422.5,123.0,472.5" stroke="black" stroke-width="2" fill="none" />
<polyline points="127.0,474.0,135.0,487.0,143.0,498.0,150.0,506.0,157.5,515.0" stroke="black" stroke-width="2" fill="none" />
<polyline points="162.5,530.5,170.5,541.5,178.5,541.5,181.5,544.0,181.0,552.5,179.0,561.0,183.0,569.0,182.5,577.5,177.5,586.0,167.0,594.0" stroke="black" stroke-width="2" fill="none" />
<polyline points="147.5,598.0,133.5,606.0" stroke="black" stroke-width="2" fill="none" />
<polyline points="157.0,570.5,204.0,521.5" stroke="black" stroke-width="2" fill="none" />
<polyline points="174.0,516.0,124.0,563.5,75.5,614.5" stroke="black" stroke-width="2" fill="none" />
<polyline points="68.0,608.0,120.0,606.5" stroke="black" stroke-width="2" fill="none" />
<polyline points="129.0,580.5,80.5,582.5" stroke="black" stroke-width="2" fill="none" />
<polyline points="89.0,576.0,74.0,584.0,67.5,592.0,66.5,600.0,72.0,608.0,87.0,614.0,95.0,614.0,103.0,612.0,111.0,612.0,118.5,611.0,126.5,608.5,134.5,604.5,142.5,599.5,151.0,596.5,158.5,595.5,166.5,593.5,174.0,587.5" stroke="black" stroke-width="2" fill="none" />
<polyline points="188.5,561.0,138.0,561.5" stroke="black" stroke-width="2" fill="none" />
<polyline points="134.5,530.5,183.0,531.0,232.0,532.5" stroke="black" stroke-width="2" fill="none" />
<polyline points="172.5,475.0,123.0,524.5" stroke="black" stroke-width="2" fill="none" />
<polyline points="127.5,509.0,179.0,509.0" stroke="black" stroke-width="2" fill="none" />
<polyline points="175.0,485.5,122.0,485.0,73.0,485.0" stroke="black" stroke-width="2" fill="none" />
<polyline points="69.5,467.0,121.0,417.0,174.0,365.5" stroke="black" stroke-width="2" fill="none" />
<polyline points="179.0,360.5,189.5,352.5,195.0,344.0,197.0,336.0,189.0,352.0,180.5,359.5,172.5,362.5,164.0,364.5,156.0,365.0" stroke="black" stroke-width="2" fill="none" />
<polyline points="165.0,344.0,173.0,343.0,181.0,339.0" stroke="black" stroke-width="2" fill="none" />
<polyline points="179.5,330.0,228.0,281.5" stroke="black" stroke-width="2" fill="none" />
<polyline points="227.0,255.0,176.0,255.0" stroke="black" stroke-width="2" fill="none" />
<polyline points="198.0,242.0,206.0,245.0,214.0,248.0,221.5,250.0,229.5,253.5,237.0,255.0,245.0,255.0,247.5,257.0,255.0,255.0,262.5,255.0,270.5,255.0,278.5,253.0,286.5,253.0,294.5,250.0,302.5,249.5,311.0,249.5,319.0,249.5,327.0,244.0" stroke="black" stroke-width="2" fill="none" />
<polyline points="326.0,236.5,318.0,236.5,310.0,224.0" stroke="black" stroke-width="2" fill="none" />
<polyline points="324.5,245.5,332.0,238.0,333.0,229.5,334.0,222.0,328.0,214.0,319.0,206.0,314.5,198.0" stroke="black" stroke-width="2" fill="none" />
<polyline points="311.0,193.0,300.0,201.0,294.5,209.0,276.5,217.5" stroke="black" stroke-width="2" fill="none" />
<polyline points="278.0,184.5,226.0,184.5,174.0,186.5,123.5,186.0" stroke="black" stroke-width="2" fill="none" />
<polyline points="109.5,161.5,162.0,112.0" stroke="black" stroke-width="2" fill="none" />
<polyline points="162.5,134.0,111.0,134.5" stroke="black" stroke-width="2" fill="none" />
<polyline points="126.0,133.5,134.0,129.5,142.0,135.0,150.5,140.0,159.0,144.5,167.0,146.0,175.0,145.5,183.0,141.0,191.0,138.0,199.0,131.5,203.0,131.0,198.0,145.0,183.0,153.0" stroke="black" stroke-width="2" fill="none" />
<polyline points="191.5,162.5,199.5,172.5" stroke="black" stroke-width="2" fill="none" />
<polyline points="209.5,189.0,217.5,200.0" stroke="black" stroke-width="2" fill="none" />
<polyline points="243.5,201.0,247.5,193.0,249.5,185.5,248.0,177.5,250.0,170.0,237.5,162.0,229.5,158.0,221.5,146.0" stroke="black" stroke-width="2" fill="none" />
<polyline points="223.5,146.0,224.5,154.0,223.5,162.0,221.0,170.0,220.0,177.5,220.0,185.5,222.5,192.5,234.0,198.5" stroke="black" stroke-width="2" fill="none" />
<polyline points="250.5,168.5,258.0,168.0,266.0,169.0,273.5,168.0,281.5,166.5,289.5,167.5,297.5,167.5,305.0,162.5" stroke="black" stroke-width="2" fill="none" />
<polyline points="307.5,151.5,311.5,146.5,312.0,138.5,315.0,141.5" stroke="black" stroke-width="2" fill="none" />
<polyline points="304.5,161.5,307.5,154.0,309.5,136.0,308.5,128.0,310.5,120.0,308.5,112.5" stroke="black" stroke-width="2" fill="none" />
<polyline points="304.0,111.0,297.0,119.0,294.0,127.0,295.0,132.0,303.5,133.0" stroke="black" stroke-width="2" fill="none" />
<polyline points="278.5,104.0,229.5,105.0" stroke="black" stroke-width="2" fill="none" />
<polyline points="225.5,102.0,233.5,89.0,241.5,91.0,249.0,90.5,257.0,90.5,257.5,95.0" stroke="black" stroke-width="2" fill="none" />
<polyline points="253.0,112.0,255.0,120.0" stroke="black" stroke-width="2" fill="none" />
<polyline points="248.5,111.0,245.0,118.5,241.0,127.5,250.5,124.0,259.5,125.0,267.5,125.0,276.0,125.0,283.5,124.5,291.5,126.0,300.5,115.5,308.0,111.5" stroke="black" stroke-width="2" fill="none" />
<polyline points="272.0,83.5,221.5,83.0" stroke="black" stroke-width="2" fill="none" />
<polyline points="223.5,81.5,226.5,81.0,225.5,80.5" stroke="black" stroke-width="2" fill="none" />
<polyline points="234.0,88.0,228.0,96.0,225.5,104.0,225.5,112.0,227.0,115.5,230.0,115.5,238.0,112.0,250.0,110.5" stroke="black" stroke-width="2" fill="none" />
<polyline points="234.5,111.5,229.5,119.5" stroke="black" stroke-width="2" fill="none" />
<polyline points="234.5,113.5,238.5,121.5,234.0,129.5" stroke="black" stroke-width="2" fill="none" />
<polyline points="233.0,130.0,225.0,131.5,217.0,128.5,209.5,136.0" stroke="black" stroke-width="2" fill="none" />
<polyline points="225.0,151.5,233.0,159.5,243.0,167.5,245.0,176.0,245.0,184.5,242.5,192.5" stroke="black" stroke-width="2" fill="none" />
<polyline points="186.5,190.0,193.5,198.5,190.5,207.0,184.0,215.0,182.0,223.5,178.5,231.5,176.5,240.0,173.5,248.0,171.5,256.0,171.5,264.0,171.5,272.0,168.5,280.0,166.5,288.0,168.0,289.5" stroke="black" stroke-width="2" fill="none" />
<polyline points="167.0,283.0,175.0,282.0,180.0,289.5,187.0,297.5,193.0,305.5,198.5,313.0,201.5,321.5,203.5,329.5,207.0,337.5,212.0,346.0,216.0,354.0,220.0,362.0,225.0,370.0,230.5,378.0,235.0,386.5,241.0,394.5,246.5,402.5,251.5,410.5,258.5,418.0,263.5,426.0,268.0,434.0,273.0,442.0,278.5,450.5,283.5,458.5,290.0,466.5,296.0,474.5,302.5,482.5,308.0,490.0,317.0,498.0,324.0,506.0,332.0,514.0,340.0,522.0,340.5,530.0,339.0,538.0,343.0,538.0,351.5,536.0,359.5,528.0,368.0,512.0" stroke="black" stroke-width="2" fill="none" />
<polyline points="376.5,427.5,426.5,428.5" stroke="black" stroke-width="2" fill="none" />
<polyline points="262.0,408.0,213.5,412.5,164.5,416.0,115.0,417.0,63.5,416.5" stroke="black" stroke-width="2" fill="none" />
<polyline points="55.0,431.5,104.0,379.5" stroke="black" stroke-width="2" fill="none" />
<polyline points="101.0,351.0,109.5,355.0,118.0,359.0,126.5,362.0,134.5,364.0,143.0,364.0" stroke="black" stroke-width="2" fill="none" />
<polyline points="102.0,342.5,93.5,351.5,89.0,345.5,89.0,341.0" stroke="black" stroke-width="2" fill="none" />
<polyline points="93.0,342.5,93.5,350.5,87.5,358.5,85.5,366.5,83.5,374.0,81.5,382.0,78.5,390.5,75.0,398.0,72.0,406.0,69.0,414.0,64.5,422.0,63.5,430.0,61.5,438.0,58.5,446.0,57.0,454.0,57.0,462.0,58.0,470.0,62.5,478.0,67.0,484.5,72.5,492.5,78.5,500.0,85.5,508.5,90.0,516.5,95.0,524.5,100.0,532.5,104.0,540.5,107.0,549.0,113.5,557.0" stroke="black" stroke-width="2" fill="none" />
<polyline points="132.5,568.5,124.5,569.5,116.5,573.0,109.0,573.0,100.5,574.0,92.0,577.0,84.0,580.0,76.0,583.5,67.5,592.5" stroke="black" stroke-width="2" fill="none" />
<polyline points="68.5,604.5,76.5,611.5,84.5,613.5" stroke="black" stroke-width="2" fill="none" />
<polyline points="131.5,563.0,123.5,563.5,115.0,558.5,107.0,550.0,99.0,531.0,91.0,519.0,83.0,506.5,75.5,496.5,67.5,485.5,60.0,471.5" stroke="black" stroke-width="2" fill="none" />
<polyline points="67.0,462.5,116.5,460.5,168.0,462.0" stroke="black" stroke-width="2" fill="none" />
<polyline points="163.5,440.0,114.0,439.0,63.0,436.5" stroke="black" stroke-width="2" fill="none" />
<polyline points="69.5,390.0,120.5,390.5,165.5,390.0,212.0,386.5,261.0,380.5" stroke="black" stroke-width="2" fill="none" />
<polyline points="183.5,336.0,190.5,326.0,188.5,324.0,187.5,316.0,190.5,318.5" stroke="black" stroke-width="2" fill="none" />
<polyline points="192.0,312.5,189.0,320.5,188.0,324.5" stroke="black" stroke-width="2" fill="none" />
<polyline points="199.0,318.5,191.0,304.5,183.0,295.5" stroke="black" stroke-width="2" fill="none" />
<polyline points="175.0,282.0,183.0,292.0,190.5,295.5,198.5,298.0" stroke="black" stroke-width="2" fill="none" />
<polyline points="157.5,316.0,108.5,316.0" stroke="black" stroke-width="2" fill="none" />
<polyline points="100.5,301.5,93.0,301.5,89.0,297.5,84.0,297.0,91.5,292.5,102.5,284.5,101.0,277.0,94.0,273.0,85.5,281.0,77.5,286.5,69.0,288.0,60.5,287.0,52.5,281.0" stroke="black" stroke-width="2" fill="none" />
<polyline points="69.5,302.0,77.5,298.5,86.0,295.5,94.5,291.0,102.5,289.5,105.5,293.5,108.0,301.5,111.0,307.0,111.0,315.0,111.5,323.0,109.5,330.5,106.0,331.0,103.0,333.0,103.5,341.0,97.5,349.5" stroke="black" stroke-width="2" fill="none" />
<polyline points="73.5,326.5,65.5,322.5" stroke="black" stroke-width="2" fill="none" />
<polyline points="64.5,320.5,70.5,324.5,68.0,325.5,72.5,333.5,76.5,334.5" stroke="black" stroke-width="2" fill="none" />
<polyline points="88.5,315.5,88.0,307.5,90.0,306.5" stroke="black" stroke-width="2" fill="none" />
<polyline points="93.0,307.0,95.0,305.5" stroke="black" stroke-width="2" fill="none" />
<polyline points="98.0,300.5,105.0,308.5" stroke="black" stroke-width="2" fill="none" />
<polyline points="96.5,313.0,99.5,307.0,96.0,299.0" stroke="black" stroke-width="2" fill="none" />
<polyline points="91.5,296.0,99.5,292.0,109.5,292.5,117.5,300.5,125.5,303.0,133.5,307.5,141.5,310.5,149.5,310.5" stroke="black" stroke-width="2" fill="none" />
<polyline points="117.0,288.5,167.5,285.5,218.0,285.0" stroke="black" stroke-width="2" fill="none" />
<polyline points="254.5,257.5,262.5,257.5" stroke="black" stroke-width="2" fill="none" />
<polyline points="207.5,300.5,206.5,296.5,204.5,288.5,201.5,281.5,199.5,273.0,198.5,264.5,197.0,260.5,197.5,252.0,197.5,243.5,197.5,235.0,199.0,227.5,199.0,220.0,201.0,212.5,202.0,204.5,199.0,194.5,206.0,191.5,204.5,183.5,200.5,176.0,193.5,168.0,191.0,160.0,191.0,151.5,185.0,151.5,177.0,154.5,169.0,156.5,161.5,160.0,153.0,159.5,145.0,158.0,137.5,152.5,129.5,140.5" stroke="black" stroke-width="2" fill="none" />
<polyline points="130.5,129.5,126.0,137.0,129.0,143.0,135.0,151.0" stroke="black" stroke-width="2" fill="none" />
<polyline points="116.0,155.5,168.5,154.5" stroke="black" stroke-width="2" fill="none" />
<polyline points="169.5,163.5,178.0,170.0" stroke="black" stroke-width="2" fill="none" />
<polyline points="173.5,166.5,179.5,174.5,182.5,182.5,182.5,191.0,179.0,199.0,177.0,208.0,172.0,216.0,167.5,224.5,163.5,232.5,160.5,241.0,158.5,248.5,154.5,256.5,153.5,264.5,151.5,272.0,150.0,280.0,149.0,287.5,150.0,295.5,152.0,302.5" stroke="black" stroke-width="2" fill="none" />
<polyline points="114.5,301.0,107.0,292.5" stroke="black" stroke-width="2" fill="none" />
<polyline points="113.0,248.0,110.0,240.0,111.0,232.5,115.0,224.5,119.0,216.5,111.5,231.5" stroke="black" stroke-width="2" fill="none" />
<polyline points="112.0,220.0,104.0,232.0,99.0,242.0,91.0,253.0,83.5,260.0,85.5,258.0,92.5,249.0,92.0,241.0,92.0,233.5,96.0,225.0,108.5,217.0" stroke="black" stroke-width="2" fill="none" />
<polyline points="93.0,231.5,101.0,220.5,109.0,216.5,113.0,219.5,107.0,227.0,102.0,236.0,98.5,244.0,98.5,252.5,96.0,253.0,98.5,260.0,98.5,268.5,92.5,276.5,82.0,284.5" stroke="black" stroke-width="2" fill="none" />
<polyline points="54.0,282.5,52.0,274.5,52.0,272.5,50.5,264.5,57.0,256.5,57.0,248.5,56.5,240.5,56.5,232.5,57.5,224.5,57.5,216.5,59.5,208.5,63.0,200.5,69.0,192.5,83.0,184.5" stroke="black" stroke-width="2" fill="none" />
<polyline points="136.0,129.5,147.0,137.5" stroke="black" stroke-width="2" fill="none" />
<polyline points="192.5,87.0,200.5,80.5,208.5,79.5,216.5,79.0,224.5,77.5,232.5,76.5,240.0,70.5" stroke="black" stroke-width="2" fill="none" />
<polyline points="240.0,89.0,245.5,96.5" stroke="black" stroke-width="2" fill="none" />
<polyline points="200.0,79.0,191.0,87.5,190.0,95.5,193.0,103.5,193.0,111.5,193.0,119.0,194.0,127.0,192.5,134.5,178.5,142.0" stroke="black" stroke-width="2" fill="none" />
<polyline points="326.0,171.5,326.0,179.5,326.5,188.0,332.5,193.5,337.5,202.0,334.0,204.5" stroke="black" stroke-width="2" fill="none" />
<polyline points="348.0,186.0,356.0,179.0,357.0,178.0,345.0,189.0,352.5,191.5,352.5,195.5,364.5,188.5,372.5,191.5,380.5,191.5,388.5,190.0,400.5,186.0,406.5,194.0,408.5,202.0,408.5,210.0,402.5,217.5,394.5,225.5,392.5,233.5,396.5,241.5,408.0,247.0" stroke="black" stroke-width="2" fill="none" />
<polyline points="391.0,232.0,399.0,243.0,407.0,245.0,415.0,245.0,423.5,243.0,431.5,238.5,439.5,237.0,447.5,236.5,455.5,236.5,463.0,236.0" stroke="black" stroke-width="2" fill="none" />
<polyline points="463.5,221.0,415.0,219.0" stroke="black" stroke-width="2" fill="none" />
<polyline points="425.0,215.0,475.0,167.0" stroke="black" stroke-width="2" fill="none" />
<polyline points="471.5,193.0,419.5,192.5" stroke="black" stroke-width="2" fill="none" />
<polyline points="412.0,204.5,420.0,206.0,428.0,204.0,436.5,201.0,446.0,196.0,447.0,204.0,462.0,212.0,466.5,220.5,468.5,228.5" stroke="black" stroke-width="2" fill="none" />
<polyline points="462.5,212.0,454.5,209.0,446.5,203.0" stroke="black" stroke-width="2" fill="none" />
<polyline points="423.0,163.5,415.0,163.5,407.0,161.5,399.0,161.0,391.0,161.0,382.5,163.0" stroke="black" stroke-width="2" fill="none" />
<polyline points="375.0,159.5,383.0,155.5,391.0,151.0,399.0,150.0,407.0,150.0,415.5,151.0,418.0,152.5,426.0,153.0,434.0,155.0" stroke="black" stroke-width="2" fill="none" />
<polyline points="434.0,156.0,438.0,164.0,435.0,171.5,438.5,179.5,440.5,187.5,442.0,196.0" stroke="black" stroke-width="2" fill="none" />
<polyline points="399.0,218.0,391.0,226.0" stroke="black" stroke-width="2" fill="none" />
<polyline points="369.0,205.5,361.0,199.5" stroke="black" stroke-width="2" fill="none" />
<polyline points="361.5,180.0,369.5,180.0,377.5,178.5,385.0,176.5" stroke="black" stroke-width="2" fill="none" />
<polyline points="376.5,174.5,368.5,176.5,362.0,172.5,354.0,168.5" stroke="black" stroke-width="2" fill="none" />
<polyline points="354.0,167.0,354.0,175.0,346.0,183.5,349.0,193.5,354.0,194.5,364.0,200.0" stroke="black" stroke-width="2" fill="none" />
<polyline points="347.0,183.0,355.5,175.5,363.5,180.5,371.5,187.0,380.0,188.0,388.0,186.5" stroke="black" stroke-width="2" fill="none" />
<polyline points="370.5,202.5,362.5,196.0,360.5,200.0,357.5,192.0,359.5,183.5,358.5,175.5,356.0,167.5" stroke="black" stroke-width="2" fill="none" />
<polyline points="327.5,177.0,328.5,185.5,328.5,193.5,333.5,202.0,339.0,210.0" stroke="black" stroke-width="2" fill="none" />
<polyline points="387.5,152.5,375.5,160.5,381.5,169.0,373.5,181.0,381.5,181.0,389.5,180.5,397.0,182.5,405.0,182.5,413.0,182.5,421.0,182.5,429.5,181.5,439.5,183.5" stroke="black" stroke-width="2" fill="none" />
<polyline points="163.5,408.0,172.5,416.0,179.0,424.0,189.0,432.0,195.5,440.5,203.5,448.5,211.5,456.0,219.0,464.0,225.5,472.5,233.5,479.5,238.0,486.5,245.0,494.5,250.0,502.5,256.0,510.5,262.0,518.5,267.0,525.5,272.0,533.5,279.0,541.0,284.0,549.0,290.0,557.0,296.5,565.0" stroke="black" stroke-width="2" fill="none" />
<polyline points="310.0,572.5,302.5,569.5,294.5,562.5,286.5,549.5,278.0,539.5,270.0,529.5,262.0,517.5,254.0,506.5,246.0,496.5,238.0,483.0,229.5,474.0,221.5,464.5,213.5,456.5,206.0,447.0,198.0,439.5,189.5,430.0,181.5,423.0,173.0,415.5,165.0,409.5,157.0,411.0,149.0,424.5,141.5,436.0,133.5,449.0,125.5,462.0" stroke="black" stroke-width="2" fill="none" />
<polyline points="159.5,408.0,156.5,416.0,151.5,423.5,144.5,431.5,139.0,439.0,133.5,447.0,128.5,455.0,124.5,462.5,124.5,470.5,127.0,478.5,132.0,486.5,138.0,494.5,145.0,502.5,152.5,510.5,159.0,519.0,161.5,527.5,163.5,535.0,167.5,543.0" stroke="black" stroke-width="2" fill="none" />
</svg>