<svg xmlns="http://www.w3.org/2000/svg" version="1.1"><polyline points="76.0,2.5,65.0,10.5,61.0,18.5,57.5,26.5,56.0,34.5,54.0,42.5,50.5,51.0,43.0,59.5,39.0,67.5,36.0,75.0,35.0,83.0,32.0,91.5,26.5,99.0,24.0,107.5,23.5,116.0,26.0,124.5,33.0,132.5,42.5,140.0,46.0,148.0,49.0,155.5,54.0,163.5,60.0,171.5,73.5,172.0,77.0,172.5,85.0,173.5,93.5,175.5,101.5,179.5,110.0,184.0,118.0,187.0,124.5,187.5" stroke="black" stroke-width="2" fill="none" />
<polyline points="118.0,197.0,167.5,196.0" stroke="black" stroke-width="2" fill="none" />
<polyline points="165.0,215.5,173.0,230.5" stroke="black" stroke-width="2" fill="none" />
<polyline points="183.0,219.0,191.0,227.0,198.5,219.0" stroke="black" stroke-width="2" fill="none" />
<polyline points="198.0,208.5,190.0,201.5,181.5,210.0" stroke="black" stroke-width="2" fill="none" />
<polyline points="189.0,199.5,182.0,207.5,182.0,216.0,186.0,224.5" stroke="black" stroke-width="2" fill="none" />
<polyline points="203.0,233.5,211.0,228.5,219.0,230.5" stroke="black" stroke-width="2" fill="none" />
<polyline points="216.5,230.5,224.5,238.5,226.5,246.5,225.5,254.5,217.5,262.0" stroke="black" stroke-width="2" fill="none" />
<polyline points="220.5,262.0,212.0,262.0,204.0,253.5" stroke="black" stroke-width="2" fill="none" />
<polyline points="212.0,261.0,205.0,253.0,203.5,244.5,204.5,236.5,209.5,228.5" stroke="black" stroke-width="2" fill="none" />
<polyline points="226.0,235.5,276.0,190.5" stroke="black" stroke-width="2" fill="none" />
<polyline points="273.5,160.5,281.0,160.5,289.0,160.5,296.5,160.5" stroke="black" stroke-width="2" fill="none" />
<polyline points="309.5,163.0,318.0,161.0,325.5,157.5" stroke="black" stroke-width="2" fill="none" />
<polyline points="314.0,162.5,313.5,170.5,314.0,178.0,320.0,179.5,328.0,179.0" stroke="black" stroke-width="2" fill="none" />
<polyline points="320.5,179.5,270.5,230.0" stroke="black" stroke-width="2" fill="none" />
<polyline points="278.0,236.0,294.0,244.0" stroke="black" stroke-width="2" fill="none" />
<polyline points="292.0,237.0,283.5,237.0,275.5,234.0,267.5,233.5,260.0,235.5" stroke="black" stroke-width="2" fill="none" />
<polyline points="260.5,234.5,263.5,242.5,277.0,250.5" stroke="black" stroke-width="2" fill="none" />
<polyline points="265.5,254.5,263.0,257.0,276.0,265.5" stroke="black" stroke-width="2" fill="none" />
<polyline points="270.5,271.0,321.0,272.0" stroke="black" stroke-width="2" fill="none" />
<polyline points="318.5,278.5,310.5,278.5" stroke="black" stroke-width="2" fill="none" />
<polyline points="301.0,284.0,308.0,292.0,311.5,303.5,308.5,311.5,302.5,319.5,302.5,327.5,310.5,335.5" stroke="black" stroke-width="2" fill="none" />
<polyline points="302.0,325.5,310.0,333.5,318.5,339.5,326.5,335.0" stroke="black" stroke-width="2" fill="none" />
<polyline points="325.5,343.5,333.5,335.5,342.5,327.5" stroke="black" stroke-width="2" fill="none" />
<polyline points="360.5,316.0,352.5,315.5,344.5,315.5,334.5,320.5,326.5,304.5,318.5,298.5,310.5,309.5,302.5,322.5" stroke="black" stroke-width="2" fill="none" />
<polyline points="299.0,315.5,291.0,315.0,283.0,316.0,275.0,316.0,267.5,318.0" stroke="black" stroke-width="2" fill="none" />
<polyline points="267.5,317.0,267.5,324.5,272.5,327.5,280.5,327.5,288.5,327.5,296.5,327.5,304.5,335.5,312.5,342.5,320.5,346.5,328.5,341.0,336.0,331.0,344.5,328.0,352.0,328.0,360.0,328.0" stroke="black" stroke-width="2" fill="none" />
<polyline points="364.5,326.0,363.5,318.0" stroke="black" stroke-width="2" fill="none" />
<polyline points="385.5,313.0,376.5,321.0,369.5,329.5,363.0,337.5,357.5,345.0,351.5,357.0,352.0,364.5,362.0,372.0,376.0,369.0,384.0,367.0,392.0,363.5,400.0,360.0,408.0,357.5,416.0,351.0,417.0,345.0,425.0,347.0" stroke="black" stroke-width="2" fill="none" />
<polyline points="420.5,354.0,412.5,360.0,405.0,368.0,396.5,374.5,388.5,380.5,380.5,387.0,372.5,386.5,364.5,386.5,356.5,386.5,348.5,386.5,340.0,386.5,332.5,387.5,324.5,387.5,316.5,387.0,308.5,387.0,300.5,387.0,292.0,387.0,284.0,386.5,276.0,386.5,268.0,390.0,260.0,390.0,252.0,390.0" stroke="black" stroke-width="2" fill="none" />
<polyline points="254.0,378.0,252.0,385.5,248.0,397.5,245.0,405.5,240.5,413.5,235.0,421.5" stroke="black" stroke-width="2" fill="none" />
<polyline points="216.5,422.0,211.5,430.5,204.5,438.0,199.5,446.0,193.5,454.0,188.5,462.0,179.5,470.0" stroke="black" stroke-width="2" fill="none" />
<polyline points="181.5,468.5,135.5,469.5" stroke="black" stroke-width="2" fill="none" />
<polyline points="121.5,473.5,169.5,422.5" stroke="black" stroke-width="2" fill="none" />
<polyline points="169.0,417.5,171.0,425.5,173.0,433.0,169.0,441.0,168.5,449.0,174.0,452.5,182.0,443.0,190.0,432.0" stroke="black" stroke-width="2" fill="none" />
<polyline points="194.0,413.5,186.0,404.5" stroke="black" stroke-width="2" fill="none" />
<polyline points="186.5,398.5,186.5,406.0,193.0,414.0,196.0,421.5,191.5,429.5,185.5,438.0,180.5,446.0,171.5,447.5,168.5,455.5,163.5,457.0,162.0,465.0,165.0,473.0,165.0,478.0,178.0,475.0,185.5,466.0,194.0,455.5,202.0,445.5,210.5,433.0,219.0,422.0,227.0,422.0,234.5,421.0,242.5,410.0,251.0,393.5,259.0,394.0,267.0,394.0,275.0,394.5,283.0,395.0,290.5,395.0,298.0,394.0,306.0,394.0,314.0,394.0,322.0,394.0,330.0,394.0,338.5,394.0,346.5,393.5,355.0,393.0,363.0,391.5,370.5,391.5,378.5,391.5,386.5,388.0,394.0,381.0,402.5,374.0,410.5,367.0,419.0,361.5,427.5,356.0,435.5,349.5" stroke="black" stroke-width="2" fill="none" />
<polyline points="448.5,336.5,456.5,331.5,448.5,338.5,448.5,347.5,447.5,356.0,446.0,364.0,445.5,372.0,450.5,372.0" stroke="black" stroke-width="2" fill="none" />
<polyline points="470.0,354.5,523.0,356.0" stroke="black" stroke-width="2" fill="none" />
<polyline points="531.0,338.0,479.5,338.5" stroke="black" stroke-width="2" fill="none" />
<polyline points="486.5,341.5,475.5,350.0,472.5,357.5,470.5,365.5,468.5,373.5" stroke="black" stroke-width="2" fill="none" />
<polyline points="468.0,387.5,415.5,389.5" stroke="black" stroke-width="2" fill="none" />
<polyline points="437.5,401.0,445.5,410.5,459.0,407.5,467.0,405.0,475.5,409.0" stroke="black" stroke-width="2" fill="none" />
<polyline points="478.0,410.5,474.0,400.5,467.0,398.5,475.0,390.0,481.0,382.0,485.5,374.5,494.0,366.5,496.0,353.0,490.0,353.5,486.0,358.5,495.0,357.0,487.5,361.0" stroke="black" stroke-width="2" fill="none" />
<polyline points="473.5,352.5,481.5,344.5,489.5,342.0,497.5,342.0,505.5,348.0" stroke="black" stroke-width="2" fill="none" />
<polyline points="499.0,343.5,506.0,351.5,510.0,359.5,510.5,367.5,507.0,375.5,502.0,383.5,495.5,391.5,485.5,399.5,482.5,408.0,475.5,416.0" stroke="black" stroke-width="2" fill="none" />
<polyline points="473.0,403.0,465.5,400.5" stroke="black" stroke-width="2" fill="none" />
<polyline points="464.0,400.5,472.0,394.0,479.5,383.5,487.5,371.0,495.0,365.0,503.0,365.5" stroke="black" stroke-width="2" fill="none" />
<polyline points="501.5,383.5,493.5,392.0,485.5,398.0,488.5,392.5,496.5,384.5,501.5,376.5,503.5,368.5,496.5,384.5,488.5,392.5,480.5,398.5,472.5,396.5" stroke="black" stroke-width="2" fill="none" />
<polyline points="461.0,406.0,453.0,414.5,450.0,422.5,458.0,424.0,466.0,422.5,474.0,417.0" stroke="black" stroke-width="2" fill="none" />
<polyline points="428.0,423.0,478.0,376.5,530.0,326.0" stroke="black" stroke-width="2" fill="none" />
<polyline points="458.5,320.5,450.5,325.0,451.0,329.0" stroke="black" stroke-width="2" fill="none" />
<polyline points="448.0,322.0,455.5,317.0" stroke="black" stroke-width="2" fill="none" />
<polyline points="442.0,317.0,444.0,325.0,444.0,333.5,442.5,341.5,443.5,349.5,442.5,357.5,442.5,365.0,442.0,373.0,440.0,381.0,437.5,389.0,437.5,397.0,439.5,405.0,446.5,413.0,449.0,421.0,460.0,417.5,468.0,415.5,476.0,410.5" stroke="black" stroke-width="2" fill="none" />
<polyline points="467.5,373.5,467.5,374.5,460.5,366.5,461.5,358.0,462.0,349.0,463.0,340.5,463.0,332.5,462.5,324.5,462.0,316.0,462.0,308.0,459.0,300.0,448.0,299.5" stroke="black" stroke-width="2" fill="none" />
<polyline points="430.0,301.0,438.0,300.0,446.0,298.0,454.0,297.0,461.5,305.0,457.5,310.0,457.5,318.0,457.5,325.0,450.0,327.0,445.0,328.0,445.5,336.5,445.0,344.0,454.0,344.0,454.5,341.0,458.5,349.0,459.0,357.5,458.0,365.5,452.5,373.0" stroke="black" stroke-width="2" fill="none" />
<polyline points="407.5,350.5,399.5,356.5,391.5,360.5,384.0,363.5,376.0,366.5,368.5,371.5,360.5,373.5,353.0,365.5" stroke="black" stroke-width="2" fill="none" />
<polyline points="388.0,387.0,398.0,379.0,407.0,371.0,416.0,363.0,426.5,355.5,434.5,348.0,435.0,340.0,433.5,332.0,431.5,328.5,431.5,320.5,439.5,316.5,431.5,319.5" stroke="black" stroke-width="2" fill="none" />
<polyline points="425.0,326.5,427.5,334.5,428.5,342.5,418.5,354.5,407.5,362.0,398.5,370.0,388.5,378.0" stroke="black" stroke-width="2" fill="none" />
<polyline points="394.0,334.0,402.5,330.5,410.5,326.0,418.0,322.0,426.0,318.5,434.0,314.5,442.0,311.5,446.0,311.0,438.5,313.0,419.5,321.5,406.5,330.0,397.5,338.0,400.0,328.0,408.0,321.0,416.0,315.5,424.0,310.0,432.5,306.0,440.5,303.5,448.5,300.5,456.5,301.0" stroke="black" stroke-width="2" fill="none" />
<polyline points="415.5,324.0,367.5,324.0,320.5,327.0,270.0,329.5,218.5,332.0,171.0,331.0" stroke="black" stroke-width="2" fill="none" />
<polyline points="181.5,331.0,183.5,339.0,178.0,347.0,167.0,355.0" stroke="black" stroke-width="2" fill="none" />
<polyline points="177.0,346.0,169.5,352.0,161.0,358.5,154.0,360.5,153.0,352.5,159.5,344.5,170.0,337.0,181.5,329.0,176.5,332.0,169.0,338.0,161.5,345.0,153.5,350.0" stroke="black" stroke-width="2" fill="none" />
<polyline points="143.0,350.5,151.0,344.0,159.0,337.5,167.0,330.5,174.5,324.0,182.5,318.0,187.5,313.0,177.0,321.0,169.0,328.5,159.0,336.5,150.0,344.5,142.0,352.5,143.0,360.5,144.0,368.5,145.5,377.0,147.5,385.0,156.5,385.0,165.0,379.0,173.0,373.0,181.0,368.0,189.0,361.5,197.0,354.0,205.0,354.0,213.0,354.5,220.5,354.5,228.0,354.5,236.0,354.5,244.0,354.5,252.0,353.5,259.5,353.5,267.5,353.0,275.5,353.5,284.0,353.5,292.0,352.0,300.5,352.0,308.5,352.0,316.5,351.5,324.5,351.5,332.5,351.5,340.5,351.0,348.5,351.5" stroke="black" stroke-width="2" fill="none" />
<polyline points="372.0,368.5,388.5,360.5,405.5,352.5,411.0,344.0,412.0,336.0,418.0,328.5,420.5,326.5,410.0,335.5,402.0,340.0,399.0,346.0,391.0,341.5,392.0,335.5,399.0,327.5,409.5,319.5,423.5,311.0,430.5,301.0,429.0,292.5,428.0,284.0,417.0,287.0,409.5,286.5,401.5,287.0,393.5,283.0,385.5,283.0,378.0,287.0,370.0,291.5,361.5,293.5,353.5,295.0,345.5,293.0,337.0,286.0,329.0,297.5" stroke="black" stroke-width="2" fill="none" />
<polyline points="331.5,299.5,339.5,305.5,347.0,306.0,355.0,306.5,362.5,306.5,370.5,306.5,378.5,306.5,387.0,306.0,395.0,306.0,403.0,306.0,411.0,306.0,419.0,306.0" stroke="black" stroke-width="2" fill="none" />
<polyline points="398.5,322.0,390.5,322.0,390.0,327.0,394.0,326.0,395.0,318.0" stroke="black" stroke-width="2" fill="none" />
<polyline points="387.5,320.5,384.5,328.5,386.5,336.5,393.5,344.5" stroke="black" stroke-width="2" fill="none" />
<polyline points="403.0,337.0,413.0,335.5" stroke="black" stroke-width="2" fill="none" />
<polyline points="415.5,334.5,416.5,342.5,412.0,352.5,399.0,361.0" stroke="black" stroke-width="2" fill="none" />
<polyline points="397.0,318.5,389.0,317.5,381.0,323.5,373.0,331.5,365.5,340.5,357.5,352.5,354.5,357.0,360.5,349.0,365.5,341.5,372.5,333.5,378.0,325.5,386.5,317.5" stroke="black" stroke-width="2" fill="none" />
<polyline points="409.5,315.5,401.5,316.0,394.0,314.0,386.0,314.0,378.0,319.0,370.0,329.0,362.0,339.5,354.0,349.5,345.5,349.0,337.5,349.0,329.5,349.0,321.0,350.0,313.0,349.0,304.5,349.0,296.0,349.0,288.0,349.5,280.0,349.0,272.5,349.0,265.0,349.5,257.5,350.0,249.5,350.0,241.5,350.0,233.5,350.5,225.0,350.0,217.0,350.0,209.5,349.5,201.5,350.5,190.5,353.5,182.5,360.5,174.5,366.5,166.5,372.5,158.5,378.5,150.0,383.5,154.0,385.0,166.0,377.0,176.0,369.0,186.0,361.0,196.5,353.0,197.5,343.0,196.5,335.5,194.5,327.5,194.5,319.5,192.5,312.0,191.0,305.0,190.5,297.0,189.5,289.0" stroke="black" stroke-width="2" fill="none" />
<polyline points="184.0,285.0,185.0,293.0,186.0,301.0,186.0,309.0,177.5,317.0,167.5,324.5,159.0,332.5,149.0,340.5,143.5,345.0,151.5,338.0,159.5,331.0,167.5,324.5,175.5,318.0,183.5,311.0,192.5,304.0,200.5,305.5,208.5,305.5,216.5,305.0,224.5,305.5,232.5,305.5,240.5,306.0,248.5,306.0,256.5,306.0,264.5,306.0,272.5,306.5,280.5,307.0,288.5,306.0,296.5,306.5,304.5,306.0" stroke="black" stroke-width="2" fill="none" />
<polyline points="318.5,304.5,270.0,305.5" stroke="black" stroke-width="2" fill="none" />
<polyline points="271.0,324.5,317.0,275.5,365.5,225.5" stroke="black" stroke-width="2" fill="none" />
<polyline points="366.5,231.0,317.0,227.5" stroke="black" stroke-width="2" fill="none" />
<polyline points="312.5,223.5,364.5,173.5" stroke="black" stroke-width="2" fill="none" />
<polyline points="362.5,143.5,413.0,144.5" stroke="black" stroke-width="2" fill="none" />
<polyline points="427.0,146.0,411.0,156.0,419.5,151.5,428.0,146.5,436.5,146.5,444.5,151.5,452.5,152.5,460.5,151.0,468.5,149.0,476.5,146.5,484.0,147.0,492.0,147.5" stroke="black" stroke-width="2" fill="none" />
<polyline points="491.0,145.5,495.0,153.5,496.0,161.5,498.0,168.0,499.5,176.0,499.5,184.5,499.5,192.5,507.0,201.0,512.0,209.0" stroke="black" stroke-width="2" fill="none" />
<polyline points="507.5,199.0,499.5,189.0" stroke="black" stroke-width="2" fill="none" />
<polyline points="496.0,197.5,504.0,202.0" stroke="black" stroke-width="2" fill="none" />
<polyline points="501.0,218.0,499.0,226.0,495.0,235.0" stroke="black" stroke-width="2" fill="none" />
<polyline points="484.5,234.0,492.5,234.0,500.5,220.5" stroke="black" stroke-width="2" fill="none" />
<polyline points="503.0,220.0,502.0,228.0" stroke="black" stroke-width="2" fill="none" />
<polyline points="503.0,237.0,511.0,229.0,508.5,232.0,500.5,238.0,492.0,238.0,484.5,239.5,476.5,238.5,468.5,237.5,460.5,228.0" stroke="black" stroke-width="2" fill="none" />
<polyline points="467.0,202.0,475.0,194.0,483.5,194.5" stroke="black" stroke-width="2" fill="none" />
<polyline points="478.0,190.5,469.5,193.0,461.5,201.0" stroke="black" stroke-width="2" fill="none" />
<polyline points="472.5,190.5,464.0,198.5,463.0,206.5,462.5,214.5,460.0,223.0,462.0,231.0" stroke="black" stroke-width="2" fill="none" />
<polyline points="482.5,226.5,485.0,218.5,480.0,230.0,472.0,234.0,467.5,231.5,464.5,223.5,468.0,215.5,474.0,207.5,472.5,202.5,471.5,213.0,471.0,221.0,473.0,220.0,473.0,212.0,467.5,208.0,468.0,199.5,482.0,194.5,485.0,186.5,484.0,179.0,483.0,171.0,480.0,162.5,473.0,164.0,465.5,167.0,457.5,172.0" stroke="black" stroke-width="2" fill="none" />
<polyline points="460.5,167.5,456.0,176.0,454.5,183.5" stroke="black" stroke-width="2" fill="none" />
<polyline points="448.0,183.5,439.5,187.5,431.5,189.0,423.5,193.0" stroke="black" stroke-width="2" fill="none" />
<polyline points="422.0,199.0,430.5,194.0,438.5,191.5,446.5,189.0,454.0,183.0" stroke="black" stroke-width="2" fill="none" />
<polyline points="471.5,164.5,477.5,172.5,478.5,180.0,480.0,188.0" stroke="black" stroke-width="2" fill="none" />
<polyline points="487.0,221.0,485.0,229.0,484.0,230.5" stroke="black" stroke-width="2" fill="none" />
<polyline points="407.0,246.0,409.0,254.5" stroke="black" stroke-width="2" fill="none" />
<polyline points="405.5,260.5,397.5,254.5" stroke="black" stroke-width="2" fill="none" />
<polyline points="397.5,256.5,398.5,249.0,406.0,246.5,398.0,251.0" stroke="black" stroke-width="2" fill="none" />
<polyline points="373.0,256.5,323.5,256.5" stroke="black" stroke-width="2" fill="none" />
<polyline points="322.0,239.0,314.0,235.5,306.0,233.5,298.5,233.5,290.5,234.0" stroke="black" stroke-width="2" fill="none" />
<polyline points="291.0,234.0,297.0,241.5" stroke="black" stroke-width="2" fill="none" />
<polyline points="316.0,234.5,329.0,242.5" stroke="black" stroke-width="2" fill="none" />
<polyline points="338.0,261.5,351.0,253.5,345.0,262.5,337.0,268.5,329.0,272.5,321.5,273.5,314.0,274.5,306.0,274.5,298.5,273.0,291.0,272.0,283.0,268.5,275.0,264.5,267.0,259.5" stroke="black" stroke-width="2" fill="none" />
<polyline points="262.5,255.0,270.5,259.0,278.5,262.0,286.5,263.5,294.5,265.5,299.0,267.5,306.5,267.5,314.0,268.0,321.5,266.0,329.5,264.5,337.0,262.5,345.5,258.5,353.5,255.5" stroke="black" stroke-width="2" fill="none" />
<polyline points="353.5,255.0,346.0,263.0,332.0,271.0" stroke="black" stroke-width="2" fill="none" />
<polyline points="336.5,280.0,330.5,287.5,324.5,301.5,329.0,310.0,333.5,318.0,335.5,326.5,329.5,335.0" stroke="black" stroke-width="2" fill="none" />
<polyline points="312.5,346.0,304.5,338.0,298.5,330.0" stroke="black" stroke-width="2" fill="none" />
<polyline points="282.0,292.5,290.0,285.0,287.5,287.5,279.5,295.0,271.0,292.0,263.0,288.0,255.0,285.0" stroke="black" stroke-width="2" fill="none" />
<polyline points="254.0,281.0,266.5,289.0" stroke="black" stroke-width="2" fill="none" />
<polyline points="286.5,294.5,295.5,287.0" stroke="black" stroke-width="2" fill="none" />
<polyline points="298.5,286.5,303.5,294.5,307.5,302.5" stroke="black" stroke-width="2" fill="none" />
<polyline points="307.5,297.0,299.0,287.5,290.5,292.5,282.0,298.0,274.5,300.0,266.5,296.0,258.5,293.5,250.5,288.0,242.5,285.0" stroke="black" stroke-width="2" fill="none" />
<polyline points="243.5,285.5,261.0,293.5" stroke="black" stroke-width="2" fill="none" />
<polyline points="260.5,240.0,268.5,245.0,276.5,249.0,285.0,252.0,293.0,253.0,301.0,253.0,309.0,253.0,317.0,251.5,325.0,250.0" stroke="black" stroke-width="2" fill="none" />
<polyline points="348.5,238.0,340.5,247.0,332.5,252.0,325.0,255.0,317.5,258.0,309.5,259.0,302.0,260.0,294.5,259.0,286.5,257.5,279.0,253.5,271.0,250.5,263.0,246.0,255.0,238.0,247.0,231.0,239.0,222.0,231.5,212.5,223.5,204.0,215.0,191.5,207.0,179.5,199.0,165.5,190.5,150.5,182.5,136.0,174.5,136.0" stroke="black" stroke-width="2" fill="none" />
<polyline points="182.0,133.5,186.0,141.0,190.5,149.0,195.5,157.0,200.5,165.5,204.5,173.5,208.5,181.5,214.5,190.0,218.5,198.5,224.5,206.5,231.5,215.5,237.5,223.5,244.5,231.5,252.5,239.5,261.5,247.0,279.5,255.0" stroke="black" stroke-width="2" fill="none" />
<polyline points="295.5,310.5,287.5,310.0,279.5,310.0,271.0,310.0,263.0,310.0,255.5,310.5,247.5,310.5,240.0,310.5,232.0,310.5,224.5,310.5,216.5,310.5,208.5,310.5,201.0,310.0,193.5,310.0" stroke="black" stroke-width="2" fill="none" />
<polyline points="189.5,314.0,191.5,322.0,191.0,330.0,193.0,338.0,193.5,345.5,190.0,353.5,180.0,361.5,170.0,369.5,158.5,377.5" stroke="black" stroke-width="2" fill="none" />
<polyline points="150.0,391.0,158.0,391.0,166.0,390.0,174.5,390.0,182.5,390.5,191.0,390.5,199.0,384.5,206.5,374.0,200.5,382.0" stroke="black" stroke-width="2" fill="none" />
<polyline points="208.0,375.0,206.0,383.0,200.5,390.5,193.5,398.5,194.5,406.5,207.5,414.5,199.5,426.5,194.0,434.5,190.0,442.5,183.5,450.5,177.0,458.5,170.5,460.5,164.5,461.5,168.0,462.0,176.0,458.0,183.5,448.0,191.5,437.0,199.5,425.0,208.0,421.0" stroke="black" stroke-width="2" fill="none" />
<polyline points="195.0,404.5,202.5,412.0,210.0,415.5,217.5,417.5,225.0,418.0,232.5,417.0,240.5,398.0,248.5,378.0" stroke="black" stroke-width="2" fill="none" />
<polyline points="251.5,376.0,248.5,384.0,245.0,392.0,241.0,400.0,237.5,408.0,233.5,415.5" stroke="black" stroke-width="2" fill="none" />
<polyline points="232.0,374.5,278.0,372.5" stroke="black" stroke-width="2" fill="none" />
<polyline points="256.0,325.0,255.0,318.0,247.0,317.0,239.0,317.5,231.0,317.5,223.0,317.5,215.0,317.0,207.0,316.5" stroke="black" stroke-width="2" fill="none" />
<polyline points="208.0,316.5,208.0,324.0,212.0,328.0,219.5,328.0,228.0,327.5,235.5,327.5,243.5,328.0,251.5,328.0" stroke="black" stroke-width="2" fill="none" />
<polyline points="336.5,286.5,331.5,294.5,330.5,302.0,334.5,312.0,337.5,310.0,345.5,310.0,354.0,310.0,362.5,310.0,371.0,310.0,379.0,310.0,387.0,310.5,395.0,310.0,403.0,310.5,411.0,310.5" stroke="black" stroke-width="2" fill="none" />
<polyline points="413.0,290.0,405.0,289.5,387.0,282.5" stroke="black" stroke-width="2" fill="none" />
<polyline points="391.5,275.5,379.5,281.5,371.5,284.0,363.5,286.0,355.5,288.0,347.5,290.0,339.5,283.0" stroke="black" stroke-width="2" fill="none" />
<polyline points="340.0,281.5,346.0,289.5" stroke="black" stroke-width="2" fill="none" />
<polyline points="346.0,294.5,339.5,286.0" stroke="black" stroke-width="2" fill="none" />
<polyline points="389.0,227.0,397.0,231.0,405.0,226.5" stroke="black" stroke-width="2" fill="none" />
<polyline points="404.0,228.0,408.0,220.0,407.5,212.5,402.0,204.5" stroke="black" stroke-width="2" fill="none" />
<polyline points="401.0,202.5,393.0,203.5,385.0,213.5" stroke="black" stroke-width="2" fill="none" />
<polyline points="387.0,227.5,385.5,219.0,387.0,210.5,394.0,202.5" stroke="black" stroke-width="2" fill="none" />
<polyline points="377.5,179.0,328.5,180.0,281.5,180.0,230.5,180.0" stroke="black" stroke-width="2" fill="none" />
<polyline points="217.0,186.5,271.0,138.0" stroke="black" stroke-width="2" fill="none" />
<polyline points="286.0,127.5,235.5,128.0" stroke="black" stroke-width="2" fill="none" />
<polyline points="229.0,106.5,281.5,106.5" stroke="black" stroke-width="2" fill="none" />
<polyline points="283.0,117.0,275.5,109.0,267.5,108.0" stroke="black" stroke-width="2" fill="none" />
<polyline points="268.5,95.5,276.5,107.5,284.5,115.5,293.0,119.5,301.5,115.5" stroke="black" stroke-width="2" fill="none" />
<polyline points="315.5,99.0,307.5,98.0,299.5,86.0" stroke="black" stroke-width="2" fill="none" />
<polyline points="294.0,93.5,302.0,105.0,310.0,109.0,318.0,103.5" stroke="black" stroke-width="2" fill="none" />
<polyline points="315.0,75.0,307.0,69.5,299.0,76.5" stroke="black" stroke-width="2" fill="none" />
<polyline points="307.0,70.5,299.5,78.5,300.5,86.0,302.5,94.0" stroke="black" stroke-width="2" fill="none" />
<polyline points="289.5,92.5,297.0,105.5,304.5,110.5" stroke="black" stroke-width="2" fill="none" />
<polyline points="295.5,142.5,303.0,141.5,310.5,139.5,318.5,137.0,326.0,134.0,333.5,130.0,341.5,125.0,350.0,121.0,358.0,113.5,366.0,104.0,374.0,93.0,381.5,94.0,389.5,98.5,397.5,106.5" stroke="black" stroke-width="2" fill="none" />
<polyline points="401.0,100.5,409.0,112.5" stroke="black" stroke-width="2" fill="none" />
<polyline points="404.0,108.5,396.5,92.5" stroke="black" stroke-width="2" fill="none" />
<polyline points="389.5,103.5,381.5,98.5,373.0,97.5" stroke="black" stroke-width="2" fill="none" />
<polyline points="372.0,104.0,375.5,101.5,391.5,103.5,396.5,111.5,397.5,120.0,395.5,128.0,383.5,136.5,388.5,133.5" stroke="black" stroke-width="2" fill="none" />
<polyline points="380.5,128.5,372.5,125.0" stroke="black" stroke-width="2" fill="none" />
<polyline points="373.5,127.0,374.0,135.0,372.5,143.5,373.0,151.5,372.5,159.5,371.5,167.5,369.5,175.0,369.5,183.0,367.5,190.5,366.5,198.5,364.5,206.5,362.5,214.5,358.5,222.5,356.0,231.0,350.0,239.0,342.5,247.0" stroke="black" stroke-width="2" fill="none" />
<polyline points="330.5,203.0,282.5,202.0,232.5,202.0" stroke="black" stroke-width="2" fill="none" />
<polyline points="192.0,202.0,199.0,210.0,199.0,218.5,192.5,226.5" stroke="black" stroke-width="2" fill="none" />
<polyline points="169.5,230.0,161.5,217.0" stroke="black" stroke-width="2" fill="none" />
<polyline points="158.5,181.5,150.5,171.0" stroke="black" stroke-width="2" fill="none" />
<polyline points="145.0,171.5,153.0,182.5" stroke="black" stroke-width="2" fill="none" />
<polyline points="147.0,190.5,139.0,180.0,131.5,178.0,123.0,179.5,115.0,179.5,107.0,175.5,100.0,168.0,92.0,168.0,84.0,165.0" stroke="black" stroke-width="2" fill="none" />
<polyline points="76.5,168.0,65.5,169.0" stroke="black" stroke-width="2" fill="none" />
<polyline points="74.0,192.5,66.0,189.5,58.0,189.0,49.5,188.0,41.5,187.0,33.5,191.0" stroke="black" stroke-width="2" fill="none" />
<polyline points="37.5,186.0,32.5,194.0,30.5,202.0,28.5,210.5,27.0,219.0,27.0,227.5,30.0,231.0,38.0,230.0,45.5,231.0,53.5,232.5,55.5,246.5" stroke="black" stroke-width="2" fill="none" />
<polyline points="58.0,241.0,52.0,233.0,46.5,241.5" stroke="black" stroke-width="2" fill="none" />
<polyline points="50.5,237.0,47.5,245.5,46.5,253.0,52.5,251.0,50.5,258.5" stroke="black" stroke-width="2" fill="none" />
<polyline points="43.5,262.5,35.5,261.0,33.0,258.5,30.0,252.5" stroke="black" stroke-width="2" fill="none" />
<polyline points="26.0,263.5,17.5,257.5" stroke="black" stroke-width="2" fill="none" />
<polyline points="21.0,262.0,18.0,254.0,15.5,253.0,8.5,258.5" stroke="black" stroke-width="2" fill="none" />
<polyline points="3.0,259.0,10.5,265.0,18.5,265.0,26.5,269.0,34.5,268.5,42.5,267.5,50.5,264.5" stroke="black" stroke-width="2" fill="none" />
<polyline points="57.5,251.5,54.0,245.5,54.0,237.5" stroke="black" stroke-width="2" fill="none" />
<polyline points="53.0,230.0,62.5,237.5,63.5,245.5,57.0,253.0,54.0,260.5" stroke="black" stroke-width="2" fill="none" />
<polyline points="98.5,242.0,90.5,229.0,83.0,216.5,75.0,216.5,67.0,214.0,59.0,208.0" stroke="black" stroke-width="2" fill="none" />
<polyline points="66.0,197.5,74.5,198.5" stroke="black" stroke-width="2" fill="none" />
<polyline points="80.0,200.0,80.0,200.0,86.0,192.0,85.5,184.5,78.5,185.5,70.5,183.0,62.0,180.0,54.0,179.0,46.0,178.0,38.0,177.5,30.0,178.0,22.0,191.5" stroke="black" stroke-width="2" fill="none" />
<polyline points="19.0,188.0,27.0,175.0,35.0,174.0,43.0,173.5,51.5,174.5,59.5,175.5,73.5,177.5,81.5,175.5" stroke="black" stroke-width="2" fill="none" />
<polyline points="65.0,173.0,57.0,164.5,48.5,151.0,40.5,134.5,32.5,129.5,24.5,117.0" stroke="black" stroke-width="2" fill="none" />
<polyline points="28.5,116.5,37.0,125.5,45.0,131.5,53.0,142.0,61.5,159.5,69.5,166.5,77.0,164.5,85.0,153.5,92.5,151.5" stroke="black" stroke-width="2" fill="none" />
<polyline points="94.0,153.5,99.5,161.0,100.0,168.5,109.0,177.0,122.0,185.5,126.0,193.5,123.5,201.5,118.0,211.0,120.0,219.0,124.5,227.5,134.0,236.0" stroke="black" stroke-width="2" fill="none" />
<polyline points="143.5,233.0,135.5,235.0,127.0,231.0,119.0,219.0" stroke="black" stroke-width="2" fill="none" />
<polyline points="100.0,230.0,92.0,219.0" stroke="black" stroke-width="2" fill="none" />
<polyline points="89.5,218.0,97.0,226.0,101.0,233.5,105.0,241.0,107.0,249.0,107.5,257.0,110.0,265.0,115.5,273.0,120.5,281.0,125.5,289.0,128.5,297.0,130.5,304.5,131.5,312.5" stroke="black" stroke-width="2" fill="none" />
<polyline points="123.5,319.5,131.0,329.0,140.0,323.0,148.5,312.5,156.5,306.0,164.5,297.0,172.5,289.0,180.0,285.5,189.5,284.0,197.0,284.0,205.0,280.5,213.0,280.0,221.5,281.0,230.0,283.0,238.0,285.0,246.5,283.0,254.5,281.0,262.5,280.0,271.0,277.5,279.0,277.5,287.0,282.0,295.0,283.0,303.0,285.0,311.0,293.0,318.5,296.0,326.5,293.5,334.5,281.5,343.0,281.5,351.0,283.5,359.0,284.5,367.0,284.0,375.0,281.5" stroke="black" stroke-width="2" fill="none" />
<polyline points="421.0,182.0,413.0,162.0" stroke="black" stroke-width="2" fill="none" />
<polyline points="430.0,151.0,416.5,159.5,420.5,155.5,428.5,153.0,436.0,151.5,444.0,155.5,452.0,159.0,460.5,163.5,468.5,161.0,477.0,158.5" stroke="black" stroke-width="2" fill="none" />
<polyline points="489.5,151.0,493.5,158.5,494.0,167.0,495.0,175.0,495.0,183.0,494.5,191.0,500.0,199.0,506.0,207.0,509.0,215.0,507.0,223.0,502.0,225.5" stroke="black" stroke-width="2" fill="none" />
<polyline points="443.0,185.0,451.5,176.5,450.5,169.0,446.5,161.0,436.5,152.5" stroke="black" stroke-width="2" fill="none" />
<polyline points="437.0,147.0,452.0,156.5,454.0,165.0,458.0,155.0,465.5,152.0,473.5,150.0,481.0,150.5,489.0,151.5" stroke="black" stroke-width="2" fill="none" />
<polyline points="381.5,124.0,367.0,122.0" stroke="black" stroke-width="2" fill="none" />
<polyline points="380.0,124.0,372.5,120.5,368.5,127.5,360.0,134.5,352.0,140.5,344.0,144.5,336.0,149.5,329.5,151.5,322.0,154.0,314.0,156.0,306.5,157.0,298.5,157.5,290.5,157.5,282.5,157.5,275.0,157.5,266.5,158.0,258.5,157.0,250.5,156.0,242.5,154.0,234.0,152.0,226.0,150.0,218.0,147.5,210.0,145.5,202.5,142.5,195.0,138.5,187.0,132.0" stroke="black" stroke-width="2" fill="none" />
<polyline points="178.5,121.5,186.0,125.5,175.0,133.5,181.0,128.5,188.5,124.5,190.5,127.0,191.5,135.0,207.0,143.0" stroke="black" stroke-width="2" fill="none" />
<polyline points="209.5,130.5,262.0,83.0" stroke="black" stroke-width="2" fill="none" />
<polyline points="265.5,94.0,212.5,98.5" stroke="black" stroke-width="2" fill="none" />
<polyline points="213.0,95.0,221.5,106.5,230.0,112.5,238.0,115.5,246.5,113.0,254.5,107.0" stroke="black" stroke-width="2" fill="none" />
<polyline points="248.0,126.5,257.0,118.0,262.5,109.5,266.5,101.5,267.0,93.5,266.0,85.5,266.5,77.5,263.5,70.0,259.5,62.0,254.5,54.5,246.5,46.0,235.5,38.5,229.0,24.5,231.0,20.5" stroke="black" stroke-width="2" fill="none" />
<polyline points="231.0,20.5,231.0,29.0" stroke="black" stroke-width="2" fill="none" />
<polyline points="234.0,21.5,233.5,29.5,240.0,37.5,249.5,45.5,256.5,54.0" stroke="black" stroke-width="2" fill="none" />
<polyline points="261.5,61.5,210.0,62.0" stroke="black" stroke-width="2" fill="none" />
<polyline points="211.5,68.0,220.0,58.0,228.5,55.5,236.5,57.0,244.5,62.0,252.5,70.5" stroke="black" stroke-width="2" fill="none" />
<polyline points="241.5,76.0,233.0,70.0,224.5,76.0" stroke="black" stroke-width="2" fill="none" />
<polyline points="219.0,77.5,271.5,28.5" stroke="black" stroke-width="2" fill="none" />
<polyline points="265.5,27.0,215.0,28.0" stroke="black" stroke-width="2" fill="none" />
<polyline points="212.5,18.5,214.5,26.5,218.5,29.5,226.5,31.5,238.5,36.5,247.0,42.5,255.0,48.5,264.5,45.5,273.0,34.0" stroke="black" stroke-width="2" fill="none" />
<polyline points="281.0,28.0,289.0,29.0" stroke="black" stroke-width="2" fill="none" />
<polyline points="290.0,20.5,291.0,13.0,288.5,16.5" stroke="black" stroke-width="2" fill="none" />
<polyline points="296.5,15.0,299.0,23.0,301.5,27.5,309.5,28.5,317.0,19.5" stroke="black" stroke-width="2" fill="none" />
<polyline points="315.0,19.0,310.0,27.0,318.5,37.0,329.0,45.0,336.0,53.0,342.5,61.0,345.5,69.0,342.5,76.5,333.0,84.5,336.5,80.0,344.5,75.0,356.5,70.0,364.0,71.0,372.0,79.5" stroke="black" stroke-width="2" fill="none" />
<polyline points="362.5,73.5,371.5,81.5,373.5,89.5,372.5,97.5,367.5,105.5,361.5,113.5,352.5,121.5,360.0,123.0,370.0,126.5,360.5,134.5,349.0,142.5,333.0,150.5,332.5,163.0,334.5,171.0,335.5,179.0" stroke="black" stroke-width="2" fill="none" />
<polyline points="292.0,142.0,300.0,140.0,308.0,136.5,316.0,133.5,324.0,130.5,331.5,125.5,339.5,120.5,348.0,114.5,356.0,108.5,363.5,98.5" stroke="black" stroke-width="2" fill="none" />
<polyline points="382.5,93.5,396.5,102.0,400.5,110.5,402.0,118.5,400.0,126.0,392.5,134.5,390.5,135.5,398.0,129.0" stroke="black" stroke-width="2" fill="none" />
<polyline points="348.5,120.0,336.5,128.0,318.0,136.0" stroke="black" stroke-width="2" fill="none" />
<polyline points="293.5,179.0,292.5,170.5,290.0,164.5,282.0,163.5,274.0,163.0,266.0,162.0" stroke="black" stroke-width="2" fill="none" />
<polyline points="264.5,162.5,264.5,170.5,265.5,179.0,270.0,180.0,275.0,182.0,283.0,182.0,291.5,182.0" stroke="black" stroke-width="2" fill="none" />
<polyline points="242.5,101.0,234.0,100.0,226.5,87.0" stroke="black" stroke-width="2" fill="none" />
<polyline points="217.0,92.0,225.0,105.0,233.0,110.5,241.5,112.5,249.0,107.0" stroke="black" stroke-width="2" fill="none" />
<polyline points="247.5,72.0,239.5,65.0,232.0,61.0,224.0,61.0,216.0,69.0" stroke="black" stroke-width="2" fill="none" />
<polyline points="222.0,62.0,214.5,70.0,212.5,78.0,212.5,86.0,216.0,94.0,221.5,101.5,229.0,109.0" stroke="black" stroke-width="2" fill="none" />
<polyline points="205.0,124.0,212.5,129.0,220.5,132.0,228.5,132.5,236.5,131.5,244.5,129.5,252.5,124.5,261.0,114.0,273.0,108.5,281.0,116.5,290.5,124.5,286.0,131.5" stroke="black" stroke-width="2" fill="none" />
<polyline points="287.5,70.0,296.0,58.5,303.5,55.5,311.5,57.5,319.5,62.5,327.5,77.0" stroke="black" stroke-width="2" fill="none" />
<polyline points="322.0,75.5,314.5,65.5,306.5,61.0,298.5,61.0,290.0,70.0" stroke="black" stroke-width="2" fill="none" />
<polyline points="298.5,63.0,292.5,70.5,290.0,78.0,291.0,85.5,293.0,93.0,298.0,100.5,306.0,108.5" stroke="black" stroke-width="2" fill="none" />
<polyline points="314.5,134.0,331.0,125.5,344.5,117.5,355.0,109.0,361.5,101.0,365.5,92.5,367.0,84.5,361.0,76.5" stroke="black" stroke-width="2" fill="none" />
<polyline points="384.5,55.0,376.5,43.0" stroke="black" stroke-width="2" fill="none" />
<polyline points="387.0,49.0,395.0,59.0" stroke="black" stroke-width="2" fill="none" />
<polyline points="361.0,24.5,353.5,25.5" stroke="black" stroke-width="2" fill="none" />
<polyline points="355.0,22.5,353.0,30.5,355.0,38.5,358.0,40.5" stroke="black" stroke-width="2" fill="none" />
<polyline points="363.5,40.0,364.5,32.5,359.5,24.5" stroke="black" stroke-width="2" fill="none" />
<polyline points="368.5,12.5,375.5,20.5,377.5,28.5,376.5,36.5,377.5,44.5,383.0,52.5,387.5,60.5,391.5,68.0,393.5,76.5,394.0,85.0,394.0,93.0,397.0,101.0,401.0,108.5,406.0,116.5,408.0,124.0,408.0,132.0,407.0,140.0,406.5,148.5,408.5,156.5,409.5,165.0,412.5,173.0,416.0,181.0,418.0,188.5,418.0,196.0,417.0,204.0,415.5,212.0,416.0,220.0,417.5,228.0,421.5,236.0,421.5,244.0,420.5,252.0,421.5,259.5,424.5,267.5,423.5,275.5,423.5,283.5" stroke="black" stroke-width="2" fill="none" />
<polyline points="253.0,129.0,261.0,121.0,267.0,113.0,264.5,114.5,257.0,124.5,249.0,130.5,241.5,134.0,233.5,135.5,225.5,136.0,217.5,135.0,209.5,132.0,201.5,128.0" stroke="black" stroke-width="2" fill="none" />
<polyline points="210.5,132.0,200.0,124.0,198.0,122.0,199.5,114.0,192.0,106.0,184.0,111.5" stroke="black" stroke-width="2" fill="none" />
<polyline points="183.0,109.0,194.0,101.0,202.0,109.0,202.5,117.5,206.5,125.5" stroke="black" stroke-width="2" fill="none" />
<polyline points="195.5,101.5,187.5,100.0,180.0,94.0" stroke="black" stroke-width="2" fill="none" />
<polyline points="165.0,113.5,164.0,117.0" stroke="black" stroke-width="2" fill="none" />
<polyline points="168.0,107.5,160.0,112.5,152.0,123.0" stroke="black" stroke-width="2" fill="none" />
<polyline points="148.5,125.0,156.5,111.0,164.5,105.0,172.5,101.0,178.0,102.0,185.5,102.5,193.5,105.0" stroke="black" stroke-width="2" fill="none" />
<polyline points="175.5,61.0,183.5,47.0,192.0,38.5" stroke="black" stroke-width="2" fill="none" />
<polyline points="191.0,25.0,195.0,33.0,188.5,43.5,181.5,51.5,177.5,59.0,175.5,67.0,175.5,74.5,176.0,82.5,179.0,90.5,181.0,98.5,167.0,108.5,158.5,116.5,152.0,124.0,151.0,131.5,153.0,139.0" stroke="black" stroke-width="2" fill="none" />
<polyline points="149.5,136.5,157.5,147.5,165.0,148.5,173.0,147.5" stroke="black" stroke-width="2" fill="none" />
<polyline points="168.5,145.0,160.0,143.0,152.5,134.0" stroke="black" stroke-width="2" fill="none" />
<polyline points="142.5,139.0,135.0,128.0,127.0,115.0" stroke="black" stroke-width="2" fill="none" />
<polyline points="120.5,118.5,128.5,128.0,137.0,137.5" stroke="black" stroke-width="2" fill="none" />
<polyline points="136.5,178.0,144.5,186.0,148.5,194.5,151.0,202.5,151.0,211.0,150.0,219.0,147.5,227.0,138.5,235.5" stroke="black" stroke-width="2" fill="none" />
<polyline points="137.5,260.0,132.5,268.0,135.0,276.5" stroke="black" stroke-width="2" fill="none" />
<polyline points="134.5,275.5,142.5,283.0" stroke="black" stroke-width="2" fill="none" />
<polyline points="148.0,279.0,147.5,270.5,143.5,262.5,140.0,260.0,132.0,264.0" stroke="black" stroke-width="2" fill="none" />
<polyline points="110.5,263.0,118.5,276.0,126.5,290.0" stroke="black" stroke-width="2" fill="none" />
<polyline points="120.5,295.5,112.5,281.5,104.5,269.0" stroke="black" stroke-width="2" fill="none" />
<polyline points="88.0,216.5,88.0,224.5,92.5,233.0,97.5,241.0,100.5,249.0,102.5,257.0,103.5,264.0,106.0,272.0,110.5,279.5,118.0,287.0,122.0,295.5,123.0,303.0,122.0,311.0,123.5,319.0,130.0,326.5,132.5,334.5,133.5,343.0,134.5,351.0" stroke="black" stroke-width="2" fill="none" />
<polyline points="154.5,417.5,144.5,425.5,147.0,428.5,132.0,436.0,122.0,443.5,118.0,451.0,117.0,459.0,120.5,467.0" stroke="black" stroke-width="2" fill="none" />
<polyline points="119.0,462.5,127.0,471.5,135.0,472.5,143.0,465.5" stroke="black" stroke-width="2" fill="none" />
<polyline points="140.0,468.5,144.0,460.5,143.5,453.0,153.5,446.5,145.5,450.0" stroke="black" stroke-width="2" fill="none" />
<polyline points="138.0,452.0,138.0,460.0" stroke="black" stroke-width="2" fill="none" />
<polyline points="136.0,461.0,133.0,460.0,134.5,452.0,133.5,454.0" stroke="black" stroke-width="2" fill="none" />
<polyline points="118.5,450.0,126.0,440.0,134.0,435.5,142.0,431.5,149.0,420.5,157.0,417.0,165.5,415.0" stroke="black" stroke-width="2" fill="none" />
<polyline points="172.5,436.0,162.0,436.0,154.0,438.0" stroke="black" stroke-width="2" fill="none" />
<polyline points="153.5,446.0,155.5,453.5,158.5,462.0,160.5,470.0" stroke="black" stroke-width="2" fill="none" />
<polyline points="163.5,467.0,171.5,475.0,180.0,468.5,188.0,459.0,196.0,447.0,204.0,436.5,211.0,423.0,207.5,431.0,202.0,439.0,196.0,447.0,191.0,455.0,185.0,463.0,178.0,471.0" stroke="black" stroke-width="2" fill="none" />
<polyline points="164.0,458.0,171.5,452.5" stroke="black" stroke-width="2" fill="none" />
<polyline points="163.5,446.5,163.5,449.5,160.0,453.5,158.5,453.5,160.5,446.0,157.5,442.5,160.5,444.5" stroke="black" stroke-width="2" fill="none" />
<polyline points="118.5,441.0,168.0,441.0,217.5,441.0" stroke="black" stroke-width="2" fill="none" />
<polyline points="119.5,206.5,111.0,210.5,103.0,213.0,95.0,216.5,87.0,216.5" stroke="black" stroke-width="2" fill="none" />
<polyline points="67.5,212.5,58.5,204.5,56.5,196.0,51.0,192.0,43.0,191.5,34.5,199.5" stroke="black" stroke-width="2" fill="none" />
<polyline points="42.5,193.5,35.5,201.5,33.5,209.5,32.0,217.5,33.0,225.5,38.0,227.0,45.5,227.5,54.0,230.0,62.0,238.0" stroke="black" stroke-width="2" fill="none" />
<polyline points="64.5,196.0,64.5,204.0,67.0,207.0,75.0,210.0,83.5,210.0,91.0,210.0,99.0,209.0,107.0,206.5,114.5,204.5" stroke="black" stroke-width="2" fill="none" />
<polyline points="117.0,202.5,123.0,195.0,119.0,187.0,106.0,180.0,86.0,172.5,84.0,160.5,87.0,153.0" stroke="black" stroke-width="2" fill="none" />
<polyline points="95.5,115.0,87.5,122.5,79.5,122.0,72.0,117.0,64.0,104.0" stroke="black" stroke-width="2" fill="none" />
<polyline points="61.0,86.5,69.0,75.0,77.0,74.0,85.0,77.0,93.5,85.0" stroke="black" stroke-width="2" fill="none" />
<polyline points="111.5,85.5,103.0,77.5,94.5,66.0" stroke="black" stroke-width="2" fill="none" />
<polyline points="100.0,65.5,108.0,76.5,115.5,83.0" stroke="black" stroke-width="2" fill="none" />
<polyline points="121.0,83.0,70.0,85.0" stroke="black" stroke-width="2" fill="none" />
<polyline points="70.0,76.0,63.0,84.0,62.0,91.5,62.0,99.5,64.0,107.0,69.0,115.0" stroke="black" stroke-width="2" fill="none" />
<polyline points="95.5,115.5,98.0,107.0,98.0,98.5,96.0,90.5,89.5,82.5,78.5,74.5" stroke="black" stroke-width="2" fill="none" />
<polyline points="92.5,43.5,84.5,34.5,77.0,22.5" stroke="black" stroke-width="2" fill="none" />
<polyline points="76.0,21.0,80.0,29.5,87.0,37.5,94.5,45.5,97.5,53.5,99.0,61.0,101.0,69.0,108.5,77.0,116.5,85.0,121.0,93.5,122.0,101.0,123.0,109.5,127.0,118.0,133.0,126.0,138.5,134.0,142.5,142.0,144.0,150.5,146.0,155.5,146.0,164.0,148.0,172.0,154.0,180.0,159.0,188.0,162.5,196.5,163.0,204.5,163.5,212.0,164.5,220.0,169.5,228.0,174.5,236.0,177.0,244.0,176.5,252.0,176.5,260.0,177.5,268.0,180.0,275.0,178.0,286.0,167.5,294.0,161.5,302.0,152.5,310.0,142.5,318.0,139.0,326.0,138.0,334.5,140.0,342.0,136.0,354.0,136.0,361.5,138.0,369.5,138.5,378.0,139.5,386.0,140.0,393.5,144.0,396.0,152.0,396.0,160.0,396.0,168.0,396.0,176.0,396.0,184.0,396.0,197.5,392.0,205.5,382.5" stroke="black" stroke-width="2" fill="none" />
<polyline points="7.0,247.5,15.0,234.0" stroke="black" stroke-width="2" fill="none" />
<polyline points="22.5,269.5,5.0,259.0,5.0,258.0,5.0,250.0,8.5,241.5,13.5,233.0,16.0,225.0,16.5,216.5,18.0,209.0,21.0,200.5,23.0,193.0,26.5,185.5,32.5,177.5" stroke="black" stroke-width="2" fill="none" />
<polyline points="28.0,175.0,20.5,183.0,18.5,190.5,15.5,198.5,14.0,207.0,12.0,215.5,11.0,223.0,10.0,231.0,5.5,238.5,2.0,246.5,8.0,233.5" stroke="black" stroke-width="2" fill="none" />
<polyline points="22.5,101.5,30.5,89.5" stroke="black" stroke-width="2" fill="none" />
<polyline points="36.5,89.0,28.0,102.0" stroke="black" stroke-width="2" fill="none" />
<polyline points="35.5,69.5,43.5,54.5,51.5,45.5" stroke="black" stroke-width="2" fill="none" />
<polyline points="62.0,29.5,113.0,29.5" stroke="black" stroke-width="2" fill="none" />
<polyline points="108.5,28.5,117.0,19.5,125.0,20.5,133.0,27.0,141.0,37.5" stroke="black" stroke-width="2" fill="none" />
<polyline points="137.0,57.5,129.0,54.5,121.0,48.0,113.5,36.0" stroke="black" stroke-width="2" fill="none" />
<polyline points="116.0,21.5,110.5,29.0,111.5,36.5,115.5,44.5,123.0,52.5" stroke="black" stroke-width="2" fill="none" />
<polyline points="133.0,68.0,131.0,76.0,133.0,84.5" stroke="black" stroke-width="2" fill="none" />
<polyline points="133.0,80.5,141.0,89.5,149.0,88.0" stroke="black" stroke-width="2" fill="none" />
<polyline points="148.5,76.0,140.5,68.0,132.5,70.0" stroke="black" stroke-width="2" fill="none" />
<polyline points="140.5,69.5,147.5,77.5,150.0,85.5" stroke="black" stroke-width="2" fill="none" />
<polyline points="172.5,60.0,180.5,45.5,188.5,37.5,198.0,36.5,206.5,34.5,214.5,33.5,222.5,35.5,230.5,37.5,238.5,41.0,246.5,46.0,254.5,54.0,266.5,67.0" stroke="black" stroke-width="2" fill="none" />
<polyline points="236.0,72.5,244.0,80.5,247.0,88.5,246.5,96.5" stroke="black" stroke-width="2" fill="none" />
<polyline points="237.0,102.5,228.5,94.5,225.5,87.0,225.0,79.5,230.5,71.5" stroke="black" stroke-width="2" fill="none" />
<polyline points="232.0,62.5,243.5,70.5,249.0,78.5,252.0,86.0,254.5,93.5,253.0,101.0,247.0,108.5" stroke="black" stroke-width="2" fill="none" />
<polyline points="246.0,114.0,256.0,106.0,258.0,97.5,258.0,90.0,256.0,82.0,254.0,74.0,247.0,66.0,234.5,58.0" stroke="black" stroke-width="2" fill="none" />
<polyline points="224.5,57.5,215.0,65.5,213.0,73.5,211.5,81.0,212.0,89.0,213.5,97.0,218.5,105.0,227.5,113.0" stroke="black" stroke-width="2" fill="none" />
<polyline points="203.0,30.5,195.5,28.0,187.5,23.0" stroke="black" stroke-width="2" fill="none" />
<polyline points="186.5,22.5,189.5,30.5,186.0,39.0,179.0,47.0,175.0,54.5,173.0,62.5,172.5,71.0,173.5,78.5,173.5,87.0,176.5,95.0,168.0,103.5,158.5,111.0,151.0,118.5,148.0,126.0,147.0,133.5,149.0,141.5" stroke="black" stroke-width="2" fill="none" />
<polyline points="91.5,47.0,83.5,38.0,75.5,30.0,67.5,23.5,59.5,42.5,51.5,56.0,43.5,69.5" stroke="black" stroke-width="2" fill="none" />
<polyline points="57.5,27.0,65.5,11.0,73.5,4.0,81.5,3.0,89.5,5.0,97.5,5.5,106.0,4.5,114.5,3.5,122.5,2.5,130.5,2.0,138.5,3.0,146.5,3.5,154.5,2.5,162.0,2.5,164.0,7.5,176.0,7.5,183.5,8.5,191.5,10.5,199.5,11.5,207.5,10.5,215.0,10.0,223.5,8.5,232.0,5.5,240.0,5.5" stroke="black" stroke-width="2" fill="none" />
<polyline points="231.5,8.0,239.5,8.0,247.5,9.0,255.5,11.0,264.0,12.0,272.5,11.0,280.5,10.0,288.0,8.0,296.0,5.5,303.5,6.0,311.5,10.0,319.5,12.0,327.5,12.0,335.5,12.0,343.5,11.0,351.5,8.5,359.5,8.5,368.0,10.5,375.5,16.5" stroke="black" stroke-width="2" fill="none" />
<polyline points="382.0,17.0,374.0,9.0,366.0,5.0,357.5,3.5,349.5,3.5,341.5,4.5,334.0,5.5,326.0,5.0,318.5,3.5,310.5,2.5,302.0,1.5,294.0,1.5,286.5,1.5,278.5,4.0,270.5,4.0,262.5,5.5,254.5,4.0,246.5,3.5,238.0,2.5,230.0,2.5,222.0,3.5,214.0,4.5,206.0,4.5,198.5,4.5,190.5,3.5,182.5,3.0,171.0,6.0,162.5,8.0,154.0,10.0,146.0,11.0,138.0,10.0,130.5,8.0,122.5,8.5,123.0,6.5,115.5,9.5,107.5,10.5,99.5,12.0,91.5,10.0,83.5,10.0,75.5,12.0" stroke="black" stroke-width="2" fill="none" />
<polyline points="79.0,9.0,75.0,17.0,68.0,24.0,65.0,32.0,62.5,40.0,57.5,48.0,53.0,56.0,47.0,64.0,44.0,72.0,42.0,80.0,38.0,88.5,33.0,96.5,29.0,104.5,28.5,112.5,32.0,120.5,38.5,128.5,49.5,137.0,52.0,145.0,54.0,153.5,58.0,161.5,69.0,173.5,76.5,186.5,79.0,194.0" stroke="black" stroke-width="2" fill="none" />
<polyline points="141.0,53.5,143.0,45.0,142.0,37.0,137.5,29.0,128.0,21.0" stroke="black" stroke-width="2" fill="none" />
<polyline points="71.0,21.5,75.0,29.5,81.5,37.5,88.5,45.5,94.5,53.5,95.5,61.0,97.0,69.0,103.0,77.0,111.0,85.0,117.0,92.5,118.0,100.5,119.0,108.5,121.0,116.5,127.0,125.0,133.5,133.0,139.5,141.5,142.5,149.5,142.0,158.0,144.0,166.0,144.5,174.5,150.5,182.5,157.5,190.5,159.0,198.5,159.0,207.0,159.5,215.0,161.5,223.0,167.5,231.0,171.5,239.0,174.5,247.0,173.5,255.0,173.5,263.0,174.5,271.0,177.5,279.0,167.5,286.5,161.5,294.0,155.5,301.5,140.5,310.0,131.5,314.0,139.5,313.0,147.5,306.0,155.5,302.0,163.5,291.0,171.5,282.0,179.5,270.0,187.5,280.0,195.5,278.5,204.0,275.5,212.5,273.5,220.5,273.5,228.5,273.0,236.5,275.0,244.5,275.5,252.5,275.5,260.0,273.5,268.0,272.5,276.0,272.5,283.5,273.5,291.5,274.5,299.5,276.5,307.5,276.5,315.0,277.0,323.5,276.5,332.0,275.5,340.0,274.5,348.5,275.0,356.5,276.0,361.0,278.0,368.5,276.0,376.0,275.0,384.0,274.0,392.0,275.5,400.0,279.5,408.5,281.5,416.5,281.0" stroke="black" stroke-width="2" fill="none" />
<polyline points="320.0,95.5,320.5,87.0,318.0,79.5,310.0,71.0" stroke="black" stroke-width="2" fill="none" />
<polyline points="310.0,62.5,320.0,71.0,323.0,79.0,325.0,86.5,325.0,94.0,318.5,102.0" stroke="black" stroke-width="2" fill="none" />
<polyline points="328.0,82.0,325.0,74.5,320.5,66.5,309.0,58.5" stroke="black" stroke-width="2" fill="none" />
<polyline points="298.0,56.5,290.0,64.5,287.0,73.0,286.0,81.0,287.0,89.0,290.0,97.0,295.5,105.0,303.0,113.5" stroke="black" stroke-width="2" fill="none" />
<polyline points="340.5,52.0,332.5,43.5,324.5,36.5,316.5,29.5" stroke="black" stroke-width="2" fill="none" />
<polyline points="319.5,19.5,319.0,27.5,325.0,36.0,332.5,43.0,340.5,51.0,344.5,59.0,348.0,67.0,345.0,80.0,334.5,88.0,329.0,95.5,322.0,103.5,312.0,111.0,302.5,119.0,287.5,129.0,280.5,130.5,288.5,125.5,296.5,123.5,304.5,119.0,312.5,112.5,320.5,106.5,328.5,97.5,336.5,87.5,344.5,81.5,352.5,77.5,360.5,76.0" stroke="black" stroke-width="2" fill="none" />
<polyline points="341.0,56.5,333.0,46.5,326.0,40.5,318.0,34.5,310.0,32.5,302.5,30.5,294.0,30.5,286.0,32.5,278.0,35.5,270.0,43.5,262.0,51.5,265.5,43.5,271.5,35.5,275.5,27.5,273.5,19.5,272.0,20.5" stroke="black" stroke-width="2" fill="none" />
<polyline points="278.5,20.5,281.5,28.5,274.0,38.0,268.0,46.0,264.5,54.5,262.5,62.5,267.0,70.5,268.5,78.0,269.0,86.0,270.0,93.5,271.0,102.0,279.0,110.0,289.5,118.5" stroke="black" stroke-width="2" fill="none" />
<polyline points="209.0,18.5,208.5,27.0,210.0,16.5" stroke="black" stroke-width="2" fill="none" />
<polyline points="370.5,10.0,380.5,18.0,384.5,26.0,385.5,34.0,385.5,42.0,386.5,50.0,393.0,58.0,398.0,66.5,400.5,75.0,401.5,82.5,401.5,90.5,401.5,98.5,404.5,106.5,410.5,114.5,414.5,120.5,415.5,128.5,415.5,136.5,415.0,144.0,412.0,151.5,411.5,160.5,416.0,168.5,419.0,176.5,422.5,185.0,424.5,193.0,422.5,201.0,420.5,209.0,418.5,216.0,421.0,224.0,424.5,231.5,428.0,239.0,428.0,247.5,427.0,255.0,428.0,263.0,429.5,271.0,428.0,278.5,423.5,286.5,423.5,293.0,424.5,301.0" stroke="black" stroke-width="2" fill="none" />
</svg>