<svg xmlns="http://www.w3.org/2000/svg" version="1.1"><polyline points="306.5,51.0,294.5,59.0,280.5,66.5,278.5,75.0,278.5,83.0,278.0,91.5,278.0,99.5,278.0,107.5,275.5,115.5,271.5,123.5,275.5,131.5" stroke="black" stroke-width="2" fill="none" />
<polyline points="283.0,123.0,334.0,120.0" stroke="black" stroke-width="2" fill="none" />
<polyline points="319.0,143.0,370.0,142.0,420.0,139.5" stroke="black" stroke-width="2" fill="none" />
<polyline points="431.5,167.5,383.0,219.0,332.5,270.5,279.5,321.0,226.5,371.5,175.5,421.5,123.5,469.0,70.0,518.0,17.5,568.0" stroke="black" stroke-width="2" fill="none" />
<polyline points="14.0,564.5,64.5,561.5" stroke="black" stroke-width="2" fill="none" />
<polyline points="63.0,537.5,10.5,538.5" stroke="black" stroke-width="2" fill="none" />
<polyline points="7.5,550.0,16.0,536.0,24.0,526.5,32.0,526.5" stroke="black" stroke-width="2" fill="none" />
<polyline points="47.5,477.0,55.5,456.0,63.5,441.0,71.5,428.0,80.0,421.5,88.5,415.0,96.5,412.0,104.0,410.5,112.0,407.5,119.5,405.5,127.5,393.0" stroke="black" stroke-width="2" fill="none" />
<polyline points="113.0,388.5,164.0,388.5,213.5,387.5,266.0,386.5" stroke="black" stroke-width="2" fill="none" />
<polyline points="239.5,419.0,286.0,370.0,332.5,319.0,380.5,269.5" stroke="black" stroke-width="2" fill="none" />
<polyline points="363.0,213.0,312.5,217.5" stroke="black" stroke-width="2" fill="none" />
<polyline points="286.5,215.0,278.5,207.0" stroke="black" stroke-width="2" fill="none" />
<polyline points="282.0,207.5,278.0,199.5" stroke="black" stroke-width="2" fill="none" />
<polyline points="277.0,197.5,277.0,205.5,283.5,214.0" stroke="black" stroke-width="2" fill="none" />
<polyline points="281.5,200.0,273.5,192.5,265.5,191.0,264.0,194.0" stroke="black" stroke-width="2" fill="none" />
<polyline points="254.5,202.5,262.5,197.5,256.0,200.0,256.0,207.5,253.5,215.5,253.0,223.5,257.0,232.0,260.5,232.0,268.5,230.0,276.5,229.5,284.5,225.5" stroke="black" stroke-width="2" fill="none" />
<polyline points="285.5,224.0,289.0,216.0,289.5,207.5,285.5,199.5,280.5,191.5" stroke="black" stroke-width="2" fill="none" />
<polyline points="269.0,176.5,218.5,223.5,170.0,270.5,117.5,318.0" stroke="black" stroke-width="2" fill="none" />
<polyline points="122.5,331.5,173.0,330.5,222.5,332.5,272.0,333.5,321.0,332.5" stroke="black" stroke-width="2" fill="none" />
<polyline points="365.5,310.5,313.0,310.5,262.0,311.5,209.5,310.0,157.5,310.5,105.5,312.0,55.0,312.5" stroke="black" stroke-width="2" fill="none" />
<polyline points="65.0,323.5,57.0,331.5,52.0,339.5,46.0,347.5,41.5,355.5" stroke="black" stroke-width="2" fill="none" />
<polyline points="24.0,356.5,73.5,353.0" stroke="black" stroke-width="2" fill="none" />
<polyline points="81.5,344.5,89.5,329.0" stroke="black" stroke-width="2" fill="none" />
<polyline points="77.0,332.0,28.5,333.5" stroke="black" stroke-width="2" fill="none" />
<polyline points="23.0,331.5,31.5,318.5,40.0,307.0,48.0,297.5,56.0,287.0,64.0,278.5,72.0,269.5,80.0,261.5,87.5,253.0,95.5,246.0,103.5,237.0,111.5,230.0,119.5,221.0,128.0,214.0,136.0,206.5,144.5,198.0,152.5,191.0,160.5,183.0,168.5,176.0,176.5,169.5,185.0,163.5,193.0,155.5,200.5,148.5,208.0,137.5,216.0,134.0,224.0,132.0,232.0,128.0,240.0,124.0,248.0,123.0,256.0,125.5,264.0,123.5,272.0,123.0,276.5,114.0,284.5,104.0,293.0,100.0,304.0,110.0,312.0,109.0,320.0,109.5,327.0,107.5,335.0,105.5" stroke="black" stroke-width="2" fill="none" />
<polyline points="331.0,110.5,321.0,107.5,313.5,106.5,305.5,108.0,297.5,100.0,289.5,96.0,288.5,90.0" stroke="black" stroke-width="2" fill="none" />
<polyline points="285.0,87.0,293.0,86.0,289.0,91.0,299.0,103.0,296.5,105.0,301.5,116.5,310.0,125.0" stroke="black" stroke-width="2" fill="none" />
<polyline points="309.5,124.0,301.5,118.0" stroke="black" stroke-width="2" fill="none" />
<polyline points="304.0,116.5,314.0,124.0" stroke="black" stroke-width="2" fill="none" />
<polyline points="316.5,127.0,308.5,119.0,300.5,115.0" stroke="black" stroke-width="2" fill="none" />
<polyline points="318.0,97.0,268.0,99.0" stroke="black" stroke-width="2" fill="none" />
<polyline points="279.0,69.5,287.0,62.5,295.5,58.0,303.5,53.5,311.5,50.5,319.5,52.0,320.5,56.0,319.0,63.5,307.0,69.5,308.0,71.0,309.0,74.0,311.0,76.0,313.0,77.5,318.0,67.5,323.0,67.0,328.5,75.0,332.5,85.0,336.5,93.0" stroke="black" stroke-width="2" fill="none" />
<polyline points="333.0,87.5,338.0,95.5,339.5,103.0,330.0,111.0,332.5,119.0,334.0,122.0,342.0,126.0,350.0,128.0,358.5,127.0,366.5,121.0,374.5,116.0,383.5,112.0,391.5,106.5,399.5,103.5,407.0,100.0" stroke="black" stroke-width="2" fill="none" />
<polyline points="414.0,78.0,422.0,66.0,430.5,59.5,438.5,53.0,448.0,50.0,456.5,43.5,464.0,38.5,471.5,30.0" stroke="black" stroke-width="2" fill="none" />
<polyline points="474.0,20.5,477.0,24.5,472.5,31.5,470.5,38.5,473.5,46.5" stroke="black" stroke-width="2" fill="none" />
<polyline points="472.0,41.5,479.5,49.5,487.5,42.0,495.5,35.0,503.5,30.0,511.5,22.5" stroke="black" stroke-width="2" fill="none" />
<polyline points="507.5,26.0,510.0,12.0,508.0,8.5,499.5,3.0,497.5,5.0" stroke="black" stroke-width="2" fill="none" />
<polyline points="507.0,11.0,501.5,19.0,498.5,19.0,490.5,24.0" stroke="black" stroke-width="2" fill="none" />
<polyline points="487.0,17.0,495.5,19.5,493.0,33.5,493.0,42.0,490.5,45.0,491.5,34.5,499.5,25.5" stroke="black" stroke-width="2" fill="none" />
<polyline points="495.0,31.5,502.5,27.5,511.0,20.5" stroke="black" stroke-width="2" fill="none" />
<polyline points="484.5,13.5,492.5,13.5,493.0,12.0,484.0,16.0,490.0,25.5,488.0,33.0,489.5,36.5,486.5,48.0,480.0,56.0,475.0,64.5,468.5,72.5,463.0,80.5,458.0,88.5,450.0,97.5,444.0,105.5,437.5,114.5,430.5,122.5,423.5,131.0,417.5,139.0,412.5,147.0,407.5,155.0,402.5,163.0,398.0,171.0,393.5,179.0,391.5,187.0,391.5,195.5,391.5,203.5,389.5,211.5,388.0,220.0,385.5,228.0,380.5,236.0,372.5,244.0,366.0,252.0,357.5,259.5,352.0,268.0,347.0,276.0,343.5,283.5,338.5,291.0,334.5,299.0,330.0,307.0,327.0,314.5,323.0,322.5,320.0,330.5,317.0,339.0,312.5,348.0,309.5,356.0,305.5,364.0,300.5,372.5,295.0,380.5,290.0,389.0,285.0,397.0,279.0,405.0,273.5,413.0,269.0,421.5,262.5,429.5,253.5,438.0,240.5,445.5" stroke="black" stroke-width="2" fill="none" />
<polyline points="215.0,450.0,223.5,450.0,231.0,449.0,239.0,447.0,247.0,442.0,255.0,437.0,263.0,428.0,271.0,418.5,279.0,408.0,287.0,397.0,294.5,383.5,303.0,369.0,311.0,355.0,319.0,333.5,327.5,316.0,335.5,296.5,344.0,282.5,352.0,269.0,360.0,258.0,368.0,249.5,376.0,242.5,384.0,231.0" stroke="black" stroke-width="2" fill="none" />
<polyline points="372.0,221.5,325.5,222.0,281.5,221.5,235.0,221.0,186.0,220.0,136.5,219.0" stroke="black" stroke-width="2" fill="none" />
<polyline points="132.0,244.5,183.5,245.0,229.0,248.0" stroke="black" stroke-width="2" fill="none" />
<polyline points="242.0,252.0,237.0,260.5,236.5,268.0,254.5,276.0" stroke="black" stroke-width="2" fill="none" />
<polyline points="270.5,281.5,278.5,270.5,287.0,273.5,295.0,276.5,303.0,281.0,311.0,285.5,319.0,289.0" stroke="black" stroke-width="2" fill="none" />
<polyline points="313.0,305.0,305.0,301.5,296.5,297.5,288.5,293.0,280.5,288.0,273.0,285.0" stroke="black" stroke-width="2" fill="none" />
<polyline points="279.5,270.5,274.0,278.5,273.0,286.5,290.0,294.0,305.0,301.5" stroke="black" stroke-width="2" fill="none" />
<polyline points="316.0,299.5,320.0,292.0,310.0,284.5,296.0,277.0" stroke="black" stroke-width="2" fill="none" />
<polyline points="268.5,267.0,260.5,279.0,253.0,275.0,245.0,270.5,237.0,265.5" stroke="black" stroke-width="2" fill="none" />
<polyline points="236.0,262.5,244.0,251.5,252.5,254.0,260.5,258.0,269.0,261.5" stroke="black" stroke-width="2" fill="none" />
<polyline points="261.5,277.5,266.0,269.5,261.0,261.5,246.0,253.5" stroke="black" stroke-width="2" fill="none" />
<polyline points="232.5,216.5,182.5,218.0" stroke="black" stroke-width="2" fill="none" />
<polyline points="176.0,189.5,222.0,189.0,270.5,186.5,321.0,184.0,373.0,179.0,426.5,178.0" stroke="black" stroke-width="2" fill="none" />
<polyline points="392.5,180.5,400.5,166.5,408.5,153.5,416.0,142.0,424.0,131.0,432.0,121.0,440.5,111.0,448.5,100.0,456.5,90.0,464.5,79.0,472.5,68.0,480.0,56.0,488.0,46.5" stroke="black" stroke-width="2" fill="none" />
<polyline points="477.5,78.0,426.5,125.0,373.0,169.5,320.5,216.5,267.5,265.0,213.5,315.5,161.0,367.0,109.0,418.0,57.5,469.0" stroke="black" stroke-width="2" fill="none" />
<polyline points="73.5,475.5,123.5,475.5,174.5,475.0" stroke="black" stroke-width="2" fill="none" />
<polyline points="138.5,501.5,86.5,501.5" stroke="black" stroke-width="2" fill="none" />
<polyline points="86.0,498.0,131.5,498.5" stroke="black" stroke-width="2" fill="none" />
<polyline points="163.5,436.5,111.5,436.0,60.5,437.5" stroke="black" stroke-width="2" fill="none" />
<polyline points="95.0,414.0,82.0,422.5,72.5,430.5,66.5,439.5,62.5,448.0,57.5,456.0,55.5,463.5,51.5,471.0,48.5,479.0,45.5,487.0,43.5,495.0,40.5,503.0,37.5,511.0,34.5,519.0,30.5,527.0,17.0,533.0,13.0,540.5,9.0,548.0,6.5,556.0,4.5,563.5,3.5,571.5,4.5,579.5,4.5,588.0" stroke="black" stroke-width="2" fill="none" />
<polyline points="16.5,378.0,68.0,326.5,117.0,276.5,168.0,227.0,218.0,176.5,266.5,126.0,314.0,76.5" stroke="black" stroke-width="2" fill="none" />
<polyline points="309.0,66.5,317.5,63.5,322.0,71.0,327.0,79.0,319.5,85.5,322.5,88.0" stroke="black" stroke-width="2" fill="none" />
<polyline points="305.0,63.5,294.0,66.5,293.0,72.0,294.0,80.5,284.0,85.5,286.0,93.5,285.0,101.5,281.0,110.0,279.0,117.0,272.5,127.0,281.0,134.0,288.5,136.0,296.5,136.0,304.5,136.5,313.0,136.5,321.0,137.0,328.5,138.0,332.5,135.5" stroke="black" stroke-width="2" fill="none" />
<polyline points="329.0,125.0,327.0,116.5,327.0,109.0,336.0,101.0,332.0,93.5,328.0,85.5,329.0,79.5,324.0,71.5,319.0,63.5,308.5,66.5,301.0,62.5,293.0,67.0" stroke="black" stroke-width="2" fill="none" />
<polyline points="271.0,139.0,223.0,139.5" stroke="black" stroke-width="2" fill="none" />
<polyline points="235.5,125.5,213.5,133.5,204.5,142.0,198.5,150.0,191.0,158.5,181.0,167.0,172.5,175.0,163.5,183.5,154.5,191.5,146.0,200.0,138.0,208.0,128.0,216.0,121.0,223.0,112.0,231.0,103.5,239.0,96.5,246.5,88.0,255.0,79.5,263.0,71.5,271.0,64.0,279.5,56.0,287.0,49.0,295.0,43.5,302.5,35.5,310.5,30.0,319.0,27.0,327.0,23.0,334.5,22.5,342.5,23.5,350.5,28.0,358.5" stroke="black" stroke-width="2" fill="none" />
<polyline points="23.0,351.0,31.0,362.5,39.5,356.0,47.5,344.5,55.5,331.5,63.5,323.0,71.5,319.0,79.5,317.5,88.0,317.5,92.0,322.0,90.0,330.5,84.5,338.5,80.0,346.5,80.5,354.0,82.0,359.0,83.0,367.0,89.0,375.0,98.0,383.0" stroke="black" stroke-width="2" fill="none" />
<polyline points="82.0,365.5,90.5,378.5,98.5,383.5,106.5,388.5,114.5,390.5,122.5,391.5,127.5,396.0,122.5,404.0" stroke="black" stroke-width="2" fill="none" />
<polyline points="121.0,370.0,170.5,319.5,220.5,269.0,272.5,220.0,325.5,172.0,374.5,121.5" stroke="black" stroke-width="2" fill="none" />
<polyline points="356.0,128.0,370.0,120.0,381.0,114.0,394.0,106.0,410.5,97.5,411.5,89.5,414.5,81.0,416.5,72.5,423.5,64.5,433.5,56.5,442.5,52.0,455.0,44.0,466.0,36.5,472.0,29.0,473.5,21.0,476.5,13.0,479.5,5.0,484.5,5.0,476.5,9.0" stroke="black" stroke-width="2" fill="none" />
<polyline points="480.5,9.0,488.5,4.5,500.5,4.0,506.5,12.0,512.0,19.0,503.0,27.0,498.0,35.0,492.0,37.5,485.5,46.0" stroke="black" stroke-width="2" fill="none" />
<polyline points="458.0,74.0,409.5,74.0" stroke="black" stroke-width="2" fill="none" />
<polyline points="353.0,156.0,355.0,153.0,355.0,157.5,359.0,154.5,364.0,162.0,368.0,164.0,376.0,172.0" stroke="black" stroke-width="2" fill="none" />
<polyline points="366.0,166.0,314.5,166.5" stroke="black" stroke-width="2" fill="none" />
<polyline points="320.0,163.0,328.0,166.5,336.0,167.5,336.0,169.5,344.0,169.5,352.0,169.5,360.0,171.0,368.0,176.0" stroke="black" stroke-width="2" fill="none" />
<polyline points="358.5,181.0,360.5,189.0" stroke="black" stroke-width="2" fill="none" />
<polyline points="357.5,191.5,349.5,191.0,341.5,186.0,333.5,185.5,325.5,179.0" stroke="black" stroke-width="2" fill="none" />
<polyline points="324.5,179.5,333.0,187.5" stroke="black" stroke-width="2" fill="none" />
<polyline points="322.5,177.0,330.5,177.5,338.5,176.5,341.5,180.0,350.0,180.0,358.0,182.0" stroke="black" stroke-width="2" fill="none" />
<polyline points="370.5,165.0,362.5,165.5,354.5,166.0,346.5,161.5,338.5,157.5,331.0,156.5,323.0,157.5,320.0,165.5,323.0,157.5" stroke="black" stroke-width="2" fill="none" />
<polyline points="310.0,152.5,304.0,160.0,303.0,163.5" stroke="black" stroke-width="2" fill="none" />
<polyline points="304.5,151.5,298.5,159.5,301.5,154.0,309.5,151.0" stroke="black" stroke-width="2" fill="none" />
<polyline points="271.0,172.5,224.5,172.0" stroke="black" stroke-width="2" fill="none" />
<polyline points="67.5,279.0,119.0,280.0,168.5,282.0,219.0,284.5,272.0,287.0,323.5,291.5,377.5,292.0" stroke="black" stroke-width="2" fill="none" />
<polyline points="229.0,419.5,237.0,427.0,232.0,435.0,222.5,443.0,215.5,451.0,220.5,445.0,228.5,438.5" stroke="black" stroke-width="2" fill="none" />
<polyline points="233.0,419.5,225.0,416.5,217.0,421.5,208.5,425.5,200.5,428.0,192.5,432.5,185.0,436.5,177.0,440.0,169.0,445.5,161.0,450.5,153.0,460.5,144.5,470.5,136.0,478.0,128.0,485.0,119.5,490.5,112.0,497.0,104.0,503.5,96.0,509.5,87.5,515.5,79.5,521.5,71.5,528.5,63.5,537.5,55.5,544.5,47.5,555.0,39.5,563.5,31.5,574.5,24.0,584.0,16.5,590.5,23.5,585.5,31.0,577.0,38.5,569.0,44.5,561.0,49.0,552.5,56.0,545.0,63.0,537.0,72.0,529.0,79.5,521.0,90.5,513.0,99.5,505.5,110.5,498.0,121.0,489.5,132.0,481.5,141.0,473.0,147.0,465.0,153.0,457.0,161.0,449.5,174.5,441.5,190.5,434.0,209.5,426.5,223.5,418.5" stroke="black" stroke-width="2" fill="none" />
<polyline points="174.5,362.0,123.5,360.5" stroke="black" stroke-width="2" fill="none" />
</svg>