<svg xmlns="http://www.w3.org/2000/svg" version="1.1"><polyline points="256.5,11.5,273.0,20.0,289.0,28.5,305.0,37.5" stroke="black" stroke-width="2" fill="none" />
<polyline points="317.5,54.5,371.5,52.0" stroke="black" stroke-width="2" fill="none" />
<polyline points="376.5,58.0,324.5,108.5,272.5,164.0" stroke="black" stroke-width="2" fill="none" />
<polyline points="284.0,178.5,270.5,181.5,260.0,189.5,251.0,198.0,258.0,197.0,265.5,189.5,272.5,184.0,280.5,180.5,288.5,178.5,296.5,176.5,304.5,176.0,312.5,176.5,320.5,178.0,328.5,180.5,336.0,184.0,344.0,189.0,351.5,196.0,360.5,202.5,363.0,210.5,366.0,218.5,365.5,226.5,365.0,234.5,362.0,243.0,357.0,249.5,349.5,256.5,340.0,264.5" stroke="black" stroke-width="2" fill="none" />
<polyline points="321.5,288.0,372.0,290.0" stroke="black" stroke-width="2" fill="none" />
<polyline points="374.0,273.0,322.5,321.5" stroke="black" stroke-width="2" fill="none" />
<polyline points="325.0,310.0,375.0,309.5" stroke="black" stroke-width="2" fill="none" />
<polyline points="376.0,321.0,327.0,370.0" stroke="black" stroke-width="2" fill="none" />
<polyline points="339.5,376.0,332.5,383.5,326.5,392.0,318.5,400.5,314.0,408.0,309.0,416.0,312.5,424.0,313.5,431.5,312.0,439.5,311.0,447.5,307.5,455.5,306.0,463.5,302.0,472.0" stroke="black" stroke-width="2" fill="none" />
<polyline points="302.5,463.0,307.0,455.5,309.5,447.5,311.0,439.5,310.5,426.5,308.5,418.5,310.0,406.0,317.0,398.0,323.0,390.0,330.0,381.5,338.0,373.5,333.0,383.0,325.0,392.0,317.0,400.0" stroke="black" stroke-width="2" fill="none" />
<polyline points="307.0,418.0,299.0,414.5,291.0,419.0,283.0,427.0,287.5,422.0,300.5,414.0" stroke="black" stroke-width="2" fill="none" />
<polyline points="297.5,410.0,287.0,418.0,282.0,426.0,278.0,434.5,272.5,442.5,269.5,450.5,266.0,459.0,262.0,465.0,265.5,473.0" stroke="black" stroke-width="2" fill="none" />
<polyline points="278.0,476.5,286.0,470.0,277.0,469.0,275.0,477.5,271.0,485.0,267.0,493.0,263.0,501.0" stroke="black" stroke-width="2" fill="none" />
<polyline points="266.0,503.5,271.0,495.5,272.5,487.5,277.5,480.0,272.5,488.0" stroke="black" stroke-width="2" fill="none" />
<polyline points="263.5,482.5,268.5,475.0,263.5,482.0,255.5,485.0,250.5,476.0,243.5,467.5,242.0,461.5,237.0,460.0,231.0,453.5,233.0,445.0,238.0,437.0,242.0,429.0,239.5,421.0,231.5,420.0,224.0,420.5,216.5,418.0,208.5,416.0,201.0,414.0,193.0,411.0,185.0,408.5,176.5,404.5,168.5,399.5,160.5,393.5,152.5,386.5,144.5,380.0,137.0,371.0,129.0,360.0,121.0,346.5,113.5,337.0" stroke="black" stroke-width="2" fill="none" />
<polyline points="114.5,341.0,122.5,356.0,129.0,368.0,136.0,374.0,143.0,384.0,151.0,391.0,158.0,397.0,166.5,402.0,174.5,407.0" stroke="black" stroke-width="2" fill="none" />
<polyline points="197.5,455.5,205.5,446.0,213.0,435.0,214.5,431.5,209.5,439.0,203.0,447.0,198.0,455.0,188.5,462.5,196.0,463.5,204.0,465.0,214.0,465.0,217.0,459.0,225.0,451.0,233.5,433.5" stroke="black" stroke-width="2" fill="none" />
<polyline points="234.5,440.5,286.0,438.5,334.5,434.5" stroke="black" stroke-width="2" fill="none" />
<polyline points="324.5,422.0,274.0,470.0,221.0,520.5" stroke="black" stroke-width="2" fill="none" />
<polyline points="234.5,532.0,285.0,530.0,334.5,529.5" stroke="black" stroke-width="2" fill="none" />
<polyline points="326.5,527.0,276.5,578.0" stroke="black" stroke-width="2" fill="none" />
<polyline points="286.0,596.5,337.5,593.0" stroke="black" stroke-width="2" fill="none" />
<polyline points="325.5,586.0,274.5,633.0" stroke="black" stroke-width="2" fill="none" />
<polyline points="278.5,606.5,329.0,607.0" stroke="black" stroke-width="2" fill="none" />
<polyline points="324.0,611.5,320.5,603.5,317.5,595.5,303.0,588.0,295.0,588.0" stroke="black" stroke-width="2" fill="none" />
<polyline points="261.5,597.5,253.5,583.5,246.0,575.5,238.0,572.5,230.0,573.5,222.0,579.5,214.0,590.5" stroke="black" stroke-width="2" fill="none" />
<polyline points="220.0,606.0,170.5,607.5" stroke="black" stroke-width="2" fill="none" />
<polyline points="176.5,618.5,228.0,568.5,280.0,520.0,331.5,470.5" stroke="black" stroke-width="2" fill="none" />
<polyline points="328.5,487.5,279.5,487.5,230.0,488.0" stroke="black" stroke-width="2" fill="none" />
<polyline points="231.5,496.5,281.0,497.0" stroke="black" stroke-width="2" fill="none" />
<polyline points="283.5,492.0,283.5,500.5,283.0,508.0,283.0,515.5,283.5,523.5,283.5,531.5,281.5,539.5" stroke="black" stroke-width="2" fill="none" />
<polyline points="282.5,537.5,274.5,541.5,266.5,541.5,258.5,541.5,250.5,541.5,242.5,541.5,234.5,541.0,226.5,541.0,218.5,541.0,210.5,541.0,204.0,537.5,206.0,530.0,208.5,522.0,210.5,513.0,211.5,505.0,216.5,497.5,230.5,489.5,234.5,484.0,226.5,489.0,218.5,492.0,210.5,496.0,202.5,497.0,194.5,499.0" stroke="black" stroke-width="2" fill="none" />
<polyline points="203.5,475.0,203.5,468.0,200.0,476.0,195.0,484.0,191.0,492.5,188.5,501.0,193.5,489.5,201.5,473.5" stroke="black" stroke-width="2" fill="none" />
<polyline points="214.0,480.0,263.0,427.0" stroke="black" stroke-width="2" fill="none" />
<polyline points="268.0,431.0,269.5,439.0,265.5,447.0,263.0,454.5,270.0,463.5,278.5,463.0,286.5,465.0,295.0,467.5" stroke="black" stroke-width="2" fill="none" />
<polyline points="290.5,471.5,290.5,479.5,290.5,487.5,289.0,495.5,288.5,503.0,288.5,510.5,287.5,518.5,287.0,526.5,287.0,534.5,287.5,542.5,287.0,550.5,288.0,558.5,289.0,566.5,289.0,575.0,289.5,583.5,293.5,588.5,301.5,586.5,309.5,589.5,317.5,597.5" stroke="black" stroke-width="2" fill="none" />
<polyline points="266.5,614.5,263.5,606.5,262.5,598.5,257.5,591.0,253.0,582.5,240.5,574.5" stroke="black" stroke-width="2" fill="none" />
<polyline points="229.0,574.0,221.0,582.0,215.5,590.0,212.0,598.0,208.5,606.5,204.5,614.5" stroke="black" stroke-width="2" fill="none" />
<polyline points="208.5,593.0,157.0,593.5" stroke="black" stroke-width="2" fill="none" />
<polyline points="158.5,603.0,166.0,590.0,174.0,585.0,182.5,584.0,191.0,583.0" stroke="black" stroke-width="2" fill="none" />
<polyline points="193.0,576.5,195.5,568.5,196.5,560.5,197.5,552.5,199.0,545.0,202.0,537.0,203.0,528.5,204.0,521.0,207.0,513.0,208.0,505.5,213.0,494.0,228.0,486.5,236.0,478.5,231.5,474.5,224.0,476.5" stroke="black" stroke-width="2" fill="none" />
<polyline points="229.5,470.5,219.5,479.0,218.0,473.0,226.0,461.0,233.5,463.0,241.5,470.5,249.5,479.5" stroke="black" stroke-width="2" fill="none" />
<polyline points="260.5,480.5,252.5,476.0,244.0,468.5" stroke="black" stroke-width="2" fill="none" />
<polyline points="244.0,466.0,252.0,461.0,259.5,461.0,267.5,466.0,277.0,466.5" stroke="black" stroke-width="2" fill="none" />
<polyline points="286.0,471.5,286.0,479.5" stroke="black" stroke-width="2" fill="none" />
<polyline points="289.5,471.5,297.5,473.5,305.5,468.0" stroke="black" stroke-width="2" fill="none" />
<polyline points="278.5,432.0,271.5,436.0,263.5,452.5,255.5,457.5,247.5,457.5,239.0,461.0,231.0,453.5" stroke="black" stroke-width="2" fill="none" />
<polyline points="231.0,450.5,239.0,434.5,247.0,426.5,255.5,428.5,263.5,429.5,271.5,431.0,279.5,431.0" stroke="black" stroke-width="2" fill="none" />
<polyline points="275.5,468.0,273.5,480.0,265.5,498.0,257.5,498.0,250.0,489.5,242.0,479.5,234.5,470.0,226.5,472.0,223.0,478.0,215.0,483.0,216.0,476.0,220.0,467.5,225.5,459.5,223.5,456.0,228.0,448.5,232.0,440.5,236.0,433.0,231.0,425.0" stroke="black" stroke-width="2" fill="none" />
<polyline points="229.0,458.0,235.5,466.0,243.5,474.0,251.5,481.5,258.5,489.5,257.5,499.5" stroke="black" stroke-width="2" fill="none" />
<polyline points="267.5,502.5,259.5,505.5,251.5,498.0,244.5,489.0,236.5,486.5,228.5,492.0,221.0,496.5,208.0,500.5,200.5,502.5,192.0,502.5,196.0,494.0,199.5,486.0,203.0,477.5,207.5,469.0,207.5,483.0,211.5,475.0,214.5,467.0,202.0,461.0,194.0,461.0" stroke="black" stroke-width="2" fill="none" />
<polyline points="197.0,417.5,187.5,409.5,179.5,406.0,164.5,401.0,152.5,393.0,144.0,385.0,137.0,376.5,130.0,368.5,124.0,360.5,119.0,352.5,116.0,344.5,112.0,336.5,109.0,329.0,107.0,321.0,104.0,312.5,103.0,305.0,101.5,297.5,100.0,289.5,100.0,281.5,100.0,273.5,100.0,265.5,101.0,258.0,102.5,250.0,104.0,242.0,107.5,234.0,109.5,226.0,113.0,218.0,115.0,210.0,118.5,201.5,122.0,193.5,127.0,185.5,132.5,177.5,137.5,169.5,145.0,161.5,149.0,153.5,142.5,165.5,134.5,175.5,126.5,189.0,118.5,204.5,115.5,219.5" stroke="black" stroke-width="2" fill="none" />
<polyline points="118.0,207.5,126.0,192.5,133.5,179.5,141.5,169.5,150.0,159.5,158.5,152.5,166.5,149.5,174.0,148.5,182.0,146.5,196.0,144.5,204.0,144.5,212.0,144.5,219.5,143.5,227.0,142.0,235.0,140.5,243.0,140.0,251.0,138.0,252.0,140.0,260.0,140.0,268.0,141.0,276.0,142.0,284.0,143.0,292.5,146.5,300.5,148.5,308.5,151.5,316.5,156.0,325.0,159.5,333.5,164.5,341.5,173.0,350.0,181.5,358.0,188.5,366.0,197.5,373.5,204.0,381.5,211.5,389.0,209.5,397.0,201.0" stroke="black" stroke-width="2" fill="none" />
<polyline points="398.5,196.5,393.0,204.5" stroke="black" stroke-width="2" fill="none" />
<polyline points="390.0,206.0,437.5,205.0,486.5,203.0" stroke="black" stroke-width="2" fill="none" />
<polyline points="481.0,198.5,482.0,206.5,484.0,215.0,487.0,222.5,488.5,230.5,489.5,239.0,489.5,247.0,492.0,250.5,492.0,258.5,491.5,267.0,489.5,274.5,487.5,283.0,484.0,291.0,478.0,299.0,465.5,307.0" stroke="black" stroke-width="2" fill="none" />
<polyline points="486.0,323.0,494.0,314.0,502.0,313.0,510.5,318.5" stroke="black" stroke-width="2" fill="none" />
<polyline points="504.0,319.0,511.0,327.0,506.0,335.0" stroke="black" stroke-width="2" fill="none" />
<polyline points="507.5,333.5,499.0,339.0,490.5,333.0" stroke="black" stroke-width="2" fill="none" />
<polyline points="491.0,325.0,499.0,318.0,506.5,321.0,510.5,335.0" stroke="black" stroke-width="2" fill="none" />
<polyline points="494.0,333.5,491.0,324.5,498.5,316.5" stroke="black" stroke-width="2" fill="none" />
<polyline points="497.5,315.5,488.0,323.0,487.5,330.5,492.5,338.5,494.0,339.0,502.0,340.5,510.0,335.5" stroke="black" stroke-width="2" fill="none" />
<polyline points="511.5,322.5,503.5,314.5" stroke="black" stroke-width="2" fill="none" />
<polyline points="520.5,272.0,470.0,272.0" stroke="black" stroke-width="2" fill="none" />
<polyline points="427.5,268.5,479.0,220.0" stroke="black" stroke-width="2" fill="none" />
<polyline points="521.5,226.0,473.0,275.0,424.5,320.0" stroke="black" stroke-width="2" fill="none" />
<polyline points="423.5,301.5,431.0,305.5,439.0,308.5,446.5,310.0,454.5,309.5,462.5,307.0,470.5,304.0,478.5,296.5" stroke="black" stroke-width="2" fill="none" />
<polyline points="522.0,288.0,472.0,287.0,421.0,287.0" stroke="black" stroke-width="2" fill="none" />
<polyline points="417.0,299.0,409.0,307.0,401.0,315.0,393.0,323.5,389.0,326.5,397.0,319.5,404.5,311.5,412.5,303.0,420.0,299.0,428.0,299.0,435.5,301.5,444.0,304.0" stroke="black" stroke-width="2" fill="none" />
<polyline points="408.5,334.0,412.5,342.0,416.0,350.0,418.0,358.0,418.0,365.5,415.5,374.0,411.0,382.0,402.5,390.5,399.5,396.5,408.0,390.5" stroke="black" stroke-width="2" fill="none" />
<polyline points="374.5,347.0,327.0,343.5" stroke="black" stroke-width="2" fill="none" />
<polyline points="313.5,330.0,363.5,329.0" stroke="black" stroke-width="2" fill="none" />
<polyline points="387.0,331.0,395.0,330.5,403.0,331.5,411.0,336.5,419.5,347.5,422.5,355.5,423.0,363.0,420.5,371.0,418.5,379.0,413.0,385.5,403.0,393.5" stroke="black" stroke-width="2" fill="none" />
<polyline points="395.0,398.5,387.5,401.0,379.0,401.0,371.0,401.0,362.5,396.0,354.5,391.0,347.0,382.5" stroke="black" stroke-width="2" fill="none" />
<polyline points="342.0,379.5,349.0,387.5,357.0,395.0" stroke="black" stroke-width="2" fill="none" />
<polyline points="356.0,389.5,348.0,381.5,342.5,373.5" stroke="black" stroke-width="2" fill="none" />
<polyline points="313.0,367.0,326.0,359.0,328.0,357.5,320.0,363.5,312.0,368.5,303.5,371.0,296.0,374.0,288.5,376.0,280.5,378.0,272.5,379.0,265.0,380.0" stroke="black" stroke-width="2" fill="none" />
<polyline points="269.0,367.5,217.5,367.0" stroke="black" stroke-width="2" fill="none" />
<polyline points="220.5,374.0,273.0,325.5" stroke="black" stroke-width="2" fill="none" />
<polyline points="270.5,339.5,222.5,340.5" stroke="black" stroke-width="2" fill="none" />
<polyline points="253.5,340.5,245.5,338.5,237.0,334.0,229.0,328.5,221.0,319.5,213.0,302.5" stroke="black" stroke-width="2" fill="none" />
<polyline points="209.0,307.0,217.5,322.0,224.5,330.0" stroke="black" stroke-width="2" fill="none" />
<polyline points="192.0,347.0,200.0,355.0,208.5,363.5,220.5,371.0" stroke="black" stroke-width="2" fill="none" />
<polyline points="189.5,346.5,198.0,357.5,206.0,365.0,213.0,369.5,221.5,374.5,230.0,378.5,238.0,380.5,245.5,381.5,249.5,384.0,257.5,384.0,265.0,384.0,273.5,383.5,282.0,381.5,290.0,379.0,298.5,376.0,306.5,374.0,314.5,370.5,322.5,365.5,330.5,359.5,338.0,352.5,346.0,343.5,354.0,330.5,362.0,319.0,370.5,302.0" stroke="black" stroke-width="2" fill="none" />
<polyline points="329.0,248.5,277.5,249.0" stroke="black" stroke-width="2" fill="none" />
<polyline points="262.0,259.0,253.5,251.5" stroke="black" stroke-width="2" fill="none" />
<polyline points="247.0,240.5,252.0,242.5,259.5,253.5,267.0,259.0,275.0,263.5,283.0,266.0,291.0,268.0,297.0,270.0,305.0,270.0,313.0,268.0,321.0,267.0,329.0,265.0,337.5,261.5,345.5,256.5,353.5,247.5,361.5,243.0" stroke="black" stroke-width="2" fill="none" />
<polyline points="369.5,228.0,416.0,181.0,464.5,133.0" stroke="black" stroke-width="2" fill="none" />
<polyline points="464.5,134.0,464.5,142.0,465.0,149.5,465.5,157.5,467.5,165.0,470.5,173.0,473.5,180.5,476.5,188.5,479.0,196.0,476.5,199.5,479.5,207.5,481.0,215.5,483.0,224.5,484.0,233.0,486.0,241.0,486.0,249.0,487.0,257.5,486.0,265.5,485.5,273.5,483.0,281.0,480.0,290.0,472.0,298.0,457.0,304.0,465.0,302.0,474.0,296.5,482.0,282.0" stroke="black" stroke-width="2" fill="none" />
<polyline points="526.0,239.0,479.0,240.5,431.5,239.5" stroke="black" stroke-width="2" fill="none" />
<polyline points="414.5,218.0,466.5,168.0" stroke="black" stroke-width="2" fill="none" />
<polyline points="465.5,174.0,465.0,177.0,465.0,184.5,465.5,193.0,463.5,201.0,463.5,209.0,461.5,217.0,458.5,225.5" stroke="black" stroke-width="2" fill="none" />
<polyline points="484.5,189.0,435.5,191.5,386.5,193.5,339.5,193.5,290.5,196.0" stroke="black" stroke-width="2" fill="none" />
<polyline points="293.5,202.5,302.0,211.0,303.5,219.5,303.5,228.0" stroke="black" stroke-width="2" fill="none" />
<polyline points="299.0,232.0,291.0,236.5,283.0,236.5,275.0,233.5,267.0,224.0" stroke="black" stroke-width="2" fill="none" />
<polyline points="268.0,208.5,276.0,203.5,284.5,202.0,292.5,203.0,300.0,208.5" stroke="black" stroke-width="2" fill="none" />
<polyline points="278.0,201.5,266.0,209.5,263.5,217.5,265.5,220.5,269.0,228.5" stroke="black" stroke-width="2" fill="none" />
<polyline points="243.0,214.5,237.5,222.5,225.5,230.5,230.0,227.5,238.0,221.0" stroke="black" stroke-width="2" fill="none" />
<polyline points="214.5,231.5,222.5,245.5" stroke="black" stroke-width="2" fill="none" />
<polyline points="221.0,246.0,217.5,238.0,210.5,230.0,206.5,227.5,198.5,226.5,190.5,229.5" stroke="black" stroke-width="2" fill="none" />
<polyline points="197.0,223.5,187.5,231.5,190.5,232.5,189.0,239.5,187.5,247.0,193.0,250.5" stroke="black" stroke-width="2" fill="none" />
<polyline points="185.0,251.5,177.0,249.0,169.0,246.0,161.0,242.0,153.0,238.0" stroke="black" stroke-width="2" fill="none" />
<polyline points="152.0,239.0,154.0,247.5,158.5,255.5,165.5,263.0,175.5,271.0,185.5,279.0,202.0,287.0,207.0,294.5,209.5,302.5,211.5,310.5,214.5,318.5,221.0,326.5,229.5,335.0,240.5,336.5" stroke="black" stroke-width="2" fill="none" />
<polyline points="253.5,355.0,245.0,365.0,237.0,373.0,229.0,374.0,220.5,369.0,212.5,363.5,204.5,357.5,196.5,348.5,189.0,342.5" stroke="black" stroke-width="2" fill="none" />
<polyline points="188.0,343.0,192.5,351.0,201.0,359.5,211.0,367.5,223.5,375.5" stroke="black" stroke-width="2" fill="none" />
<polyline points="287.0,357.0,276.5,365.0,267.5,372.5,263.0,380.5,269.5,370.5,277.5,362.5,285.5,358.0,293.5,354.0,301.5,353.0,309.5,350.5,318.0,349.5,325.5,350.5,328.5,352.5" stroke="black" stroke-width="2" fill="none" />
<polyline points="311.5,291.0,303.5,294.0,295.5,296.0,287.5,297.0,279.5,298.5,271.5,299.5,264.0,299.5" stroke="black" stroke-width="2" fill="none" />
<polyline points="263.0,299.5,257.0,308.0,257.0,316.0,257.0,324.0,257.5,332.0" stroke="black" stroke-width="2" fill="none" />
<polyline points="261.5,304.5,261.5,312.5,261.0,320.5,261.0,328.5,261.0,336.0,258.0,347.0,252.5,355.0,246.5,363.0,238.5,371.0" stroke="black" stroke-width="2" fill="none" />
<polyline points="294.0,332.0,305.5,324.0,311.5,316.0,316.5,308.0,321.0,300.0,323.5,292.0,320.5,288.0,312.5,287.0,329.5,279.0,342.5,271.0,352.5,262.5,361.5,254.5,368.5,246.5,377.5,238.5,382.5,233.5,374.0,241.5,366.0,250.0,358.0,257.0,350.0,266.0,342.5,271.0,334.5,276.5,327.0,282.0,319.0,284.0,311.0,288.0,302.5,290.5,294.5,291.5,286.5,293.0,279.0,294.0,271.0,293.5,263.5,293.5,255.5,293.5,247.0,294.0,239.0,293.0,231.5,291.0,223.0,289.0,214.5,286.0,206.5,283.0,198.5,279.5,190.5,276.0,182.5,270.0,174.0,264.0,166.0,255.5,158.0,245.5" stroke="black" stroke-width="2" fill="none" />
<polyline points="157.5,243.0,162.5,251.0,168.5,258.0,176.0,266.5,187.0,274.0" stroke="black" stroke-width="2" fill="none" />
<polyline points="200.5,259.0,192.0,258.0,184.0,256.0,176.0,253.0,168.5,249.0,160.5,244.0,152.5,242.0" stroke="black" stroke-width="2" fill="none" />
<polyline points="153.0,239.5,167.0,247.0,173.0,253.0,188.5,255.0" stroke="black" stroke-width="2" fill="none" />
<polyline points="197.5,253.0,195.5,250.0,187.5,245.5,180.0,238.5,175.5,238.5,160.5,231.5,149.0,224.0,144.0,216.0,140.0,208.0,139.0,200.0,138.5,192.5,140.5,184.5,143.5,176.5,148.5,168.5,157.5,160.5,167.5,157.5,172.0,151.5,164.0,156.5,156.0,161.0,148.0,168.0,139.5,181.5" stroke="black" stroke-width="2" fill="none" />
<polyline points="143.5,182.0,151.5,171.0,152.0,170.5,147.0,178.5,144.5,186.5,142.5,194.0,144.0,202.5,145.0,210.5,151.0,219.0,159.0,227.0" stroke="black" stroke-width="2" fill="none" />
<polyline points="157.0,248.0,165.0,260.0,173.0,267.5,179.0,273.0,185.5,278.5,193.5,282.5,201.5,285.0,212.0,289.5,220.0,291.5,227.5,294.5,235.5,296.5,243.5,297.5,251.5,298.0,259.0,299.0,263.0,295.5,271.0,295.5" stroke="black" stroke-width="2" fill="none" />
<polyline points="265.0,300.0,265.0,308.0,264.5,315.5,264.5,324.0,264.0,332.0,264.0,340.5,272.0,340.5,280.0,338.5,288.0,335.5,295.5,331.5,303.5,325.5,312.0,316.5,320.5,302.5" stroke="black" stroke-width="2" fill="none" />
<polyline points="271.0,275.0,318.0,231.0,365.0,184.0,413.5,133.5,463.0,82.5" stroke="black" stroke-width="2" fill="none" />
<polyline points="473.0,109.5,424.5,109.5,373.0,110.5,320.0,110.5,266.0,111.0,213.5,108.0,162.5,105.0,114.0,105.5" stroke="black" stroke-width="2" fill="none" />
<polyline points="113.0,78.0,162.5,78.0,210.5,78.5,260.5,81.5,311.0,84.5,364.5,86.0,417.0,90.5,467.5,93.5" stroke="black" stroke-width="2" fill="none" />
<polyline points="480.0,125.0,432.0,122.5,384.0,121.0,336.0,119.0,285.5,123.0,232.5,127.0,178.5,129.0,124.5,127.5,74.0,128.0" stroke="black" stroke-width="2" fill="none" />
<polyline points="72.5,153.5,121.5,153.5,170.5,153.5,218.5,153.0,266.0,152.5,315.5,153.5,371.0,152.0,424.5,154.5,477.5,156.5" stroke="black" stroke-width="2" fill="none" />
<polyline points="470.0,173.5,472.0,182.0,474.0,190.0" stroke="black" stroke-width="2" fill="none" />
<polyline points="464.5,138.0,464.5,130.0,464.5,121.5,459.5,112.0,458.0,104.0,456.0,95.5,454.0,87.5,453.0,79.5,451.5,71.5,448.5,63.5,451.5,57.5,443.5,41.0,435.5,28.0,427.0,18.0,419.0,14.5,410.5,15.5,402.0,24.0" stroke="black" stroke-width="2" fill="none" />
<polyline points="412.0,13.5,404.0,21.5,402.0,29.5,398.5,37.5,398.0,45.5,399.0,53.5,399.0,61.5,401.0,68.0" stroke="black" stroke-width="2" fill="none" />
<polyline points="413.5,72.0,366.0,124.0,320.0,175.5" stroke="black" stroke-width="2" fill="none" />
<polyline points="337.5,183.5,348.5,192.0,356.5,200.0,362.0,208.0,363.5,216.0,363.5,224.0,363.5,232.0,360.0,240.5,354.0,249.0,347.0,257.5,333.0,265.0" stroke="black" stroke-width="2" fill="none" />
<polyline points="274.5,268.0,267.5,265.0,262.5,261.5,254.5,254.0,249.0,246.0,246.0,237.5,244.5,229.5,245.0,221.5,245.5,213.0,242.5,212.0,234.0,219.5,226.0,226.5,218.0,229.5,210.0,223.5,202.0,222.5,194.0,223.5,186.0,235.5,177.5,233.5,169.0,232.5,160.5,228.5,152.5,221.5,144.5,210.5" stroke="black" stroke-width="2" fill="none" />
<polyline points="141.5,212.5,150.0,224.5,158.5,231.5,166.5,235.0" stroke="black" stroke-width="2" fill="none" />
<polyline points="188.5,240.5,190.5,248.0" stroke="black" stroke-width="2" fill="none" />
<polyline points="209.0,289.5,211.0,297.0,213.0,305.5,217.0,313.5,219.0,321.0,227.0,328.0,233.5,336.0,241.5,340.0,249.5,343.5,257.5,345.0" stroke="black" stroke-width="2" fill="none" />
<polyline points="239.0,475.5,244.5,483.5,251.0,491.5" stroke="black" stroke-width="2" fill="none" />
<polyline points="239.5,484.5,245.5,492.5,254.0,500.5,261.5,508.5" stroke="black" stroke-width="2" fill="none" />
<polyline points="208.0,610.5,200.5,612.0,192.5,612.0,184.5,612.5,176.5,613.0,168.5,613.5,161.0,615.0,159.5,611.0,161.5,603.0,164.5,595.0,174.5,586.5" stroke="black" stroke-width="2" fill="none" />
<polyline points="15.0,232.0,64.5,183.5,114.5,134.0,164.5,86.5" stroke="black" stroke-width="2" fill="none" />
<polyline points="138.0,46.5,122.0,54.5,107.0,62.5,96.0,71.0,85.0,79.0,76.0,87.5,68.5,96.0,61.5,104.0,55.0,112.5,48.0,120.0,42.5,128.5,37.0,136.0,31.5,143.5,27.5,151.5,22.0,159.0,17.0,166.5,13.0,174.5,7.5,182.5,3.5,190.5,3.5,190.5,11.5,175.5,19.5,161.5,27.5,146.5,36.0,135.5,44.5,123.5,53.0,113.5,61.0,105.5,69.0,95.5,77.0,87.5,85.0,80.5,93.0,73.5,101.0,68.5,109.5,63.0,117.5,58.0,125.0,54.5,132.5,51.5,140.0,47.5,147.0,45.0,154.5,43.0,162.5,38.5,170.5,37.0,178.5,35.0,186.5,34.0,195.0,32.5,202.0,30.5,210.0,31.0,218.5,30.0,227.5,29.0,235.5,29.0,243.5,29.0,251.5,29.0,259.5,30.0,263.0,31.5,271.0,32.5,279.0,33.0,287.0,34.0,295.0,36.5,302.5,38.5" stroke="black" stroke-width="2" fill="none" />
<polyline points="275.0,61.0,226.5,111.5,176.5,163.5" stroke="black" stroke-width="2" fill="none" />
<polyline points="155.0,164.5,163.5,160.0,171.5,157.0,176.5,149.5,185.0,149.5,187.0,151.0,195.0,149.0,202.5,149.0,210.0,151.0,218.0,152.5,225.0,155.5,233.0,161.0,241.0,168.0" stroke="black" stroke-width="2" fill="none" />
<polyline points="243.0,164.0,235.0,158.0,227.5,151.5,219.5,148.0,211.5,146.0,203.0,144.5" stroke="black" stroke-width="2" fill="none" />
<polyline points="214.5,152.5,233.5,158.0,243.0,165.5,247.5,172.5,251.5,180.5,251.5,188.5,251.5,196.5,254.0,201.5,248.5,209.5,247.5,217.0,246.0,225.0,247.5,233.0,251.0,241.5,254.0,249.5,262.5,256.5,273.0,263.5,276.0,268.5,280.0,269.5,287.5,272.0,296.0,273.5,304.0,273.5,312.0,273.5,319.0,271.0,327.5,271.0,335.5,267.0,343.5,263.5,350.5,256.0,358.5,249.0" stroke="black" stroke-width="2" fill="none" />
<polyline points="384.0,235.0,384.0,243.5,383.0,251.5,381.5,259.5,378.0,267.5,377.0,275.0,375.0,283.0,372.0,291.5,370.5,299.0,368.0,307.0,364.0,315.0,360.0,323.0,353.5,331.0,348.0,339.0,343.5,347.5,335.5,355.5,325.5,363.5" stroke="black" stroke-width="2" fill="none" />
<polyline points="229.5,212.0,222.0,213.5,214.5,213.0,207.0,208.0,199.0,198.0" stroke="black" stroke-width="2" fill="none" />
<polyline points="197.5,193.0,205.5,183.0,213.0,182.5,221.0,184.5,228.5,189.0" stroke="black" stroke-width="2" fill="none" />
<polyline points="218.5,184.0,230.5,192.0,235.5,199.5,234.0,207.5" stroke="black" stroke-width="2" fill="none" />
<polyline points="203.5,208.0,199.0,200.0,198.5,192.5,205.5,184.5" stroke="black" stroke-width="2" fill="none" />
<polyline points="217.0,169.5,268.0,119.5,317.5,66.5,367.0,15.0" stroke="black" stroke-width="2" fill="none" />
<polyline points="380.0,21.0,333.0,18.5" stroke="black" stroke-width="2" fill="none" />
<polyline points="335.0,23.5,349.0,31.5,362.0,38.5,371.5,46.5,383.5,54.5,392.5,62.5" stroke="black" stroke-width="2" fill="none" />
<polyline points="399.0,67.5,391.0,60.5,383.0,53.5,375.0,48.0,367.0,42.0,359.0,36.5,351.0,32.0,342.5,28.5,334.0,24.5,326.0,21.5,319.0,18.5,311.0,14.5,303.0,13.0,295.5,10.0,288.0,9.0,280.5,8.0,272.5,7.0,269.0,5.0,261.0,4.0,252.5,3.5,244.0,3.5" stroke="black" stroke-width="2" fill="none" />
<polyline points="231.0,5.0,239.0,8.0,247.0,10.0,255.0,13.0,262.5,16.0,270.5,20.0,278.5,24.0,286.5,28.0,294.5,34.0" stroke="black" stroke-width="2" fill="none" />
<polyline points="218.0,75.0,168.5,123.5,121.5,169.5" stroke="black" stroke-width="2" fill="none" />
<polyline points="140.5,151.5,132.5,150.5,125.0,151.5,116.5,152.5,108.5,154.0,100.5,156.0,92.5,158.0,84.5,161.5,76.5,163.5,69.0,167.5,60.5,170.5,52.5,174.0,45.0,178.0,38.5,180.0,30.5,185.0,22.5,190.0,15.5,194.0,7.5,198.5,12.0,196.5,24.5,188.5,41.5,180.5,56.5,172.5,74.0,164.5" stroke="black" stroke-width="2" fill="none" />
<polyline points="73.0,205.5,22.0,207.0" stroke="black" stroke-width="2" fill="none" />
<polyline points="19.0,171.5,71.5,174.0" stroke="black" stroke-width="2" fill="none" />
<polyline points="157.0,152.5,149.0,160.5,143.0,168.5,137.0,176.5,132.0,184.0,128.5,190.5,123.0,198.5,119.5,206.5,116.5,214.5,114.5,223.0,111.5,231.0,109.5,239.0,107.0,246.0,106.0,254.0,104.0,261.5,103.5,270.0,104.0,278.0,104.5,286.5,104.5,294.5,107.0,299.5,108.0,308.0,110.0,316.0,112.0,323.5,115.0,332.0,117.5,339.5,120.5,347.5,124.5,355.0,130.0,361.5,134.0,367.5,139.5,374.5,147.5,382.5,155.5,390.5,164.5,397.0,177.0,405.0,181.0,409.5,188.0,413.5,196.0,416.0,204.0,418.5,212.0,420.5,221.0,422.5,229.0,422.5,237.0,425.5,249.0,422.5,257.0,424.0,265.0,425.0,273.0,426.0,281.5,423.0,289.5,414.0,297.5,410.5,305.5,410.5,313.5,403.0,321.5,392.0,329.5,381.5,337.5,374.5,345.5,376.0,346.0,382.5,354.0,385.5,361.5,392.5,369.5,395.5,378.0,397.5,386.5,398.0,394.0,395.0,401.5,391.0,409.5,383.0,415.0,381.5" stroke="black" stroke-width="2" fill="none" />
<polyline points="417.5,344.0,410.5,338.0,402.0,336.0,395.0,334.0,387.5,334.0,379.5,333.0,381.0,327.5,382.5,319.5,383.5,312.0,386.5,304.0,387.5,296.0,388.0,287.5,389.0,279.5,391.0,271.5,393.0,263.5,394.0,255.5,396.0,247.0,397.5,238.5,398.5,230.5,400.5,223.0,402.0,215.0,403.5,207.0,402.5,199.0" stroke="black" stroke-width="2" fill="none" />
<polyline points="359.5,198.0,351.0,189.5,343.0,183.5,334.5,180.0,326.5,177.0,318.0,175.0,310.0,174.0,302.0,174.0,294.5,174.5,286.5,176.5,279.0,178.5,271.0,182.0,263.0,185.5,255.5,193.0,260.0,192.5,268.0,184.5" stroke="black" stroke-width="2" fill="none" />
<polyline points="299.0,149.0,318.0,156.5,332.5,164.5,341.5,172.0,348.5,180.0,358.0,187.5,365.5,196.0,374.0,204.5,382.5,212.5" stroke="black" stroke-width="2" fill="none" />
<polyline points="358.5,197.0,350.5,189.0,339.0,181.0" stroke="black" stroke-width="2" fill="none" />
<polyline points="229.0,157.5,239.5,165.5,245.0,173.0,248.0,181.0,249.0,189.5,247.5,197.5,244.5,205.5,239.5,213.5,232.0,222.0,218.5,230.0,220.0,238.0,223.0,246.0" stroke="black" stroke-width="2" fill="none" />
<polyline points="426.0,302.5,422.0,294.5,424.0,286.0,426.0,278.0,428.0,270.0,429.0,262.0,431.5,254.0,433.0,246.0,435.0,238.0,436.0,230.0,437.5,222.0,438.5,214.0,440.5,206.0,441.5,198.5,442.5,190.5,443.5,182.0,443.0,174.0,446.5,165.5,445.5,157.5,445.5,150.0,445.5,142.0,445.5,133.5,443.5,127.5,442.5,119.5,443.5,112.0,444.0,104.5,444.0,96.5,444.0,88.5,444.0,80.5,442.5,72.5,442.0,64.0,441.0,55.5,441.0,47.5" stroke="black" stroke-width="2" fill="none" />
<polyline points="421.0,14.5,431.0,22.5,437.5,30.5,443.0,38.5,447.5,46.0,450.5,53.5,453.0,62.0,455.0,70.0,457.0,76.5,459.0,84.5,460.0,93.0,462.0,97.0,462.5,104.5,463.5,113.0,464.0,121.0,461.0,129.5,461.0,137.5,461.0,145.5,461.0,153.5,461.5,161.5,461.5,169.5,462.0,177.5,461.5,185.5,461.5,193.0,461.0,201.0,459.0,209.0,458.0,217.0,456.0,225.0" stroke="black" stroke-width="2" fill="none" />
</svg>