<svg xmlns="http://www.w3.org/2000/svg" version="1.1"><polyline points="232.0,1.0,235.0,9.0,239.0,17.0,242.5,25.0,245.5,33.0,250.0,46.5,254.0,55.0,256.0,63.0,241.0,71.5,224.5,79.5,213.5,88.0,206.5,96.0,201.5,104.0,196.5,112.0,192.0,120.0,189.5,128.0,186.5,136.0,184.0,143.5,181.5,151.5" stroke="black" stroke-width="2" fill="none" />
<polyline points="187.0,161.0,162.0,185.5" stroke="black" stroke-width="2" fill="none" />
<polyline points="163.0,188.5,156.0,196.5,153.0,205.0,153.0,213.0,154.5,220.5,159.5,228.5,170.5,236.0,182.5,245.5,191.5,253.5,199.5,261.5,199.0,269.5,198.0,277.5,197.5,286.0,199.5,294.0,207.5,302.5" stroke="black" stroke-width="2" fill="none" />
<polyline points="211.5,296.0,187.0,295.5" stroke="black" stroke-width="2" fill="none" />
<polyline points="188.0,295.5,196.0,309.5,204.5,314.5,212.5,317.0,220.5,315.5,229.0,312.5,236.5,307.5,244.5,303.5,252.0,302.5,260.0,299.5,267.5,295.0,244.5,300.5,252.5,292.0,260.5,284.0" stroke="black" stroke-width="2" fill="none" />
<polyline points="263.5,291.0,287.0,292.0,311.0,292.0,334.5,292.5,357.5,294.0,381.0,294.0,406.0,294.0,430.5,293.5" stroke="black" stroke-width="2" fill="none" />
<polyline points="440.5,304.5,415.0,329.0,391.5,355.5,367.0,381.5" stroke="black" stroke-width="2" fill="none" />
<polyline points="354.5,386.5,380.5,386.0" stroke="black" stroke-width="2" fill="none" />
<polyline points="403.5,383.5,429.5,382.5,456.5,381.0,483.5,379.5" stroke="black" stroke-width="2" fill="none" />
<polyline points="487.0,362.0,460.5,385.5" stroke="black" stroke-width="2" fill="none" />
<polyline points="436.0,389.5,460.0,365.0,484.0,340.0" stroke="black" stroke-width="2" fill="none" />
<polyline points="461.5,332.5,436.5,358.0,409.5,385.5" stroke="black" stroke-width="2" fill="none" />
<polyline points="409.5,370.5,418.5,378.5,420.5,386.5,424.0,394.0" stroke="black" stroke-width="2" fill="none" />
<polyline points="410.0,369.0,434.5,367.5,460.0,366.5,485.5,366.0,512.5,365.5" stroke="black" stroke-width="2" fill="none" />
<polyline points="456.5,311.0,433.5,335.5,409.5,359.0" stroke="black" stroke-width="2" fill="none" />
<polyline points="398.0,370.5,389.0,378.5,383.0,386.5,379.0,394.5,386.0,382.5,394.0,373.5,402.0,369.5,410.0,370.5,418.0,376.5,421.5,385.0" stroke="black" stroke-width="2" fill="none" />
<polyline points="361.0,358.5,387.5,333.0,414.0,307.5,440.5,281.5" stroke="black" stroke-width="2" fill="none" />
<polyline points="414.0,282.0,389.5,306.5,363.5,330.0,337.5,354.0" stroke="black" stroke-width="2" fill="none" />
<polyline points="332.5,363.5,342.5,371.5,349.0,379.5,354.5,387.5" stroke="black" stroke-width="2" fill="none" />
<polyline points="350.0,379.5,342.5,369.0,335.0,363.5,326.5,362.0,318.5,368.5,307.5,381.0,299.5,365.0,291.5,364.0" stroke="black" stroke-width="2" fill="none" />
<polyline points="298.0,362.5,304.0,370.5,306.5,379.0,309.5,387.0" stroke="black" stroke-width="2" fill="none" />
<polyline points="286.0,382.0,261.0,382.5" stroke="black" stroke-width="2" fill="none" />
<polyline points="260.5,384.0,285.0,360.5,311.0,336.0,338.0,312.5,365.0,288.0,390.5,264.0,414.5,240.5" stroke="black" stroke-width="2" fill="none" />
<polyline points="409.0,248.5,381.5,247.5,357.5,250.5,332.5,253.5,307.5,255.5,282.0,258.0,256.5,259.5" stroke="black" stroke-width="2" fill="none" />
<polyline points="260.5,264.5,268.0,256.0,276.5,245.5,284.5,247.5,292.5,250.5" stroke="black" stroke-width="2" fill="none" />
<polyline points="289.0,247.0,297.0,249.5,305.0,244.5" stroke="black" stroke-width="2" fill="none" />
<polyline points="305.5,245.5,304.5,241.0,296.5,244.0,288.5,244.0" stroke="black" stroke-width="2" fill="none" />
<polyline points="281.5,248.0,299.5,256.0,295.5,264.0,291.0,271.5,285.5,279.5" stroke="black" stroke-width="2" fill="none" />
<polyline points="287.5,281.5,313.0,281.0,338.0,279.0,362.5,277.5,386.0,276.0,410.0,274.5" stroke="black" stroke-width="2" fill="none" />
<polyline points="410.0,271.0,424.0,278.5,433.5,286.5,440.5,294.0,445.5,301.5,450.0,309.0,454.5,317.5,459.0,325.5,464.5,334.0,470.0,342.5,475.0,350.5,481.0,358.5,486.5,366.5,492.5,374.0,500.5,382.0,507.5,390.0" stroke="black" stroke-width="2" fill="none" />
<polyline points="415.0,258.0,390.5,282.5,364.5,306.0,339.0,330.0,315.5,354.5" stroke="black" stroke-width="2" fill="none" />
<polyline points="325.5,362.0,318.5,370.0,314.5,377.5,313.0,385.5" stroke="black" stroke-width="2" fill="none" />
<polyline points="290.0,392.0,290.5,383.5,291.0,375.0,291.5,367.0,295.5,358.5" stroke="black" stroke-width="2" fill="none" />
<polyline points="259.0,360.0,285.0,336.5,312.5,314.0,340.0,290.0,366.5,266.5,391.5,243.5,416.0,219.5" stroke="black" stroke-width="2" fill="none" />
<polyline points="410.5,228.0,383.5,230.5,358.0,231.0,332.5,232.0,309.0,233.0,286.0,234.0,261.5,235.0" stroke="black" stroke-width="2" fill="none" />
<polyline points="261.0,221.5,287.5,220.0,314.0,219.0,339.0,218.5,362.5,219.0,387.0,219.0,412.0,216.5" stroke="black" stroke-width="2" fill="none" />
<polyline points="390.0,205.0,364.5,205.5,338.0,207.0,312.5,207.0,287.5,206.0,261.0,206.5" stroke="black" stroke-width="2" fill="none" />
<polyline points="262.0,207.0,286.0,182.0,310.5,157.5,335.5,132.5,360.5,107.5,386.0,83.0" stroke="black" stroke-width="2" fill="none" />
<polyline points="360.0,90.0,334.0,115.5,309.5,139.0,284.5,162.0,259.0,186.5" stroke="black" stroke-width="2" fill="none" />
<polyline points="259.5,185.0,284.5,184.0,309.5,183.5,334.0,183.5,357.0,183.0,382.5,182.0,409.0,181.0" stroke="black" stroke-width="2" fill="none" />
<polyline points="409.5,193.0,386.0,194.0,360.5,194.0,334.5,194.5,309.5,195.0,284.0,195.5,259.0,195.5" stroke="black" stroke-width="2" fill="none" />
<polyline points="256.5,200.5,248.0,213.0,240.0,222.5,232.0,223.0,224.0,215.5,216.0,206.0,207.5,201.0,199.5,196.0" stroke="black" stroke-width="2" fill="none" />
<polyline points="204.0,195.5,216.0,203.5" stroke="black" stroke-width="2" fill="none" />
<polyline points="220.0,194.5,227.5,180.5,235.5,175.5,238.5,179.0,239.5,187.0,238.5,195.5,236.5,203.0,233.5,211.0,230.0,219.0,234.0,226.5" stroke="black" stroke-width="2" fill="none" />
<polyline points="221.0,230.0,229.0,231.5,237.0,233.5,245.5,235.5,253.5,237.5" stroke="black" stroke-width="2" fill="none" />
<polyline points="237.0,245.0,261.5,244.5,285.5,245.5,308.5,244.5,332.0,243.0,356.0,241.0,379.0,240.0,403.0,239.5" stroke="black" stroke-width="2" fill="none" />
<polyline points="402.5,252.0,397.5,260.0" stroke="black" stroke-width="2" fill="none" />
<polyline points="415.5,264.5,390.5,265.5,364.0,266.0,338.0,266.5,313.0,267.5,288.0,267.0" stroke="black" stroke-width="2" fill="none" />
<polyline points="280.0,263.5,305.5,238.0,332.0,212.0,359.0,186.5,383.5,162.0,409.5,137.5,435.5,112.5,461.5,87.0,488.5,62.5" stroke="black" stroke-width="2" fill="none" />
<polyline points="465.0,60.5,438.5,85.5" stroke="black" stroke-width="2" fill="none" />
<polyline points="456.5,71.5,436.5,79.5,420.5,87.5,408.5,95.5,397.0,103.5,389.0,111.5,382.5,119.5,376.5,127.5,375.0,136.0,375.0,144.0,378.0,151.5" stroke="black" stroke-width="2" fill="none" />
<polyline points="377.0,148.0,385.0,157.5,392.5,156.5" stroke="black" stroke-width="2" fill="none" />
<polyline points="389.0,153.0,363.5,154.5,339.0,154.5,314.0,155.5,288.0,156.0,263.0,156.0" stroke="black" stroke-width="2" fill="none" />
<polyline points="258.5,163.5,283.0,140.5,309.0,117.0,336.0,93.5" stroke="black" stroke-width="2" fill="none" />
<polyline points="341.0,81.0,315.0,84.5,290.0,86.5,265.0,86.5" stroke="black" stroke-width="2" fill="none" />
<polyline points="263.0,71.0,287.5,70.5,310.5,71.0,335.5,70.0" stroke="black" stroke-width="2" fill="none" />
<polyline points="328.5,68.5,305.0,93.0,281.5,115.0,258.5,137.5" stroke="black" stroke-width="2" fill="none" />
<polyline points="261.0,131.5,268.0,140.0,268.5,148.0,268.5,156.0,267.5,164.0,266.5,172.0,265.0,180.0,262.0,187.5,259.5,195.5,255.5,203.0,251.5,211.0,244.5,219.0,237.5,227.0,240.5,227.0,249.0,220.0,257.0,215.0" stroke="black" stroke-width="2" fill="none" />
<polyline points="259.5,213.0,247.5,221.0,241.5,230.5,249.5,232.5,258.0,234.5" stroke="black" stroke-width="2" fill="none" />
<polyline points="244.0,247.5,257.0,240.0,251.5,243.5,243.5,247.5,235.0,247.0,226.5,242.0,218.5,237.0,210.5,236.0" stroke="black" stroke-width="2" fill="none" />
<polyline points="210.5,238.0,219.0,240.5,227.5,245.0,235.5,250.0" stroke="black" stroke-width="2" fill="none" />
<polyline points="212.0,244.5,186.0,246.0" stroke="black" stroke-width="2" fill="none" />
<polyline points="183.5,257.5,176.5,250.0,169.0,239.0,161.0,233.0,153.5,220.5" stroke="black" stroke-width="2" fill="none" />
<polyline points="154.5,215.0,162.5,230.0,170.0,235.0,176.0,240.0,184.5,246.5,192.5,253.5,200.0,258.5" stroke="black" stroke-width="2" fill="none" />
<polyline points="189.5,259.5,188.5,267.5" stroke="black" stroke-width="2" fill="none" />
<polyline points="210.5,270.0,236.0,268.0,262.0,267.0" stroke="black" stroke-width="2" fill="none" />
<polyline points="261.0,265.0,269.0,273.5,277.5,283.5,286.0,278.0,294.5,266.5" stroke="black" stroke-width="2" fill="none" />
<polyline points="277.5,286.0,271.5,278.5,263.5,270.0,262.5,262.5,269.5,254.5,276.5,246.5" stroke="black" stroke-width="2" fill="none" />
<polyline points="259.5,270.5,267.0,279.0,256.0,285.0,256.5,288.5,248.5,296.5,235.0,309.0" stroke="black" stroke-width="2" fill="none" />
<polyline points="244.5,300.0,253.0,298.0,261.0,295.5,269.5,292.0" stroke="black" stroke-width="2" fill="none" />
<polyline points="256.0,303.5,280.5,303.0,305.0,302.5,330.0,302.5,356.0,303.5,382.0,303.5,406.5,305.0,430.5,306.5" stroke="black" stroke-width="2" fill="none" />
<polyline points="486.0,334.5,462.0,335.5,437.0,336.5,411.0,337.5,385.0,338.0,360.0,337.5,336.0,337.5,310.5,337.5,284.0,338.5,258.5,340.5" stroke="black" stroke-width="2" fill="none" />
<polyline points="262.5,335.0,287.0,310.5,311.0,286.0,337.5,262.0,362.5,236.0,387.0,210.5,412.0,185.0,438.0,160.0,464.0,135.5" stroke="black" stroke-width="2" fill="none" />
<polyline points="467.5,114.0,442.0,139.5,415.5,164.5,389.5,190.0,363.5,216.0,336.5,241.0,312.0,264.5,285.5,287.0,259.0,309.5" stroke="black" stroke-width="2" fill="none" />
<polyline points="257.5,315.5,265.5,299.0" stroke="black" stroke-width="2" fill="none" />
<polyline points="255.0,316.5,278.0,317.0,302.5,317.5,327.5,319.0,353.0,320.5,379.0,321.0,404.0,321.5,429.5,321.0,456.5,320.0" stroke="black" stroke-width="2" fill="none" />
<polyline points="389.5,367.5,362.5,367.0,335.0,366.5,308.5,365.0,282.5,363.0,256.5,363.0" stroke="black" stroke-width="2" fill="none" />
<polyline points="256.5,352.0,281.0,352.5,306.0,353.5,332.0,353.0,358.5,351.5,385.5,351.5,412.0,351.5,440.0,352.0,466.0,353.0,490.5,354.0" stroke="black" stroke-width="2" fill="none" />
<polyline points="461.0,330.0,435.5,329.5,408.5,329.5,383.0,329.5,356.5,328.0,332.0,327.0,306.0,327.0,279.5,326.5,253.0,327.0" stroke="black" stroke-width="2" fill="none" />
<polyline points="255.0,338.0,255.0,329.5,256.0,321.5,257.5,313.0,261.0,305.0,266.0,297.0,271.0,290.0,269.0,282.0,259.0,280.0,251.0,284.0" stroke="black" stroke-width="2" fill="none" />
<polyline points="256.0,271.0,249.0,279.0,240.5,287.0,231.5,294.5,216.5,302.5" stroke="black" stroke-width="2" fill="none" />
<polyline points="198.0,289.5,206.0,300.5,214.0,303.0,222.0,300.0,230.0,294.5,238.0,287.0,246.0,279.5,254.5,270.5,263.0,273.5,271.5,282.5" stroke="black" stroke-width="2" fill="none" />
<polyline points="232.5,280.0,258.0,256.5,284.5,232.0,310.5,209.0,338.5,186.5,365.5,163.0,391.0,139.5,416.5,116.0" stroke="black" stroke-width="2" fill="none" />
<polyline points="407.0,106.0,383.5,105.0,359.0,104.0,334.5,104.0,309.5,102.0,285.5,101.0,261.5,101.0,236.5,101.0,211.5,101.5" stroke="black" stroke-width="2" fill="none" />
<polyline points="210.0,106.0,234.5,81.5" stroke="black" stroke-width="2" fill="none" />
<polyline points="209.5,94.0,234.5,93.5,259.5,92.5,285.5,92.5,311.5,94.0,337.5,94.5,362.0,94.5,388.0,93.0,413.5,91.5,438.0,90.5,462.5,89.0" stroke="black" stroke-width="2" fill="none" />
<polyline points="468.0,94.5,471.0,77.0,469.0,82.5,466.0,90.5,464.0,98.5,461.0,107.0,458.5,116.0,456.5,124.0,454.5,132.0,452.0,139.5,449.0,147.5,445.0,155.5,442.0,163.5,438.0,171.0,433.0,178.5,426.5,186.5,420.0,194.5,408.0,201.0,402.0,213.0,410.5,208.0,418.5,202.5,426.0,194.0,434.0,183.0,441.5,169.5,449.5,152.5" stroke="black" stroke-width="2" fill="none" />
<polyline points="459.5,149.0,432.5,148.5" stroke="black" stroke-width="2" fill="none" />
<polyline points="440.5,164.5,415.0,165.5,389.5,166.0,364.5,167.5,340.0,169.0,314.0,170.5,288.5,172.0,264.5,172.0" stroke="black" stroke-width="2" fill="none" />
<polyline points="266.5,146.0,290.5,145.0,314.5,145.5,339.0,146.0,364.5,145.0,390.5,144.5,415.5,143.0,439.5,140.0,464.0,138.5" stroke="black" stroke-width="2" fill="none" />
<polyline points="459.5,114.5,434.0,114.0,408.0,114.0,382.5,114.0,357.0,114.5,331.5,114.5,307.0,116.5,283.5,118.5,259.0,119.0,234.0,119.0,208.5,119.0" stroke="black" stroke-width="2" fill="none" />
<polyline points="207.0,114.5,210.0,122.5,209.5,131.0,207.5,139.5,205.0,147.5,202.0,155.5,199.5,163.5,196.5,167.5,197.5,175.5,195.5,183.0,192.0,191.0,205.5,199.5,216.5,207.5,224.0,216.0,229.5,224.5,220.5,229.5,229.0,242.5" stroke="black" stroke-width="2" fill="none" />
<polyline points="228.5,228.5,220.0,228.5" stroke="black" stroke-width="2" fill="none" />
<polyline points="213.0,238.5,228.0,246.5" stroke="black" stroke-width="2" fill="none" />
<polyline points="212.0,277.0,238.0,251.5,263.0,225.5,286.5,201.0,312.0,176.0,337.0,151.0,364.5,127.0,390.5,104.0,414.5,81.5,438.0,58.0" stroke="black" stroke-width="2" fill="none" />
<polyline points="418.5,66.5,397.5,74.0,381.5,82.0,368.5,90.0" stroke="black" stroke-width="2" fill="none" />
<polyline points="346.5,72.5,354.5,91.5,362.0,95.0,370.0,90.0,377.5,85.0,385.5,80.0,393.5,76.0,402.0,72.5,410.0,69.5,418.0,66.5,426.0,64.5,434.0,63.5,442.0,62.5,449.5,62.0,457.5,60.5,466.0,61.5,474.0,62.5,481.0,65.0,477.5,73.0,473.5,81.0,470.5,88.5,468.5,97.0,465.5,105.0,463.0,113.0,461.0,120.5,459.0,128.5,456.0,137.0,454.0,145.0,450.0,153.0,446.5,161.0,442.5,169.0,437.5,177.0,433.0,185.0,427.0,193.0,419.0,201.5,409.0,209.0,404.5,217.0,409.5,225.0,414.0,233.0,416.0,241.5,417.0,249.5" stroke="black" stroke-width="2" fill="none" />
<polyline points="408.5,251.5,403.0,257.0,395.5,260.5,388.0,262.5,379.5,264.5,371.5,268.0,363.5,270.5,360.5,273.5,374.0,265.5" stroke="black" stroke-width="2" fill="none" />
<polyline points="375.0,269.0,362.5,276.5,369.5,271.5,377.5,268.5,385.5,267.0,393.0,267.0,401.0,267.5,409.0,269.0,417.5,272.0,425.5,277.0,433.5,284.0,441.5,293.0,449.5,306.0,457.0,321.0,465.0,335.0,473.0,347.0,480.5,359.0,488.5,369.0,496.5,378.5,504.5,387.5" stroke="black" stroke-width="2" fill="none" />
<polyline points="388.0,196.5,396.0,207.5,404.0,208.5,410.5,203.5,418.5,196.5,426.5,185.5,435.5,175.0,443.5,158.0" stroke="black" stroke-width="2" fill="none" />
<polyline points="407.5,170.5,399.5,163.5" stroke="black" stroke-width="2" fill="none" />
<polyline points="402.5,175.5,394.5,174.5,386.5,179.5" stroke="black" stroke-width="2" fill="none" />
<polyline points="392.0,174.5,388.5,183.0,388.5,190.5,391.0,198.5,396.0,206.5,405.5,216.5,413.5,229.5" stroke="black" stroke-width="2" fill="none" />
<polyline points="405.5,169.0,400.0,160.5,403.0,152.5,404.0,144.5,403.0,136.5" stroke="black" stroke-width="2" fill="none" />
<polyline points="400.5,136.5,400.5,144.5,396.5,152.5" stroke="black" stroke-width="2" fill="none" />
<polyline points="384.0,127.0,359.5,128.5,334.0,131.0,310.0,132.0,286.0,133.0,261.0,132.5,236.5,132.5" stroke="black" stroke-width="2" fill="none" />
<polyline points="230.0,140.0,255.5,114.0,282.5,87.0,308.0,61.0" stroke="black" stroke-width="2" fill="none" />
<polyline points="315.5,38.5,290.5,62.5,264.0,87.0,238.0,110.5" stroke="black" stroke-width="2" fill="none" />
<polyline points="234.5,115.5,238.0,123.5,245.0,131.5" stroke="black" stroke-width="2" fill="none" />
<polyline points="258.0,130.5,247.0,138.5,240.5,146.5,236.5,154.5,232.0,162.0,230.5,170.0,226.0,178.0,227.0,181.0,221.5,189.5,220.0,197.5,215.0,201.5" stroke="black" stroke-width="2" fill="none" />
<polyline points="211.5,188.5,186.0,212.5" stroke="black" stroke-width="2" fill="none" />
<polyline points="198.5,216.5,190.5,217.5,182.5,220.0,175.0,221.5,167.0,205.5" stroke="black" stroke-width="2" fill="none" />
<polyline points="166.0,212.0,190.0,187.5,214.5,163.0" stroke="black" stroke-width="2" fill="none" />
<polyline points="210.0,176.0,183.5,177.0,157.5,177.5,131.0,177.5,106.0,179.0" stroke="black" stroke-width="2" fill="none" />
<polyline points="114.5,183.5,139.0,159.0" stroke="black" stroke-width="2" fill="none" />
<polyline points="140.0,159.0,132.0,151.5,124.0,144.0,116.5,137.5,109.0,130.5,101.5,125.0,94.0,118.0,86.0,112.5,78.0,107.5,70.0,101.5" stroke="black" stroke-width="2" fill="none" />
<polyline points="72.5,100.0,83.5,108.0,94.0,116.5,105.0,124.5,115.0,132.5,124.0,140.5,131.5,148.5,139.5,156.0" stroke="black" stroke-width="2" fill="none" />
<polyline points="146.5,156.5,159.5,148.5" stroke="black" stroke-width="2" fill="none" />
<polyline points="167.5,149.5,180.5,157.5,178.5,165.5,177.5,173.0,175.0,181.0,171.0,191.5,164.5,199.5,166.5,207.5,170.0,215.5,174.5,225.5,176.0,233.5,176.5,241.5,180.0,249.0,183.0,257.0,186.5,264.5,188.5,272.5,190.0,280.5,191.0,288.5,193.0,296.5,198.0,304.5" stroke="black" stroke-width="2" fill="none" />
<polyline points="191.5,295.5,199.5,307.5,207.0,312.5,215.0,313.5,223.0,312.5,231.0,307.5,238.5,302.0,246.5,294.0,252.5,285.5,246.5,293.0,238.5,301.0,225.0,309.0" stroke="black" stroke-width="2" fill="none" />
<polyline points="222.5,335.0,207.5,343.0,201.5,351.0,198.5,359.0,196.0,367.0,193.0,375.0,190.0,382.5,186.5,390.0,190.5,380.0,198.0,360.5,206.0,344.5,214.0,338.5,221.5,335.0,229.5,334.0,238.0,334.0,246.0,336.0,253.5,342.0" stroke="black" stroke-width="2" fill="none" />
<polyline points="242.0,338.5,251.5,346.5,257.0,354.0,259.0,362.0,261.5,369.5,262.5,377.5,262.0,385.5" stroke="black" stroke-width="2" fill="none" />
<polyline points="251.0,346.0,243.0,340.0,235.0,338.0,227.5,337.5,219.5,339.5,212.0,343.0,203.5,353.5,195.5,374.5,188.5,393.5,191.5,386.0,194.0,378.0,197.0,370.5,199.5,362.5,202.5,354.5,207.5,346.5,221.5,338.5" stroke="black" stroke-width="2" fill="none" />
<polyline points="241.5,336.5,253.5,344.5" stroke="black" stroke-width="2" fill="none" />
<polyline points="267.0,277.5,241.0,279.0,215.5,279.5" stroke="black" stroke-width="2" fill="none" />
<polyline points="233.0,255.0,225.0,256.0,217.5,257.5,209.5,257.5,201.5,255.5,194.0,251.5,186.0,244.5,178.5,232.5" stroke="black" stroke-width="2" fill="none" />
<polyline points="177.0,228.5,180.0,236.5,185.0,244.0,194.0,251.5" stroke="black" stroke-width="2" fill="none" />
<polyline points="190.5,197.5,165.0,196.5" stroke="black" stroke-width="2" fill="none" />
<polyline points="165.0,196.0,173.5,192.0" stroke="black" stroke-width="2" fill="none" />
<polyline points="162.5,195.5,187.0,194.5,211.5,193.5,235.5,192.0" stroke="black" stroke-width="2" fill="none" />
<polyline points="225.0,177.0,233.0,159.0,241.0,144.0,249.5,135.0,257.5,130.0,265.5,135.0" stroke="black" stroke-width="2" fill="none" />
<polyline points="233.5,144.0,209.0,146.0" stroke="black" stroke-width="2" fill="none" />
<polyline points="198.0,165.0,190.0,163.0,181.5,175.0" stroke="black" stroke-width="2" fill="none" />
<polyline points="166.5,166.0,142.0,189.5" stroke="black" stroke-width="2" fill="none" />
<polyline points="132.0,178.0,124.0,175.0,116.0,172.0,108.0,169.5,100.0,167.0,92.0,165.0,83.5,163.0,76.0,162.5,68.0,160.0,60.0,158.0,52.5,157.5,44.5,156.0" stroke="black" stroke-width="2" fill="none" />
<polyline points="43.5,160.5,52.0,161.5,60.0,162.0,68.5,162.5,77.0,164.0,85.0,165.5,93.0,167.5,101.0,170.0,108.5,172.0,117.0,176.0,125.0,179.0,133.0,182.0,141.0,190.5,149.0,207.0,158.0,191.0,166.5,187.0,174.5,188.5" stroke="black" stroke-width="2" fill="none" />
<polyline points="187.0,193.0,195.0,188.0,199.5,197.0,207.5,197.0" stroke="black" stroke-width="2" fill="none" />
<polyline points="196.0,199.0,188.0,195.0" stroke="black" stroke-width="2" fill="none" />
<polyline points="187.5,197.0,197.5,204.5,202.0,212.5" stroke="black" stroke-width="2" fill="none" />
<polyline points="180.5,185.0,182.0,177.0,185.0,169.5,193.0,161.5" stroke="black" stroke-width="2" fill="none" />
<polyline points="187.5,137.0,195.5,123.5,203.5,115.5,201.5,116.5,194.5,124.5,190.5,132.5,187.5,141.0,185.0,149.5,187.0,133.5,195.0,115.0,203.0,101.5,211.0,90.0,219.0,83.5,227.0,78.5,235.0,74.5,243.0,71.0,250.5,69.0" stroke="black" stroke-width="2" fill="none" />
<polyline points="264.0,55.0,288.5,54.5,313.0,55.0" stroke="black" stroke-width="2" fill="none" />
<polyline points="307.0,43.0,283.5,45.5,259.0,46.5" stroke="black" stroke-width="2" fill="none" />
<polyline points="266.5,56.5,291.5,30.5" stroke="black" stroke-width="2" fill="none" />
<polyline points="279.0,33.0,289.0,41.5,299.0,49.5,308.0,57.5" stroke="black" stroke-width="2" fill="none" />
<polyline points="309.0,57.5,301.0,53.5,293.0,46.5,285.0,37.5,277.0,31.5" stroke="black" stroke-width="2" fill="none" />
<polyline points="276.0,31.5,282.0,39.5,290.0,47.0,299.5,55.0,312.5,63.0" stroke="black" stroke-width="2" fill="none" />
<polyline points="317.0,61.0,308.5,54.5,300.5,46.0,292.5,40.0,284.5,34.0,276.0,29.5" stroke="black" stroke-width="2" fill="none" />
<polyline points="264.5,10.0,238.0,34.5" stroke="black" stroke-width="2" fill="none" />
<polyline points="236.5,33.0,263.0,33.0" stroke="black" stroke-width="2" fill="none" />
<polyline points="262.5,21.5,238.5,21.5" stroke="black" stroke-width="2" fill="none" />
<polyline points="243.5,23.5,236.0,5.5" stroke="black" stroke-width="2" fill="none" />
<polyline points="237.5,4.0,251.0,12.5,264.0,20.0,281.0,28.0,294.0,36.5,305.0,44.5,315.0,53.0,324.0,61.0,331.0,69.0" stroke="black" stroke-width="2" fill="none" />
<polyline points="329.5,67.0,321.5,57.5,313.5,50.5,305.5,44.5,298.0,38.0,290.0,33.0,282.5,27.5,274.5,23.0,266.0,20.0,258.0,15.0,250.0,10.5,242.0,6.0,234.0,3.0" stroke="black" stroke-width="2" fill="none" />
<polyline points="235.0,40.5,243.0,41.0" stroke="black" stroke-width="2" fill="none" />
<polyline points="235.5,42.5,243.5,43.5,251.5,48.0" stroke="black" stroke-width="2" fill="none" />
<polyline points="233.5,115.5,225.5,117.0,222.0,122.5,228.5,114.5" stroke="black" stroke-width="2" fill="none" />
<polyline points="235.0,161.0,211.5,163.0,188.5,164.0,164.5,164.5,139.5,164.5,114.0,165.0" stroke="black" stroke-width="2" fill="none" />
<polyline points="117.5,173.0,136.5,181.0" stroke="black" stroke-width="2" fill="none" />
<polyline points="98.0,169.0,121.0,177.0,138.0,184.5,142.0,193.0,145.0,201.0,150.0,209.0,151.5,217.0,152.5,225.5,159.0,233.5,170.5,241.5,174.5,249.5,177.5,257.5,181.0,265.5,184.5,273.5,186.0,281.0,186.0,289.0,188.5,297.5,192.5,306.0,200.5,314.0" stroke="black" stroke-width="2" fill="none" />
<polyline points="143.5,281.0,119.0,305.0,92.5,329.5" stroke="black" stroke-width="2" fill="none" />
<polyline points="89.0,329.0,64.0,329.0" stroke="black" stroke-width="2" fill="none" />
<polyline points="60.5,339.5,59.5,343.5,51.0,348.5,52.0,336.5,59.0,329.0,63.0,320.5,57.0,329.5,47.0,338.5,39.0,343.0,44.5,339.0,45.5,329.0,48.5,321.0,42.5,312.5,47.0,304.5,41.0,307.5" stroke="black" stroke-width="2" fill="none" />
<polyline points="57.0,310.0,81.5,310.5" stroke="black" stroke-width="2" fill="none" />
<polyline points="79.0,313.5,54.5,338.0" stroke="black" stroke-width="2" fill="none" />
<polyline points="45.5,339.5,48.0,347.5,56.5,349.0" stroke="black" stroke-width="2" fill="none" />
<polyline points="59.5,349.5,53.5,354.5,46.0,354.0,38.0,349.0,29.5,345.0" stroke="black" stroke-width="2" fill="none" />
<polyline points="30.5,336.5,56.0,336.0,82.0,336.0,108.0,336.0" stroke="black" stroke-width="2" fill="none" />
<polyline points="110.0,339.5,85.0,363.0" stroke="black" stroke-width="2" fill="none" />
<polyline points="95.5,359.0,103.5,365.0,111.5,371.0,119.5,376.0,127.0,382.0,135.0,381.5,143.0,384.5,145.0,387.0" stroke="black" stroke-width="2" fill="none" />
<polyline points="144.5,393.0,137.0,394.0" stroke="black" stroke-width="2" fill="none" />
<polyline points="114.5,386.0,138.5,361.0" stroke="black" stroke-width="2" fill="none" />
<polyline points="136.0,367.0,111.5,366.5,86.5,366.5,62.0,368.0,38.5,368.5" stroke="black" stroke-width="2" fill="none" />
<polyline points="38.0,385.0,63.0,361.0" stroke="black" stroke-width="2" fill="none" />
<polyline points="64.5,354.5,60.5,362.5,59.0,370.5" stroke="black" stroke-width="2" fill="none" />
<polyline points="63.5,382.0,64.5,390.0" stroke="black" stroke-width="2" fill="none" />
<polyline points="62.0,382.5,70.0,380.5,78.0,378.5" stroke="black" stroke-width="2" fill="none" />
<polyline points="79.5,376.5,80.5,379.5,85.0,387.5" stroke="black" stroke-width="2" fill="none" />
<polyline points="88.5,388.5,113.0,364.5" stroke="black" stroke-width="2" fill="none" />
<polyline points="114.0,375.0,88.5,376.0" stroke="black" stroke-width="2" fill="none" />
<polyline points="93.5,386.0,94.5,394.0" stroke="black" stroke-width="2" fill="none" />
<polyline points="93.5,387.0,102.0,387.5,110.0,389.5" stroke="black" stroke-width="2" fill="none" />
<polyline points="95.0,357.5,103.0,358.5,110.5,357.0,118.5,352.0,127.0,342.0" stroke="black" stroke-width="2" fill="none" />
<polyline points="119.0,347.5,107.5,355.0" stroke="black" stroke-width="2" fill="none" />
<polyline points="96.5,353.5,104.5,343.0,112.0,337.0" stroke="black" stroke-width="2" fill="none" />
<polyline points="108.0,337.5,100.0,332.5" stroke="black" stroke-width="2" fill="none" />
<polyline points="99.0,332.0,106.5,316.5,114.5,309.5,122.0,308.0" stroke="black" stroke-width="2" fill="none" />
<polyline points="119.0,307.5,128.0,315.5,128.0,324.0" stroke="black" stroke-width="2" fill="none" />
<polyline points="132.0,308.0,107.5,308.0" stroke="black" stroke-width="2" fill="none" />
<polyline points="112.0,303.0,95.5,311.0" stroke="black" stroke-width="2" fill="none" />
<polyline points="86.0,299.5,60.0,300.5" stroke="black" stroke-width="2" fill="none" />
<polyline points="61.0,296.0,68.5,294.0,76.5,292.0,84.5,304.5,92.5,312.5,100.5,310.0,109.0,305.0,117.0,303.0,125.5,303.5" stroke="black" stroke-width="2" fill="none" />
<polyline points="121.5,303.5,129.5,311.5,132.0,319.5,131.0,328.0,129.0,336.0,125.5,344.5,118.5,352.5,109.0,355.5,117.0,350.0" stroke="black" stroke-width="2" fill="none" />
<polyline points="131.5,318.0,106.5,317.5,82.0,317.0,57.0,317.0" stroke="black" stroke-width="2" fill="none" />
<polyline points="65.0,317.0,65.5,325.5,62.5,333.5" stroke="black" stroke-width="2" fill="none" />
<polyline points="48.0,319.0,40.0,326.0" stroke="black" stroke-width="2" fill="none" />
<polyline points="46.5,324.0,38.5,335.0" stroke="black" stroke-width="2" fill="none" />
<polyline points="21.0,331.5,13.0,326.5" stroke="black" stroke-width="2" fill="none" />
<polyline points="11.5,325.5,20.0,326.5,28.0,331.5,36.0,329.5,43.0,315.0,51.0,308.0,59.0,305.0" stroke="black" stroke-width="2" fill="none" />
<polyline points="60.5,309.0,85.5,283.0" stroke="black" stroke-width="2" fill="none" />
<polyline points="75.0,290.5,81.0,299.0,86.0,306.5" stroke="black" stroke-width="2" fill="none" />
<polyline points="109.0,293.0,133.5,293.0" stroke="black" stroke-width="2" fill="none" />
<polyline points="117.5,306.5,107.5,314.5,102.0,322.0,99.0,330.5,101.0,338.5,98.0,350.5,94.0,359.5,104.0,367.5,116.0,375.5" stroke="black" stroke-width="2" fill="none" />
<polyline points="73.5,364.0,77.5,356.0,74.5,359.5,67.0,368.5,59.0,370.0,51.5,371.0,50.5,364.5,42.0,352.5,35.5,342.5,29.5,340.0,37.5,332.0,40.5,324.0,39.5,320.5,44.0,313.0,48.5,310.0,65.5,302.0,68.5,294.5,61.0,294.5" stroke="black" stroke-width="2" fill="none" />
<polyline points="13.0,323.5,20.0,331.5,25.0,340.0,27.0,348.0,34.0,356.0,43.0,364.0,40.5,372.5,35.5,380.5,29.0,388.5,28.0,390.5,35.5,380.0,45.0,360.5,54.0,369.5,61.5,365.5,69.0,354.5,77.0,351.5" stroke="black" stroke-width="2" fill="none" />
<polyline points="41.5,361.5,33.0,353.5,24.0,338.0,16.0,336.0,8.0,334.0" stroke="black" stroke-width="2" fill="none" />
<polyline points="6.0,333.0,14.0,334.0,22.5,335.5" stroke="black" stroke-width="2" fill="none" />
<polyline points="178.5,153.5,170.5,150.0,162.0,147.5,154.0,149.0,145.5,155.0,138.0,152.5,130.0,144.5,122.5,137.5,114.5,130.5,106.5,123.5,99.0,118.0,91.5,112.5,84.0,106.5,76.0,102.0,68.0,99.0" stroke="black" stroke-width="2" fill="none" />
<polyline points="69.0,98.0,75.0,105.5,86.5,113.5,97.5,122.0,108.0,129.5,117.0,137.5,125.5,145.5,133.5,154.0,140.0,162.0,139.0,170.0,138.0,178.0" stroke="black" stroke-width="2" fill="none" />
<polyline points="261.5,214.5,260.5,223.0,261.0,231.0" stroke="black" stroke-width="2" fill="none" />
<polyline points="376.5,128.0,384.5,116.0,392.5,108.5,400.5,102.5,408.5,97.0,416.5,91.0,424.5,87.0,432.5,82.5,440.5,78.5,448.0,76.0,456.0,73.0,464.0,71.0,472.5,68.5" stroke="black" stroke-width="2" fill="none" />
<polyline points="484.0,69.0,458.5,70.0,433.0,69.0,409.5,69.5" stroke="black" stroke-width="2" fill="none" />
<polyline points="415.5,77.0,439.0,76.0,462.0,74.5,486.5,72.5" stroke="black" stroke-width="2" fill="none" />
<polyline points="480.0,67.0,472.0,82.0" stroke="black" stroke-width="2" fill="none" />
<polyline points="353.5,92.5,350.0,84.5,347.0,76.5,344.5,68.0,343.5,60.0,341.5,52.0" stroke="black" stroke-width="2" fill="none" />
<polyline points="338.0,52.0,336.0,60.0,336.0,68.0" stroke="black" stroke-width="2" fill="none" />
</svg>