<svg xmlns="http://www.w3.org/2000/svg" version="1.1"><polyline points="194.0,8.5,194.0,16.5,192.0,25.0,191.0,33.0,191.5,40.5,190.0,48.5,189.0,57.0,189.5,65.0,190.5,73.0,192.5,75.5,192.5,83.0,192.5,91.0,193.5,99.5,195.5,107.5,196.5,116.0,198.0,125.0,201.5,133.0,204.5,141.0" stroke="black" stroke-width="2" fill="none" />
<polyline points="218.0,129.0,269.0,131.0" stroke="black" stroke-width="2" fill="none" />
<polyline points="278.0,133.5,228.0,184.5" stroke="black" stroke-width="2" fill="none" />
<polyline points="220.0,162.0,268.5,160.5" stroke="black" stroke-width="2" fill="none" />
<polyline points="239.0,169.0,240.0,165.0,237.0,157.0,237.0,148.5,228.5,137.5,228.5,129.5,228.0,121.5,229.0,113.0,231.0,105.0,234.0,97.0,234.5,90.0,237.5,82.0,240.5,74.0,243.5,66.0,248.5,64.5,243.5,65.5" stroke="black" stroke-width="2" fill="none" />
<polyline points="245.5,67.5,246.5,69.5,243.5,77.5,241.0,85.0,239.5,93.0,238.0,100.5,236.0,108.5,235.0,117.0,235.0,125.0,235.0,133.0,236.0,146.5,243.5,146.0,251.5,143.0,259.5,143.0,267.0,142.5,275.0,142.5,282.5,142.5,290.5,143.0,298.5,146.0,306.5,145.0,314.5,148.0,322.5,149.0,331.0,151.5,339.0,154.5,346.5,157.5,354.5,159.5,362.5,164.0,370.5,167.0,378.0,172.0,386.0,177.0,393.5,182.0,402.0,186.0,410.5,194.0,418.5,199.0,427.0,207.5,435.0,215.5,443.0,227.0,451.0,237.0" stroke="black" stroke-width="2" fill="none" />
<polyline points="421.0,275.0,372.0,326.5" stroke="black" stroke-width="2" fill="none" />
<polyline points="366.5,334.0,416.5,332.5,469.0,331.5" stroke="black" stroke-width="2" fill="none" />
<polyline points="471.0,372.0,419.0,372.5" stroke="black" stroke-width="2" fill="none" />
<polyline points="398.5,387.5,399.5,395.5,401.0,403.5,401.0,411.5,400.0,419.5,396.5,427.5,394.5,435.5" stroke="black" stroke-width="2" fill="none" />
<polyline points="399.0,441.0,397.0,443.0,389.5,444.0,381.5,447.0,373.5,451.0,365.5,460.5,365.5,455.0,361.5,447.0,353.5,439.0,346.5,430.5,343.0,422.0,341.0,414.0,337.5,405.5,335.5,397.0,332.5,388.5,331.5,380.5,329.0,372.5,328.5,364.5,328.5,356.5,325.0,349.0,325.0,341.0,326.0,333.0,328.0,325.0,329.0,317.0,333.0,309.0,338.0,301.0,343.0,293.0,346.5,285.5,346.5,277.0,346.5,269.0,346.5,261.0,347.0,253.0,347.0,245.0,344.5,237.0,345.5,229.0,341.5,226.5" stroke="black" stroke-width="2" fill="none" />
<polyline points="342.5,227.5,347.5,229.5,348.0,237.5,352.0,244.5,352.5,252.5,355.5,260.5,354.0,268.5,354.0,277.0,352.5,285.5,352.5,293.5,342.5,305.5,338.5,313.5,335.0,321.5,333.0,329.0,332.0,337.0,332.0,345.0,332.0,353.0,333.0,361.0,335.0,363.5" stroke="black" stroke-width="2" fill="none" />
<polyline points="346.0,341.5,339.0,350.0,337.0,358.0,344.0,345.0,352.0,341.0,359.5,344.5,367.5,352.5,375.0,363.0" stroke="black" stroke-width="2" fill="none" />
<polyline points="374.0,386.5,324.0,434.0" stroke="black" stroke-width="2" fill="none" />
<polyline points="317.0,413.5,364.5,412.0" stroke="black" stroke-width="2" fill="none" />
<polyline points="348.0,429.0,356.0,439.0,364.5,447.5" stroke="black" stroke-width="2" fill="none" />
<polyline points="375.0,450.0,368.5,458.0" stroke="black" stroke-width="2" fill="none" />
<polyline points="360.0,471.5,359.0,479.5,363.5,480.5,363.5,488.5,366.5,496.5,369.0,504.5" stroke="black" stroke-width="2" fill="none" />
<polyline points="365.0,508.5,316.5,510.0,269.0,509.5" stroke="black" stroke-width="2" fill="none" />
<polyline points="265.5,515.5,315.5,463.5" stroke="black" stroke-width="2" fill="none" />
<polyline points="324.5,473.5,313.5,482.0,308.5,490.0,305.0,500.0,308.0,507.5,308.0,515.5,309.5,523.5" stroke="black" stroke-width="2" fill="none" />
<polyline points="311.5,514.0,311.5,506.0" stroke="black" stroke-width="2" fill="none" />
<polyline points="312.5,506.0,320.5,514.5,328.0,516.5,336.0,516.5,344.0,516.0,352.0,511.0,360.0,503.5,357.0,506.5,350.5,514.5" stroke="black" stroke-width="2" fill="none" />
<polyline points="361.0,498.5,369.0,503.0" stroke="black" stroke-width="2" fill="none" />
<polyline points="375.0,478.0,327.0,527.5" stroke="black" stroke-width="2" fill="none" />
<polyline points="338.0,550.5,330.0,549.0,321.5,549.5,313.5,551.5,305.5,554.5,297.5,555.0,289.5,557.0,281.5,558.0,274.0,561.5,266.0,560.5,261.5,558.0,253.5,558.5,245.0,556.0,237.0,550.0,229.0,542.0" stroke="black" stroke-width="2" fill="none" />
<polyline points="222.0,542.0,230.0,553.0" stroke="black" stroke-width="2" fill="none" />
<polyline points="210.0,550.5,262.5,548.5,315.0,549.5,366.5,549.5" stroke="black" stroke-width="2" fill="none" />
<polyline points="365.5,550.0,367.5,544.0,376.0,537.0,384.0,533.0,392.0,527.5,400.0,525.0,408.5,520.0,416.5,516.0,424.5,509.0,433.0,504.5,441.0,495.5,449.0,483.5" stroke="black" stroke-width="2" fill="none" />
<polyline points="420.5,472.5,470.5,426.5" stroke="black" stroke-width="2" fill="none" />
<polyline points="470.5,446.5,422.5,446.0" stroke="black" stroke-width="2" fill="none" />
<polyline points="428.0,432.0,431.0,440.0,440.0,448.0,445.0,456.0,447.0,464.0,449.0,472.0,449.0,479.5,445.5,487.0,439.5,494.5,432.5,502.0,421.5,510.0,408.5,518.5" stroke="black" stroke-width="2" fill="none" />
<polyline points="387.5,535.0,377.0,543.5,375.5,551.5,374.5,559.5,374.5,568.0,373.0,577.0,381.5,577.5,389.5,584.5,397.5,594.5,405.5,607.5,414.0,624.0" stroke="black" stroke-width="2" fill="none" />
<polyline points="420.0,629.0,372.0,677.5" stroke="black" stroke-width="2" fill="none" />
<polyline points="357.5,674.5,365.5,682.5,374.0,693.5,382.5,700.5" stroke="black" stroke-width="2" fill="none" />
<polyline points="390.5,708.0,397.5,716.5" stroke="black" stroke-width="2" fill="none" />
<polyline points="385.5,712.0,393.5,709.0,401.5,714.0,409.5,718.0,417.0,723.0,425.0,723.0,433.0,722.0,440.5,715.0,448.5,715.0,457.0,708.0,449.0,710.0,445.0,710.5,447.5,701.5,455.5,701.5" stroke="black" stroke-width="2" fill="none" />
<polyline points="456.5,685.5,448.5,685.5" stroke="black" stroke-width="2" fill="none" />
<polyline points="444.5,681.0,452.5,678.0" stroke="black" stroke-width="2" fill="none" />
<polyline points="453.5,688.5,448.0,696.0,440.5,692.0" stroke="black" stroke-width="2" fill="none" />
<polyline points="438.5,687.5,440.0,686.5,442.0,694.5,440.0,703.5,437.0,711.0" stroke="black" stroke-width="2" fill="none" />
<polyline points="437.5,675.5,445.5,673.5" stroke="black" stroke-width="2" fill="none" />
<polyline points="435.5,672.0,443.5,670.0,451.5,669.0,458.0,677.0,461.0,685.0,462.0,693.0,461.0,701.0,457.5,709.0" stroke="black" stroke-width="2" fill="none" />
<polyline points="475.0,683.0,421.5,685.0,370.0,685.5,319.5,684.0,268.5,682.5,217.0,684.0" stroke="black" stroke-width="2" fill="none" />
<polyline points="217.5,678.5,225.5,686.5,232.5,693.5,240.5,698.5,249.5,700.0" stroke="black" stroke-width="2" fill="none" />
<polyline points="268.5,708.0,217.5,709.0" stroke="black" stroke-width="2" fill="none" />
<polyline points="214.0,718.0,265.5,667.0" stroke="black" stroke-width="2" fill="none" />
<polyline points="280.0,665.5,271.0,673.5,265.0,682.0,262.5,690.5,259.5,699.0,258.5,707.5,258.5,715.5,260.0,723.5,261.0,731.5,262.0,739.5,253.0,744.5,253.0,752.5,256.0,761.0" stroke="black" stroke-width="2" fill="none" />
<polyline points="254.5,758.5,262.5,765.5,270.5,768.5,278.5,770.5,286.5,767.5,289.0,762.5" stroke="black" stroke-width="2" fill="none" />
<polyline points="299.5,769.5,301.5,778.0,296.0,787.0,292.0,795.5,287.0,803.5,283.0,812.0,277.0,819.5,271.0,827.5,266.5,835.0,262.5,843.0,262.5,851.0,265.5,860.0,269.0,868.5,275.0,876.5,283.0,884.5,292.5,892.5" stroke="black" stroke-width="2" fill="none" />
<polyline points="273.0,871.5,322.0,820.5" stroke="black" stroke-width="2" fill="none" />
<polyline points="330.0,782.5,338.0,774.5,346.0,766.5" stroke="black" stroke-width="2" fill="none" />
<polyline points="365.0,739.0,314.0,737.5,265.5,737.0" stroke="black" stroke-width="2" fill="none" />
<polyline points="273.5,751.0,284.5,757.0,289.0,764.0,291.0,768.0,291.0,768.0,299.5,767.0,304.5,767.5,312.5,767.5,321.0,766.5,329.0,764.0,337.0,761.0,350.5,757.0,358.5,751.0,366.5,743.0,374.5,735.5,382.5,720.5" stroke="black" stroke-width="2" fill="none" />
<polyline points="371.5,726.5,363.5,736.5,355.5,744.5,347.5,748.5,339.5,755.0,331.5,758.0,323.5,758.5,315.5,760.5,307.5,760.5,299.5,760.5,291.5,758.5,283.0,755.0,275.0,755.0" stroke="black" stroke-width="2" fill="none" />
<polyline points="268.5,769.5,219.5,818.5,171.5,866.0,122.5,914.5" stroke="black" stroke-width="2" fill="none" />
<polyline points="173.0,914.0,223.5,864.0,274.5,812.5" stroke="black" stroke-width="2" fill="none" />
<polyline points="265.5,815.0,212.0,814.0" stroke="black" stroke-width="2" fill="none" />
<polyline points="217.5,788.0,266.5,788.5" stroke="black" stroke-width="2" fill="none" />
<polyline points="274.5,779.5,270.5,787.5,265.5,795.5,261.5,803.5,255.5,811.5,251.0,819.5,248.0,827.5,243.0,835.5,239.0,843.5,236.0,851.0,232.0,859.0,228.0,867.0,222.5,875.0,216.0,883.0,206.0,888.0" stroke="black" stroke-width="2" fill="none" />
<polyline points="215.0,910.5,166.5,910.0,119.5,910.5,73.5,913.0,28.0,912.0" stroke="black" stroke-width="2" fill="none" />
<polyline points="26.0,902.0,34.0,909.0,42.5,913.5,50.5,917.5,58.5,919.0,66.5,921.0,74.5,921.0,82.5,920.5,90.5,920.0,98.5,920.0,106.5,918.0,114.5,916.5,122.5,916.5,130.5,913.5,138.5,911.5,146.5,910.5,154.5,907.5,162.5,905.5,170.5,903.5,178.5,901.5,186.5,895.5,194.5,893.0,202.5,889.0,210.5,883.0,219.0,878.5,227.0,868.5" stroke="black" stroke-width="2" fill="none" />
<polyline points="221.5,880.5,174.5,884.5,127.0,886.0,77.0,886.0,27.0,887.5" stroke="black" stroke-width="2" fill="none" />
<polyline points="14.5,909.5,63.5,857.5,112.5,806.5" stroke="black" stroke-width="2" fill="none" />
<polyline points="91.0,814.5,141.0,809.5" stroke="black" stroke-width="2" fill="none" />
<polyline points="173.0,829.0,123.0,876.0,71.5,925.5" stroke="black" stroke-width="2" fill="none" />
<polyline points="29.5,867.0,82.0,817.5,131.0,768.5" stroke="black" stroke-width="2" fill="none" />
<polyline points="82.5,774.0,134.0,775.0,182.5,779.0" stroke="black" stroke-width="2" fill="none" />
<polyline points="247.5,737.0,253.5,740.0,261.0,740.0" stroke="black" stroke-width="2" fill="none" />
<polyline points="306.0,770.5,314.0,773.5,322.0,773.0,330.0,772.5,337.5,769.5" stroke="black" stroke-width="2" fill="none" />
<polyline points="380.5,827.5,329.5,877.5" stroke="black" stroke-width="2" fill="none" />
<polyline points="335.0,886.5,386.5,886.5,438.0,887.5,488.0,889.5,536.5,892.5" stroke="black" stroke-width="2" fill="none" />
<polyline points="524.0,875.0,475.5,922.0" stroke="black" stroke-width="2" fill="none" />
<polyline points="478.5,906.5,425.5,909.5,374.0,913.0,323.5,916.5" stroke="black" stroke-width="2" fill="none" />
<polyline points="379.5,928.5,429.0,879.5,481.0,831.5" stroke="black" stroke-width="2" fill="none" />
<polyline points="528.0,830.0,478.0,879.5,426.0,928.0" stroke="black" stroke-width="2" fill="none" />
<polyline points="449.5,921.5,457.5,920.5,465.5,918.0,473.0,915.0,480.5,912.5,488.5,906.5,496.0,902.5,504.0,890.5" stroke="black" stroke-width="2" fill="none" />
<polyline points="513.0,876.0,510.0,884.0,505.0,892.5,498.0,900.5,484.5,909.0" stroke="black" stroke-width="2" fill="none" />
<polyline points="422.0,821.0,370.5,870.5,320.5,920.5" stroke="black" stroke-width="2" fill="none" />
<polyline points="266.0,870.5,316.0,867.5,369.0,866.0,422.0,866.0,473.0,866.0,526.0,866.0" stroke="black" stroke-width="2" fill="none" />
<polyline points="535.0,831.5,487.5,833.5,439.5,831.5,387.5,830.5,333.5,830.0,280.5,827.0,228.0,828.5,174.5,831.0,123.0,831.5,73.0,830.5,21.0,831.0" stroke="black" stroke-width="2" fill="none" />
<polyline points="23.5,860.0,73.5,856.0,122.5,853.0,172.5,851.5,224.0,852.0" stroke="black" stroke-width="2" fill="none" />
<polyline points="238.0,850.0,246.0,835.0,253.5,817.5,261.5,805.5,269.5,789.0,277.5,779.5,282.5,774.0" stroke="black" stroke-width="2" fill="none" />
<polyline points="294.0,791.0,285.5,806.0,278.0,817.0,270.0,828.0,262.0,843.0" stroke="black" stroke-width="2" fill="none" />
<polyline points="268.5,866.5,276.5,878.0,285.0,886.0,293.0,890.5,300.5,895.5,308.5,900.5,316.5,904.5,325.0,907.5,333.5,910.5,342.0,913.0,350.0,914.0,357.5,916.5,365.5,919.5,373.0,919.5,381.0,921.0" stroke="black" stroke-width="2" fill="none" />
<polyline points="216.0,800.0,226.5,792.5,234.5,785.0,240.5,777.0,247.0,769.0,250.0,761.0,247.0,753.0,246.5,744.5,250.5,735.5,255.0,727.5,252.0,719.0,252.5,711.0,252.5,703.5,252.5,695.5,255.0,687.0,259.0,679.0,259.0,671.0,255.0,663.0,252.5,655.5,247.5,648.0,243.5,640.5,235.5,632.5,229.5,624.0,225.0,616.0,222.0,607.5,216.0,607.5" stroke="black" stroke-width="2" fill="none" />
<polyline points="214.5,598.5,222.5,589.5,219.5,594.0,214.5,603.0,209.5,609.5,207.5,616.0,206.5,624.0,206.0,632.0,207.0,634.0,206.0,642.5,206.5,650.5,209.5,658.5,210.0,665.5,214.0,672.5,220.5,680.5,226.5,689.5" stroke="black" stroke-width="2" fill="none" />
<polyline points="218.5,668.5,226.5,679.5,234.5,686.0,242.5,692.0,250.0,695.0,258.0,685.0" stroke="black" stroke-width="2" fill="none" />
<polyline points="266.0,683.5,274.0,674.0,282.0,667.5,290.0,664.0,298.0,663.0" stroke="black" stroke-width="2" fill="none" />
<polyline points="309.0,665.5,314.0,657.5,316.5,649.5,317.5,641.5,321.0,633.5,321.5,625.5,321.0,617.5,323.0,609.5,324.0,602.0,327.5,594.0,332.5,586.0,328.0,584.0,320.0,596.0" stroke="black" stroke-width="2" fill="none" />
<polyline points="327.5,590.5,335.5,584.5,343.0,584.5,351.0,587.5,359.5,599.0" stroke="black" stroke-width="2" fill="none" />
<polyline points="376.5,601.5,376.5,601.0,379.5,609.0,381.5,617.0,384.0,625.5" stroke="black" stroke-width="2" fill="none" />
<polyline points="398.0,616.5,390.5,598.5,382.5,589.5" stroke="black" stroke-width="2" fill="none" />
<polyline points="382.0,590.0,384.0,598.0,387.5,605.5,389.5,613.5,392.5,621.5,392.0,629.0,392.0,637.5,392.0,646.0,389.0,648.0" stroke="black" stroke-width="2" fill="none" />
<polyline points="403.0,653.0,410.5,662.5,418.5,672.5" stroke="black" stroke-width="2" fill="none" />
<polyline points="421.5,666.5,433.5,655.5,441.5,662.5,449.5,665.5" stroke="black" stroke-width="2" fill="none" />
<polyline points="413.5,658.5,365.0,659.0" stroke="black" stroke-width="2" fill="none" />
<polyline points="344.0,640.5,348.0,648.5,347.0,657.0,352.0,665.0,358.5,673.0,366.0,681.5,371.0,689.5,380.0,697.5,382.5,706.5,378.5,715.0,376.0,723.0,371.0,731.0,364.0,739.0,352.5,747.5,338.5,755.5" stroke="black" stroke-width="2" fill="none" />
<polyline points="395.0,703.5,403.0,711.5,412.0,722.5" stroke="black" stroke-width="2" fill="none" />
<polyline points="409.5,686.0,401.5,676.0" stroke="black" stroke-width="2" fill="none" />
<polyline points="404.0,661.5,410.0,669.5,416.5,677.5,418.5,685.5" stroke="black" stroke-width="2" fill="none" />
<polyline points="416.5,677.5,408.5,666.0,401.0,660.0" stroke="black" stroke-width="2" fill="none" />
<polyline points="408.5,658.5,416.5,667.0,420.0,675.0" stroke="black" stroke-width="2" fill="none" />
<polyline points="427.5,647.0,419.0,634.0" stroke="black" stroke-width="2" fill="none" />
<polyline points="423.5,632.0,376.0,634.0,325.5,635.5" stroke="black" stroke-width="2" fill="none" />
<polyline points="339.5,637.0,347.0,647.0,347.0,655.5,355.0,660.0,363.0,670.0,371.0,682.0,379.0,690.0,387.0,697.0,395.0,703.0,403.0,710.0,410.5,715.0,418.5,718.0,426.5,719.0,434.5,715.0,442.5,700.0,450.5,699.0,452.5,694.0" stroke="black" stroke-width="2" fill="none" />
<polyline points="427.0,639.5,419.0,622.5,410.5,606.5,408.5,598.0,400.5,586.0,392.5,579.0,385.0,574.5,377.0,569.5" stroke="black" stroke-width="2" fill="none" />
<polyline points="387.0,575.0,395.0,583.0,404.0,591.0,406.5,600.0,412.0,609.5,415.0,617.5,418.5,625.5,423.5,634.0,426.5,642.0,430.5,650.0,435.5,657.5,435.5,671.5,429.5,677.0,433.0,681.5,440.5,680.0,448.5,675.0,455.5,674.0" stroke="black" stroke-width="2" fill="none" />
<polyline points="386.0,627.0,384.0,619.0,381.0,611.0,377.5,603.0" stroke="black" stroke-width="2" fill="none" />
<polyline points="383.5,591.0,388.5,599.0,393.5,607.0,397.0,614.5,400.0,621.5,399.5,629.5,400.0,637.5,400.0,646.5,402.0,654.5,401.0,663.0,403.5,671.0,407.0,679.0,413.0,686.5" stroke="black" stroke-width="2" fill="none" />
<polyline points="341.5,639.0,339.0,641.0,342.0,648.5,352.0,656.0,358.0,664.0,364.0,672.5,370.5,680.5,378.5,689.0,388.0,697.0,385.0,704.0,387.5,712.0,385.0,720.0,380.0,728.0,374.5,736.5,366.5,744.5,355.5,752.5,348.0,760.0,345.0,768.0,337.0,776.0,330.0,784.5,326.0,792.5,323.0,801.5,320.0,809.5,320.0,818.0,321.0,826.0,327.5,829.5,335.5,829.5,343.5,828.5,351.5,826.5,359.5,825.5,367.5,822.5,375.5,819.5,383.5,816.0,391.0,813.0,397.5,811.5,405.5,808.5,413.0,805.5,421.0,804.5,429.0,800.5,437.0,800.0,444.5,798.0,453.0,797.0,461.5,798.0,467.0,800.0,475.0,801.0,483.0,805.0,491.0,811.0,500.0,817.0,499.0,819.0,504.5,827.0,506.5,835.0,507.5,843.0,511.0,852.5" stroke="black" stroke-width="2" fill="none" />
<polyline points="420.0,574.0,371.0,575.5,322.0,576.5" stroke="black" stroke-width="2" fill="none" />
<polyline points="316.5,560.5,326.0,568.5,334.0,576.0,326.5,583.5,322.0,591.5,320.5,599.0,317.5,608.5,317.5,616.5,315.5,625.0,314.5,633.0,314.0,641.5,311.5,649.0,305.5,662.5,301.5,666.5,305.5,668.0" stroke="black" stroke-width="2" fill="none" />
<polyline points="280.5,659.0,269.5,667.5" stroke="black" stroke-width="2" fill="none" />
<polyline points="259.0,642.5,207.0,641.5" stroke="black" stroke-width="2" fill="none" />
<polyline points="213.5,617.0,216.5,600.5,217.5,611.5,214.0,619.0,213.5,627.0,209.5,635.0,211.0,642.5,215.0,649.5,217.0,658.0,218.5,666.0,223.5,674.5,231.5,682.0" stroke="black" stroke-width="2" fill="none" />
<polyline points="243.5,631.5,235.5,623.5" stroke="black" stroke-width="2" fill="none" />
<polyline points="225.0,620.5,233.0,630.5,241.5,639.0,249.5,641.0,257.5,652.0" stroke="black" stroke-width="2" fill="none" />
<polyline points="305.5,658.0,297.5,658.0,289.5,657.5,280.5,660.0,272.5,666.0,264.5,672.5,262.0,667.5,260.0,659.0,258.5,651.0,253.5,646.0,248.0,638.0,244.0,630.0,236.0,621.5,231.5,614.0,228.5,606.0,225.0,598.5,225.0,590.5" stroke="black" stroke-width="2" fill="none" />
<polyline points="235.5,557.5,226.0,549.5,222.0,542.0,218.5,534.0,216.5,525.5,211.0,517.5" stroke="black" stroke-width="2" fill="none" />
<polyline points="215.5,512.5,207.0,508.5,199.0,507.0,191.0,503.0,183.5,500.0,175.5,495.0,167.5,489.0,159.0,485.0,151.0,479.5,143.0,473.5,135.0,466.0,127.0,456.0,119.0,448.0,111.0,437.5,103.0,427.5,95.0,416.5" stroke="black" stroke-width="2" fill="none" />
<polyline points="87.0,409.5,138.5,358.0" stroke="black" stroke-width="2" fill="none" />
<polyline points="120.0,347.5,128.0,354.0,136.0,359.5,144.0,361.5,152.0,366.5,160.0,366.5,168.0,365.5,176.0,366.0,180.5,369.5,180.5,378.0,182.0,386.5,182.0,394.0,185.0,401.5,186.0,409.0,189.0,417.0,192.0,425.0,195.0,433.0,201.5,441.0,206.5,448.5,210.5,456.5,222.5,465.0,228.5,473.0,236.5,482.5" stroke="black" stroke-width="2" fill="none" />
<polyline points="238.5,494.0,246.5,491.5,254.5,488.5,262.5,487.5,270.5,485.5,278.5,485.5" stroke="black" stroke-width="2" fill="none" />
<polyline points="294.5,489.0,301.5,497.0,302.5,495.0" stroke="black" stroke-width="2" fill="none" />
<polyline points="295.5,488.5,303.5,491.0,311.0,486.0,319.0,478.0,326.5,472.0,334.5,469.5,342.5,472.5,350.5,473.5,358.5,478.5" stroke="black" stroke-width="2" fill="none" />
<polyline points="380.5,534.0,371.5,542.0,363.5,550.0,368.0,553.0,368.0,560.5,371.0,568.5,372.5,576.5,378.5,577.5,384.0,580.5,394.0,589.0,400.0,597.5,404.0,605.0,407.0,612.5,412.0,620.5,416.0,628.5,419.0,636.5,424.0,644.5,428.0,653.0,428.5,661.5,422.5,670.0,428.0,675.5,425.0,683.0,423.0,690.5,421.0,698.0" stroke="black" stroke-width="2" fill="none" />
<polyline points="416.0,696.5,410.5,688.5,405.5,680.5,398.5,673.0,395.0,665.0,388.5,657.0,385.5,649.5,380.5,642.0,376.5,634.0,373.0,626.0,370.5,618.0,367.5,609.5,362.5,601.5,358.5,593.0,348.5,585.0" stroke="black" stroke-width="2" fill="none" />
<polyline points="353.5,581.0,361.5,589.0,366.0,597.0,370.0,605.0,373.0,613.0,377.0,621.0,381.0,629.0,384.0,637.0,388.0,645.5,391.0,653.5,394.0,668.5,405.5,675.5,413.5,686.5" stroke="black" stroke-width="2" fill="none" />
<polyline points="378.5,542.0,386.5,537.0,394.5,531.0,402.5,528.5,410.5,525.5,419.0,520.5,426.5,517.0,434.0,510.0,442.0,501.5,449.5,494.5" stroke="black" stroke-width="2" fill="none" />
<polyline points="469.0,478.0,418.5,479.5,370.0,477.5,319.5,475.5,268.0,473.5,215.5,473.5,165.5,476.0" stroke="black" stroke-width="2" fill="none" />
<polyline points="213.5,470.0,265.0,471.0" stroke="black" stroke-width="2" fill="none" />
<polyline points="246.5,475.0,238.0,466.0" stroke="black" stroke-width="2" fill="none" />
<polyline points="215.5,475.5,265.5,425.5" stroke="black" stroke-width="2" fill="none" />
<polyline points="225.0,419.5,278.5,368.0" stroke="black" stroke-width="2" fill="none" />
<polyline points="247.0,383.5,239.0,381.5,231.5,383.0,223.5,394.0" stroke="black" stroke-width="2" fill="none" />
<polyline points="234.5,379.0,226.5,387.5,223.5,395.5,222.5,403.5,223.5,412.0,222.5,420.5,223.0,428.5,225.0,434.5,228.0,441.5,230.5,450.0,233.5,457.5,237.5,465.5,242.5,473.5,251.5,481.5" stroke="black" stroke-width="2" fill="none" />
<polyline points="223.0,464.0,214.0,457.5,212.5,451.5,207.5,444.0,201.5,441.0,193.5,427.0" stroke="black" stroke-width="2" fill="none" />
<polyline points="222.5,419.5,272.0,421.0" stroke="black" stroke-width="2" fill="none" />
<polyline points="259.5,379.0,251.0,369.0,243.0,359.0,234.5,351.0,226.5,344.0,218.0,341.0,210.0,338.5,202.0,339.0,194.0,334.0,186.0,328.0,178.0,319.0" stroke="black" stroke-width="2" fill="none" />
<polyline points="171.5,317.0,179.0,328.0,187.0,335.5,195.0,339.5" stroke="black" stroke-width="2" fill="none" />
<polyline points="188.0,339.5,181.0,331.5,173.0,323.0,169.0,314.5,166.0,306.0,163.0,299.0,162.0,290.5,162.5,282.5,162.5,282.5" stroke="black" stroke-width="2" fill="none" />
<polyline points="166.5,282.0,168.0,290.0,171.0,297.5,173.0,305.5,177.0,314.0,182.5,322.0,188.5,330.0" stroke="black" stroke-width="2" fill="none" />
<polyline points="183.0,349.0,174.5,347.0,166.5,344.0,158.5,340.0,151.0,332.5,142.5,326.0,138.5,310.5,130.5,305.5" stroke="black" stroke-width="2" fill="none" />
<polyline points="135.0,302.0,139.0,310.0,144.0,318.5,150.5,327.0,158.5,334.5" stroke="black" stroke-width="2" fill="none" />
<polyline points="141.0,317.5,149.5,326.5,157.5,333.5,165.5,338.5,173.5,341.5,181.0,344.5,189.0,344.5,196.5,347.5,189.5,355.5,188.0,363.5,186.0,371.5,186.0,379.5,188.0,384.0,188.0,391.5,188.5,399.5,191.5,408.0,193.5,415.5,196.5,423.5,200.5,432.0,205.5,440.0,209.5,448.0,213.5,455.0,216.5,463.0,222.0,468.0,228.0,476.0,237.0,484.0,238.0,492.0,235.5,495.0,243.5,488.0,251.5,485.5" stroke="black" stroke-width="2" fill="none" />
<polyline points="218.5,511.5,219.5,519.5,222.5,527.0,226.5,535.0,232.0,542.5,240.5,550.5,239.5,559.0,241.0,561.0,248.5,565.5,256.5,565.5,263.0,568.5,271.0,568.5,279.0,566.5,287.5,565.5,295.5,565.0,303.5,563.0,311.5,560.0,318.5,562.0,326.0,566.5,334.0,574.5,344.5,577.5,352.5,580.5,360.5,587.5,368.5,602.5" stroke="black" stroke-width="2" fill="none" />
<polyline points="337.0,568.0,329.5,559.0" stroke="black" stroke-width="2" fill="none" />
<polyline points="325.0,557.5,333.0,554.5" stroke="black" stroke-width="2" fill="none" />
<polyline points="329.5,554.0,329.5,562.0,335.5,569.5,342.0,578.0" stroke="black" stroke-width="2" fill="none" />
<polyline points="213.0,516.0,205.0,515.0,196.5,512.0,188.5,508.0,179.5,503.0,171.5,499.0,163.5,496.5,155.5,490.5,147.5,485.5,140.0,478.5,132.0,470.5,123.5,463.5,119.5,456.5,111.5,449.0,103.5,441.5,95.5,430.5,87.5,416.5,79.5,402.5" stroke="black" stroke-width="2" fill="none" />
<polyline points="69.5,408.5,120.0,407.0" stroke="black" stroke-width="2" fill="none" />
<polyline points="126.5,423.5,175.5,424.0,224.0,425.0,273.0,427.5,324.0,432.0,376.0,434.5,423.0,435.0,471.0,431.5" stroke="black" stroke-width="2" fill="none" />
<polyline points="435.5,434.0,427.5,430.0" stroke="black" stroke-width="2" fill="none" />
<polyline points="399.5,429.0,400.0,421.0" stroke="black" stroke-width="2" fill="none" />
<polyline points="376.5,374.5,325.5,377.5,272.5,379.5,219.5,384.5,167.5,385.5,115.0,384.0,63.5,385.5" stroke="black" stroke-width="2" fill="none" />
<polyline points="73.0,348.5,124.5,346.5,175.0,338.5,225.5,332.5,275.5,329.5,325.0,327.5" stroke="black" stroke-width="2" fill="none" />
<polyline points="332.5,313.0,340.5,302.0,346.5,304.0,354.5,301.5,362.5,302.5,370.0,308.0,378.0,314.5" stroke="black" stroke-width="2" fill="none" />
<polyline points="370.0,311.5,421.0,308.0" stroke="black" stroke-width="2" fill="none" />
<polyline points="384.5,313.0,376.5,302.0" stroke="black" stroke-width="2" fill="none" />
<polyline points="360.5,296.5,368.5,299.5,376.5,291.5,384.5,281.0" stroke="black" stroke-width="2" fill="none" />
<polyline points="401.5,234.0,393.5,225.5,385.5,221.5" stroke="black" stroke-width="2" fill="none" />
<polyline points="387.0,224.5,397.0,232.0,401.5,239.5,400.5,247.0,396.5,254.5,393.5,262.5,390.5,270.0,387.0,278.0,379.0,286.0,372.0,294.0,380.0,293.5,388.0,282.5" stroke="black" stroke-width="2" fill="none" />
<polyline points="401.5,228.0,393.5,222.0,386.0,217.5" stroke="black" stroke-width="2" fill="none" />
<polyline points="394.0,223.0,406.5,228.0,406.5,236.0,403.5,243.0,404.0,250.5,401.5,258.5,397.5,266.5,394.5,274.5,389.5,282.5,384.5,290.0,376.5,298.0,379.5,306.5,384.5,314.0,388.0,322.0,391.0,330.0,394.0,338.0,397.0,346.5,397.0,354.5,401.0,363.0,400.5,371.0,401.5,379.0,404.5,387.0,403.5,395.0,403.5,402.5" stroke="black" stroke-width="2" fill="none" />
<polyline points="396.0,391.5,395.0,384.0,395.0,376.0,393.5,370.5,392.5,362.5,390.5,354.5,389.5,346.0,386.5,337.5,384.0,328.5,379.0,320.0,375.5,311.0,366.5,303.5,365.5,289.5,370.5,281.0,375.5,273.0,376.5,265.0,379.5,257.0,383.0,249.0,382.0,240.5,385.0,232.0,386.0,224.5,386.0,217.5,383.5,209.5,374.5,214.5,366.0,215.5" stroke="black" stroke-width="2" fill="none" />
<polyline points="366.5,217.5,374.5,218.5,378.5,222.5,378.0,231.0,378.0,239.5,376.5,247.5,375.0,256.0,372.0,264.0,369.0,272.0,365.5,280.5,359.5,288.5,352.5,296.5,361.0,294.5,369.0,284.5" stroke="black" stroke-width="2" fill="none" />
<polyline points="352.0,341.5,365.0,349.0,372.0,356.5,376.5,364.5,379.5,372.0,383.0,380.0,384.5,388.0,387.0,396.0,387.5,404.0,386.5,411.5,386.0,419.5,387.0,427.5,383.0,436.0,390.5,438.5" stroke="black" stroke-width="2" fill="none" />
<polyline points="256.0,386.0,248.0,374.5,240.5,362.5,232.0,355.0,224.0,350.0,215.5,345.0,208.0,344.0,200.0,344.0,192.0,350.0,180.5,359.0,172.5,359.5,164.5,359.0,156.5,359.0,148.5,358.5,140.5,356.0,132.0,351.0,124.0,345.0,116.0,342.0,116.0,344.0" stroke="black" stroke-width="2" fill="none" />
<polyline points="115.5,325.5,117.5,317.5,121.5,309.5,130.5,303.0,123.0,306.0" stroke="black" stroke-width="2" fill="none" />
<polyline points="120.5,316.5,74.0,315.5" stroke="black" stroke-width="2" fill="none" />
<polyline points="75.5,315.0,125.0,263.5" stroke="black" stroke-width="2" fill="none" />
<polyline points="125.5,290.0,133.5,297.0,134.5,300.5,131.0,308.5,136.0,316.5,141.5,324.5,147.0,332.0,157.0,339.5" stroke="black" stroke-width="2" fill="none" />
<polyline points="130.5,355.5,119.0,347.5,112.0,339.5,111.5,328.0,111.5,320.0,114.5,312.0,119.5,304.0,127.5,295.5,123.0,299.5,115.0,307.5,115.0,318.5" stroke="black" stroke-width="2" fill="none" />
<polyline points="70.5,295.0,119.5,294.0,170.0,293.5,219.0,293.5,265.5,293.5,312.0,294.0,363.5,289.0,415.0,287.0,464.5,284.5" stroke="black" stroke-width="2" fill="none" />
<polyline points="426.5,175.0,378.5,171.5,328.0,170.5,278.0,169.5,228.0,167.0,178.5,166.0" stroke="black" stroke-width="2" fill="none" />
<polyline points="180.5,158.0,188.0,154.0" stroke="black" stroke-width="2" fill="none" />
<polyline points="186.5,161.0,175.0,169.5" stroke="black" stroke-width="2" fill="none" />
<polyline points="158.0,156.5,166.5,166.5,174.5,161.0,173.5,162.0,164.5,174.5,154.5,183.0,142.5,191.0,134.5,199.0,126.0,207.0,118.0,215.0,112.0,223.0,106.0,231.0,100.5,239.0,96.5,247.0,93.0,255.0,88.0,262.5,85.0,270.5,82.5,278.5,81.0,286.5,78.5,294.5,75.5,302.5,76.0,310.5,75.0,318.5,75.0,326.5,75.0,334.0,76.0,342.0,75.0,350.0,76.5,358.5,79.5,366.5,79.0,374.5,82.0,382.5,85.0,390.5,87.5,398.5,90.5,406.5,94.5,414.0,99.5,422.0,103.5,430.0,111.5,438.0,117.5,446.0,125.5,454.5,134.0,462.5,140.5,470.5,149.5,478.5,160.5,486.5,171.5,494.5" stroke="black" stroke-width="2" fill="none" />
<polyline points="186.0,506.0,175.0,502.0,162.5,494.0,152.5,487.5,142.5,479.5,134.0,471.5,125.5,466.5,115.5,454.5,108.0,446.5,101.5,438.5,94.5,431.0,90.5,423.5,85.0,416.5,81.0,408.5,78.0,399.5,74.0,391.5,72.0,383.5,71.5,375.5,67.5,370.5,68.0,362.5,66.5,354.5,65.5,346.5,66.0,338.5,66.0,330.0,66.5,322.5,66.5,314.5,67.5,306.5,69.0,298.0,69.5,289.5,73.0,281.0,76.0,272.0,77.5,264.0,81.5,256.5,85.5,248.5,89.5,240.5,95.5,232.5,100.5,224.5,105.5,217.0,112.5,209.0,120.5,200.5,129.5,192.5,137.5,184.5,144.5,179.5,156.5,171.5,157.0,163.0,151.0,154.0,147.0,146.0,142.5,138.0,139.0,130.0,137.0,122.0,134.5,114.0,133.5,106.0,130.5,98.5,130.5,90.5,131.5,83.0,130.0,78.5" stroke="black" stroke-width="2" fill="none" />
<polyline points="128.0,78.0,128.0,85.5,133.0,91.5,135.0,99.5,137.0,107.5,140.0,116.5,143.0,125.5,146.0,133.5,151.0,143.0,157.5,152.5,161.0,160.5" stroke="black" stroke-width="2" fill="none" />
<polyline points="161.5,164.0,154.0,157.0" stroke="black" stroke-width="2" fill="none" />
<polyline points="158.0,168.0,150.5,174.0,141.5,181.5,133.5,189.0,125.5,197.0,118.0,204.0,110.0,212.5,102.0,224.5,94.0,235.0,86.0,250.0,78.0,265.5" stroke="black" stroke-width="2" fill="none" />
<polyline points="92.0,255.5,99.5,242.5,107.5,228.5,115.0,216.0,122.5,209.0,131.0,201.0,138.5,193.0,146.5,188.0,154.5,180.0,162.5,175.0,170.5,170.5,178.5,166.5,186.5,161.5,195.0,158.0,203.5,155.0,212.0,151.5,220.0,149.5,228.0,148.0,239.0,151.0" stroke="black" stroke-width="2" fill="none" />
<polyline points="227.5,148.5,232.5,156.0,234.5,164.0" stroke="black" stroke-width="2" fill="none" />
<polyline points="130.0,232.5,179.0,232.5,226.5,236.0,276.5,237.0,329.5,237.0,380.0,239.5,428.5,238.0,480.0,238.0" stroke="black" stroke-width="2" fill="none" />
<polyline points="458.5,235.5,449.5,219.5,441.0,212.5,436.0,204.5,427.0,197.5,419.0,191.5,412.0,183.5,404.0,178.5,396.0,174.0,391.0,170.0,383.0,166.5,375.0,161.5,367.0,157.5,359.0,154.5,351.5,151.5,342.5,148.5,335.0,145.0,327.0,142.0,318.5,142.0,310.0,139.0,302.0,139.0,294.0,136.0,286.5,136.0,278.5,136.0,270.5,136.0,262.5,136.0,254.5,136.0,246.5,137.0,238.5,139.5,226.0,140.5,218.0,143.5,210.0,145.0,198.0,149.5,190.0,155.0,200.0,148.0,197.5,140.5,195.0,132.5,192.0,124.5,189.0,117.5,188.0,110.0,186.5,101.5,185.5,93.5,185.5,85.0,183.5,80.0,183.5,72.0,182.5,64.0,183.0,56.5,185.0,48.5,185.0,40.5,186.5,32.5,188.5,24.5,190.5,16.5,193.0,8.0,197.0,8.0,193.0,8.0" stroke="black" stroke-width="2" fill="none" />
<polyline points="181.0,82.5,130.5,82.0" stroke="black" stroke-width="2" fill="none" />
<polyline points="373.0,169.0,384.5,177.0,397.0,185.0,408.5,193.0,418.5,201.0,427.0,209.0,435.0,216.5,439.5,224.5,445.0,232.5,451.0,240.0,454.5,248.0,457.0,256.0,460.0,264.0,460.0,272.0,463.5,280.5,463.5,288.5,464.0,296.5,464.0,304.5,464.0,312.5,462.0,321.0,461.0,329.0,461.0,337.0,458.0,345.0,458.0,353.0,455.0,360.5,453.0,368.0,452.5,376.0,449.5,384.0,448.0,392.0,447.0,400.0,443.5,408.0,443.0,416.0,440.0,424.0,440.0,431.5,435.0,435.5,436.0,439.5,444.0,452.5" stroke="black" stroke-width="2" fill="none" />
<polyline points="252.5,389.0,244.5,381.0" stroke="black" stroke-width="2" fill="none" />
<polyline points="260.0,396.0,260.0,400.5,259.5,392.0,255.0,386.0,250.0,377.5,245.0,369.0,238.5,361.0,230.5,353.0" stroke="black" stroke-width="2" fill="none" />
<polyline points="228.0,345.0,235.5,353.0,244.5,361.0,250.5,369.5,256.5,377.5,262.0,385.5,266.5,393.5,269.0,401.5,271.0,410.0,272.5,418.0,275.5,426.0,275.5,434.5,277.5,442.5,277.5,450.5,278.0,458.5,278.0,466.0,278.5,474.0,275.5,482.5,282.5,484.5" stroke="black" stroke-width="2" fill="none" />
<polyline points="243.5,773.0,235.5,784.0,227.5,792.0,220.0,800.0,212.0,804.5,204.0,805.5,196.0,807.5,188.0,807.5,180.0,807.5,173.5,804.0,165.5,804.0,160.5,801.0,152.0,800.0,145.0,797.5,137.0,796.0,128.0,794.0,119.5,793.0,111.5,793.0,106.5,791.0,99.0,790.0,91.0,790.5,82.5,791.0,74.5,791.5,66.5,792.0,59.5,793.0,51.5,796.0,43.0,798.5,35.0,801.5,26.0,806.0,18.0,813.0,10.0,820.5,5.0,831.5,3.0,835.5,7.0,826.5,11.5,819.0,19.5,810.5,28.0,805.5,38.5,797.5" stroke="black" stroke-width="2" fill="none" />
<polyline points="2.5,865.5,7.5,873.5,16.0,881.5,19.0,889.5,23.0,897.0,30.0,905.5,42.0,914.0" stroke="black" stroke-width="2" fill="none" />
<polyline points="12.5,877.5,4.5,869.0" stroke="black" stroke-width="2" fill="none" />
<polyline points="421.0,519.0,434.5,511.0,442.5,503.5,450.5,495.5,455.5,487.5,456.5,479.5,456.5,471.5,455.5,463.5,452.5,455.5,447.0,447.0,442.0,440.0,443.0,431.5,446.0,423.5,447.0,415.5,449.0,407.5,452.0,400.0,453.0,392.0,455.0,384.0,458.5,376.5,459.5,368.5,461.5,360.5,465.0,352.0,465.0,344.0,468.5,336.0,469.0,328.0,471.0,320.0,470.5,312.0,470.5,303.5,470.0,295.5,470.0,287.0,470.0,279.0,470.0,270.5,468.0,263.0,465.5,255.0,463.5,247.0,459.0,239.5,455.5,232.0,449.0,224.0,444.0,216.5,436.0,207.5,429.5,199.5,421.5,194.5,414.0,186.5,403.0,178.5" stroke="black" stroke-width="2" fill="none" />
</svg>